M48
;DRILL file {KiCad 4.0.5+dfsg1-4} date Tue Aug 15 04:46:42 2017
;FORMAT={-:-/ absolute / metric / decimal}
FMAT,2
METRIC,TZ
T1C0.300
T2C0.991
T3C1.100
T4C1.499
%
G90
G05
M71
T1
X42.2Y-108.9
X73.5Y-57.
X80.Y-95.
X98.5Y-95.7
X104.7Y-64.75
X118.8Y-95.
X139.Y-96.
X155.Y-95.2
X233.65Y-76.5
X252.8Y-115.7
X281.Y-116.55
X285.65Y-113.45
X287.85Y-112.5
X297.75Y-87.
X298.3Y-46.1
X321.05Y-116.45
X329.4Y-18.1
X346.7Y-97.35
X346.75Y-124.45
X363.55Y-48.4
X363.75Y-88.25
X364.5Y-47.35
X365.95Y-43.95
X368.3Y-43.15
X376.65Y-24.55
X377.1Y-25.3
X380.55Y-23.75
X382.Y-23.5
X385.55Y-32.95
X385.95Y-66.35
X386.3Y-46.55
X387.05Y-68.8
X387.85Y-64.65
X388.8Y-59.2
X389.6Y-45.45
X389.6Y-116.45
X390.3Y-37.3
X390.45Y-65.45
X394.45Y-45.45
X400.9Y-57.7
X401.7Y-46.5
X402.7Y-79.3
X405.15Y-58.6
X407.4Y-97.35
X408.25Y-112.65
X409.Y-113.45
X409.8Y-102.3
X414.15Y-23.
X414.2Y-23.75
X414.9Y-48.2
X415.3Y-45.6
X418.75Y-41.5
X419.75Y-23.75
X419.8Y-58.25
X421.7Y-46.5
X421.9Y-98.2
X422.65Y-77.75
X423.45Y-78.5
X426.25Y-77.25
X435.25Y-44.
X439.25Y-73.
X439.25Y-74.
X440.25Y-74.25
X440.3Y-21.85
X441.2Y-64.2
T2
X24.13Y-119.38
X25.4Y-62.23
X26.33Y-133.1
X27.94Y-81.28
X28.87Y-133.1
X31.75Y-119.38
X33.02Y-62.23
X33.02Y-100.33
X35.56Y-81.28
X38.1Y-22.86
X38.1Y-30.48
X40.64Y-100.33
X43.18Y-22.86
X43.18Y-30.48
X45.72Y-119.38
X48.06Y-133.05
X48.26Y-22.86
X48.26Y-30.48
X49.53Y-62.23
X49.53Y-100.33
X50.4Y-133.05
X52.74Y-133.05
X53.34Y-119.38
X54.61Y-81.28
X57.15Y-62.23
X57.15Y-100.33
X59.69Y-34.29
X59.69Y-43.18
X62.23Y-81.28
X62.23Y-100.33
X67.31Y-34.29
X67.31Y-43.18
X68.58Y-62.23
X68.58Y-119.38
X69.85Y-100.33
X73.66Y-81.28
X76.2Y-62.23
X76.2Y-119.38
X78.74Y-34.29
X78.74Y-43.18
X81.28Y-81.28
X81.28Y-100.33
X86.36Y-34.29
X86.36Y-43.18
X87.63Y-62.23
X87.63Y-119.38
X88.9Y-100.33
X92.71Y-21.59
X92.71Y-29.21
X92.71Y-48.26
X92.71Y-55.88
X92.71Y-81.28
X95.25Y-62.23
X95.25Y-119.38
X100.33Y-81.28
X101.6Y-100.33
X106.68Y-62.23
X109.22Y-100.33
X110.49Y-119.38
X111.76Y-21.59
X111.76Y-29.21
X111.76Y-48.26
X111.76Y-55.88
X111.76Y-81.28
X114.3Y-62.23
X118.11Y-119.38
X119.38Y-81.28
X125.73Y-62.23
X127.Y-100.33
X129.54Y-119.38
X130.81Y-48.26
X130.81Y-55.88
X130.81Y-81.28
X133.35Y-62.23
X134.62Y-100.33
X137.16Y-119.38
X138.43Y-81.28
X139.7Y-21.59
X139.7Y-29.21
X142.24Y-100.33
X144.78Y-62.23
X149.86Y-48.26
X149.86Y-55.88
X149.86Y-81.28
X149.86Y-100.33
X152.4Y-62.23
X157.48Y-81.28
X157.48Y-100.33
X158.75Y-21.59
X158.75Y-29.21
X163.83Y-62.23
X165.1Y-100.33
X165.1Y-119.38
X168.91Y-48.26
X168.91Y-55.88
X168.91Y-81.28
X171.45Y-62.23
X172.72Y-119.38
X176.53Y-81.28
X176.53Y-100.33
X177.8Y-21.59
X177.8Y-29.21
X182.88Y-62.23
X184.15Y-100.33
X186.69Y-119.38
X187.96Y-48.26
X187.96Y-55.88
X187.96Y-81.28
X190.5Y-62.23
X194.31Y-119.38
X195.58Y-81.28
X196.85Y-21.59
X196.85Y-29.21
X196.85Y-100.33
X201.93Y-62.23
X204.47Y-100.33
X207.01Y-48.26
X207.01Y-55.88
X207.01Y-81.28
X207.01Y-119.38
X209.55Y-62.23
X214.63Y-81.28
X214.63Y-119.38
X215.9Y-100.33
X220.98Y-62.23
X223.52Y-100.33
X226.06Y-81.28
X226.06Y-119.38
X228.6Y-62.23
X233.68Y-81.28
X233.68Y-119.38
X234.95Y-100.33
X240.03Y-34.29
X240.03Y-43.18
X240.03Y-62.23
X242.57Y-100.33
X245.11Y-81.28
X247.65Y-34.29
X247.65Y-43.18
X247.65Y-62.23
X251.46Y-100.33
X252.73Y-81.28
X254.Y-34.29
X254.Y-43.18
X259.08Y-62.23
X259.08Y-100.33
X260.35Y-119.38
X261.62Y-34.29
X261.62Y-43.18
X264.16Y-81.28
X264.76Y-133.15
X266.7Y-62.23
X267.1Y-133.15
X267.97Y-119.38
X269.24Y-34.29
X269.24Y-43.18
X269.44Y-133.15
X271.78Y-81.28
X274.32Y-100.33
X276.86Y-34.29
X276.86Y-43.18
X281.94Y-100.33
X285.75Y-119.38
X288.29Y-34.29
X288.29Y-43.18
X288.29Y-90.17
X293.37Y-119.38
X295.91Y-34.29
X295.91Y-43.18
X295.91Y-90.17
X309.69Y-34.35
X309.74Y-43.05
X310.92Y-108.
X310.92Y-112.
X311.15Y-119.38
X316.23Y-62.23
X317.31Y-34.35
X317.36Y-43.05
X318.77Y-119.38
X321.08Y-108.
X321.08Y-112.
X323.85Y-62.23
X324.34Y-34.5
X330.2Y-100.33
X330.2Y-119.38
X331.47Y-43.18
X331.96Y-34.5
X334.03Y-30.45
X335.28Y-62.23
X336.52Y-34.5
X336.57Y-30.45
X337.82Y-100.33
X337.82Y-119.38
X339.09Y-43.18
X342.9Y-62.23
X346.68Y-34.5
X348.92Y-108.
X348.92Y-112.
X349.25Y-119.38
X354.33Y-62.23
X354.64Y-42.9
X354.79Y-34.4
X356.87Y-119.38
X359.08Y-108.
X359.08Y-112.
X361.95Y-62.23
X362.26Y-42.9
X362.41Y-34.4
X368.24Y-80.95
X368.3Y-49.54
X368.3Y-57.16
X368.3Y-68.29
X368.3Y-75.91
X368.34Y-119.15
X368.49Y-99.9
X372.5Y-34.56
X372.5Y-37.94
X372.5Y-41.25
X373.07Y-61.95
X375.86Y-80.95
X375.96Y-119.15
X376.11Y-99.9
X376.43Y-56.9
X378.97Y-56.9
X382.66Y-34.56
X382.66Y-37.94
X382.66Y-41.25
X383.23Y-61.95
X392.43Y-43.18
X397.51Y-38.1
X397.51Y-62.23
X397.51Y-81.28
X397.51Y-100.33
X400.05Y-38.1
X400.05Y-43.18
X405.13Y-62.23
X405.13Y-81.28
X405.13Y-100.33
X408.94Y-43.18
X416.56Y-43.18
X416.56Y-62.23
X416.56Y-81.28
X416.56Y-100.33
X416.56Y-119.38
X418.338Y-38.1
X420.878Y-38.1
X424.18Y-62.23
X424.18Y-81.28
X424.18Y-100.33
X424.18Y-119.38
X425.45Y-49.53
X425.45Y-57.15
X429.82Y-62.
X430.53Y-71.12
X430.53Y-109.22
X433.73Y-56.85
X436.27Y-56.85
X437.896Y-38.1
X438.15Y-71.12
X438.15Y-109.22
X439.98Y-62.
X440.436Y-38.1
T3
X391.16Y-19.05
X391.16Y-34.29
X393.7Y-19.05
X393.7Y-34.29
X396.24Y-19.05
X396.24Y-34.29
X398.78Y-19.05
X398.78Y-34.29
X401.32Y-19.05
X401.32Y-34.29
X403.86Y-19.05
X403.86Y-34.29
X406.4Y-19.05
X406.4Y-34.29
X408.94Y-19.05
X408.94Y-34.29
X411.48Y-19.05
X411.48Y-34.29
X414.02Y-19.05
X414.02Y-34.29
X416.56Y-19.05
X416.56Y-34.29
X419.1Y-19.05
X419.1Y-34.29
X421.64Y-19.05
X421.64Y-34.29
X424.18Y-19.05
X424.18Y-24.13
X424.18Y-26.67
X424.18Y-34.29
X426.72Y-19.05
X426.72Y-24.13
X426.72Y-26.67
X426.72Y-34.29
X429.26Y-19.05
X429.26Y-24.13
X429.26Y-26.67
X429.26Y-34.29
X431.8Y-19.05
X431.8Y-24.13
X431.8Y-26.67
X431.8Y-34.29
X434.34Y-19.05
X434.34Y-34.29
X436.88Y-19.05
X436.88Y-34.29
X439.42Y-19.05
X439.42Y-24.13
X439.42Y-26.67
X439.42Y-29.21
X439.42Y-34.29
T4
X21.59Y-22.86
X21.59Y-49.847
X23.955Y-106.998
X23.973Y-126.048
X26.352Y-68.897
X27.94Y-20.32
X27.94Y-47.307
X28.735Y-87.947
X30.305Y-104.458
X30.323Y-123.508
X32.703Y-66.358
X33.498Y-106.998
X35.085Y-85.407
X39.848Y-104.458
X40.64Y-49.847
X45.387Y-106.998
X45.402Y-126.048
X46.99Y-47.307
X47.784Y-126.048
X50.165Y-68.897
X51.737Y-104.458
X51.752Y-123.508
X54.134Y-123.508
X54.927Y-87.947
X56.515Y-66.358
X59.69Y-22.86
X59.69Y-49.847
X61.277Y-85.407
X64.453Y-106.998
X66.04Y-20.32
X66.04Y-47.307
X66.834Y-126.048
X69.215Y-68.897
X70.802Y-104.458
X71.596Y-126.048
X73.184Y-123.508
X73.977Y-87.947
X75.565Y-66.358
X77.946Y-123.508
X78.74Y-22.86
X78.74Y-49.847
X80.328Y-85.407
X83.502Y-106.998
X85.09Y-20.32
X85.09Y-47.307
X88.265Y-68.897
X88.265Y-126.048
X89.852Y-104.458
X93.027Y-87.947
X94.615Y-66.358
X94.615Y-123.508
X97.79Y-22.86
X97.79Y-49.847
X99.377Y-85.407
X102.552Y-106.998
X104.14Y-20.32
X104.14Y-47.307
X107.315Y-68.897
X108.902Y-104.458
X109.677Y-126.048
X112.078Y-87.947
X113.665Y-66.358
X116.027Y-123.508
X116.84Y-22.86
X116.84Y-49.847
X116.84Y-126.048
X118.428Y-85.407
X119.205Y-126.048
X121.602Y-106.998
X123.19Y-20.32
X123.19Y-47.307
X123.19Y-123.508
X125.555Y-123.508
X126.365Y-68.897
X127.952Y-104.458
X131.128Y-87.947
X132.715Y-66.358
X133.477Y-126.048
X135.89Y-49.847
X137.478Y-85.407
X139.827Y-123.508
X140.652Y-106.998
X140.652Y-126.048
X142.24Y-47.307
X143.034Y-126.048
X145.415Y-22.86
X145.415Y-68.897
X147.002Y-104.458
X147.002Y-123.508
X147.796Y-126.048
X149.384Y-123.508
X150.178Y-87.947
X151.765Y-20.32
X151.765Y-66.358
X154.146Y-123.508
X154.94Y-49.847
X156.528Y-85.407
X159.702Y-106.998
X161.29Y-47.307
X162.084Y-126.048
X164.462Y-126.048
X164.465Y-22.86
X164.465Y-68.897
X166.052Y-104.458
X168.434Y-123.508
X169.228Y-87.947
X170.812Y-123.508
X170.815Y-20.32
X170.815Y-66.358
X171.615Y-126.048
X173.99Y-49.847
X175.578Y-85.407
X177.965Y-123.508
X178.752Y-106.998
X180.34Y-47.307
X183.515Y-22.86
X183.515Y-68.897
X185.102Y-104.458
X188.278Y-87.947
X189.865Y-20.32
X189.865Y-66.358
X193.04Y-49.847
X194.628Y-85.407
X195.419Y-126.048
X197.802Y-106.998
X199.39Y-47.307
X201.769Y-123.508
X202.565Y-22.86
X202.565Y-68.897
X204.152Y-104.458
X207.328Y-87.947
X208.915Y-20.32
X208.915Y-66.358
X212.09Y-49.847
X213.678Y-85.407
X214.471Y-126.048
X216.852Y-106.998
X218.44Y-47.307
X219.246Y-126.048
X220.821Y-123.508
X221.615Y-68.897
X223.202Y-104.458
X225.596Y-123.508
X226.378Y-87.947
X227.965Y-66.358
X231.14Y-22.86
X231.14Y-49.847
X232.728Y-85.407
X235.902Y-106.998
X237.49Y-20.32
X237.49Y-47.307
X238.284Y-126.048
X240.665Y-68.897
X242.252Y-104.458
X243.046Y-126.048
X244.634Y-123.508
X245.428Y-87.947
X247.015Y-66.358
X249.396Y-123.508
X250.19Y-22.86
X250.19Y-49.847
X251.778Y-85.407
X254.952Y-106.998
X256.54Y-20.32
X256.54Y-47.307
X259.715Y-68.897
X261.302Y-104.458
X262.096Y-126.048
X264.478Y-87.947
X264.478Y-126.048
X266.065Y-66.358
X268.446Y-123.508
X269.24Y-22.86
X269.24Y-49.847
X270.828Y-85.407
X270.828Y-123.508
X271.605Y-106.998
X275.59Y-20.32
X275.59Y-47.307
X276.385Y-87.947
X277.955Y-104.458
X278.765Y-49.847
X281.146Y-106.998
X282.735Y-85.407
X283.528Y-68.897
X284.655Y-78.422
X285.115Y-47.307
X285.899Y-126.048
X287.195Y-84.772
X287.496Y-104.458
X288.29Y-22.86
X288.29Y-49.847
X289.878Y-66.358
X292.249Y-123.508
X294.64Y-20.32
X294.64Y-47.307
X312.102Y-22.86
X312.102Y-49.847
X312.102Y-68.897
X312.102Y-126.048
X318.452Y-20.32
X318.452Y-47.307
X318.452Y-66.358
X318.452Y-123.508
X331.152Y-22.86
X331.152Y-49.847
X331.152Y-68.897
X331.152Y-106.998
X331.152Y-126.048
X337.502Y-20.32
X337.502Y-47.307
X337.502Y-66.358
X337.502Y-104.458
X337.502Y-123.508
X350.202Y-22.86
X350.202Y-49.847
X350.202Y-68.897
X350.202Y-126.048
X356.552Y-20.32
X356.552Y-47.307
X356.552Y-66.358
X356.552Y-123.508
X374.015Y-49.847
X374.015Y-68.897
X374.015Y-87.947
X374.015Y-106.998
X380.365Y-47.307
X380.365Y-66.358
X380.365Y-85.407
X380.365Y-104.458
X383.54Y-126.048
X389.89Y-123.508
X393.065Y-49.847
X393.065Y-68.897
X393.065Y-87.947
X393.065Y-106.998
X399.415Y-47.307
X399.415Y-66.358
X399.415Y-85.407
X399.415Y-104.458
X412.115Y-49.847
X412.115Y-68.897
X412.115Y-87.947
X412.115Y-106.998
X412.115Y-126.048
X418.465Y-47.307
X418.465Y-66.358
X418.465Y-85.407
X418.465Y-104.458
X418.465Y-123.508
X429.895Y-78.422
X429.895Y-116.522
X431.165Y-49.847
X432.435Y-84.772
X432.435Y-122.872
X437.515Y-47.307
T2
X216.44Y-132.95G85X217.44Y-132.95
G05
X219.75Y-132.95G85X221.75Y-132.95
G05
X224.06Y-132.95G85X225.06Y-132.95
G05
T0
M30
