%FSLAX45Y45*%
G04 Gerber Fmt 4.5, Leading zero omitted, Abs format (unit mm)*
G04 Created by KiCad (PCBNEW 4.0.5+dfsg1-4) date Tue Aug 15 23:30:54 2017*
%MOMM*%
%LPD*%
G01*
G04 APERTURE LIST*
%ADD10C,0.127000*%
%ADD11C,0.200000*%
%ADD12C,0.150000*%
%ADD13C,0.300000*%
G04 APERTURE END LIST*
D10*
D11*
X43467253Y-4075000D02*
G75*
G03X43467253Y-4075000I-417253J0D01*
G01*
D12*
X3742961Y-3937000D02*
G75*
G03X3742961Y-3937000I-567961J0D01*
G01*
X23606961Y-3922000D02*
G75*
G03X23606961Y-3922000I-567961J0D01*
G01*
X21971000Y-3213100D02*
X9525000Y-3213100D01*
X21971000Y-4540250D02*
X21971000Y-3213100D01*
X9525000Y-4540250D02*
X21971000Y-4540250D01*
X9525000Y-3213100D02*
X9525000Y-4540250D01*
X1714500Y-13716000D02*
X1714500Y-1524000D01*
X44354750Y-13716000D02*
X1714500Y-13716000D01*
X44354750Y-1524000D02*
X44354750Y-13716000D01*
X1714500Y-1524000D02*
X44354750Y-1524000D01*
D11*
X4205000Y-10875000D02*
X4235000Y-10905000D01*
X4235000Y-10875000D02*
X4205000Y-10905000D01*
X7335000Y-5685000D02*
X7365000Y-5715000D01*
X7365000Y-5685000D02*
X7335000Y-5715000D01*
X7985000Y-9485000D02*
X8015000Y-9515000D01*
X8015000Y-9485000D02*
X7985000Y-9515000D01*
X9835000Y-9555000D02*
X9865000Y-9585000D01*
X9865000Y-9555000D02*
X9835000Y-9585000D01*
X10455000Y-6460000D02*
X10485000Y-6490000D01*
X10485000Y-6460000D02*
X10455000Y-6490000D01*
X11865000Y-9485000D02*
X11895000Y-9515000D01*
X11895000Y-9485000D02*
X11865000Y-9515000D01*
X13885000Y-9585000D02*
X13915000Y-9615000D01*
X13915000Y-9585000D02*
X13885000Y-9615000D01*
X15485000Y-9505000D02*
X15515000Y-9535000D01*
X15515000Y-9505000D02*
X15485000Y-9535000D01*
X23350000Y-7635000D02*
X23380000Y-7665000D01*
X23380000Y-7635000D02*
X23350000Y-7665000D01*
X25265000Y-11555000D02*
X25295000Y-11585000D01*
X25295000Y-11555000D02*
X25265000Y-11585000D01*
X28085000Y-11640000D02*
X28115000Y-11670000D01*
X28115000Y-11640000D02*
X28085000Y-11670000D01*
X28550000Y-11330000D02*
X28580000Y-11360000D01*
X28580000Y-11330000D02*
X28550000Y-11360000D01*
X28770000Y-11235000D02*
X28800000Y-11265000D01*
X28800000Y-11235000D02*
X28770000Y-11265000D01*
X29760000Y-8685000D02*
X29790000Y-8715000D01*
X29790000Y-8685000D02*
X29760000Y-8715000D01*
X29815000Y-4595000D02*
X29845000Y-4625000D01*
X29845000Y-4595000D02*
X29815000Y-4625000D01*
X32090000Y-11630000D02*
X32120000Y-11660000D01*
X32120000Y-11630000D02*
X32090000Y-11660000D01*
X32925000Y-1795000D02*
X32955000Y-1825000D01*
X32955000Y-1795000D02*
X32925000Y-1825000D01*
X34655000Y-9720000D02*
X34685000Y-9750000D01*
X34685000Y-9720000D02*
X34655000Y-9750000D01*
X34660000Y-12430000D02*
X34690000Y-12460000D01*
X34690000Y-12430000D02*
X34660000Y-12460000D01*
X36340000Y-4825000D02*
X36370000Y-4855000D01*
X36370000Y-4825000D02*
X36340000Y-4855000D01*
X36360000Y-8810000D02*
X36390000Y-8840000D01*
X36390000Y-8810000D02*
X36360000Y-8840000D01*
X36435000Y-4720000D02*
X36465000Y-4750000D01*
X36465000Y-4720000D02*
X36435000Y-4750000D01*
X36580000Y-4380000D02*
X36610000Y-4410000D01*
X36610000Y-4380000D02*
X36580000Y-4410000D01*
X36815000Y-4300000D02*
X36845000Y-4330000D01*
X36845000Y-4300000D02*
X36815000Y-4330000D01*
X37650000Y-2440000D02*
X37680000Y-2470000D01*
X37680000Y-2440000D02*
X37650000Y-2470000D01*
X37695000Y-2515000D02*
X37725000Y-2545000D01*
X37725000Y-2515000D02*
X37695000Y-2545000D01*
X38040000Y-2360000D02*
X38070000Y-2390000D01*
X38070000Y-2360000D02*
X38040000Y-2390000D01*
X38185000Y-2335000D02*
X38215000Y-2365000D01*
X38215000Y-2335000D02*
X38185000Y-2365000D01*
X38540000Y-3280000D02*
X38570000Y-3310000D01*
X38570000Y-3280000D02*
X38540000Y-3310000D01*
X38580000Y-6620000D02*
X38610000Y-6650000D01*
X38610000Y-6620000D02*
X38580000Y-6650000D01*
X38615000Y-4640000D02*
X38645000Y-4670000D01*
X38645000Y-4640000D02*
X38615000Y-4670000D01*
X38690000Y-6865000D02*
X38720000Y-6895000D01*
X38720000Y-6865000D02*
X38690000Y-6895000D01*
X38770000Y-6450000D02*
X38800000Y-6480000D01*
X38800000Y-6450000D02*
X38770000Y-6480000D01*
X38865000Y-5905000D02*
X38895000Y-5935000D01*
X38895000Y-5905000D02*
X38865000Y-5935000D01*
X38945000Y-4530000D02*
X38975000Y-4560000D01*
X38975000Y-4530000D02*
X38945000Y-4560000D01*
X38945000Y-11630000D02*
X38975000Y-11660000D01*
X38975000Y-11630000D02*
X38945000Y-11660000D01*
X39015000Y-3715000D02*
X39045000Y-3745000D01*
X39045000Y-3715000D02*
X39015000Y-3745000D01*
X39030000Y-6530000D02*
X39060000Y-6560000D01*
X39060000Y-6530000D02*
X39030000Y-6560000D01*
X39430000Y-4530000D02*
X39460000Y-4560000D01*
X39460000Y-4530000D02*
X39430000Y-4560000D01*
X40075000Y-5755000D02*
X40105000Y-5785000D01*
X40105000Y-5755000D02*
X40075000Y-5785000D01*
X40155000Y-4635000D02*
X40185000Y-4665000D01*
X40185000Y-4635000D02*
X40155000Y-4665000D01*
X40255000Y-7915000D02*
X40285000Y-7945000D01*
X40285000Y-7915000D02*
X40255000Y-7945000D01*
X40500000Y-5845000D02*
X40530000Y-5875000D01*
X40530000Y-5845000D02*
X40500000Y-5875000D01*
X40725000Y-9720000D02*
X40755000Y-9750000D01*
X40755000Y-9720000D02*
X40725000Y-9750000D01*
X40810000Y-11250000D02*
X40840000Y-11280000D01*
X40840000Y-11250000D02*
X40810000Y-11280000D01*
X40885000Y-11330000D02*
X40915000Y-11360000D01*
X40915000Y-11330000D02*
X40885000Y-11360000D01*
X40965000Y-10215000D02*
X40995000Y-10245000D01*
X40995000Y-10215000D02*
X40965000Y-10245000D01*
X41400000Y-2285000D02*
X41430000Y-2315000D01*
X41430000Y-2285000D02*
X41400000Y-2315000D01*
X41405000Y-2360000D02*
X41435000Y-2390000D01*
X41435000Y-2360000D02*
X41405000Y-2390000D01*
X41475000Y-4805000D02*
X41505000Y-4835000D01*
X41505000Y-4805000D02*
X41475000Y-4835000D01*
X41515000Y-4545000D02*
X41545000Y-4575000D01*
X41545000Y-4545000D02*
X41515000Y-4575000D01*
X41860000Y-4135000D02*
X41890000Y-4165000D01*
X41890000Y-4135000D02*
X41860000Y-4165000D01*
X41960000Y-2360000D02*
X41990000Y-2390000D01*
X41990000Y-2360000D02*
X41960000Y-2390000D01*
X41965000Y-5810000D02*
X41995000Y-5840000D01*
X41995000Y-5810000D02*
X41965000Y-5840000D01*
X42155000Y-4635000D02*
X42185000Y-4665000D01*
X42185000Y-4635000D02*
X42155000Y-4665000D01*
X42175000Y-9805000D02*
X42205000Y-9835000D01*
X42205000Y-9805000D02*
X42175000Y-9835000D01*
X42250000Y-7760000D02*
X42280000Y-7790000D01*
X42280000Y-7760000D02*
X42250000Y-7790000D01*
X42330000Y-7835000D02*
X42360000Y-7865000D01*
X42360000Y-7835000D02*
X42330000Y-7865000D01*
X42610000Y-7710000D02*
X42640000Y-7740000D01*
X42640000Y-7710000D02*
X42610000Y-7740000D01*
X43510000Y-4385000D02*
X43540000Y-4415000D01*
X43540000Y-4385000D02*
X43510000Y-4415000D01*
X43910000Y-7285000D02*
X43940000Y-7315000D01*
X43940000Y-7285000D02*
X43910000Y-7315000D01*
X43910000Y-7385000D02*
X43940000Y-7415000D01*
X43940000Y-7385000D02*
X43910000Y-7415000D01*
X44010000Y-7410000D02*
X44040000Y-7440000D01*
X44040000Y-7410000D02*
X44010000Y-7440000D01*
X44015000Y-2170000D02*
X44045000Y-2200000D01*
X44045000Y-2170000D02*
X44015000Y-2200000D01*
X44105000Y-6405000D02*
X44135000Y-6435000D01*
X44135000Y-6405000D02*
X44105000Y-6435000D01*
X2462530Y-11938000D02*
G75*
G03X2462530Y-11938000I-49530J0D01*
G01*
X2589530Y-6223000D02*
G75*
G03X2589530Y-6223000I-49530J0D01*
G01*
X2682530Y-13310000D02*
G75*
G03X2682530Y-13310000I-49530J0D01*
G01*
X2843530Y-8128000D02*
G75*
G03X2843530Y-8128000I-49530J0D01*
G01*
X2936530Y-13310000D02*
G75*
G03X2936530Y-13310000I-49530J0D01*
G01*
X3224530Y-11938000D02*
G75*
G03X3224530Y-11938000I-49530J0D01*
G01*
X3351530Y-6223000D02*
G75*
G03X3351530Y-6223000I-49530J0D01*
G01*
X3351530Y-10033000D02*
G75*
G03X3351530Y-10033000I-49530J0D01*
G01*
X3605530Y-8128000D02*
G75*
G03X3605530Y-8128000I-49530J0D01*
G01*
X3859530Y-2286000D02*
G75*
G03X3859530Y-2286000I-49530J0D01*
G01*
X3859530Y-3048000D02*
G75*
G03X3859530Y-3048000I-49530J0D01*
G01*
X4113530Y-10033000D02*
G75*
G03X4113530Y-10033000I-49530J0D01*
G01*
X4367530Y-2286000D02*
G75*
G03X4367530Y-2286000I-49530J0D01*
G01*
X4367530Y-3048000D02*
G75*
G03X4367530Y-3048000I-49530J0D01*
G01*
X4621530Y-11938000D02*
G75*
G03X4621530Y-11938000I-49530J0D01*
G01*
X4855530Y-13305000D02*
G75*
G03X4855530Y-13305000I-49530J0D01*
G01*
X4875530Y-2286000D02*
G75*
G03X4875530Y-2286000I-49530J0D01*
G01*
X4875530Y-3048000D02*
G75*
G03X4875530Y-3048000I-49530J0D01*
G01*
X5002530Y-6223000D02*
G75*
G03X5002530Y-6223000I-49530J0D01*
G01*
X5002530Y-10033000D02*
G75*
G03X5002530Y-10033000I-49530J0D01*
G01*
X5089530Y-13305000D02*
G75*
G03X5089530Y-13305000I-49530J0D01*
G01*
X5323530Y-13305000D02*
G75*
G03X5323530Y-13305000I-49530J0D01*
G01*
X5383530Y-11938000D02*
G75*
G03X5383530Y-11938000I-49530J0D01*
G01*
X5510530Y-8128000D02*
G75*
G03X5510530Y-8128000I-49530J0D01*
G01*
X5764530Y-6223000D02*
G75*
G03X5764530Y-6223000I-49530J0D01*
G01*
X5764530Y-10033000D02*
G75*
G03X5764530Y-10033000I-49530J0D01*
G01*
X6018530Y-3429000D02*
G75*
G03X6018530Y-3429000I-49530J0D01*
G01*
X6018530Y-4318000D02*
G75*
G03X6018530Y-4318000I-49530J0D01*
G01*
X6272530Y-8128000D02*
G75*
G03X6272530Y-8128000I-49530J0D01*
G01*
X6272530Y-10033000D02*
G75*
G03X6272530Y-10033000I-49530J0D01*
G01*
X6780530Y-3429000D02*
G75*
G03X6780530Y-3429000I-49530J0D01*
G01*
X6780530Y-4318000D02*
G75*
G03X6780530Y-4318000I-49530J0D01*
G01*
X6907530Y-6223000D02*
G75*
G03X6907530Y-6223000I-49530J0D01*
G01*
X6907530Y-11938000D02*
G75*
G03X6907530Y-11938000I-49530J0D01*
G01*
X7034530Y-10033000D02*
G75*
G03X7034530Y-10033000I-49530J0D01*
G01*
X7415530Y-8128000D02*
G75*
G03X7415530Y-8128000I-49530J0D01*
G01*
X7669530Y-6223000D02*
G75*
G03X7669530Y-6223000I-49530J0D01*
G01*
X7669530Y-11938000D02*
G75*
G03X7669530Y-11938000I-49530J0D01*
G01*
X7923530Y-3429000D02*
G75*
G03X7923530Y-3429000I-49530J0D01*
G01*
X7923530Y-4318000D02*
G75*
G03X7923530Y-4318000I-49530J0D01*
G01*
X8177530Y-8128000D02*
G75*
G03X8177530Y-8128000I-49530J0D01*
G01*
X8177530Y-10033000D02*
G75*
G03X8177530Y-10033000I-49530J0D01*
G01*
X8685530Y-3429000D02*
G75*
G03X8685530Y-3429000I-49530J0D01*
G01*
X8685530Y-4318000D02*
G75*
G03X8685530Y-4318000I-49530J0D01*
G01*
X8812530Y-6223000D02*
G75*
G03X8812530Y-6223000I-49530J0D01*
G01*
X8812530Y-11938000D02*
G75*
G03X8812530Y-11938000I-49530J0D01*
G01*
X8939530Y-10033000D02*
G75*
G03X8939530Y-10033000I-49530J0D01*
G01*
X9320530Y-2159000D02*
G75*
G03X9320530Y-2159000I-49530J0D01*
G01*
X9320530Y-2921000D02*
G75*
G03X9320530Y-2921000I-49530J0D01*
G01*
X9320530Y-4826000D02*
G75*
G03X9320530Y-4826000I-49530J0D01*
G01*
X9320530Y-5588000D02*
G75*
G03X9320530Y-5588000I-49530J0D01*
G01*
X9320530Y-8128000D02*
G75*
G03X9320530Y-8128000I-49530J0D01*
G01*
X9574530Y-6223000D02*
G75*
G03X9574530Y-6223000I-49530J0D01*
G01*
X9574530Y-11938000D02*
G75*
G03X9574530Y-11938000I-49530J0D01*
G01*
X10082530Y-8128000D02*
G75*
G03X10082530Y-8128000I-49530J0D01*
G01*
X10209530Y-10033000D02*
G75*
G03X10209530Y-10033000I-49530J0D01*
G01*
X10717530Y-6223000D02*
G75*
G03X10717530Y-6223000I-49530J0D01*
G01*
X10971530Y-10033000D02*
G75*
G03X10971530Y-10033000I-49530J0D01*
G01*
X11098530Y-11938000D02*
G75*
G03X11098530Y-11938000I-49530J0D01*
G01*
X11225530Y-2159000D02*
G75*
G03X11225530Y-2159000I-49530J0D01*
G01*
X11225530Y-2921000D02*
G75*
G03X11225530Y-2921000I-49530J0D01*
G01*
X11225530Y-4826000D02*
G75*
G03X11225530Y-4826000I-49530J0D01*
G01*
X11225530Y-5588000D02*
G75*
G03X11225530Y-5588000I-49530J0D01*
G01*
X11225530Y-8128000D02*
G75*
G03X11225530Y-8128000I-49530J0D01*
G01*
X11479530Y-6223000D02*
G75*
G03X11479530Y-6223000I-49530J0D01*
G01*
X11860530Y-11938000D02*
G75*
G03X11860530Y-11938000I-49530J0D01*
G01*
X11987530Y-8128000D02*
G75*
G03X11987530Y-8128000I-49530J0D01*
G01*
X12622530Y-6223000D02*
G75*
G03X12622530Y-6223000I-49530J0D01*
G01*
X12749530Y-10033000D02*
G75*
G03X12749530Y-10033000I-49530J0D01*
G01*
X13003530Y-11938000D02*
G75*
G03X13003530Y-11938000I-49530J0D01*
G01*
X13130530Y-4826000D02*
G75*
G03X13130530Y-4826000I-49530J0D01*
G01*
X13130530Y-5588000D02*
G75*
G03X13130530Y-5588000I-49530J0D01*
G01*
X13130530Y-8128000D02*
G75*
G03X13130530Y-8128000I-49530J0D01*
G01*
X13384530Y-6223000D02*
G75*
G03X13384530Y-6223000I-49530J0D01*
G01*
X13511530Y-10033000D02*
G75*
G03X13511530Y-10033000I-49530J0D01*
G01*
X13765530Y-11938000D02*
G75*
G03X13765530Y-11938000I-49530J0D01*
G01*
X13892530Y-8128000D02*
G75*
G03X13892530Y-8128000I-49530J0D01*
G01*
X14019530Y-2159000D02*
G75*
G03X14019530Y-2159000I-49530J0D01*
G01*
X14019530Y-2921000D02*
G75*
G03X14019530Y-2921000I-49530J0D01*
G01*
X14273530Y-10033000D02*
G75*
G03X14273530Y-10033000I-49530J0D01*
G01*
X14527530Y-6223000D02*
G75*
G03X14527530Y-6223000I-49530J0D01*
G01*
X15035530Y-4826000D02*
G75*
G03X15035530Y-4826000I-49530J0D01*
G01*
X15035530Y-5588000D02*
G75*
G03X15035530Y-5588000I-49530J0D01*
G01*
X15035530Y-8128000D02*
G75*
G03X15035530Y-8128000I-49530J0D01*
G01*
X15035530Y-10033000D02*
G75*
G03X15035530Y-10033000I-49530J0D01*
G01*
X15289530Y-6223000D02*
G75*
G03X15289530Y-6223000I-49530J0D01*
G01*
X15797530Y-8128000D02*
G75*
G03X15797530Y-8128000I-49530J0D01*
G01*
X15797530Y-10033000D02*
G75*
G03X15797530Y-10033000I-49530J0D01*
G01*
X15924530Y-2159000D02*
G75*
G03X15924530Y-2159000I-49530J0D01*
G01*
X15924530Y-2921000D02*
G75*
G03X15924530Y-2921000I-49530J0D01*
G01*
X16432530Y-6223000D02*
G75*
G03X16432530Y-6223000I-49530J0D01*
G01*
X16559530Y-10033000D02*
G75*
G03X16559530Y-10033000I-49530J0D01*
G01*
X16559530Y-11938000D02*
G75*
G03X16559530Y-11938000I-49530J0D01*
G01*
X16940530Y-4826000D02*
G75*
G03X16940530Y-4826000I-49530J0D01*
G01*
X16940530Y-5588000D02*
G75*
G03X16940530Y-5588000I-49530J0D01*
G01*
X16940530Y-8128000D02*
G75*
G03X16940530Y-8128000I-49530J0D01*
G01*
X17194530Y-6223000D02*
G75*
G03X17194530Y-6223000I-49530J0D01*
G01*
X17321530Y-11938000D02*
G75*
G03X17321530Y-11938000I-49530J0D01*
G01*
X17702530Y-8128000D02*
G75*
G03X17702530Y-8128000I-49530J0D01*
G01*
X17702530Y-10033000D02*
G75*
G03X17702530Y-10033000I-49530J0D01*
G01*
X17829530Y-2159000D02*
G75*
G03X17829530Y-2159000I-49530J0D01*
G01*
X17829530Y-2921000D02*
G75*
G03X17829530Y-2921000I-49530J0D01*
G01*
X18337530Y-6223000D02*
G75*
G03X18337530Y-6223000I-49530J0D01*
G01*
X18464530Y-10033000D02*
G75*
G03X18464530Y-10033000I-49530J0D01*
G01*
X18718530Y-11938000D02*
G75*
G03X18718530Y-11938000I-49530J0D01*
G01*
X18845530Y-4826000D02*
G75*
G03X18845530Y-4826000I-49530J0D01*
G01*
X18845530Y-5588000D02*
G75*
G03X18845530Y-5588000I-49530J0D01*
G01*
X18845530Y-8128000D02*
G75*
G03X18845530Y-8128000I-49530J0D01*
G01*
X19099530Y-6223000D02*
G75*
G03X19099530Y-6223000I-49530J0D01*
G01*
X19480530Y-11938000D02*
G75*
G03X19480530Y-11938000I-49530J0D01*
G01*
X19607530Y-8128000D02*
G75*
G03X19607530Y-8128000I-49530J0D01*
G01*
X19734530Y-2159000D02*
G75*
G03X19734530Y-2159000I-49530J0D01*
G01*
X19734530Y-2921000D02*
G75*
G03X19734530Y-2921000I-49530J0D01*
G01*
X19734530Y-10033000D02*
G75*
G03X19734530Y-10033000I-49530J0D01*
G01*
X20242530Y-6223000D02*
G75*
G03X20242530Y-6223000I-49530J0D01*
G01*
X20496530Y-10033000D02*
G75*
G03X20496530Y-10033000I-49530J0D01*
G01*
X20750530Y-4826000D02*
G75*
G03X20750530Y-4826000I-49530J0D01*
G01*
X20750530Y-5588000D02*
G75*
G03X20750530Y-5588000I-49530J0D01*
G01*
X20750530Y-8128000D02*
G75*
G03X20750530Y-8128000I-49530J0D01*
G01*
X20750530Y-11938000D02*
G75*
G03X20750530Y-11938000I-49530J0D01*
G01*
X21004530Y-6223000D02*
G75*
G03X21004530Y-6223000I-49530J0D01*
G01*
X21512530Y-8128000D02*
G75*
G03X21512530Y-8128000I-49530J0D01*
G01*
X21512530Y-11938000D02*
G75*
G03X21512530Y-11938000I-49530J0D01*
G01*
X21639530Y-10033000D02*
G75*
G03X21639530Y-10033000I-49530J0D01*
G01*
X21743530Y-13295000D02*
G75*
G03X21743530Y-13295000I-49530J0D01*
G01*
X21644000Y-13334530D02*
X21744000Y-13334530D01*
X21644000Y-13255470D02*
X21744000Y-13255470D01*
X21744000Y-13334530D02*
G75*
G03X21744000Y-13255470I0J39530D01*
G01*
X21644000Y-13255470D02*
G75*
G03X21644000Y-13334530I0J-39530D01*
G01*
X22124530Y-13295000D02*
G75*
G03X22124530Y-13295000I-49530J0D01*
G01*
X21975000Y-13334530D02*
X22175000Y-13334530D01*
X21975000Y-13255470D02*
X22175000Y-13255470D01*
X22175000Y-13334530D02*
G75*
G03X22175000Y-13255470I0J39530D01*
G01*
X21975000Y-13255470D02*
G75*
G03X21975000Y-13334530I0J-39530D01*
G01*
X22147530Y-6223000D02*
G75*
G03X22147530Y-6223000I-49530J0D01*
G01*
X22401530Y-10033000D02*
G75*
G03X22401530Y-10033000I-49530J0D01*
G01*
X22505530Y-13295000D02*
G75*
G03X22505530Y-13295000I-49530J0D01*
G01*
X22406000Y-13334530D02*
X22506000Y-13334530D01*
X22406000Y-13255470D02*
X22506000Y-13255470D01*
X22506000Y-13334530D02*
G75*
G03X22506000Y-13255470I0J39530D01*
G01*
X22406000Y-13255470D02*
G75*
G03X22406000Y-13334530I0J-39530D01*
G01*
X22655530Y-8128000D02*
G75*
G03X22655530Y-8128000I-49530J0D01*
G01*
X22655530Y-11938000D02*
G75*
G03X22655530Y-11938000I-49530J0D01*
G01*
X22909530Y-6223000D02*
G75*
G03X22909530Y-6223000I-49530J0D01*
G01*
X23417530Y-8128000D02*
G75*
G03X23417530Y-8128000I-49530J0D01*
G01*
X23417530Y-11938000D02*
G75*
G03X23417530Y-11938000I-49530J0D01*
G01*
X23544530Y-10033000D02*
G75*
G03X23544530Y-10033000I-49530J0D01*
G01*
X24052530Y-3429000D02*
G75*
G03X24052530Y-3429000I-49530J0D01*
G01*
X24052530Y-4318000D02*
G75*
G03X24052530Y-4318000I-49530J0D01*
G01*
X24052530Y-6223000D02*
G75*
G03X24052530Y-6223000I-49530J0D01*
G01*
X24306530Y-10033000D02*
G75*
G03X24306530Y-10033000I-49530J0D01*
G01*
X24560530Y-8128000D02*
G75*
G03X24560530Y-8128000I-49530J0D01*
G01*
X24814530Y-3429000D02*
G75*
G03X24814530Y-3429000I-49530J0D01*
G01*
X24814530Y-4318000D02*
G75*
G03X24814530Y-4318000I-49530J0D01*
G01*
X24814530Y-6223000D02*
G75*
G03X24814530Y-6223000I-49530J0D01*
G01*
X25195530Y-10033000D02*
G75*
G03X25195530Y-10033000I-49530J0D01*
G01*
X25322530Y-8128000D02*
G75*
G03X25322530Y-8128000I-49530J0D01*
G01*
X25449530Y-3429000D02*
G75*
G03X25449530Y-3429000I-49530J0D01*
G01*
X25449530Y-4318000D02*
G75*
G03X25449530Y-4318000I-49530J0D01*
G01*
X25957530Y-6223000D02*
G75*
G03X25957530Y-6223000I-49530J0D01*
G01*
X25957530Y-10033000D02*
G75*
G03X25957530Y-10033000I-49530J0D01*
G01*
X26084530Y-11938000D02*
G75*
G03X26084530Y-11938000I-49530J0D01*
G01*
X26211530Y-3429000D02*
G75*
G03X26211530Y-3429000I-49530J0D01*
G01*
X26211530Y-4318000D02*
G75*
G03X26211530Y-4318000I-49530J0D01*
G01*
X26465530Y-8128000D02*
G75*
G03X26465530Y-8128000I-49530J0D01*
G01*
X26525530Y-13315000D02*
G75*
G03X26525530Y-13315000I-49530J0D01*
G01*
X26719530Y-6223000D02*
G75*
G03X26719530Y-6223000I-49530J0D01*
G01*
X26759530Y-13315000D02*
G75*
G03X26759530Y-13315000I-49530J0D01*
G01*
X26846530Y-11938000D02*
G75*
G03X26846530Y-11938000I-49530J0D01*
G01*
X26973530Y-3429000D02*
G75*
G03X26973530Y-3429000I-49530J0D01*
G01*
X26973530Y-4318000D02*
G75*
G03X26973530Y-4318000I-49530J0D01*
G01*
X26993530Y-13315000D02*
G75*
G03X26993530Y-13315000I-49530J0D01*
G01*
X27227530Y-8128000D02*
G75*
G03X27227530Y-8128000I-49530J0D01*
G01*
X27481530Y-10033000D02*
G75*
G03X27481530Y-10033000I-49530J0D01*
G01*
X27735530Y-3429000D02*
G75*
G03X27735530Y-3429000I-49530J0D01*
G01*
X27735530Y-4318000D02*
G75*
G03X27735530Y-4318000I-49530J0D01*
G01*
X28243530Y-10033000D02*
G75*
G03X28243530Y-10033000I-49530J0D01*
G01*
X28624530Y-11938000D02*
G75*
G03X28624530Y-11938000I-49530J0D01*
G01*
X28878530Y-3429000D02*
G75*
G03X28878530Y-3429000I-49530J0D01*
G01*
X28878530Y-4318000D02*
G75*
G03X28878530Y-4318000I-49530J0D01*
G01*
X28878530Y-9017000D02*
G75*
G03X28878530Y-9017000I-49530J0D01*
G01*
X29386530Y-11938000D02*
G75*
G03X29386530Y-11938000I-49530J0D01*
G01*
X29640530Y-3429000D02*
G75*
G03X29640530Y-3429000I-49530J0D01*
G01*
X29640530Y-4318000D02*
G75*
G03X29640530Y-4318000I-49530J0D01*
G01*
X29640530Y-9017000D02*
G75*
G03X29640530Y-9017000I-49530J0D01*
G01*
X31018530Y-3435000D02*
G75*
G03X31018530Y-3435000I-49530J0D01*
G01*
X31023530Y-4305000D02*
G75*
G03X31023530Y-4305000I-49530J0D01*
G01*
X31141530Y-10800000D02*
G75*
G03X31141530Y-10800000I-49530J0D01*
G01*
X31141530Y-11200000D02*
G75*
G03X31141530Y-11200000I-49530J0D01*
G01*
X31164530Y-11938000D02*
G75*
G03X31164530Y-11938000I-49530J0D01*
G01*
X31672530Y-6223000D02*
G75*
G03X31672530Y-6223000I-49530J0D01*
G01*
X31780530Y-3435000D02*
G75*
G03X31780530Y-3435000I-49530J0D01*
G01*
X31785530Y-4305000D02*
G75*
G03X31785530Y-4305000I-49530J0D01*
G01*
X31926530Y-11938000D02*
G75*
G03X31926530Y-11938000I-49530J0D01*
G01*
X32157530Y-10800000D02*
G75*
G03X32157530Y-10800000I-49530J0D01*
G01*
X32157530Y-11200000D02*
G75*
G03X32157530Y-11200000I-49530J0D01*
G01*
X32434530Y-6223000D02*
G75*
G03X32434530Y-6223000I-49530J0D01*
G01*
X32483530Y-3450000D02*
G75*
G03X32483530Y-3450000I-49530J0D01*
G01*
X33069530Y-10033000D02*
G75*
G03X33069530Y-10033000I-49530J0D01*
G01*
X33069530Y-11938000D02*
G75*
G03X33069530Y-11938000I-49530J0D01*
G01*
X33196530Y-4318000D02*
G75*
G03X33196530Y-4318000I-49530J0D01*
G01*
X33245530Y-3450000D02*
G75*
G03X33245530Y-3450000I-49530J0D01*
G01*
X33452530Y-3045000D02*
G75*
G03X33452530Y-3045000I-49530J0D01*
G01*
X33577530Y-6223000D02*
G75*
G03X33577530Y-6223000I-49530J0D01*
G01*
X33701530Y-3450000D02*
G75*
G03X33701530Y-3450000I-49530J0D01*
G01*
X33706530Y-3045000D02*
G75*
G03X33706530Y-3045000I-49530J0D01*
G01*
X33831530Y-10033000D02*
G75*
G03X33831530Y-10033000I-49530J0D01*
G01*
X33831530Y-11938000D02*
G75*
G03X33831530Y-11938000I-49530J0D01*
G01*
X33958530Y-4318000D02*
G75*
G03X33958530Y-4318000I-49530J0D01*
G01*
X34339530Y-6223000D02*
G75*
G03X34339530Y-6223000I-49530J0D01*
G01*
X34717530Y-3450000D02*
G75*
G03X34717530Y-3450000I-49530J0D01*
G01*
X34941530Y-10800000D02*
G75*
G03X34941530Y-10800000I-49530J0D01*
G01*
X34941530Y-11200000D02*
G75*
G03X34941530Y-11200000I-49530J0D01*
G01*
X34974530Y-11938000D02*
G75*
G03X34974530Y-11938000I-49530J0D01*
G01*
X35482530Y-6223000D02*
G75*
G03X35482530Y-6223000I-49530J0D01*
G01*
X35513530Y-4290000D02*
G75*
G03X35513530Y-4290000I-49530J0D01*
G01*
X35528530Y-3440000D02*
G75*
G03X35528530Y-3440000I-49530J0D01*
G01*
X35736530Y-11938000D02*
G75*
G03X35736530Y-11938000I-49530J0D01*
G01*
X35957530Y-10800000D02*
G75*
G03X35957530Y-10800000I-49530J0D01*
G01*
X35957530Y-11200000D02*
G75*
G03X35957530Y-11200000I-49530J0D01*
G01*
X36244530Y-6223000D02*
G75*
G03X36244530Y-6223000I-49530J0D01*
G01*
X36275530Y-4290000D02*
G75*
G03X36275530Y-4290000I-49530J0D01*
G01*
X36290530Y-3440000D02*
G75*
G03X36290530Y-3440000I-49530J0D01*
G01*
X36873530Y-8095000D02*
G75*
G03X36873530Y-8095000I-49530J0D01*
G01*
X36879530Y-4954000D02*
G75*
G03X36879530Y-4954000I-49530J0D01*
G01*
X36879530Y-5716000D02*
G75*
G03X36879530Y-5716000I-49530J0D01*
G01*
X36879530Y-6829000D02*
G75*
G03X36879530Y-6829000I-49530J0D01*
G01*
X36879530Y-7591000D02*
G75*
G03X36879530Y-7591000I-49530J0D01*
G01*
X36883530Y-11915000D02*
G75*
G03X36883530Y-11915000I-49530J0D01*
G01*
X36898530Y-9990000D02*
G75*
G03X36898530Y-9990000I-49530J0D01*
G01*
X37299530Y-3456000D02*
G75*
G03X37299530Y-3456000I-49530J0D01*
G01*
X37299530Y-3794000D02*
G75*
G03X37299530Y-3794000I-49530J0D01*
G01*
X37299530Y-4125000D02*
G75*
G03X37299530Y-4125000I-49530J0D01*
G01*
X37356530Y-6195000D02*
G75*
G03X37356530Y-6195000I-49530J0D01*
G01*
X37635530Y-8095000D02*
G75*
G03X37635530Y-8095000I-49530J0D01*
G01*
X37645530Y-11915000D02*
G75*
G03X37645530Y-11915000I-49530J0D01*
G01*
X37660530Y-9990000D02*
G75*
G03X37660530Y-9990000I-49530J0D01*
G01*
X37692530Y-5690000D02*
G75*
G03X37692530Y-5690000I-49530J0D01*
G01*
X37946530Y-5690000D02*
G75*
G03X37946530Y-5690000I-49530J0D01*
G01*
X38315530Y-3456000D02*
G75*
G03X38315530Y-3456000I-49530J0D01*
G01*
X38315530Y-3794000D02*
G75*
G03X38315530Y-3794000I-49530J0D01*
G01*
X38315530Y-4125000D02*
G75*
G03X38315530Y-4125000I-49530J0D01*
G01*
X38372530Y-6195000D02*
G75*
G03X38372530Y-6195000I-49530J0D01*
G01*
X39292530Y-4318000D02*
G75*
G03X39292530Y-4318000I-49530J0D01*
G01*
X39800530Y-3810000D02*
G75*
G03X39800530Y-3810000I-49530J0D01*
G01*
X39800530Y-6223000D02*
G75*
G03X39800530Y-6223000I-49530J0D01*
G01*
X39800530Y-8128000D02*
G75*
G03X39800530Y-8128000I-49530J0D01*
G01*
X39800530Y-10033000D02*
G75*
G03X39800530Y-10033000I-49530J0D01*
G01*
X40054530Y-3810000D02*
G75*
G03X40054530Y-3810000I-49530J0D01*
G01*
X40054530Y-4318000D02*
G75*
G03X40054530Y-4318000I-49530J0D01*
G01*
X40562530Y-6223000D02*
G75*
G03X40562530Y-6223000I-49530J0D01*
G01*
X40562530Y-8128000D02*
G75*
G03X40562530Y-8128000I-49530J0D01*
G01*
X40562530Y-10033000D02*
G75*
G03X40562530Y-10033000I-49530J0D01*
G01*
X40943530Y-4318000D02*
G75*
G03X40943530Y-4318000I-49530J0D01*
G01*
X41705530Y-4318000D02*
G75*
G03X41705530Y-4318000I-49530J0D01*
G01*
X41705530Y-6223000D02*
G75*
G03X41705530Y-6223000I-49530J0D01*
G01*
X41705530Y-8128000D02*
G75*
G03X41705530Y-8128000I-49530J0D01*
G01*
X41705530Y-10033000D02*
G75*
G03X41705530Y-10033000I-49530J0D01*
G01*
X41705530Y-11938000D02*
G75*
G03X41705530Y-11938000I-49530J0D01*
G01*
X41883330Y-3810000D02*
G75*
G03X41883330Y-3810000I-49530J0D01*
G01*
X42137330Y-3810000D02*
G75*
G03X42137330Y-3810000I-49530J0D01*
G01*
X42467530Y-6223000D02*
G75*
G03X42467530Y-6223000I-49530J0D01*
G01*
X42467530Y-8128000D02*
G75*
G03X42467530Y-8128000I-49530J0D01*
G01*
X42467530Y-10033000D02*
G75*
G03X42467530Y-10033000I-49530J0D01*
G01*
X42467530Y-11938000D02*
G75*
G03X42467530Y-11938000I-49530J0D01*
G01*
X42594530Y-4953000D02*
G75*
G03X42594530Y-4953000I-49530J0D01*
G01*
X42594530Y-5715000D02*
G75*
G03X42594530Y-5715000I-49530J0D01*
G01*
X43031530Y-6200000D02*
G75*
G03X43031530Y-6200000I-49530J0D01*
G01*
X43102530Y-7112000D02*
G75*
G03X43102530Y-7112000I-49530J0D01*
G01*
X43102530Y-10922000D02*
G75*
G03X43102530Y-10922000I-49530J0D01*
G01*
X43422530Y-5685000D02*
G75*
G03X43422530Y-5685000I-49530J0D01*
G01*
X43676530Y-5685000D02*
G75*
G03X43676530Y-5685000I-49530J0D01*
G01*
X43839130Y-3810000D02*
G75*
G03X43839130Y-3810000I-49530J0D01*
G01*
X43864530Y-7112000D02*
G75*
G03X43864530Y-7112000I-49530J0D01*
G01*
X43864530Y-10922000D02*
G75*
G03X43864530Y-10922000I-49530J0D01*
G01*
X44047530Y-6200000D02*
G75*
G03X44047530Y-6200000I-49530J0D01*
G01*
X44093130Y-3810000D02*
G75*
G03X44093130Y-3810000I-49530J0D01*
G01*
X39116000Y-1850000D02*
X39116000Y-1960000D01*
X39061000Y-1905000D02*
X39171000Y-1905000D01*
X39116000Y-3374000D02*
X39116000Y-3484000D01*
X39061000Y-3429000D02*
X39171000Y-3429000D01*
X39370000Y-1850000D02*
X39370000Y-1960000D01*
X39315000Y-1905000D02*
X39425000Y-1905000D01*
X39370000Y-3374000D02*
X39370000Y-3484000D01*
X39315000Y-3429000D02*
X39425000Y-3429000D01*
X39624000Y-1850000D02*
X39624000Y-1960000D01*
X39569000Y-1905000D02*
X39679000Y-1905000D01*
X39624000Y-3374000D02*
X39624000Y-3484000D01*
X39569000Y-3429000D02*
X39679000Y-3429000D01*
X39878000Y-1850000D02*
X39878000Y-1960000D01*
X39823000Y-1905000D02*
X39933000Y-1905000D01*
X39878000Y-3374000D02*
X39878000Y-3484000D01*
X39823000Y-3429000D02*
X39933000Y-3429000D01*
X40132000Y-1850000D02*
X40132000Y-1960000D01*
X40077000Y-1905000D02*
X40187000Y-1905000D01*
X40132000Y-3374000D02*
X40132000Y-3484000D01*
X40077000Y-3429000D02*
X40187000Y-3429000D01*
X40386000Y-1850000D02*
X40386000Y-1960000D01*
X40331000Y-1905000D02*
X40441000Y-1905000D01*
X40386000Y-3374000D02*
X40386000Y-3484000D01*
X40331000Y-3429000D02*
X40441000Y-3429000D01*
X40640000Y-1850000D02*
X40640000Y-1960000D01*
X40585000Y-1905000D02*
X40695000Y-1905000D01*
X40640000Y-3374000D02*
X40640000Y-3484000D01*
X40585000Y-3429000D02*
X40695000Y-3429000D01*
X40894000Y-1850000D02*
X40894000Y-1960000D01*
X40839000Y-1905000D02*
X40949000Y-1905000D01*
X40894000Y-3374000D02*
X40894000Y-3484000D01*
X40839000Y-3429000D02*
X40949000Y-3429000D01*
X41148000Y-1850000D02*
X41148000Y-1960000D01*
X41093000Y-1905000D02*
X41203000Y-1905000D01*
X41148000Y-3374000D02*
X41148000Y-3484000D01*
X41093000Y-3429000D02*
X41203000Y-3429000D01*
X41402000Y-1850000D02*
X41402000Y-1960000D01*
X41347000Y-1905000D02*
X41457000Y-1905000D01*
X41402000Y-3374000D02*
X41402000Y-3484000D01*
X41347000Y-3429000D02*
X41457000Y-3429000D01*
X41656000Y-1850000D02*
X41656000Y-1960000D01*
X41601000Y-1905000D02*
X41711000Y-1905000D01*
X41656000Y-3374000D02*
X41656000Y-3484000D01*
X41601000Y-3429000D02*
X41711000Y-3429000D01*
X41910000Y-1850000D02*
X41910000Y-1960000D01*
X41855000Y-1905000D02*
X41965000Y-1905000D01*
X41910000Y-3374000D02*
X41910000Y-3484000D01*
X41855000Y-3429000D02*
X41965000Y-3429000D01*
X42164000Y-1850000D02*
X42164000Y-1960000D01*
X42109000Y-1905000D02*
X42219000Y-1905000D01*
X42164000Y-3374000D02*
X42164000Y-3484000D01*
X42109000Y-3429000D02*
X42219000Y-3429000D01*
X42418000Y-1850000D02*
X42418000Y-1960000D01*
X42363000Y-1905000D02*
X42473000Y-1905000D01*
X42418000Y-2358000D02*
X42418000Y-2468000D01*
X42363000Y-2413000D02*
X42473000Y-2413000D01*
X42418000Y-2612000D02*
X42418000Y-2722000D01*
X42363000Y-2667000D02*
X42473000Y-2667000D01*
X42418000Y-3374000D02*
X42418000Y-3484000D01*
X42363000Y-3429000D02*
X42473000Y-3429000D01*
X42672000Y-1850000D02*
X42672000Y-1960000D01*
X42617000Y-1905000D02*
X42727000Y-1905000D01*
X42672000Y-2358000D02*
X42672000Y-2468000D01*
X42617000Y-2413000D02*
X42727000Y-2413000D01*
X42672000Y-2612000D02*
X42672000Y-2722000D01*
X42617000Y-2667000D02*
X42727000Y-2667000D01*
X42672000Y-3374000D02*
X42672000Y-3484000D01*
X42617000Y-3429000D02*
X42727000Y-3429000D01*
X42926000Y-1850000D02*
X42926000Y-1960000D01*
X42871000Y-1905000D02*
X42981000Y-1905000D01*
X42926000Y-2358000D02*
X42926000Y-2468000D01*
X42871000Y-2413000D02*
X42981000Y-2413000D01*
X42926000Y-2612000D02*
X42926000Y-2722000D01*
X42871000Y-2667000D02*
X42981000Y-2667000D01*
X42926000Y-3374000D02*
X42926000Y-3484000D01*
X42871000Y-3429000D02*
X42981000Y-3429000D01*
X43180000Y-1850000D02*
X43180000Y-1960000D01*
X43125000Y-1905000D02*
X43235000Y-1905000D01*
X43180000Y-2358000D02*
X43180000Y-2468000D01*
X43125000Y-2413000D02*
X43235000Y-2413000D01*
X43180000Y-2612000D02*
X43180000Y-2722000D01*
X43125000Y-2667000D02*
X43235000Y-2667000D01*
X43180000Y-3374000D02*
X43180000Y-3484000D01*
X43125000Y-3429000D02*
X43235000Y-3429000D01*
X43434000Y-1850000D02*
X43434000Y-1960000D01*
X43379000Y-1905000D02*
X43489000Y-1905000D01*
X43434000Y-3374000D02*
X43434000Y-3484000D01*
X43379000Y-3429000D02*
X43489000Y-3429000D01*
X43688000Y-1850000D02*
X43688000Y-1960000D01*
X43633000Y-1905000D02*
X43743000Y-1905000D01*
X43688000Y-3374000D02*
X43688000Y-3484000D01*
X43633000Y-3429000D02*
X43743000Y-3429000D01*
X43942000Y-1850000D02*
X43942000Y-1960000D01*
X43887000Y-1905000D02*
X43997000Y-1905000D01*
X43942000Y-2358000D02*
X43942000Y-2468000D01*
X43887000Y-2413000D02*
X43997000Y-2413000D01*
X43942000Y-2612000D02*
X43942000Y-2722000D01*
X43887000Y-2667000D02*
X43997000Y-2667000D01*
X43942000Y-2866000D02*
X43942000Y-2976000D01*
X43887000Y-2921000D02*
X43997000Y-2921000D01*
X43942000Y-3374000D02*
X43942000Y-3484000D01*
X43887000Y-3429000D02*
X43997000Y-3429000D01*
X2211984Y-2338984D02*
X2211984Y-2233016D01*
X2106016Y-2233016D01*
X2106016Y-2338984D01*
X2211984Y-2338984D01*
X2211984Y-5037734D02*
X2211984Y-4931766D01*
X2106016Y-4931766D01*
X2106016Y-5037734D01*
X2211984Y-5037734D01*
X2448524Y-10752784D02*
X2448524Y-10646816D01*
X2342556Y-10646816D01*
X2342556Y-10752784D01*
X2448524Y-10752784D01*
X2450264Y-12657784D02*
X2450264Y-12551816D01*
X2344296Y-12551816D01*
X2344296Y-12657784D01*
X2450264Y-12657784D01*
X2688234Y-6942734D02*
X2688234Y-6836766D01*
X2582266Y-6836766D01*
X2582266Y-6942734D01*
X2688234Y-6942734D01*
X2846984Y-2084984D02*
X2846984Y-1979016D01*
X2741016Y-1979016D01*
X2741016Y-2084984D01*
X2846984Y-2084984D01*
X2846984Y-4783734D02*
X2846984Y-4677766D01*
X2741016Y-4677766D01*
X2741016Y-4783734D01*
X2846984Y-4783734D01*
X2926454Y-8847734D02*
X2926454Y-8741766D01*
X2820486Y-8741766D01*
X2820486Y-8847734D01*
X2926454Y-8847734D01*
X3083524Y-10498784D02*
X3083524Y-10392816D01*
X2977556Y-10392816D01*
X2977556Y-10498784D01*
X3083524Y-10498784D01*
X3085264Y-12403784D02*
X3085264Y-12297816D01*
X2979296Y-12297816D01*
X2979296Y-12403784D01*
X3085264Y-12403784D01*
X3323234Y-6688734D02*
X3323234Y-6582766D01*
X3217266Y-6582766D01*
X3217266Y-6688734D01*
X3323234Y-6688734D01*
X3402764Y-10752784D02*
X3402764Y-10646816D01*
X3296796Y-10646816D01*
X3296796Y-10752784D01*
X3402764Y-10752784D01*
X3561454Y-8593734D02*
X3561454Y-8487766D01*
X3455486Y-8487766D01*
X3455486Y-8593734D01*
X3561454Y-8593734D01*
X4037764Y-10498784D02*
X4037764Y-10392816D01*
X3931796Y-10392816D01*
X3931796Y-10498784D01*
X4037764Y-10498784D01*
X4116984Y-5037734D02*
X4116984Y-4931766D01*
X4011016Y-4931766D01*
X4011016Y-5037734D01*
X4116984Y-5037734D01*
X4591644Y-10752784D02*
X4591644Y-10646816D01*
X4485676Y-10646816D01*
X4485676Y-10752784D01*
X4591644Y-10752784D01*
X4593234Y-12657784D02*
X4593234Y-12551816D01*
X4487266Y-12551816D01*
X4487266Y-12657784D01*
X4593234Y-12657784D01*
X4751984Y-4783734D02*
X4751984Y-4677766D01*
X4646016Y-4677766D01*
X4646016Y-4783734D01*
X4751984Y-4783734D01*
X4831364Y-12657784D02*
X4831364Y-12551816D01*
X4725396Y-12551816D01*
X4725396Y-12657784D01*
X4831364Y-12657784D01*
X5069484Y-6942734D02*
X5069484Y-6836766D01*
X4963516Y-6836766D01*
X4963516Y-6942734D01*
X5069484Y-6942734D01*
X5226644Y-10498784D02*
X5226644Y-10392816D01*
X5120676Y-10392816D01*
X5120676Y-10498784D01*
X5226644Y-10498784D01*
X5228234Y-12403784D02*
X5228234Y-12297816D01*
X5122266Y-12297816D01*
X5122266Y-12403784D01*
X5228234Y-12403784D01*
X5466364Y-12403784D02*
X5466364Y-12297816D01*
X5360396Y-12297816D01*
X5360396Y-12403784D01*
X5466364Y-12403784D01*
X5545734Y-8847734D02*
X5545734Y-8741766D01*
X5439766Y-8741766D01*
X5439766Y-8847734D01*
X5545734Y-8847734D01*
X5704484Y-6688734D02*
X5704484Y-6582766D01*
X5598516Y-6582766D01*
X5598516Y-6688734D01*
X5704484Y-6688734D01*
X6021984Y-2338984D02*
X6021984Y-2233016D01*
X5916016Y-2233016D01*
X5916016Y-2338984D01*
X6021984Y-2338984D01*
X6021984Y-5037734D02*
X6021984Y-4931766D01*
X5916016Y-4931766D01*
X5916016Y-5037734D01*
X6021984Y-5037734D01*
X6180734Y-8593734D02*
X6180734Y-8487766D01*
X6074766Y-8487766D01*
X6074766Y-8593734D01*
X6180734Y-8593734D01*
X6498234Y-10752784D02*
X6498234Y-10646816D01*
X6392266Y-10646816D01*
X6392266Y-10752784D01*
X6498234Y-10752784D01*
X6656984Y-2084984D02*
X6656984Y-1979016D01*
X6551016Y-1979016D01*
X6551016Y-2084984D01*
X6656984Y-2084984D01*
X6656984Y-4783734D02*
X6656984Y-4677766D01*
X6551016Y-4677766D01*
X6551016Y-4783734D01*
X6656984Y-4783734D01*
X6736364Y-12657784D02*
X6736364Y-12551816D01*
X6630396Y-12551816D01*
X6630396Y-12657784D01*
X6736364Y-12657784D01*
X6974484Y-6942734D02*
X6974484Y-6836766D01*
X6868516Y-6836766D01*
X6868516Y-6942734D01*
X6974484Y-6942734D01*
X7133234Y-10498784D02*
X7133234Y-10392816D01*
X7027266Y-10392816D01*
X7027266Y-10498784D01*
X7133234Y-10498784D01*
X7212604Y-12657784D02*
X7212604Y-12551816D01*
X7106636Y-12551816D01*
X7106636Y-12657784D01*
X7212604Y-12657784D01*
X7371364Y-12403784D02*
X7371364Y-12297816D01*
X7265396Y-12297816D01*
X7265396Y-12403784D01*
X7371364Y-12403784D01*
X7450734Y-8847734D02*
X7450734Y-8741766D01*
X7344766Y-8741766D01*
X7344766Y-8847734D01*
X7450734Y-8847734D01*
X7609484Y-6688734D02*
X7609484Y-6582766D01*
X7503516Y-6582766D01*
X7503516Y-6688734D01*
X7609484Y-6688734D01*
X7847604Y-12403784D02*
X7847604Y-12297816D01*
X7741636Y-12297816D01*
X7741636Y-12403784D01*
X7847604Y-12403784D01*
X7926984Y-2338984D02*
X7926984Y-2233016D01*
X7821016Y-2233016D01*
X7821016Y-2338984D01*
X7926984Y-2338984D01*
X7926984Y-5037734D02*
X7926984Y-4931766D01*
X7821016Y-4931766D01*
X7821016Y-5037734D01*
X7926984Y-5037734D01*
X8085734Y-8593734D02*
X8085734Y-8487766D01*
X7979766Y-8487766D01*
X7979766Y-8593734D01*
X8085734Y-8593734D01*
X8403234Y-10752784D02*
X8403234Y-10646816D01*
X8297266Y-10646816D01*
X8297266Y-10752784D01*
X8403234Y-10752784D01*
X8561984Y-2084984D02*
X8561984Y-1979016D01*
X8456016Y-1979016D01*
X8456016Y-2084984D01*
X8561984Y-2084984D01*
X8561984Y-4783734D02*
X8561984Y-4677766D01*
X8456016Y-4677766D01*
X8456016Y-4783734D01*
X8561984Y-4783734D01*
X8879484Y-6942734D02*
X8879484Y-6836766D01*
X8773516Y-6836766D01*
X8773516Y-6942734D01*
X8879484Y-6942734D01*
X8879484Y-12657784D02*
X8879484Y-12551816D01*
X8773516Y-12551816D01*
X8773516Y-12657784D01*
X8879484Y-12657784D01*
X9038234Y-10498784D02*
X9038234Y-10392816D01*
X8932266Y-10392816D01*
X8932266Y-10498784D01*
X9038234Y-10498784D01*
X9355734Y-8847734D02*
X9355734Y-8741766D01*
X9249766Y-8741766D01*
X9249766Y-8847734D01*
X9355734Y-8847734D01*
X9514484Y-6688734D02*
X9514484Y-6582766D01*
X9408516Y-6582766D01*
X9408516Y-6688734D01*
X9514484Y-6688734D01*
X9514484Y-12403784D02*
X9514484Y-12297816D01*
X9408516Y-12297816D01*
X9408516Y-12403784D01*
X9514484Y-12403784D01*
X9831984Y-2338984D02*
X9831984Y-2233016D01*
X9726016Y-2233016D01*
X9726016Y-2338984D01*
X9831984Y-2338984D01*
X9831984Y-5037734D02*
X9831984Y-4931766D01*
X9726016Y-4931766D01*
X9726016Y-5037734D01*
X9831984Y-5037734D01*
X9990734Y-8593734D02*
X9990734Y-8487766D01*
X9884766Y-8487766D01*
X9884766Y-8593734D01*
X9990734Y-8593734D01*
X10308184Y-10752784D02*
X10308184Y-10646816D01*
X10202216Y-10646816D01*
X10202216Y-10752784D01*
X10308184Y-10752784D01*
X10466984Y-2084984D02*
X10466984Y-1979016D01*
X10361016Y-1979016D01*
X10361016Y-2084984D01*
X10466984Y-2084984D01*
X10466984Y-4783734D02*
X10466984Y-4677766D01*
X10361016Y-4677766D01*
X10361016Y-4783734D01*
X10466984Y-4783734D01*
X10784484Y-6942734D02*
X10784484Y-6836766D01*
X10678516Y-6836766D01*
X10678516Y-6942734D01*
X10784484Y-6942734D01*
X10943184Y-10498784D02*
X10943184Y-10392816D01*
X10837216Y-10392816D01*
X10837216Y-10498784D01*
X10943184Y-10498784D01*
X11020684Y-12657784D02*
X11020684Y-12551816D01*
X10914716Y-12551816D01*
X10914716Y-12657784D01*
X11020684Y-12657784D01*
X11260784Y-8847734D02*
X11260784Y-8741766D01*
X11154816Y-8741766D01*
X11154816Y-8847734D01*
X11260784Y-8847734D01*
X11419484Y-6688734D02*
X11419484Y-6582766D01*
X11313516Y-6582766D01*
X11313516Y-6688734D01*
X11419484Y-6688734D01*
X11655684Y-12403784D02*
X11655684Y-12297816D01*
X11549716Y-12297816D01*
X11549716Y-12403784D01*
X11655684Y-12403784D01*
X11736984Y-2338984D02*
X11736984Y-2233016D01*
X11631016Y-2233016D01*
X11631016Y-2338984D01*
X11736984Y-2338984D01*
X11736984Y-5037734D02*
X11736984Y-4931766D01*
X11631016Y-4931766D01*
X11631016Y-5037734D01*
X11736984Y-5037734D01*
X11736984Y-12657784D02*
X11736984Y-12551816D01*
X11631016Y-12551816D01*
X11631016Y-12657784D01*
X11736984Y-12657784D01*
X11895784Y-8593734D02*
X11895784Y-8487766D01*
X11789816Y-8487766D01*
X11789816Y-8593734D01*
X11895784Y-8593734D01*
X11973484Y-12657784D02*
X11973484Y-12551816D01*
X11867516Y-12551816D01*
X11867516Y-12657784D01*
X11973484Y-12657784D01*
X12213184Y-10752784D02*
X12213184Y-10646816D01*
X12107216Y-10646816D01*
X12107216Y-10752784D01*
X12213184Y-10752784D01*
X12371984Y-2084984D02*
X12371984Y-1979016D01*
X12266016Y-1979016D01*
X12266016Y-2084984D01*
X12371984Y-2084984D01*
X12371984Y-4783734D02*
X12371984Y-4677766D01*
X12266016Y-4677766D01*
X12266016Y-4783734D01*
X12371984Y-4783734D01*
X12371984Y-12403784D02*
X12371984Y-12297816D01*
X12266016Y-12297816D01*
X12266016Y-12403784D01*
X12371984Y-12403784D01*
X12608484Y-12403784D02*
X12608484Y-12297816D01*
X12502516Y-12297816D01*
X12502516Y-12403784D01*
X12608484Y-12403784D01*
X12689484Y-6942734D02*
X12689484Y-6836766D01*
X12583516Y-6836766D01*
X12583516Y-6942734D01*
X12689484Y-6942734D01*
X12848184Y-10498784D02*
X12848184Y-10392816D01*
X12742216Y-10392816D01*
X12742216Y-10498784D01*
X12848184Y-10498784D01*
X13165784Y-8847734D02*
X13165784Y-8741766D01*
X13059816Y-8741766D01*
X13059816Y-8847734D01*
X13165784Y-8847734D01*
X13324484Y-6688734D02*
X13324484Y-6582766D01*
X13218516Y-6582766D01*
X13218516Y-6688734D01*
X13324484Y-6688734D01*
X13400684Y-12657784D02*
X13400684Y-12551816D01*
X13294716Y-12551816D01*
X13294716Y-12657784D01*
X13400684Y-12657784D01*
X13641984Y-5037734D02*
X13641984Y-4931766D01*
X13536016Y-4931766D01*
X13536016Y-5037734D01*
X13641984Y-5037734D01*
X13800784Y-8593734D02*
X13800784Y-8487766D01*
X13694816Y-8487766D01*
X13694816Y-8593734D01*
X13800784Y-8593734D01*
X14035684Y-12403784D02*
X14035684Y-12297816D01*
X13929716Y-12297816D01*
X13929716Y-12403784D01*
X14035684Y-12403784D01*
X14118184Y-10752784D02*
X14118184Y-10646816D01*
X14012216Y-10646816D01*
X14012216Y-10752784D01*
X14118184Y-10752784D01*
X14118184Y-12657784D02*
X14118184Y-12551816D01*
X14012216Y-12551816D01*
X14012216Y-12657784D01*
X14118184Y-12657784D01*
X14276984Y-4783734D02*
X14276984Y-4677766D01*
X14171016Y-4677766D01*
X14171016Y-4783734D01*
X14276984Y-4783734D01*
X14356384Y-12657784D02*
X14356384Y-12551816D01*
X14250416Y-12551816D01*
X14250416Y-12657784D01*
X14356384Y-12657784D01*
X14594484Y-2338984D02*
X14594484Y-2233016D01*
X14488516Y-2233016D01*
X14488516Y-2338984D01*
X14594484Y-2338984D01*
X14594484Y-6942734D02*
X14594484Y-6836766D01*
X14488516Y-6836766D01*
X14488516Y-6942734D01*
X14594484Y-6942734D01*
X14753184Y-10498784D02*
X14753184Y-10392816D01*
X14647216Y-10392816D01*
X14647216Y-10498784D01*
X14753184Y-10498784D01*
X14753184Y-12403784D02*
X14753184Y-12297816D01*
X14647216Y-12297816D01*
X14647216Y-12403784D01*
X14753184Y-12403784D01*
X14832584Y-12657784D02*
X14832584Y-12551816D01*
X14726616Y-12551816D01*
X14726616Y-12657784D01*
X14832584Y-12657784D01*
X14991384Y-12403784D02*
X14991384Y-12297816D01*
X14885416Y-12297816D01*
X14885416Y-12403784D01*
X14991384Y-12403784D01*
X15070784Y-8847734D02*
X15070784Y-8741766D01*
X14964816Y-8741766D01*
X14964816Y-8847734D01*
X15070784Y-8847734D01*
X15229484Y-2084984D02*
X15229484Y-1979016D01*
X15123516Y-1979016D01*
X15123516Y-2084984D01*
X15229484Y-2084984D01*
X15229484Y-6688734D02*
X15229484Y-6582766D01*
X15123516Y-6582766D01*
X15123516Y-6688734D01*
X15229484Y-6688734D01*
X15467584Y-12403784D02*
X15467584Y-12297816D01*
X15361616Y-12297816D01*
X15361616Y-12403784D01*
X15467584Y-12403784D01*
X15546984Y-5037734D02*
X15546984Y-4931766D01*
X15441016Y-4931766D01*
X15441016Y-5037734D01*
X15546984Y-5037734D01*
X15705784Y-8593734D02*
X15705784Y-8487766D01*
X15599816Y-8487766D01*
X15599816Y-8593734D01*
X15705784Y-8593734D01*
X16023184Y-10752784D02*
X16023184Y-10646816D01*
X15917216Y-10646816D01*
X15917216Y-10752784D01*
X16023184Y-10752784D01*
X16181984Y-4783734D02*
X16181984Y-4677766D01*
X16076016Y-4677766D01*
X16076016Y-4783734D01*
X16181984Y-4783734D01*
X16261384Y-12657784D02*
X16261384Y-12551816D01*
X16155416Y-12551816D01*
X16155416Y-12657784D01*
X16261384Y-12657784D01*
X16499184Y-12657784D02*
X16499184Y-12551816D01*
X16393216Y-12551816D01*
X16393216Y-12657784D01*
X16499184Y-12657784D01*
X16499484Y-2338984D02*
X16499484Y-2233016D01*
X16393516Y-2233016D01*
X16393516Y-2338984D01*
X16499484Y-2338984D01*
X16499484Y-6942734D02*
X16499484Y-6836766D01*
X16393516Y-6836766D01*
X16393516Y-6942734D01*
X16499484Y-6942734D01*
X16658184Y-10498784D02*
X16658184Y-10392816D01*
X16552216Y-10392816D01*
X16552216Y-10498784D01*
X16658184Y-10498784D01*
X16896384Y-12403784D02*
X16896384Y-12297816D01*
X16790416Y-12297816D01*
X16790416Y-12403784D01*
X16896384Y-12403784D01*
X16975784Y-8847734D02*
X16975784Y-8741766D01*
X16869816Y-8741766D01*
X16869816Y-8847734D01*
X16975784Y-8847734D01*
X17134184Y-12403784D02*
X17134184Y-12297816D01*
X17028216Y-12297816D01*
X17028216Y-12403784D01*
X17134184Y-12403784D01*
X17134484Y-2084984D02*
X17134484Y-1979016D01*
X17028516Y-1979016D01*
X17028516Y-2084984D01*
X17134484Y-2084984D01*
X17134484Y-6688734D02*
X17134484Y-6582766D01*
X17028516Y-6582766D01*
X17028516Y-6688734D01*
X17134484Y-6688734D01*
X17214484Y-12657784D02*
X17214484Y-12551816D01*
X17108516Y-12551816D01*
X17108516Y-12657784D01*
X17214484Y-12657784D01*
X17451984Y-5037734D02*
X17451984Y-4931766D01*
X17346016Y-4931766D01*
X17346016Y-5037734D01*
X17451984Y-5037734D01*
X17610784Y-8593734D02*
X17610784Y-8487766D01*
X17504816Y-8487766D01*
X17504816Y-8593734D01*
X17610784Y-8593734D01*
X17849484Y-12403784D02*
X17849484Y-12297816D01*
X17743516Y-12297816D01*
X17743516Y-12403784D01*
X17849484Y-12403784D01*
X17928184Y-10752784D02*
X17928184Y-10646816D01*
X17822216Y-10646816D01*
X17822216Y-10752784D01*
X17928184Y-10752784D01*
X18086984Y-4783734D02*
X18086984Y-4677766D01*
X17981016Y-4677766D01*
X17981016Y-4783734D01*
X18086984Y-4783734D01*
X18404484Y-2338984D02*
X18404484Y-2233016D01*
X18298516Y-2233016D01*
X18298516Y-2338984D01*
X18404484Y-2338984D01*
X18404484Y-6942734D02*
X18404484Y-6836766D01*
X18298516Y-6836766D01*
X18298516Y-6942734D01*
X18404484Y-6942734D01*
X18563184Y-10498784D02*
X18563184Y-10392816D01*
X18457216Y-10392816D01*
X18457216Y-10498784D01*
X18563184Y-10498784D01*
X18880784Y-8847734D02*
X18880784Y-8741766D01*
X18774816Y-8741766D01*
X18774816Y-8847734D01*
X18880784Y-8847734D01*
X19039484Y-2084984D02*
X19039484Y-1979016D01*
X18933516Y-1979016D01*
X18933516Y-2084984D01*
X19039484Y-2084984D01*
X19039484Y-6688734D02*
X19039484Y-6582766D01*
X18933516Y-6582766D01*
X18933516Y-6688734D01*
X19039484Y-6688734D01*
X19356984Y-5037734D02*
X19356984Y-4931766D01*
X19251016Y-4931766D01*
X19251016Y-5037734D01*
X19356984Y-5037734D01*
X19515784Y-8593734D02*
X19515784Y-8487766D01*
X19409816Y-8487766D01*
X19409816Y-8593734D01*
X19515784Y-8593734D01*
X19594884Y-12657784D02*
X19594884Y-12551816D01*
X19488916Y-12551816D01*
X19488916Y-12657784D01*
X19594884Y-12657784D01*
X19833184Y-10752784D02*
X19833184Y-10646816D01*
X19727216Y-10646816D01*
X19727216Y-10752784D01*
X19833184Y-10752784D01*
X19991984Y-4783734D02*
X19991984Y-4677766D01*
X19886016Y-4677766D01*
X19886016Y-4783734D01*
X19991984Y-4783734D01*
X20229884Y-12403784D02*
X20229884Y-12297816D01*
X20123916Y-12297816D01*
X20123916Y-12403784D01*
X20229884Y-12403784D01*
X20309484Y-2338984D02*
X20309484Y-2233016D01*
X20203516Y-2233016D01*
X20203516Y-2338984D01*
X20309484Y-2338984D01*
X20309484Y-6942734D02*
X20309484Y-6836766D01*
X20203516Y-6836766D01*
X20203516Y-6942734D01*
X20309484Y-6942734D01*
X20468184Y-10498784D02*
X20468184Y-10392816D01*
X20362216Y-10392816D01*
X20362216Y-10498784D01*
X20468184Y-10498784D01*
X20785784Y-8847734D02*
X20785784Y-8741766D01*
X20679816Y-8741766D01*
X20679816Y-8847734D01*
X20785784Y-8847734D01*
X20944484Y-2084984D02*
X20944484Y-1979016D01*
X20838516Y-1979016D01*
X20838516Y-2084984D01*
X20944484Y-2084984D01*
X20944484Y-6688734D02*
X20944484Y-6582766D01*
X20838516Y-6582766D01*
X20838516Y-6688734D01*
X20944484Y-6688734D01*
X21261984Y-5037734D02*
X21261984Y-4931766D01*
X21156016Y-4931766D01*
X21156016Y-5037734D01*
X21261984Y-5037734D01*
X21420784Y-8593734D02*
X21420784Y-8487766D01*
X21314816Y-8487766D01*
X21314816Y-8593734D01*
X21420784Y-8593734D01*
X21500084Y-12657784D02*
X21500084Y-12551816D01*
X21394116Y-12551816D01*
X21394116Y-12657784D01*
X21500084Y-12657784D01*
X21738184Y-10752784D02*
X21738184Y-10646816D01*
X21632216Y-10646816D01*
X21632216Y-10752784D01*
X21738184Y-10752784D01*
X21896984Y-4783734D02*
X21896984Y-4677766D01*
X21791016Y-4677766D01*
X21791016Y-4783734D01*
X21896984Y-4783734D01*
X21977584Y-12657784D02*
X21977584Y-12551816D01*
X21871616Y-12551816D01*
X21871616Y-12657784D01*
X21977584Y-12657784D01*
X22135084Y-12403784D02*
X22135084Y-12297816D01*
X22029116Y-12297816D01*
X22029116Y-12403784D01*
X22135084Y-12403784D01*
X22214484Y-6942734D02*
X22214484Y-6836766D01*
X22108516Y-6836766D01*
X22108516Y-6942734D01*
X22214484Y-6942734D01*
X22373184Y-10498784D02*
X22373184Y-10392816D01*
X22267216Y-10392816D01*
X22267216Y-10498784D01*
X22373184Y-10498784D01*
X22612584Y-12403784D02*
X22612584Y-12297816D01*
X22506616Y-12297816D01*
X22506616Y-12403784D01*
X22612584Y-12403784D01*
X22690784Y-8847734D02*
X22690784Y-8741766D01*
X22584816Y-8741766D01*
X22584816Y-8847734D01*
X22690784Y-8847734D01*
X22849484Y-6688734D02*
X22849484Y-6582766D01*
X22743516Y-6582766D01*
X22743516Y-6688734D01*
X22849484Y-6688734D01*
X23166984Y-2338984D02*
X23166984Y-2233016D01*
X23061016Y-2233016D01*
X23061016Y-2338984D01*
X23166984Y-2338984D01*
X23166984Y-5037734D02*
X23166984Y-4931766D01*
X23061016Y-4931766D01*
X23061016Y-5037734D01*
X23166984Y-5037734D01*
X23325784Y-8593734D02*
X23325784Y-8487766D01*
X23219816Y-8487766D01*
X23219816Y-8593734D01*
X23325784Y-8593734D01*
X23643184Y-10752784D02*
X23643184Y-10646816D01*
X23537216Y-10646816D01*
X23537216Y-10752784D01*
X23643184Y-10752784D01*
X23801984Y-2084984D02*
X23801984Y-1979016D01*
X23696016Y-1979016D01*
X23696016Y-2084984D01*
X23801984Y-2084984D01*
X23801984Y-4783734D02*
X23801984Y-4677766D01*
X23696016Y-4677766D01*
X23696016Y-4783734D01*
X23801984Y-4783734D01*
X23881384Y-12657784D02*
X23881384Y-12551816D01*
X23775416Y-12551816D01*
X23775416Y-12657784D01*
X23881384Y-12657784D01*
X24119484Y-6942734D02*
X24119484Y-6836766D01*
X24013516Y-6836766D01*
X24013516Y-6942734D01*
X24119484Y-6942734D01*
X24278184Y-10498784D02*
X24278184Y-10392816D01*
X24172216Y-10392816D01*
X24172216Y-10498784D01*
X24278184Y-10498784D01*
X24357584Y-12657784D02*
X24357584Y-12551816D01*
X24251616Y-12551816D01*
X24251616Y-12657784D01*
X24357584Y-12657784D01*
X24516384Y-12403784D02*
X24516384Y-12297816D01*
X24410416Y-12297816D01*
X24410416Y-12403784D01*
X24516384Y-12403784D01*
X24595784Y-8847734D02*
X24595784Y-8741766D01*
X24489816Y-8741766D01*
X24489816Y-8847734D01*
X24595784Y-8847734D01*
X24754484Y-6688734D02*
X24754484Y-6582766D01*
X24648516Y-6582766D01*
X24648516Y-6688734D01*
X24754484Y-6688734D01*
X24992584Y-12403784D02*
X24992584Y-12297816D01*
X24886616Y-12297816D01*
X24886616Y-12403784D01*
X24992584Y-12403784D01*
X25071984Y-2338984D02*
X25071984Y-2233016D01*
X24966016Y-2233016D01*
X24966016Y-2338984D01*
X25071984Y-2338984D01*
X25071984Y-5037734D02*
X25071984Y-4931766D01*
X24966016Y-4931766D01*
X24966016Y-5037734D01*
X25071984Y-5037734D01*
X25230784Y-8593734D02*
X25230784Y-8487766D01*
X25124816Y-8487766D01*
X25124816Y-8593734D01*
X25230784Y-8593734D01*
X25548184Y-10752784D02*
X25548184Y-10646816D01*
X25442216Y-10646816D01*
X25442216Y-10752784D01*
X25548184Y-10752784D01*
X25706984Y-2084984D02*
X25706984Y-1979016D01*
X25601016Y-1979016D01*
X25601016Y-2084984D01*
X25706984Y-2084984D01*
X25706984Y-4783734D02*
X25706984Y-4677766D01*
X25601016Y-4677766D01*
X25601016Y-4783734D01*
X25706984Y-4783734D01*
X26024484Y-6942734D02*
X26024484Y-6836766D01*
X25918516Y-6836766D01*
X25918516Y-6942734D01*
X26024484Y-6942734D01*
X26183184Y-10498784D02*
X26183184Y-10392816D01*
X26077216Y-10392816D01*
X26077216Y-10498784D01*
X26183184Y-10498784D01*
X26262584Y-12657784D02*
X26262584Y-12551816D01*
X26156616Y-12551816D01*
X26156616Y-12657784D01*
X26262584Y-12657784D01*
X26500784Y-8847734D02*
X26500784Y-8741766D01*
X26394816Y-8741766D01*
X26394816Y-8847734D01*
X26500784Y-8847734D01*
X26500784Y-12657784D02*
X26500784Y-12551816D01*
X26394816Y-12551816D01*
X26394816Y-12657784D01*
X26500784Y-12657784D01*
X26659484Y-6688734D02*
X26659484Y-6582766D01*
X26553516Y-6582766D01*
X26553516Y-6688734D01*
X26659484Y-6688734D01*
X26897584Y-12403784D02*
X26897584Y-12297816D01*
X26791616Y-12297816D01*
X26791616Y-12403784D01*
X26897584Y-12403784D01*
X26976984Y-2338984D02*
X26976984Y-2233016D01*
X26871016Y-2233016D01*
X26871016Y-2338984D01*
X26976984Y-2338984D01*
X26976984Y-5037734D02*
X26976984Y-4931766D01*
X26871016Y-4931766D01*
X26871016Y-5037734D01*
X26976984Y-5037734D01*
X27135784Y-8593734D02*
X27135784Y-8487766D01*
X27029816Y-8487766D01*
X27029816Y-8593734D01*
X27135784Y-8593734D01*
X27135784Y-12403784D02*
X27135784Y-12297816D01*
X27029816Y-12297816D01*
X27029816Y-12403784D01*
X27135784Y-12403784D01*
X27213484Y-10752784D02*
X27213484Y-10646816D01*
X27107516Y-10646816D01*
X27107516Y-10752784D01*
X27213484Y-10752784D01*
X27611984Y-2084984D02*
X27611984Y-1979016D01*
X27506016Y-1979016D01*
X27506016Y-2084984D01*
X27611984Y-2084984D01*
X27611984Y-4783734D02*
X27611984Y-4677766D01*
X27506016Y-4677766D01*
X27506016Y-4783734D01*
X27611984Y-4783734D01*
X27691484Y-8847734D02*
X27691484Y-8741766D01*
X27585516Y-8741766D01*
X27585516Y-8847734D01*
X27691484Y-8847734D01*
X27848484Y-10498784D02*
X27848484Y-10392816D01*
X27742516Y-10392816D01*
X27742516Y-10498784D01*
X27848484Y-10498784D01*
X27929484Y-5037734D02*
X27929484Y-4931766D01*
X27823516Y-4931766D01*
X27823516Y-5037734D01*
X27929484Y-5037734D01*
X28167584Y-10752784D02*
X28167584Y-10646816D01*
X28061616Y-10646816D01*
X28061616Y-10752784D01*
X28167584Y-10752784D01*
X28326484Y-8593734D02*
X28326484Y-8487766D01*
X28220516Y-8487766D01*
X28220516Y-8593734D01*
X28326484Y-8593734D01*
X28405784Y-6942734D02*
X28405784Y-6836766D01*
X28299816Y-6836766D01*
X28299816Y-6942734D01*
X28405784Y-6942734D01*
X28518484Y-7895234D02*
X28518484Y-7789266D01*
X28412516Y-7789266D01*
X28412516Y-7895234D01*
X28518484Y-7895234D01*
X28564484Y-4783734D02*
X28564484Y-4677766D01*
X28458516Y-4677766D01*
X28458516Y-4783734D01*
X28564484Y-4783734D01*
X28642884Y-12657784D02*
X28642884Y-12551816D01*
X28536916Y-12551816D01*
X28536916Y-12657784D01*
X28642884Y-12657784D01*
X28772484Y-8530234D02*
X28772484Y-8424266D01*
X28666516Y-8424266D01*
X28666516Y-8530234D01*
X28772484Y-8530234D01*
X28802584Y-10498784D02*
X28802584Y-10392816D01*
X28696616Y-10392816D01*
X28696616Y-10498784D01*
X28802584Y-10498784D01*
X28881984Y-2338984D02*
X28881984Y-2233016D01*
X28776016Y-2233016D01*
X28776016Y-2338984D01*
X28881984Y-2338984D01*
X28881984Y-5037734D02*
X28881984Y-4931766D01*
X28776016Y-4931766D01*
X28776016Y-5037734D01*
X28881984Y-5037734D01*
X29040784Y-6688734D02*
X29040784Y-6582766D01*
X28934816Y-6582766D01*
X28934816Y-6688734D01*
X29040784Y-6688734D01*
X29277884Y-12403784D02*
X29277884Y-12297816D01*
X29171916Y-12297816D01*
X29171916Y-12403784D01*
X29277884Y-12403784D01*
X29516984Y-2084984D02*
X29516984Y-1979016D01*
X29411016Y-1979016D01*
X29411016Y-2084984D01*
X29516984Y-2084984D01*
X29516984Y-4783734D02*
X29516984Y-4677766D01*
X29411016Y-4677766D01*
X29411016Y-4783734D01*
X29516984Y-4783734D01*
X31263184Y-2338984D02*
X31263184Y-2233016D01*
X31157216Y-2233016D01*
X31157216Y-2338984D01*
X31263184Y-2338984D01*
X31263184Y-5037734D02*
X31263184Y-4931766D01*
X31157216Y-4931766D01*
X31157216Y-5037734D01*
X31263184Y-5037734D01*
X31263184Y-6942734D02*
X31263184Y-6836766D01*
X31157216Y-6836766D01*
X31157216Y-6942734D01*
X31263184Y-6942734D01*
X31263184Y-12657784D02*
X31263184Y-12551816D01*
X31157216Y-12551816D01*
X31157216Y-12657784D01*
X31263184Y-12657784D01*
X31898184Y-2084984D02*
X31898184Y-1979016D01*
X31792216Y-1979016D01*
X31792216Y-2084984D01*
X31898184Y-2084984D01*
X31898184Y-4783734D02*
X31898184Y-4677766D01*
X31792216Y-4677766D01*
X31792216Y-4783734D01*
X31898184Y-4783734D01*
X31898184Y-6688734D02*
X31898184Y-6582766D01*
X31792216Y-6582766D01*
X31792216Y-6688734D01*
X31898184Y-6688734D01*
X31898184Y-12403784D02*
X31898184Y-12297816D01*
X31792216Y-12297816D01*
X31792216Y-12403784D01*
X31898184Y-12403784D01*
X33168184Y-2338984D02*
X33168184Y-2233016D01*
X33062216Y-2233016D01*
X33062216Y-2338984D01*
X33168184Y-2338984D01*
X33168184Y-5037734D02*
X33168184Y-4931766D01*
X33062216Y-4931766D01*
X33062216Y-5037734D01*
X33168184Y-5037734D01*
X33168184Y-6942734D02*
X33168184Y-6836766D01*
X33062216Y-6836766D01*
X33062216Y-6942734D01*
X33168184Y-6942734D01*
X33168184Y-10752784D02*
X33168184Y-10646816D01*
X33062216Y-10646816D01*
X33062216Y-10752784D01*
X33168184Y-10752784D01*
X33168184Y-12657784D02*
X33168184Y-12551816D01*
X33062216Y-12551816D01*
X33062216Y-12657784D01*
X33168184Y-12657784D01*
X33803184Y-2084984D02*
X33803184Y-1979016D01*
X33697216Y-1979016D01*
X33697216Y-2084984D01*
X33803184Y-2084984D01*
X33803184Y-4783734D02*
X33803184Y-4677766D01*
X33697216Y-4677766D01*
X33697216Y-4783734D01*
X33803184Y-4783734D01*
X33803184Y-6688734D02*
X33803184Y-6582766D01*
X33697216Y-6582766D01*
X33697216Y-6688734D01*
X33803184Y-6688734D01*
X33803184Y-10498784D02*
X33803184Y-10392816D01*
X33697216Y-10392816D01*
X33697216Y-10498784D01*
X33803184Y-10498784D01*
X33803184Y-12403784D02*
X33803184Y-12297816D01*
X33697216Y-12297816D01*
X33697216Y-12403784D01*
X33803184Y-12403784D01*
X35073184Y-2338984D02*
X35073184Y-2233016D01*
X34967216Y-2233016D01*
X34967216Y-2338984D01*
X35073184Y-2338984D01*
X35073184Y-5037734D02*
X35073184Y-4931766D01*
X34967216Y-4931766D01*
X34967216Y-5037734D01*
X35073184Y-5037734D01*
X35073184Y-6942734D02*
X35073184Y-6836766D01*
X34967216Y-6836766D01*
X34967216Y-6942734D01*
X35073184Y-6942734D01*
X35073184Y-12657784D02*
X35073184Y-12551816D01*
X34967216Y-12551816D01*
X34967216Y-12657784D01*
X35073184Y-12657784D01*
X35708184Y-2084984D02*
X35708184Y-1979016D01*
X35602216Y-1979016D01*
X35602216Y-2084984D01*
X35708184Y-2084984D01*
X35708184Y-4783734D02*
X35708184Y-4677766D01*
X35602216Y-4677766D01*
X35602216Y-4783734D01*
X35708184Y-4783734D01*
X35708184Y-6688734D02*
X35708184Y-6582766D01*
X35602216Y-6582766D01*
X35602216Y-6688734D01*
X35708184Y-6688734D01*
X35708184Y-12403784D02*
X35708184Y-12297816D01*
X35602216Y-12297816D01*
X35602216Y-12403784D01*
X35708184Y-12403784D01*
X37454484Y-5037734D02*
X37454484Y-4931766D01*
X37348516Y-4931766D01*
X37348516Y-5037734D01*
X37454484Y-5037734D01*
X37454484Y-6942734D02*
X37454484Y-6836766D01*
X37348516Y-6836766D01*
X37348516Y-6942734D01*
X37454484Y-6942734D01*
X37454484Y-8847734D02*
X37454484Y-8741766D01*
X37348516Y-8741766D01*
X37348516Y-8847734D01*
X37454484Y-8847734D01*
X37454484Y-10752784D02*
X37454484Y-10646816D01*
X37348516Y-10646816D01*
X37348516Y-10752784D01*
X37454484Y-10752784D01*
X38089484Y-4783734D02*
X38089484Y-4677766D01*
X37983516Y-4677766D01*
X37983516Y-4783734D01*
X38089484Y-4783734D01*
X38089484Y-6688734D02*
X38089484Y-6582766D01*
X37983516Y-6582766D01*
X37983516Y-6688734D01*
X38089484Y-6688734D01*
X38089484Y-8593734D02*
X38089484Y-8487766D01*
X37983516Y-8487766D01*
X37983516Y-8593734D01*
X38089484Y-8593734D01*
X38089484Y-10498784D02*
X38089484Y-10392816D01*
X37983516Y-10392816D01*
X37983516Y-10498784D01*
X38089484Y-10498784D01*
X38406984Y-12657784D02*
X38406984Y-12551816D01*
X38301016Y-12551816D01*
X38301016Y-12657784D01*
X38406984Y-12657784D01*
X39041984Y-12403784D02*
X39041984Y-12297816D01*
X38936016Y-12297816D01*
X38936016Y-12403784D01*
X39041984Y-12403784D01*
X39359484Y-5037734D02*
X39359484Y-4931766D01*
X39253516Y-4931766D01*
X39253516Y-5037734D01*
X39359484Y-5037734D01*
X39359484Y-6942734D02*
X39359484Y-6836766D01*
X39253516Y-6836766D01*
X39253516Y-6942734D01*
X39359484Y-6942734D01*
X39359484Y-8847734D02*
X39359484Y-8741766D01*
X39253516Y-8741766D01*
X39253516Y-8847734D01*
X39359484Y-8847734D01*
X39359484Y-10752784D02*
X39359484Y-10646816D01*
X39253516Y-10646816D01*
X39253516Y-10752784D01*
X39359484Y-10752784D01*
X39994484Y-4783734D02*
X39994484Y-4677766D01*
X39888516Y-4677766D01*
X39888516Y-4783734D01*
X39994484Y-4783734D01*
X39994484Y-6688734D02*
X39994484Y-6582766D01*
X39888516Y-6582766D01*
X39888516Y-6688734D01*
X39994484Y-6688734D01*
X39994484Y-8593734D02*
X39994484Y-8487766D01*
X39888516Y-8487766D01*
X39888516Y-8593734D01*
X39994484Y-8593734D01*
X39994484Y-10498784D02*
X39994484Y-10392816D01*
X39888516Y-10392816D01*
X39888516Y-10498784D01*
X39994484Y-10498784D01*
X41264484Y-5037734D02*
X41264484Y-4931766D01*
X41158516Y-4931766D01*
X41158516Y-5037734D01*
X41264484Y-5037734D01*
X41264484Y-6942734D02*
X41264484Y-6836766D01*
X41158516Y-6836766D01*
X41158516Y-6942734D01*
X41264484Y-6942734D01*
X41264484Y-8847734D02*
X41264484Y-8741766D01*
X41158516Y-8741766D01*
X41158516Y-8847734D01*
X41264484Y-8847734D01*
X41264484Y-10752784D02*
X41264484Y-10646816D01*
X41158516Y-10646816D01*
X41158516Y-10752784D01*
X41264484Y-10752784D01*
X41264484Y-12657784D02*
X41264484Y-12551816D01*
X41158516Y-12551816D01*
X41158516Y-12657784D01*
X41264484Y-12657784D01*
X41899484Y-4783734D02*
X41899484Y-4677766D01*
X41793516Y-4677766D01*
X41793516Y-4783734D01*
X41899484Y-4783734D01*
X41899484Y-6688734D02*
X41899484Y-6582766D01*
X41793516Y-6582766D01*
X41793516Y-6688734D01*
X41899484Y-6688734D01*
X41899484Y-8593734D02*
X41899484Y-8487766D01*
X41793516Y-8487766D01*
X41793516Y-8593734D01*
X41899484Y-8593734D01*
X41899484Y-10498784D02*
X41899484Y-10392816D01*
X41793516Y-10392816D01*
X41793516Y-10498784D01*
X41899484Y-10498784D01*
X41899484Y-12403784D02*
X41899484Y-12297816D01*
X41793516Y-12297816D01*
X41793516Y-12403784D01*
X41899484Y-12403784D01*
X43042484Y-7895234D02*
X43042484Y-7789266D01*
X42936516Y-7789266D01*
X42936516Y-7895234D01*
X43042484Y-7895234D01*
X43042484Y-11705184D02*
X43042484Y-11599216D01*
X42936516Y-11599216D01*
X42936516Y-11705184D01*
X43042484Y-11705184D01*
X43169484Y-5037734D02*
X43169484Y-4931766D01*
X43063516Y-4931766D01*
X43063516Y-5037734D01*
X43169484Y-5037734D01*
X43296484Y-8530234D02*
X43296484Y-8424266D01*
X43190516Y-8424266D01*
X43190516Y-8530234D01*
X43296484Y-8530234D01*
X43296484Y-12340184D02*
X43296484Y-12234216D01*
X43190516Y-12234216D01*
X43190516Y-12340184D01*
X43296484Y-12340184D01*
X43804484Y-4783734D02*
X43804484Y-4677766D01*
X43698516Y-4677766D01*
X43698516Y-4783734D01*
X43804484Y-4783734D01*
D13*
X1978428Y-14189214D02*
X1978428Y-13889214D01*
X2049857Y-13889214D01*
X2092714Y-13903500D01*
X2121286Y-13932071D01*
X2135571Y-13960643D01*
X2149857Y-14017786D01*
X2149857Y-14060643D01*
X2135571Y-14117786D01*
X2121286Y-14146357D01*
X2092714Y-14174929D01*
X2049857Y-14189214D01*
X1978428Y-14189214D01*
X2278429Y-14189214D02*
X2278429Y-13989214D01*
X2278429Y-14046357D02*
X2292714Y-14017786D01*
X2307000Y-14003500D01*
X2335571Y-13989214D01*
X2364143Y-13989214D01*
X2464143Y-14189214D02*
X2464143Y-13989214D01*
X2464143Y-13889214D02*
X2449857Y-13903500D01*
X2464143Y-13917786D01*
X2478429Y-13903500D01*
X2464143Y-13889214D01*
X2464143Y-13917786D01*
X2649857Y-14189214D02*
X2621286Y-14174929D01*
X2607000Y-14146357D01*
X2607000Y-13889214D01*
X2807000Y-14189214D02*
X2778429Y-14174929D01*
X2764143Y-14146357D01*
X2764143Y-13889214D01*
X3149857Y-14189214D02*
X3149857Y-13889214D01*
X3249857Y-14103500D01*
X3349857Y-13889214D01*
X3349857Y-14189214D01*
X3621286Y-14189214D02*
X3621286Y-14032071D01*
X3607000Y-14003500D01*
X3578428Y-13989214D01*
X3521286Y-13989214D01*
X3492714Y-14003500D01*
X3621286Y-14174929D02*
X3592714Y-14189214D01*
X3521286Y-14189214D01*
X3492714Y-14174929D01*
X3478428Y-14146357D01*
X3478428Y-14117786D01*
X3492714Y-14089214D01*
X3521286Y-14074929D01*
X3592714Y-14074929D01*
X3621286Y-14060643D01*
X3764143Y-13989214D02*
X3764143Y-14289214D01*
X3764143Y-14003500D02*
X3792714Y-13989214D01*
X3849857Y-13989214D01*
X3878428Y-14003500D01*
X3892714Y-14017786D01*
X3907000Y-14046357D01*
X3907000Y-14132071D01*
X3892714Y-14160643D01*
X3878428Y-14174929D01*
X3849857Y-14189214D01*
X3792714Y-14189214D01*
X3764143Y-14174929D01*
X4035571Y-14160643D02*
X4049857Y-14174929D01*
X4035571Y-14189214D01*
X4021286Y-14174929D01*
X4035571Y-14160643D01*
X4035571Y-14189214D01*
X4035571Y-14003500D02*
X4049857Y-14017786D01*
X4035571Y-14032071D01*
X4021286Y-14017786D01*
X4035571Y-14003500D01*
X4035571Y-14032071D01*
X1677000Y-14668500D02*
X1707000Y-14698500D01*
X1707000Y-14668500D02*
X1677000Y-14698500D01*
X2035571Y-14519214D02*
X2064143Y-14519214D01*
X2092714Y-14533500D01*
X2107000Y-14547786D01*
X2121286Y-14576357D01*
X2135571Y-14633500D01*
X2135571Y-14704929D01*
X2121286Y-14762071D01*
X2107000Y-14790643D01*
X2092714Y-14804929D01*
X2064143Y-14819214D01*
X2035571Y-14819214D01*
X2007000Y-14804929D01*
X1992714Y-14790643D01*
X1978428Y-14762071D01*
X1964143Y-14704929D01*
X1964143Y-14633500D01*
X1978428Y-14576357D01*
X1992714Y-14547786D01*
X2007000Y-14533500D01*
X2035571Y-14519214D01*
X2264143Y-14790643D02*
X2278429Y-14804929D01*
X2264143Y-14819214D01*
X2249857Y-14804929D01*
X2264143Y-14790643D01*
X2264143Y-14819214D01*
X2378428Y-14519214D02*
X2564143Y-14519214D01*
X2464143Y-14633500D01*
X2507000Y-14633500D01*
X2535571Y-14647786D01*
X2549857Y-14662071D01*
X2564143Y-14690643D01*
X2564143Y-14762071D01*
X2549857Y-14790643D01*
X2535571Y-14804929D01*
X2507000Y-14819214D01*
X2421286Y-14819214D01*
X2392714Y-14804929D01*
X2378428Y-14790643D01*
X2749857Y-14519214D02*
X2778429Y-14519214D01*
X2807000Y-14533500D01*
X2821286Y-14547786D01*
X2835571Y-14576357D01*
X2849857Y-14633500D01*
X2849857Y-14704929D01*
X2835571Y-14762071D01*
X2821286Y-14790643D01*
X2807000Y-14804929D01*
X2778429Y-14819214D01*
X2749857Y-14819214D01*
X2721286Y-14804929D01*
X2707000Y-14790643D01*
X2692714Y-14762071D01*
X2678429Y-14704929D01*
X2678429Y-14633500D01*
X2692714Y-14576357D01*
X2707000Y-14547786D01*
X2721286Y-14533500D01*
X2749857Y-14519214D01*
X2978428Y-14819214D02*
X2978428Y-14619214D01*
X2978428Y-14647786D02*
X2992714Y-14633500D01*
X3021286Y-14619214D01*
X3064143Y-14619214D01*
X3092714Y-14633500D01*
X3107000Y-14662071D01*
X3107000Y-14819214D01*
X3107000Y-14662071D02*
X3121286Y-14633500D01*
X3149857Y-14619214D01*
X3192714Y-14619214D01*
X3221286Y-14633500D01*
X3235571Y-14662071D01*
X3235571Y-14819214D01*
X3378428Y-14819214D02*
X3378428Y-14619214D01*
X3378428Y-14647786D02*
X3392714Y-14633500D01*
X3421286Y-14619214D01*
X3464143Y-14619214D01*
X3492714Y-14633500D01*
X3507000Y-14662071D01*
X3507000Y-14819214D01*
X3507000Y-14662071D02*
X3521286Y-14633500D01*
X3549857Y-14619214D01*
X3592714Y-14619214D01*
X3621286Y-14633500D01*
X3635571Y-14662071D01*
X3635571Y-14819214D01*
X4221286Y-14504929D02*
X3964143Y-14890643D01*
X4607000Y-14519214D02*
X4635571Y-14519214D01*
X4664143Y-14533500D01*
X4678428Y-14547786D01*
X4692714Y-14576357D01*
X4707000Y-14633500D01*
X4707000Y-14704929D01*
X4692714Y-14762071D01*
X4678428Y-14790643D01*
X4664143Y-14804929D01*
X4635571Y-14819214D01*
X4607000Y-14819214D01*
X4578428Y-14804929D01*
X4564143Y-14790643D01*
X4549857Y-14762071D01*
X4535571Y-14704929D01*
X4535571Y-14633500D01*
X4549857Y-14576357D01*
X4564143Y-14547786D01*
X4578428Y-14533500D01*
X4607000Y-14519214D01*
X4835571Y-14790643D02*
X4849857Y-14804929D01*
X4835571Y-14819214D01*
X4821286Y-14804929D01*
X4835571Y-14790643D01*
X4835571Y-14819214D01*
X5035571Y-14519214D02*
X5064143Y-14519214D01*
X5092714Y-14533500D01*
X5107000Y-14547786D01*
X5121286Y-14576357D01*
X5135571Y-14633500D01*
X5135571Y-14704929D01*
X5121286Y-14762071D01*
X5107000Y-14790643D01*
X5092714Y-14804929D01*
X5064143Y-14819214D01*
X5035571Y-14819214D01*
X5007000Y-14804929D01*
X4992714Y-14790643D01*
X4978428Y-14762071D01*
X4964143Y-14704929D01*
X4964143Y-14633500D01*
X4978428Y-14576357D01*
X4992714Y-14547786D01*
X5007000Y-14533500D01*
X5035571Y-14519214D01*
X5421286Y-14819214D02*
X5249857Y-14819214D01*
X5335571Y-14819214D02*
X5335571Y-14519214D01*
X5307000Y-14562071D01*
X5278428Y-14590643D01*
X5249857Y-14604929D01*
X5535571Y-14547786D02*
X5549857Y-14533500D01*
X5578428Y-14519214D01*
X5649857Y-14519214D01*
X5678428Y-14533500D01*
X5692714Y-14547786D01*
X5707000Y-14576357D01*
X5707000Y-14604929D01*
X5692714Y-14647786D01*
X5521286Y-14819214D01*
X5707000Y-14819214D01*
X5821286Y-14519214D02*
X5821286Y-14576357D01*
X5935571Y-14519214D02*
X5935571Y-14576357D01*
X6378428Y-14933500D02*
X6364143Y-14919214D01*
X6335571Y-14876357D01*
X6321285Y-14847786D01*
X6307000Y-14804929D01*
X6292714Y-14733500D01*
X6292714Y-14676357D01*
X6307000Y-14604929D01*
X6321285Y-14562071D01*
X6335571Y-14533500D01*
X6364143Y-14490643D01*
X6378428Y-14476357D01*
X6621285Y-14519214D02*
X6564143Y-14519214D01*
X6535571Y-14533500D01*
X6521285Y-14547786D01*
X6492714Y-14590643D01*
X6478428Y-14647786D01*
X6478428Y-14762071D01*
X6492714Y-14790643D01*
X6507000Y-14804929D01*
X6535571Y-14819214D01*
X6592714Y-14819214D01*
X6621285Y-14804929D01*
X6635571Y-14790643D01*
X6649857Y-14762071D01*
X6649857Y-14690643D01*
X6635571Y-14662071D01*
X6621285Y-14647786D01*
X6592714Y-14633500D01*
X6535571Y-14633500D01*
X6507000Y-14647786D01*
X6492714Y-14662071D01*
X6478428Y-14690643D01*
X6921285Y-14519214D02*
X6778428Y-14519214D01*
X6764143Y-14662071D01*
X6778428Y-14647786D01*
X6807000Y-14633500D01*
X6878428Y-14633500D01*
X6907000Y-14647786D01*
X6921285Y-14662071D01*
X6935571Y-14690643D01*
X6935571Y-14762071D01*
X6921285Y-14790643D01*
X6907000Y-14804929D01*
X6878428Y-14819214D01*
X6807000Y-14819214D01*
X6778428Y-14804929D01*
X6764143Y-14790643D01*
X7292714Y-14819214D02*
X7292714Y-14519214D01*
X7421285Y-14819214D02*
X7421285Y-14662071D01*
X7407000Y-14633500D01*
X7378428Y-14619214D01*
X7335571Y-14619214D01*
X7307000Y-14633500D01*
X7292714Y-14647786D01*
X7607000Y-14819214D02*
X7578428Y-14804929D01*
X7564143Y-14790643D01*
X7549857Y-14762071D01*
X7549857Y-14676357D01*
X7564143Y-14647786D01*
X7578428Y-14633500D01*
X7607000Y-14619214D01*
X7649857Y-14619214D01*
X7678428Y-14633500D01*
X7692714Y-14647786D01*
X7707000Y-14676357D01*
X7707000Y-14762071D01*
X7692714Y-14790643D01*
X7678428Y-14804929D01*
X7649857Y-14819214D01*
X7607000Y-14819214D01*
X7878428Y-14819214D02*
X7849857Y-14804929D01*
X7835571Y-14776357D01*
X7835571Y-14519214D01*
X8107000Y-14804929D02*
X8078428Y-14819214D01*
X8021286Y-14819214D01*
X7992714Y-14804929D01*
X7978428Y-14776357D01*
X7978428Y-14662071D01*
X7992714Y-14633500D01*
X8021286Y-14619214D01*
X8078428Y-14619214D01*
X8107000Y-14633500D01*
X8121286Y-14662071D01*
X8121286Y-14690643D01*
X7978428Y-14719214D01*
X8235571Y-14804929D02*
X8264143Y-14819214D01*
X8321286Y-14819214D01*
X8349857Y-14804929D01*
X8364143Y-14776357D01*
X8364143Y-14762071D01*
X8349857Y-14733500D01*
X8321286Y-14719214D01*
X8278428Y-14719214D01*
X8249857Y-14704929D01*
X8235571Y-14676357D01*
X8235571Y-14662071D01*
X8249857Y-14633500D01*
X8278428Y-14619214D01*
X8321286Y-14619214D01*
X8349857Y-14633500D01*
X8464143Y-14933500D02*
X8478429Y-14919214D01*
X8507000Y-14876357D01*
X8521286Y-14847786D01*
X8535571Y-14804929D01*
X8549857Y-14733500D01*
X8549857Y-14676357D01*
X8535571Y-14604929D01*
X8521286Y-14562071D01*
X8507000Y-14533500D01*
X8478429Y-14490643D01*
X8464143Y-14476357D01*
X1707000Y-15079500D02*
G75*
G03X1707000Y-15079500I-49530J0D01*
G01*
X2035571Y-14915214D02*
X2064143Y-14915214D01*
X2092714Y-14929500D01*
X2107000Y-14943786D01*
X2121286Y-14972357D01*
X2135571Y-15029500D01*
X2135571Y-15100929D01*
X2121286Y-15158071D01*
X2107000Y-15186643D01*
X2092714Y-15200929D01*
X2064143Y-15215214D01*
X2035571Y-15215214D01*
X2007000Y-15200929D01*
X1992714Y-15186643D01*
X1978428Y-15158071D01*
X1964143Y-15100929D01*
X1964143Y-15029500D01*
X1978428Y-14972357D01*
X1992714Y-14943786D01*
X2007000Y-14929500D01*
X2035571Y-14915214D01*
X2264143Y-15186643D02*
X2278429Y-15200929D01*
X2264143Y-15215214D01*
X2249857Y-15200929D01*
X2264143Y-15186643D01*
X2264143Y-15215214D01*
X2421286Y-15215214D02*
X2478428Y-15215214D01*
X2507000Y-15200929D01*
X2521286Y-15186643D01*
X2549857Y-15143786D01*
X2564143Y-15086643D01*
X2564143Y-14972357D01*
X2549857Y-14943786D01*
X2535571Y-14929500D01*
X2507000Y-14915214D01*
X2449857Y-14915214D01*
X2421286Y-14929500D01*
X2407000Y-14943786D01*
X2392714Y-14972357D01*
X2392714Y-15043786D01*
X2407000Y-15072357D01*
X2421286Y-15086643D01*
X2449857Y-15100929D01*
X2507000Y-15100929D01*
X2535571Y-15086643D01*
X2549857Y-15072357D01*
X2564143Y-15043786D01*
X2707000Y-15215214D02*
X2764143Y-15215214D01*
X2792714Y-15200929D01*
X2807000Y-15186643D01*
X2835571Y-15143786D01*
X2849857Y-15086643D01*
X2849857Y-14972357D01*
X2835571Y-14943786D01*
X2821286Y-14929500D01*
X2792714Y-14915214D01*
X2735571Y-14915214D01*
X2707000Y-14929500D01*
X2692714Y-14943786D01*
X2678429Y-14972357D01*
X2678429Y-15043786D01*
X2692714Y-15072357D01*
X2707000Y-15086643D01*
X2735571Y-15100929D01*
X2792714Y-15100929D01*
X2821286Y-15086643D01*
X2835571Y-15072357D01*
X2849857Y-15043786D01*
X2978428Y-15215214D02*
X2978428Y-15015214D01*
X2978428Y-15043786D02*
X2992714Y-15029500D01*
X3021286Y-15015214D01*
X3064143Y-15015214D01*
X3092714Y-15029500D01*
X3107000Y-15058071D01*
X3107000Y-15215214D01*
X3107000Y-15058071D02*
X3121286Y-15029500D01*
X3149857Y-15015214D01*
X3192714Y-15015214D01*
X3221286Y-15029500D01*
X3235571Y-15058071D01*
X3235571Y-15215214D01*
X3378428Y-15215214D02*
X3378428Y-15015214D01*
X3378428Y-15043786D02*
X3392714Y-15029500D01*
X3421286Y-15015214D01*
X3464143Y-15015214D01*
X3492714Y-15029500D01*
X3507000Y-15058071D01*
X3507000Y-15215214D01*
X3507000Y-15058071D02*
X3521286Y-15029500D01*
X3549857Y-15015214D01*
X3592714Y-15015214D01*
X3621286Y-15029500D01*
X3635571Y-15058071D01*
X3635571Y-15215214D01*
X4221286Y-14900929D02*
X3964143Y-15286643D01*
X4607000Y-14915214D02*
X4635571Y-14915214D01*
X4664143Y-14929500D01*
X4678428Y-14943786D01*
X4692714Y-14972357D01*
X4707000Y-15029500D01*
X4707000Y-15100929D01*
X4692714Y-15158071D01*
X4678428Y-15186643D01*
X4664143Y-15200929D01*
X4635571Y-15215214D01*
X4607000Y-15215214D01*
X4578428Y-15200929D01*
X4564143Y-15186643D01*
X4549857Y-15158071D01*
X4535571Y-15100929D01*
X4535571Y-15029500D01*
X4549857Y-14972357D01*
X4564143Y-14943786D01*
X4578428Y-14929500D01*
X4607000Y-14915214D01*
X4835571Y-15186643D02*
X4849857Y-15200929D01*
X4835571Y-15215214D01*
X4821286Y-15200929D01*
X4835571Y-15186643D01*
X4835571Y-15215214D01*
X5035571Y-14915214D02*
X5064143Y-14915214D01*
X5092714Y-14929500D01*
X5107000Y-14943786D01*
X5121286Y-14972357D01*
X5135571Y-15029500D01*
X5135571Y-15100929D01*
X5121286Y-15158071D01*
X5107000Y-15186643D01*
X5092714Y-15200929D01*
X5064143Y-15215214D01*
X5035571Y-15215214D01*
X5007000Y-15200929D01*
X4992714Y-15186643D01*
X4978428Y-15158071D01*
X4964143Y-15100929D01*
X4964143Y-15029500D01*
X4978428Y-14972357D01*
X4992714Y-14943786D01*
X5007000Y-14929500D01*
X5035571Y-14915214D01*
X5235571Y-14915214D02*
X5421286Y-14915214D01*
X5321286Y-15029500D01*
X5364143Y-15029500D01*
X5392714Y-15043786D01*
X5407000Y-15058071D01*
X5421286Y-15086643D01*
X5421286Y-15158071D01*
X5407000Y-15186643D01*
X5392714Y-15200929D01*
X5364143Y-15215214D01*
X5278428Y-15215214D01*
X5249857Y-15200929D01*
X5235571Y-15186643D01*
X5564143Y-15215214D02*
X5621285Y-15215214D01*
X5649857Y-15200929D01*
X5664143Y-15186643D01*
X5692714Y-15143786D01*
X5707000Y-15086643D01*
X5707000Y-14972357D01*
X5692714Y-14943786D01*
X5678428Y-14929500D01*
X5649857Y-14915214D01*
X5592714Y-14915214D01*
X5564143Y-14929500D01*
X5549857Y-14943786D01*
X5535571Y-14972357D01*
X5535571Y-15043786D01*
X5549857Y-15072357D01*
X5564143Y-15086643D01*
X5592714Y-15100929D01*
X5649857Y-15100929D01*
X5678428Y-15086643D01*
X5692714Y-15072357D01*
X5707000Y-15043786D01*
X5821286Y-14915214D02*
X5821286Y-14972357D01*
X5935571Y-14915214D02*
X5935571Y-14972357D01*
X6378428Y-15329500D02*
X6364143Y-15315214D01*
X6335571Y-15272357D01*
X6321285Y-15243786D01*
X6307000Y-15200929D01*
X6292714Y-15129500D01*
X6292714Y-15072357D01*
X6307000Y-15000929D01*
X6321285Y-14958071D01*
X6335571Y-14929500D01*
X6364143Y-14886643D01*
X6378428Y-14872357D01*
X6478428Y-14943786D02*
X6492714Y-14929500D01*
X6521285Y-14915214D01*
X6592714Y-14915214D01*
X6621285Y-14929500D01*
X6635571Y-14943786D01*
X6649857Y-14972357D01*
X6649857Y-15000929D01*
X6635571Y-15043786D01*
X6464143Y-15215214D01*
X6649857Y-15215214D01*
X6907000Y-14915214D02*
X6849857Y-14915214D01*
X6821285Y-14929500D01*
X6807000Y-14943786D01*
X6778428Y-14986643D01*
X6764143Y-15043786D01*
X6764143Y-15158071D01*
X6778428Y-15186643D01*
X6792714Y-15200929D01*
X6821285Y-15215214D01*
X6878428Y-15215214D01*
X6907000Y-15200929D01*
X6921285Y-15186643D01*
X6935571Y-15158071D01*
X6935571Y-15086643D01*
X6921285Y-15058071D01*
X6907000Y-15043786D01*
X6878428Y-15029500D01*
X6821285Y-15029500D01*
X6792714Y-15043786D01*
X6778428Y-15058071D01*
X6764143Y-15086643D01*
X7049857Y-14943786D02*
X7064143Y-14929500D01*
X7092714Y-14915214D01*
X7164143Y-14915214D01*
X7192714Y-14929500D01*
X7207000Y-14943786D01*
X7221285Y-14972357D01*
X7221285Y-15000929D01*
X7207000Y-15043786D01*
X7035571Y-15215214D01*
X7221285Y-15215214D01*
X7578428Y-15215214D02*
X7578428Y-14915214D01*
X7707000Y-15215214D02*
X7707000Y-15058071D01*
X7692714Y-15029500D01*
X7664143Y-15015214D01*
X7621285Y-15015214D01*
X7592714Y-15029500D01*
X7578428Y-15043786D01*
X7892714Y-15215214D02*
X7864143Y-15200929D01*
X7849857Y-15186643D01*
X7835571Y-15158071D01*
X7835571Y-15072357D01*
X7849857Y-15043786D01*
X7864143Y-15029500D01*
X7892714Y-15015214D01*
X7935571Y-15015214D01*
X7964143Y-15029500D01*
X7978428Y-15043786D01*
X7992714Y-15072357D01*
X7992714Y-15158071D01*
X7978428Y-15186643D01*
X7964143Y-15200929D01*
X7935571Y-15215214D01*
X7892714Y-15215214D01*
X8164143Y-15215214D02*
X8135571Y-15200929D01*
X8121286Y-15172357D01*
X8121286Y-14915214D01*
X8392714Y-15200929D02*
X8364143Y-15215214D01*
X8307000Y-15215214D01*
X8278428Y-15200929D01*
X8264143Y-15172357D01*
X8264143Y-15058071D01*
X8278428Y-15029500D01*
X8307000Y-15015214D01*
X8364143Y-15015214D01*
X8392714Y-15029500D01*
X8407000Y-15058071D01*
X8407000Y-15086643D01*
X8264143Y-15115214D01*
X8521286Y-15200929D02*
X8549857Y-15215214D01*
X8607000Y-15215214D01*
X8635571Y-15200929D01*
X8649857Y-15172357D01*
X8649857Y-15158071D01*
X8635571Y-15129500D01*
X8607000Y-15115214D01*
X8564143Y-15115214D01*
X8535571Y-15100929D01*
X8521286Y-15072357D01*
X8521286Y-15058071D01*
X8535571Y-15029500D01*
X8564143Y-15015214D01*
X8607000Y-15015214D01*
X8635571Y-15029500D01*
X9007000Y-15100929D02*
X9235571Y-15100929D01*
X9121286Y-15215214D02*
X9121286Y-14986643D01*
X9578428Y-14915214D02*
X9764143Y-14915214D01*
X9664143Y-15029500D01*
X9707000Y-15029500D01*
X9735571Y-15043786D01*
X9749857Y-15058071D01*
X9764143Y-15086643D01*
X9764143Y-15158071D01*
X9749857Y-15186643D01*
X9735571Y-15200929D01*
X9707000Y-15215214D01*
X9621286Y-15215214D01*
X9592714Y-15200929D01*
X9578428Y-15186643D01*
X10107000Y-15200929D02*
X10135571Y-15215214D01*
X10192714Y-15215214D01*
X10221286Y-15200929D01*
X10235571Y-15172357D01*
X10235571Y-15158071D01*
X10221286Y-15129500D01*
X10192714Y-15115214D01*
X10149857Y-15115214D01*
X10121286Y-15100929D01*
X10107000Y-15072357D01*
X10107000Y-15058071D01*
X10121286Y-15029500D01*
X10149857Y-15015214D01*
X10192714Y-15015214D01*
X10221286Y-15029500D01*
X10407000Y-15215214D02*
X10378428Y-15200929D01*
X10364143Y-15172357D01*
X10364143Y-14915214D01*
X10564143Y-15215214D02*
X10535571Y-15200929D01*
X10521286Y-15186643D01*
X10507000Y-15158071D01*
X10507000Y-15072357D01*
X10521286Y-15043786D01*
X10535571Y-15029500D01*
X10564143Y-15015214D01*
X10607000Y-15015214D01*
X10635571Y-15029500D01*
X10649857Y-15043786D01*
X10664143Y-15072357D01*
X10664143Y-15158071D01*
X10649857Y-15186643D01*
X10635571Y-15200929D01*
X10607000Y-15215214D01*
X10564143Y-15215214D01*
X10749857Y-15015214D02*
X10864143Y-15015214D01*
X10792714Y-14915214D02*
X10792714Y-15172357D01*
X10807000Y-15200929D01*
X10835571Y-15215214D01*
X10864143Y-15215214D01*
X10949857Y-15200929D02*
X10978429Y-15215214D01*
X11035571Y-15215214D01*
X11064143Y-15200929D01*
X11078429Y-15172357D01*
X11078429Y-15158071D01*
X11064143Y-15129500D01*
X11035571Y-15115214D01*
X10992714Y-15115214D01*
X10964143Y-15100929D01*
X10949857Y-15072357D01*
X10949857Y-15058071D01*
X10964143Y-15029500D01*
X10992714Y-15015214D01*
X11035571Y-15015214D01*
X11064143Y-15029500D01*
X11178428Y-15329500D02*
X11192714Y-15315214D01*
X11221286Y-15272357D01*
X11235571Y-15243786D01*
X11249857Y-15200929D01*
X11264143Y-15129500D01*
X11264143Y-15072357D01*
X11249857Y-15000929D01*
X11235571Y-14958071D01*
X11221286Y-14929500D01*
X11192714Y-14886643D01*
X11178428Y-14872357D01*
X1652000Y-15420500D02*
X1652000Y-15530500D01*
X1597000Y-15475500D02*
X1707000Y-15475500D01*
X2135571Y-15611214D02*
X1964143Y-15611214D01*
X2049857Y-15611214D02*
X2049857Y-15311214D01*
X2021286Y-15354071D01*
X1992714Y-15382643D01*
X1964143Y-15396929D01*
X2264143Y-15582643D02*
X2278429Y-15596929D01*
X2264143Y-15611214D01*
X2249857Y-15596929D01*
X2264143Y-15582643D01*
X2264143Y-15611214D01*
X2564143Y-15611214D02*
X2392714Y-15611214D01*
X2478428Y-15611214D02*
X2478428Y-15311214D01*
X2449857Y-15354071D01*
X2421286Y-15382643D01*
X2392714Y-15396929D01*
X2749857Y-15311214D02*
X2778429Y-15311214D01*
X2807000Y-15325500D01*
X2821286Y-15339786D01*
X2835571Y-15368357D01*
X2849857Y-15425500D01*
X2849857Y-15496929D01*
X2835571Y-15554071D01*
X2821286Y-15582643D01*
X2807000Y-15596929D01*
X2778429Y-15611214D01*
X2749857Y-15611214D01*
X2721286Y-15596929D01*
X2707000Y-15582643D01*
X2692714Y-15554071D01*
X2678429Y-15496929D01*
X2678429Y-15425500D01*
X2692714Y-15368357D01*
X2707000Y-15339786D01*
X2721286Y-15325500D01*
X2749857Y-15311214D01*
X2978428Y-15611214D02*
X2978428Y-15411214D01*
X2978428Y-15439786D02*
X2992714Y-15425500D01*
X3021286Y-15411214D01*
X3064143Y-15411214D01*
X3092714Y-15425500D01*
X3107000Y-15454071D01*
X3107000Y-15611214D01*
X3107000Y-15454071D02*
X3121286Y-15425500D01*
X3149857Y-15411214D01*
X3192714Y-15411214D01*
X3221286Y-15425500D01*
X3235571Y-15454071D01*
X3235571Y-15611214D01*
X3378428Y-15611214D02*
X3378428Y-15411214D01*
X3378428Y-15439786D02*
X3392714Y-15425500D01*
X3421286Y-15411214D01*
X3464143Y-15411214D01*
X3492714Y-15425500D01*
X3507000Y-15454071D01*
X3507000Y-15611214D01*
X3507000Y-15454071D02*
X3521286Y-15425500D01*
X3549857Y-15411214D01*
X3592714Y-15411214D01*
X3621286Y-15425500D01*
X3635571Y-15454071D01*
X3635571Y-15611214D01*
X4221286Y-15296929D02*
X3964143Y-15682643D01*
X4607000Y-15311214D02*
X4635571Y-15311214D01*
X4664143Y-15325500D01*
X4678428Y-15339786D01*
X4692714Y-15368357D01*
X4707000Y-15425500D01*
X4707000Y-15496929D01*
X4692714Y-15554071D01*
X4678428Y-15582643D01*
X4664143Y-15596929D01*
X4635571Y-15611214D01*
X4607000Y-15611214D01*
X4578428Y-15596929D01*
X4564143Y-15582643D01*
X4549857Y-15554071D01*
X4535571Y-15496929D01*
X4535571Y-15425500D01*
X4549857Y-15368357D01*
X4564143Y-15339786D01*
X4578428Y-15325500D01*
X4607000Y-15311214D01*
X4835571Y-15582643D02*
X4849857Y-15596929D01*
X4835571Y-15611214D01*
X4821286Y-15596929D01*
X4835571Y-15582643D01*
X4835571Y-15611214D01*
X5035571Y-15311214D02*
X5064143Y-15311214D01*
X5092714Y-15325500D01*
X5107000Y-15339786D01*
X5121286Y-15368357D01*
X5135571Y-15425500D01*
X5135571Y-15496929D01*
X5121286Y-15554071D01*
X5107000Y-15582643D01*
X5092714Y-15596929D01*
X5064143Y-15611214D01*
X5035571Y-15611214D01*
X5007000Y-15596929D01*
X4992714Y-15582643D01*
X4978428Y-15554071D01*
X4964143Y-15496929D01*
X4964143Y-15425500D01*
X4978428Y-15368357D01*
X4992714Y-15339786D01*
X5007000Y-15325500D01*
X5035571Y-15311214D01*
X5392714Y-15411214D02*
X5392714Y-15611214D01*
X5321286Y-15296929D02*
X5249857Y-15511214D01*
X5435571Y-15511214D01*
X5521286Y-15311214D02*
X5707000Y-15311214D01*
X5607000Y-15425500D01*
X5649857Y-15425500D01*
X5678428Y-15439786D01*
X5692714Y-15454071D01*
X5707000Y-15482643D01*
X5707000Y-15554071D01*
X5692714Y-15582643D01*
X5678428Y-15596929D01*
X5649857Y-15611214D01*
X5564143Y-15611214D01*
X5535571Y-15596929D01*
X5521286Y-15582643D01*
X5821286Y-15311214D02*
X5821286Y-15368357D01*
X5935571Y-15311214D02*
X5935571Y-15368357D01*
X6378428Y-15725500D02*
X6364143Y-15711214D01*
X6335571Y-15668357D01*
X6321285Y-15639786D01*
X6307000Y-15596929D01*
X6292714Y-15525500D01*
X6292714Y-15468357D01*
X6307000Y-15396929D01*
X6321285Y-15354071D01*
X6335571Y-15325500D01*
X6364143Y-15282643D01*
X6378428Y-15268357D01*
X6635571Y-15311214D02*
X6492714Y-15311214D01*
X6478428Y-15454071D01*
X6492714Y-15439786D01*
X6521285Y-15425500D01*
X6592714Y-15425500D01*
X6621285Y-15439786D01*
X6635571Y-15454071D01*
X6649857Y-15482643D01*
X6649857Y-15554071D01*
X6635571Y-15582643D01*
X6621285Y-15596929D01*
X6592714Y-15611214D01*
X6521285Y-15611214D01*
X6492714Y-15596929D01*
X6478428Y-15582643D01*
X6935571Y-15611214D02*
X6764143Y-15611214D01*
X6849857Y-15611214D02*
X6849857Y-15311214D01*
X6821285Y-15354071D01*
X6792714Y-15382643D01*
X6764143Y-15396929D01*
X7292714Y-15611214D02*
X7292714Y-15311214D01*
X7421285Y-15611214D02*
X7421285Y-15454071D01*
X7407000Y-15425500D01*
X7378428Y-15411214D01*
X7335571Y-15411214D01*
X7307000Y-15425500D01*
X7292714Y-15439786D01*
X7607000Y-15611214D02*
X7578428Y-15596929D01*
X7564143Y-15582643D01*
X7549857Y-15554071D01*
X7549857Y-15468357D01*
X7564143Y-15439786D01*
X7578428Y-15425500D01*
X7607000Y-15411214D01*
X7649857Y-15411214D01*
X7678428Y-15425500D01*
X7692714Y-15439786D01*
X7707000Y-15468357D01*
X7707000Y-15554071D01*
X7692714Y-15582643D01*
X7678428Y-15596929D01*
X7649857Y-15611214D01*
X7607000Y-15611214D01*
X7878428Y-15611214D02*
X7849857Y-15596929D01*
X7835571Y-15568357D01*
X7835571Y-15311214D01*
X8107000Y-15596929D02*
X8078428Y-15611214D01*
X8021286Y-15611214D01*
X7992714Y-15596929D01*
X7978428Y-15568357D01*
X7978428Y-15454071D01*
X7992714Y-15425500D01*
X8021286Y-15411214D01*
X8078428Y-15411214D01*
X8107000Y-15425500D01*
X8121286Y-15454071D01*
X8121286Y-15482643D01*
X7978428Y-15511214D01*
X8235571Y-15596929D02*
X8264143Y-15611214D01*
X8321286Y-15611214D01*
X8349857Y-15596929D01*
X8364143Y-15568357D01*
X8364143Y-15554071D01*
X8349857Y-15525500D01*
X8321286Y-15511214D01*
X8278428Y-15511214D01*
X8249857Y-15496929D01*
X8235571Y-15468357D01*
X8235571Y-15454071D01*
X8249857Y-15425500D01*
X8278428Y-15411214D01*
X8321286Y-15411214D01*
X8349857Y-15425500D01*
X8464143Y-15725500D02*
X8478429Y-15711214D01*
X8507000Y-15668357D01*
X8521286Y-15639786D01*
X8535571Y-15596929D01*
X8549857Y-15525500D01*
X8549857Y-15468357D01*
X8535571Y-15396929D01*
X8521286Y-15354071D01*
X8507000Y-15325500D01*
X8478429Y-15282643D01*
X8464143Y-15268357D01*
X1685054Y-15924484D02*
X1685054Y-15818516D01*
X1579086Y-15818516D01*
X1579086Y-15924484D01*
X1685054Y-15924484D01*
X2135571Y-16007214D02*
X1964143Y-16007214D01*
X2049857Y-16007214D02*
X2049857Y-15707214D01*
X2021286Y-15750071D01*
X1992714Y-15778643D01*
X1964143Y-15792929D01*
X2264143Y-15978643D02*
X2278429Y-15992929D01*
X2264143Y-16007214D01*
X2249857Y-15992929D01*
X2264143Y-15978643D01*
X2264143Y-16007214D01*
X2549857Y-15707214D02*
X2407000Y-15707214D01*
X2392714Y-15850071D01*
X2407000Y-15835786D01*
X2435571Y-15821500D01*
X2507000Y-15821500D01*
X2535571Y-15835786D01*
X2549857Y-15850071D01*
X2564143Y-15878643D01*
X2564143Y-15950071D01*
X2549857Y-15978643D01*
X2535571Y-15992929D01*
X2507000Y-16007214D01*
X2435571Y-16007214D01*
X2407000Y-15992929D01*
X2392714Y-15978643D01*
X2749857Y-15707214D02*
X2778429Y-15707214D01*
X2807000Y-15721500D01*
X2821286Y-15735786D01*
X2835571Y-15764357D01*
X2849857Y-15821500D01*
X2849857Y-15892929D01*
X2835571Y-15950071D01*
X2821286Y-15978643D01*
X2807000Y-15992929D01*
X2778429Y-16007214D01*
X2749857Y-16007214D01*
X2721286Y-15992929D01*
X2707000Y-15978643D01*
X2692714Y-15950071D01*
X2678429Y-15892929D01*
X2678429Y-15821500D01*
X2692714Y-15764357D01*
X2707000Y-15735786D01*
X2721286Y-15721500D01*
X2749857Y-15707214D01*
X2978428Y-16007214D02*
X2978428Y-15807214D01*
X2978428Y-15835786D02*
X2992714Y-15821500D01*
X3021286Y-15807214D01*
X3064143Y-15807214D01*
X3092714Y-15821500D01*
X3107000Y-15850071D01*
X3107000Y-16007214D01*
X3107000Y-15850071D02*
X3121286Y-15821500D01*
X3149857Y-15807214D01*
X3192714Y-15807214D01*
X3221286Y-15821500D01*
X3235571Y-15850071D01*
X3235571Y-16007214D01*
X3378428Y-16007214D02*
X3378428Y-15807214D01*
X3378428Y-15835786D02*
X3392714Y-15821500D01*
X3421286Y-15807214D01*
X3464143Y-15807214D01*
X3492714Y-15821500D01*
X3507000Y-15850071D01*
X3507000Y-16007214D01*
X3507000Y-15850071D02*
X3521286Y-15821500D01*
X3549857Y-15807214D01*
X3592714Y-15807214D01*
X3621286Y-15821500D01*
X3635571Y-15850071D01*
X3635571Y-16007214D01*
X4221286Y-15692929D02*
X3964143Y-16078643D01*
X4607000Y-15707214D02*
X4635571Y-15707214D01*
X4664143Y-15721500D01*
X4678428Y-15735786D01*
X4692714Y-15764357D01*
X4707000Y-15821500D01*
X4707000Y-15892929D01*
X4692714Y-15950071D01*
X4678428Y-15978643D01*
X4664143Y-15992929D01*
X4635571Y-16007214D01*
X4607000Y-16007214D01*
X4578428Y-15992929D01*
X4564143Y-15978643D01*
X4549857Y-15950071D01*
X4535571Y-15892929D01*
X4535571Y-15821500D01*
X4549857Y-15764357D01*
X4564143Y-15735786D01*
X4578428Y-15721500D01*
X4607000Y-15707214D01*
X4835571Y-15978643D02*
X4849857Y-15992929D01*
X4835571Y-16007214D01*
X4821286Y-15992929D01*
X4835571Y-15978643D01*
X4835571Y-16007214D01*
X5035571Y-15707214D02*
X5064143Y-15707214D01*
X5092714Y-15721500D01*
X5107000Y-15735786D01*
X5121286Y-15764357D01*
X5135571Y-15821500D01*
X5135571Y-15892929D01*
X5121286Y-15950071D01*
X5107000Y-15978643D01*
X5092714Y-15992929D01*
X5064143Y-16007214D01*
X5035571Y-16007214D01*
X5007000Y-15992929D01*
X4992714Y-15978643D01*
X4978428Y-15950071D01*
X4964143Y-15892929D01*
X4964143Y-15821500D01*
X4978428Y-15764357D01*
X4992714Y-15735786D01*
X5007000Y-15721500D01*
X5035571Y-15707214D01*
X5407000Y-15707214D02*
X5264143Y-15707214D01*
X5249857Y-15850071D01*
X5264143Y-15835786D01*
X5292714Y-15821500D01*
X5364143Y-15821500D01*
X5392714Y-15835786D01*
X5407000Y-15850071D01*
X5421286Y-15878643D01*
X5421286Y-15950071D01*
X5407000Y-15978643D01*
X5392714Y-15992929D01*
X5364143Y-16007214D01*
X5292714Y-16007214D01*
X5264143Y-15992929D01*
X5249857Y-15978643D01*
X5564143Y-16007214D02*
X5621285Y-16007214D01*
X5649857Y-15992929D01*
X5664143Y-15978643D01*
X5692714Y-15935786D01*
X5707000Y-15878643D01*
X5707000Y-15764357D01*
X5692714Y-15735786D01*
X5678428Y-15721500D01*
X5649857Y-15707214D01*
X5592714Y-15707214D01*
X5564143Y-15721500D01*
X5549857Y-15735786D01*
X5535571Y-15764357D01*
X5535571Y-15835786D01*
X5549857Y-15864357D01*
X5564143Y-15878643D01*
X5592714Y-15892929D01*
X5649857Y-15892929D01*
X5678428Y-15878643D01*
X5692714Y-15864357D01*
X5707000Y-15835786D01*
X5821286Y-15707214D02*
X5821286Y-15764357D01*
X5935571Y-15707214D02*
X5935571Y-15764357D01*
X6378428Y-16121500D02*
X6364143Y-16107214D01*
X6335571Y-16064357D01*
X6321285Y-16035786D01*
X6307000Y-15992929D01*
X6292714Y-15921500D01*
X6292714Y-15864357D01*
X6307000Y-15792929D01*
X6321285Y-15750071D01*
X6335571Y-15721500D01*
X6364143Y-15678643D01*
X6378428Y-15664357D01*
X6478428Y-15735786D02*
X6492714Y-15721500D01*
X6521285Y-15707214D01*
X6592714Y-15707214D01*
X6621285Y-15721500D01*
X6635571Y-15735786D01*
X6649857Y-15764357D01*
X6649857Y-15792929D01*
X6635571Y-15835786D01*
X6464143Y-16007214D01*
X6649857Y-16007214D01*
X6921285Y-15707214D02*
X6778428Y-15707214D01*
X6764143Y-15850071D01*
X6778428Y-15835786D01*
X6807000Y-15821500D01*
X6878428Y-15821500D01*
X6907000Y-15835786D01*
X6921285Y-15850071D01*
X6935571Y-15878643D01*
X6935571Y-15950071D01*
X6921285Y-15978643D01*
X6907000Y-15992929D01*
X6878428Y-16007214D01*
X6807000Y-16007214D01*
X6778428Y-15992929D01*
X6764143Y-15978643D01*
X7192714Y-15707214D02*
X7135571Y-15707214D01*
X7107000Y-15721500D01*
X7092714Y-15735786D01*
X7064143Y-15778643D01*
X7049857Y-15835786D01*
X7049857Y-15950071D01*
X7064143Y-15978643D01*
X7078428Y-15992929D01*
X7107000Y-16007214D01*
X7164143Y-16007214D01*
X7192714Y-15992929D01*
X7207000Y-15978643D01*
X7221285Y-15950071D01*
X7221285Y-15878643D01*
X7207000Y-15850071D01*
X7192714Y-15835786D01*
X7164143Y-15821500D01*
X7107000Y-15821500D01*
X7078428Y-15835786D01*
X7064143Y-15850071D01*
X7049857Y-15878643D01*
X7578428Y-16007214D02*
X7578428Y-15707214D01*
X7707000Y-16007214D02*
X7707000Y-15850071D01*
X7692714Y-15821500D01*
X7664143Y-15807214D01*
X7621285Y-15807214D01*
X7592714Y-15821500D01*
X7578428Y-15835786D01*
X7892714Y-16007214D02*
X7864143Y-15992929D01*
X7849857Y-15978643D01*
X7835571Y-15950071D01*
X7835571Y-15864357D01*
X7849857Y-15835786D01*
X7864143Y-15821500D01*
X7892714Y-15807214D01*
X7935571Y-15807214D01*
X7964143Y-15821500D01*
X7978428Y-15835786D01*
X7992714Y-15864357D01*
X7992714Y-15950071D01*
X7978428Y-15978643D01*
X7964143Y-15992929D01*
X7935571Y-16007214D01*
X7892714Y-16007214D01*
X8164143Y-16007214D02*
X8135571Y-15992929D01*
X8121286Y-15964357D01*
X8121286Y-15707214D01*
X8392714Y-15992929D02*
X8364143Y-16007214D01*
X8307000Y-16007214D01*
X8278428Y-15992929D01*
X8264143Y-15964357D01*
X8264143Y-15850071D01*
X8278428Y-15821500D01*
X8307000Y-15807214D01*
X8364143Y-15807214D01*
X8392714Y-15821500D01*
X8407000Y-15850071D01*
X8407000Y-15878643D01*
X8264143Y-15907214D01*
X8521286Y-15992929D02*
X8549857Y-16007214D01*
X8607000Y-16007214D01*
X8635571Y-15992929D01*
X8649857Y-15964357D01*
X8649857Y-15950071D01*
X8635571Y-15921500D01*
X8607000Y-15907214D01*
X8564143Y-15907214D01*
X8535571Y-15892929D01*
X8521286Y-15864357D01*
X8521286Y-15850071D01*
X8535571Y-15821500D01*
X8564143Y-15807214D01*
X8607000Y-15807214D01*
X8635571Y-15821500D01*
X8749857Y-16121500D02*
X8764143Y-16107214D01*
X8792714Y-16064357D01*
X8807000Y-16035786D01*
X8821286Y-15992929D01*
X8835571Y-15921500D01*
X8835571Y-15864357D01*
X8821286Y-15792929D01*
X8807000Y-15750071D01*
X8792714Y-15721500D01*
X8764143Y-15678643D01*
X8749857Y-15664357D01*
M02*
