M48
;DRILL file {KiCad 4.0.5+dfsg1-4} date Tue Aug 15 23:30:53 2017
;FORMAT={-:-/ absolute / metric / decimal}
FMAT,2
METRIC,TZ
T1C3.988
%
G90
G05
M71
T1
X25.4Y-25.4
X25.4Y-52.387
X27.765Y-109.538
X27.783Y-128.588
X30.162Y-71.438
X32.545Y-90.487
X37.308Y-109.538
X44.45Y-52.387
X49.197Y-109.538
X49.212Y-128.588
X51.594Y-128.588
X53.975Y-71.438
X58.737Y-90.487
X63.5Y-25.4
X63.5Y-52.387
X68.263Y-109.538
X70.644Y-128.588
X73.025Y-71.438
X75.406Y-128.588
X77.787Y-90.487
X82.55Y-25.4
X82.55Y-52.387
X87.312Y-109.538
X92.075Y-71.438
X92.075Y-128.588
X96.837Y-90.487
X101.6Y-25.4
X101.6Y-52.387
X106.362Y-109.538
X111.125Y-71.438
X113.487Y-128.588
X115.888Y-90.487
X120.65Y-25.4
X120.65Y-52.387
X120.65Y-128.588
X123.015Y-128.588
X125.412Y-109.538
X130.175Y-71.438
X134.938Y-90.487
X137.287Y-128.588
X139.7Y-52.387
X144.462Y-109.538
X144.462Y-128.588
X146.844Y-128.588
X149.225Y-25.4
X149.225Y-71.438
X151.606Y-128.588
X153.988Y-90.487
X158.75Y-52.387
X163.512Y-109.538
X165.894Y-128.588
X168.272Y-128.588
X168.275Y-25.4
X168.275Y-71.438
X173.038Y-90.487
X175.425Y-128.588
X177.8Y-52.387
X182.562Y-109.538
X187.325Y-25.4
X187.325Y-71.438
X192.088Y-90.487
X196.85Y-52.387
X199.229Y-128.588
X201.612Y-109.538
X206.375Y-25.4
X206.375Y-71.438
X211.138Y-90.487
X215.9Y-52.387
X218.281Y-128.588
X220.662Y-109.538
X223.056Y-128.588
X225.425Y-71.438
X230.188Y-90.487
X234.95Y-25.4
X234.95Y-52.387
X239.712Y-109.538
X242.094Y-128.588
X244.475Y-71.438
X246.856Y-128.588
X249.238Y-90.487
X254.Y-25.4
X254.Y-52.387
X258.762Y-109.538
X263.525Y-71.438
X265.906Y-128.588
X268.288Y-90.487
X268.288Y-128.588
X273.05Y-25.4
X273.05Y-52.387
X275.415Y-109.538
X280.195Y-90.487
X282.575Y-52.387
X284.956Y-109.538
X287.338Y-71.438
X289.709Y-128.588
X289.735Y-80.962
X292.1Y-25.4
X292.1Y-52.387
X315.912Y-25.4
X315.912Y-52.387
X315.912Y-71.438
X315.912Y-128.588
X334.962Y-25.4
X334.962Y-52.387
X334.962Y-71.438
X334.962Y-109.538
X334.962Y-128.588
X354.012Y-25.4
X354.012Y-52.387
X354.012Y-71.438
X354.012Y-128.588
X377.825Y-52.387
X377.825Y-71.438
X377.825Y-90.487
X377.825Y-109.538
X387.35Y-128.588
X396.875Y-52.387
X396.875Y-71.438
X396.875Y-90.487
X396.875Y-109.538
X415.925Y-52.387
X415.925Y-71.438
X415.925Y-90.487
X415.925Y-109.538
X415.925Y-128.588
X434.975Y-52.387
X434.975Y-80.962
X434.975Y-119.062
T0
M30
