G04 #@! TF.FileFunction,Soldermask,Top*
%FSLAX46Y46*%
G04 Gerber Fmt 4.6, Leading zero omitted, Abs format (unit mm)*
G04 Created by KiCad (PCBNEW 4.0.5+dfsg1-4) date Sun Sep 23 14:38:37 2018*
%MOMM*%
%LPD*%
G01*
G04 APERTURE LIST*
%ADD10C,0.100000*%
%ADD11C,2.686000*%
%ADD12R,2.051000X2.051000*%
%ADD13C,2.051000*%
%ADD14C,2.000000*%
%ADD15R,2.000000X2.000000*%
%ADD16C,2.500000*%
%ADD17O,2.400000X3.400000*%
%ADD18O,1.500000X2.050000*%
%ADD19R,2.050000X2.300000*%
%ADD20O,2.050000X2.300000*%
%ADD21C,2.432000*%
G04 APERTURE END LIST*
D10*
D11*
X316540000Y-85977500D03*
X310190000Y-88517500D03*
X249865000Y-57990000D03*
X243515000Y-60530000D03*
X230815000Y-57990000D03*
X224465000Y-60530000D03*
X211765000Y-57990000D03*
X205415000Y-60530000D03*
X192715000Y-57990000D03*
X186365000Y-60530000D03*
X164140000Y-57990000D03*
X157790000Y-60530000D03*
X145090000Y-57990000D03*
X138740000Y-60530000D03*
X259390000Y-85977500D03*
X253040000Y-88517500D03*
X240340000Y-85977500D03*
X233990000Y-88517500D03*
X145090000Y-85977500D03*
X138740000Y-88517500D03*
X221290000Y-85977500D03*
X214940000Y-88517500D03*
X202240000Y-85977500D03*
X195890000Y-88517500D03*
X183190000Y-85977500D03*
X176840000Y-88517500D03*
X164140000Y-85977500D03*
X157790000Y-88517500D03*
X378702000Y-143128000D03*
X372352000Y-145668000D03*
X378702000Y-85977500D03*
X372352000Y-88517500D03*
D12*
X353130000Y-156660000D03*
D13*
X360750000Y-156660000D03*
D14*
X454140000Y-71280000D03*
X456680000Y-71280000D03*
X459220000Y-71280000D03*
X451600000Y-71280000D03*
X449060000Y-71280000D03*
X446520000Y-71280000D03*
X443980000Y-71280000D03*
X441440000Y-71280000D03*
X438900000Y-71280000D03*
X436360000Y-71280000D03*
D15*
X433820000Y-71280000D03*
D14*
X461760000Y-71280000D03*
X464300000Y-71280000D03*
X466840000Y-71280000D03*
X469380000Y-71280000D03*
X471920000Y-71280000D03*
X474460000Y-71280000D03*
X477000000Y-71280000D03*
X479540000Y-71280000D03*
X482080000Y-66200000D03*
D15*
X482080000Y-63660000D03*
D14*
X482080000Y-61120000D03*
X482080000Y-56040000D03*
X479540000Y-56040000D03*
X477000000Y-56040000D03*
X474460000Y-56040000D03*
X471920000Y-56040000D03*
X469380000Y-56040000D03*
X466840000Y-56040000D03*
X464300000Y-56040000D03*
X461760000Y-56040000D03*
D15*
X459220000Y-56040000D03*
D14*
X456680000Y-56040000D03*
X454140000Y-56040000D03*
X451600000Y-56040000D03*
X449060000Y-56040000D03*
X446520000Y-56040000D03*
X443980000Y-56040000D03*
X441440000Y-56040000D03*
X438900000Y-56040000D03*
X436360000Y-56040000D03*
X433820000Y-56040000D03*
X466840000Y-61120000D03*
X469380000Y-61120000D03*
X471920000Y-61120000D03*
X474460000Y-61120000D03*
X466840000Y-63660000D03*
X469380000Y-63660000D03*
X471920000Y-63660000D03*
X474460000Y-63660000D03*
X482080000Y-71280000D03*
D11*
X242719000Y-162178000D03*
X236369000Y-164718000D03*
X245098000Y-162178000D03*
X238748000Y-164718000D03*
X335590000Y-57990000D03*
X329240000Y-60530000D03*
D16*
X190334000Y-162178000D03*
X183984000Y-164718000D03*
X187952000Y-162178000D03*
X181602000Y-164718000D03*
X195096000Y-162178000D03*
X188746000Y-164718000D03*
X192680000Y-162178000D03*
X186330000Y-164718000D03*
D11*
X95083800Y-162178000D03*
X88733800Y-164718000D03*
X118896200Y-162178000D03*
X112546200Y-164718000D03*
X140326200Y-162178000D03*
X133976200Y-164718000D03*
X311778000Y-162178000D03*
X305428000Y-164718000D03*
X290346000Y-162178000D03*
X283996000Y-164718000D03*
X266546000Y-162178000D03*
X260196000Y-164718000D03*
X397752000Y-57990000D03*
X391402000Y-60530000D03*
D14*
X424760000Y-58590000D03*
X424760000Y-56050000D03*
X424760000Y-58590000D03*
X424760000Y-56050000D03*
D15*
X404420000Y-58670000D03*
D14*
X404420000Y-56130000D03*
D17*
X414640000Y-53035000D03*
X421940000Y-53035000D03*
D18*
X419940000Y-58200000D03*
X418340000Y-58200000D03*
X416740000Y-58200000D03*
X417540000Y-56400000D03*
X419140000Y-56400000D03*
D16*
X211750000Y-162178000D03*
X205400000Y-164718000D03*
D11*
X214230000Y-162178000D03*
D16*
X207880000Y-164718000D03*
X218915000Y-162178000D03*
X212565000Y-164718000D03*
X166505000Y-162178000D03*
X160155000Y-164718000D03*
X164140000Y-162178000D03*
X157790000Y-164718000D03*
X161736200Y-162178000D03*
X155386200Y-164718000D03*
X156977000Y-162178000D03*
D11*
X150627000Y-164718000D03*
D19*
X265110000Y-172160000D03*
D20*
X262570000Y-172160000D03*
D19*
X257780000Y-172160000D03*
D20*
X260320000Y-172160000D03*
D11*
X135565000Y-162178000D03*
X129215000Y-164718000D03*
D16*
X180777000Y-162178000D03*
X174427000Y-164718000D03*
D12*
X351370000Y-73670000D03*
D13*
X358990000Y-73670000D03*
D14*
X326390000Y-76620000D03*
X334010000Y-76620000D03*
X328930000Y-76620000D03*
X331470000Y-76620000D03*
X323850000Y-76620000D03*
D15*
X336550000Y-76620000D03*
X444730000Y-74750000D03*
D14*
X454890000Y-74750000D03*
X447270000Y-74750000D03*
X449810000Y-74750000D03*
X452350000Y-74750000D03*
X346790000Y-61070000D03*
D15*
X344250000Y-61070000D03*
D14*
X346790000Y-66070000D03*
D15*
X344250000Y-66070000D03*
D12*
X353240000Y-82470000D03*
D13*
X360860000Y-82470000D03*
D11*
X207002000Y-143128000D03*
X200652000Y-145668000D03*
X397752000Y-162178000D03*
X391402000Y-164718000D03*
X397752000Y-105027500D03*
X391402000Y-107567500D03*
X71255400Y-143128000D03*
X64905400Y-145668000D03*
D12*
X205330000Y-101570000D03*
D13*
X212950000Y-101570000D03*
D12*
X152050000Y-57960000D03*
D13*
X152050000Y-65580000D03*
D11*
X254628000Y-124077500D03*
X248278000Y-126617500D03*
X278440000Y-85977500D03*
X272090000Y-88517500D03*
D12*
X74950000Y-88060000D03*
D13*
X74950000Y-95680000D03*
D11*
X421815000Y-85977500D03*
X415465000Y-88517500D03*
X397752000Y-85977500D03*
X391402000Y-88517500D03*
X378702000Y-57990000D03*
X372352000Y-60530000D03*
D19*
X438830000Y-74670000D03*
D20*
X441370000Y-74670000D03*
D19*
X477780000Y-74670000D03*
D20*
X480320000Y-74670000D03*
D19*
X458280000Y-74670000D03*
D20*
X460820000Y-74670000D03*
D19*
X67280000Y-172150000D03*
D20*
X69820000Y-172150000D03*
D11*
X359652000Y-85977500D03*
X353302000Y-88517500D03*
X335590000Y-85977500D03*
X329240000Y-88517500D03*
X440865000Y-85977500D03*
X434515000Y-88517500D03*
X192715000Y-105027500D03*
X186365000Y-107567500D03*
X230815000Y-105027500D03*
X224465000Y-107567500D03*
D19*
X72160000Y-134420000D03*
D20*
X74700000Y-134420000D03*
D19*
X374980000Y-68170000D03*
D20*
X377520000Y-68170000D03*
D19*
X417910000Y-96170000D03*
D20*
X420450000Y-96170000D03*
D19*
X474910000Y-96170000D03*
D20*
X477450000Y-96170000D03*
D19*
X310390000Y-172170000D03*
X305710000Y-172170000D03*
D20*
X308050000Y-172170000D03*
D19*
X93690000Y-172170000D03*
X89010000Y-172170000D03*
D20*
X91350000Y-172170000D03*
D11*
X326065000Y-85977500D03*
X319715000Y-88517500D03*
X328446000Y-143128000D03*
X322096000Y-145668000D03*
X318905000Y-143128000D03*
X312555000Y-145668000D03*
X323685000Y-124077500D03*
X317335000Y-126617500D03*
X325605000Y-117092500D03*
X328145000Y-123442500D03*
X311778000Y-124077500D03*
X305428000Y-126617500D03*
X261771000Y-162178000D03*
X255421000Y-164718000D03*
X309396000Y-162178000D03*
X303046000Y-164718000D03*
X285584000Y-162178000D03*
X279234000Y-164718000D03*
D16*
X209384000Y-162178000D03*
X203034000Y-164718000D03*
D11*
X92686600Y-143128000D03*
X86336600Y-145668000D03*
X80797800Y-143128000D03*
X74447800Y-145668000D03*
X114133800Y-162178000D03*
X107783800Y-164718000D03*
X92702500Y-162178000D03*
X86352500Y-164718000D03*
D12*
X266540000Y-57970000D03*
D13*
X266540000Y-65590000D03*
D12*
X285510000Y-57970000D03*
D13*
X285510000Y-65590000D03*
D12*
X304570000Y-57970000D03*
D13*
X304570000Y-65590000D03*
D12*
X323550000Y-57970000D03*
D13*
X323550000Y-65590000D03*
D12*
X365930000Y-73670000D03*
D13*
X373550000Y-73670000D03*
D12*
X391550000Y-73670000D03*
D13*
X399170000Y-73670000D03*
D12*
X74950000Y-57970000D03*
D13*
X74950000Y-65590000D03*
D12*
X248250000Y-87770000D03*
D13*
X248250000Y-95390000D03*
D12*
X279950000Y-82570000D03*
D13*
X287570000Y-82570000D03*
D12*
X291130000Y-82570000D03*
D13*
X298750000Y-82570000D03*
D12*
X310150000Y-82570000D03*
D13*
X317770000Y-82570000D03*
D12*
X329230000Y-82570000D03*
D13*
X336850000Y-82570000D03*
D12*
X372340000Y-82570000D03*
D13*
X379960000Y-82570000D03*
D12*
X391440000Y-82570000D03*
D13*
X399060000Y-82570000D03*
D12*
X427870000Y-88530000D03*
D13*
X427870000Y-96150000D03*
D12*
X434430000Y-82570000D03*
D13*
X442050000Y-82570000D03*
D12*
X453440000Y-82570000D03*
D13*
X461060000Y-82570000D03*
D12*
X467950000Y-88560000D03*
D13*
X467950000Y-96180000D03*
D12*
X262530000Y-101570000D03*
D13*
X270150000Y-101570000D03*
D12*
X281640000Y-101570000D03*
D13*
X289260000Y-101570000D03*
D12*
X300640000Y-101570000D03*
D13*
X308260000Y-101570000D03*
D12*
X353140000Y-101820000D03*
D13*
X360760000Y-101820000D03*
D12*
X372330000Y-101570000D03*
D13*
X379950000Y-101570000D03*
D12*
X391330000Y-101570000D03*
D13*
X398950000Y-101570000D03*
D12*
X427850000Y-107550000D03*
D13*
X427850000Y-115170000D03*
D12*
X434440000Y-100670000D03*
D13*
X442060000Y-100670000D03*
D12*
X453540000Y-100670000D03*
D13*
X461160000Y-100670000D03*
D12*
X267330000Y-120670000D03*
D13*
X274950000Y-120670000D03*
D12*
X286350000Y-120670000D03*
D13*
X293970000Y-120670000D03*
D12*
X305450000Y-120670000D03*
D13*
X313070000Y-120670000D03*
D12*
X328130000Y-128870000D03*
D13*
X335750000Y-128870000D03*
D12*
X415430000Y-120170000D03*
D13*
X423050000Y-120170000D03*
D12*
X434450000Y-120170000D03*
D13*
X442070000Y-120170000D03*
D12*
X453540000Y-120170000D03*
D13*
X461160000Y-120170000D03*
D12*
X473930000Y-128470000D03*
D13*
X481550000Y-128470000D03*
D12*
X257750000Y-139670000D03*
D13*
X265370000Y-139670000D03*
D12*
X276850000Y-139670000D03*
D13*
X284470000Y-139670000D03*
D12*
X295930000Y-139670000D03*
D13*
X303550000Y-139670000D03*
D12*
X312540000Y-139670000D03*
D13*
X320160000Y-139670000D03*
D12*
X372330000Y-139670000D03*
D13*
X379950000Y-139670000D03*
D12*
X415350000Y-139670000D03*
D13*
X422970000Y-139670000D03*
D12*
X434550000Y-139670000D03*
D13*
X442170000Y-139670000D03*
D12*
X453550000Y-139670000D03*
D13*
X461170000Y-139670000D03*
D12*
X279240000Y-156660000D03*
D13*
X286860000Y-156660000D03*
D12*
X305410000Y-156660000D03*
D13*
X313030000Y-156660000D03*
D12*
X326930000Y-156660000D03*
D13*
X334550000Y-156660000D03*
D12*
X372330000Y-156660000D03*
D13*
X379950000Y-156660000D03*
D12*
X391330000Y-156660000D03*
D13*
X398950000Y-156660000D03*
D12*
X424950000Y-156660000D03*
D13*
X432570000Y-156660000D03*
D12*
X453540000Y-156660000D03*
D13*
X461160000Y-156660000D03*
D12*
X473930000Y-166470000D03*
D13*
X481550000Y-166470000D03*
D12*
X95090000Y-57970000D03*
D13*
X95090000Y-65590000D03*
D12*
X113940000Y-57970000D03*
D13*
X113940000Y-65590000D03*
D12*
X132150000Y-57970000D03*
D13*
X132150000Y-65590000D03*
D12*
X180850000Y-57970000D03*
D13*
X180850000Y-65590000D03*
D12*
X199750000Y-57970000D03*
D13*
X199750000Y-65590000D03*
D12*
X218850000Y-57970000D03*
D13*
X218850000Y-65590000D03*
D12*
X237750000Y-57970000D03*
D13*
X237750000Y-65590000D03*
D12*
X81540000Y-82470000D03*
D13*
X89160000Y-82470000D03*
D12*
X100650000Y-82470000D03*
D13*
X108270000Y-82470000D03*
D12*
X119690000Y-82470000D03*
D13*
X127310000Y-82470000D03*
D12*
X133950000Y-87760000D03*
D13*
X133950000Y-95380000D03*
D12*
X152950000Y-87770000D03*
D13*
X152950000Y-95390000D03*
D12*
X172050000Y-87770000D03*
D13*
X172050000Y-95390000D03*
D12*
X191050000Y-87770000D03*
D13*
X191050000Y-95390000D03*
D12*
X209950000Y-87770000D03*
D13*
X209950000Y-95390000D03*
D12*
X229250000Y-87770000D03*
D13*
X229250000Y-95390000D03*
D12*
X67330000Y-101570000D03*
D13*
X74950000Y-101570000D03*
D12*
X91140000Y-101570000D03*
D13*
X98760000Y-101570000D03*
D12*
X110140000Y-101570000D03*
D13*
X117760000Y-101570000D03*
D12*
X129240000Y-101570000D03*
D13*
X136860000Y-101570000D03*
D12*
X148340000Y-101570000D03*
D13*
X155960000Y-101570000D03*
D12*
X167330000Y-101570000D03*
D13*
X174950000Y-101570000D03*
D12*
X186440000Y-101570000D03*
D13*
X194060000Y-101570000D03*
D12*
X224540000Y-101570000D03*
D13*
X232160000Y-101570000D03*
D12*
X243540000Y-101570000D03*
D13*
X251160000Y-101570000D03*
D12*
X69640000Y-120670000D03*
D13*
X77260000Y-120670000D03*
D12*
X95850000Y-120670000D03*
D13*
X103470000Y-120670000D03*
D12*
X114940000Y-120670000D03*
D13*
X122560000Y-120670000D03*
D12*
X133940000Y-120670000D03*
D13*
X141560000Y-120670000D03*
D12*
X153050000Y-120670000D03*
D13*
X160670000Y-120670000D03*
D12*
X172050000Y-120670000D03*
D13*
X179670000Y-120670000D03*
D12*
X191140000Y-120670000D03*
D13*
X198760000Y-120670000D03*
D12*
X210150000Y-120670000D03*
D13*
X217770000Y-120670000D03*
D12*
X229250000Y-120670000D03*
D13*
X236870000Y-120670000D03*
D12*
X248250000Y-120670000D03*
D13*
X255870000Y-120670000D03*
D12*
X74430000Y-139670000D03*
D13*
X82050000Y-139670000D03*
D12*
X86340000Y-139670000D03*
D13*
X93960000Y-139670000D03*
D12*
X105350000Y-139670000D03*
D13*
X112970000Y-139670000D03*
D12*
X127730000Y-139670000D03*
D13*
X135350000Y-139670000D03*
D12*
X143450000Y-139670000D03*
D13*
X151070000Y-139670000D03*
D12*
X162550000Y-139670000D03*
D13*
X170170000Y-139670000D03*
D12*
X181630000Y-139670000D03*
D13*
X189250000Y-139670000D03*
D12*
X200650000Y-139670000D03*
D13*
X208270000Y-139670000D03*
D12*
X219640000Y-139670000D03*
D13*
X227260000Y-139670000D03*
D12*
X238730000Y-139670000D03*
D13*
X246350000Y-139670000D03*
D12*
X64950000Y-156660000D03*
D13*
X72570000Y-156660000D03*
D12*
X88730000Y-156660000D03*
D13*
X96350000Y-156660000D03*
D12*
X107840000Y-156660000D03*
D13*
X115460000Y-156660000D03*
D12*
X129240000Y-156660000D03*
D13*
X136860000Y-156660000D03*
D12*
X150640000Y-156660000D03*
D13*
X158260000Y-156660000D03*
D12*
X174450000Y-156660000D03*
D13*
X182070000Y-156660000D03*
D12*
X203040000Y-156660000D03*
D13*
X210660000Y-156660000D03*
D12*
X236340000Y-156660000D03*
D13*
X243960000Y-156660000D03*
D12*
X255430000Y-156660000D03*
D13*
X263050000Y-156660000D03*
D11*
X278440000Y-57990000D03*
X272090000Y-60530000D03*
X297490000Y-57990000D03*
X291140000Y-60530000D03*
X316540000Y-57990000D03*
X310190000Y-60530000D03*
X359652000Y-57990000D03*
X353302000Y-60530000D03*
X68890000Y-57990000D03*
X62540000Y-60530000D03*
X297490000Y-85977500D03*
X291140000Y-88517500D03*
X459915000Y-85977500D03*
X453565000Y-88517500D03*
X478965000Y-85977500D03*
X472615000Y-88517500D03*
X268915000Y-105027500D03*
X262565000Y-107567500D03*
X287965000Y-105027500D03*
X281615000Y-107567500D03*
X307015000Y-105027500D03*
X300665000Y-107567500D03*
X359652000Y-105027500D03*
X353302000Y-107567500D03*
X378702000Y-105027500D03*
X372352000Y-107567500D03*
X421815000Y-105027500D03*
X415465000Y-107567500D03*
X440865000Y-105027500D03*
X434515000Y-107567500D03*
X459915000Y-105027500D03*
X453565000Y-107567500D03*
X273678000Y-124077500D03*
X267328000Y-126617500D03*
X292728000Y-124077500D03*
X286378000Y-126617500D03*
X330828000Y-105027500D03*
X324478000Y-107567500D03*
X421815000Y-124077500D03*
X415465000Y-126617500D03*
X440865000Y-124077500D03*
X434515000Y-126617500D03*
X459915000Y-124077500D03*
X453565000Y-126617500D03*
X471345000Y-117092500D03*
X473885000Y-123442500D03*
X264152000Y-143128000D03*
X257802000Y-145668000D03*
X283202000Y-143128000D03*
X276852000Y-145668000D03*
X302252000Y-143128000D03*
X295902000Y-145668000D03*
X421815000Y-143128000D03*
X415465000Y-145668000D03*
X440865000Y-143128000D03*
X434515000Y-145668000D03*
X459915000Y-143128000D03*
X453565000Y-145668000D03*
X333199000Y-162178000D03*
X326849000Y-164718000D03*
X359652000Y-162178000D03*
X353302000Y-164718000D03*
X378702000Y-162178000D03*
X372352000Y-164718000D03*
X431340000Y-162178000D03*
X424990000Y-164718000D03*
X459915000Y-162178000D03*
X453565000Y-164718000D03*
X471345000Y-155192000D03*
X473885000Y-161542000D03*
X106990000Y-57990000D03*
X100640000Y-60530000D03*
X126040000Y-57990000D03*
X119690000Y-60530000D03*
X68890000Y-85977500D03*
X62540000Y-88517500D03*
X87940000Y-85977500D03*
X81590000Y-88517500D03*
X106990000Y-85977500D03*
X100640000Y-88517500D03*
X126040000Y-85977500D03*
X119690000Y-88517500D03*
X73652500Y-105027500D03*
X67302500Y-107567500D03*
X97465000Y-105027500D03*
X91115000Y-107567500D03*
X116515000Y-105027500D03*
X110165000Y-107567500D03*
X135565000Y-105027500D03*
X129215000Y-107567500D03*
X154615000Y-105027500D03*
X148265000Y-107567500D03*
X173665000Y-105027500D03*
X167315000Y-107567500D03*
X211765000Y-105027500D03*
X205415000Y-107567500D03*
X249865000Y-105027500D03*
X243515000Y-107567500D03*
X76034700Y-124077500D03*
X69684700Y-126617500D03*
X102227500Y-124077500D03*
X95877500Y-126617500D03*
X121277500Y-124077500D03*
X114927500Y-126617500D03*
X140327500Y-124077500D03*
X133977500Y-126617500D03*
X159378000Y-124077500D03*
X153028000Y-126617500D03*
X178428000Y-124077500D03*
X172078000Y-126617500D03*
X197478000Y-124077500D03*
X191128000Y-126617500D03*
X216528000Y-124077500D03*
X210178000Y-126617500D03*
X235578000Y-124077500D03*
X229228000Y-126617500D03*
X111752500Y-143128000D03*
X105402500Y-145668000D03*
X130802500Y-143128000D03*
X124452500Y-145668000D03*
X149852000Y-143128000D03*
X143502000Y-145668000D03*
D21*
X168902000Y-143128000D03*
X162552000Y-145668000D03*
D11*
X187952000Y-143128000D03*
X181602000Y-145668000D03*
X226052000Y-143128000D03*
X219702000Y-145668000D03*
X245102000Y-143128000D03*
X238752000Y-145668000D03*
X71272800Y-162178000D03*
X64922800Y-164718000D03*
D13*
X387630000Y-73670000D03*
X377470000Y-73670000D03*
X418340000Y-75230000D03*
X428500000Y-75230000D03*
X415150000Y-100670000D03*
X425310000Y-100670000D03*
X471290000Y-100670000D03*
X481450000Y-100670000D03*
X418340000Y-78670000D03*
X428500000Y-78670000D03*
X418340000Y-81870000D03*
X428500000Y-81870000D03*
X362030000Y-150670000D03*
X351870000Y-150670000D03*
X362030000Y-146670000D03*
X351870000Y-146670000D03*
X400030000Y-146670000D03*
X389870000Y-146670000D03*
X400030000Y-150670000D03*
X389870000Y-150670000D03*
D10*
G36*
X410930000Y-62850000D02*
X409330000Y-62850000D01*
X409330000Y-60910000D01*
X410930000Y-60910000D01*
X410930000Y-62850000D01*
X410930000Y-62850000D01*
G37*
X410930000Y-62850000D02*
X409330000Y-62850000D01*
X409330000Y-60910000D01*
X410930000Y-60910000D01*
X410930000Y-62850000D01*
M02*
