G04 #@! TF.FileFunction,Profile,NP*
%FSLAX46Y46*%
G04 Gerber Fmt 4.6, Leading zero omitted, Abs format (unit mm)*
G04 Created by KiCad (PCBNEW 4.0.5+dfsg1-4) date Sun Sep 23 14:38:37 2018*
%MOMM*%
%LPD*%
G01*
G04 APERTURE LIST*
%ADD10C,0.100000*%
%ADD11C,0.150000*%
%ADD12C,0.200000*%
G04 APERTURE END LIST*
D10*
D11*
X407350000Y-54658000D02*
X407350000Y-56660000D01*
X423750000Y-53082000D02*
G75*
G03X424538000Y-53870000I788000J0D01*
G01*
X413638000Y-51110000D02*
G75*
G03X412850000Y-51898000I0J-788000D01*
G01*
X423750000Y-51898000D02*
G75*
G03X422962000Y-51110000I-788000J0D01*
G01*
X423750000Y-51898000D02*
X423750000Y-53082000D01*
X413638000Y-51110000D02*
X422962000Y-51110000D01*
X412850000Y-56660000D02*
X412850000Y-51898000D01*
X407350000Y-54658000D02*
G75*
G03X406562000Y-53870000I-788000J0D01*
G01*
X424538000Y-53870000D02*
X485162000Y-53870000D01*
X407350000Y-56660000D02*
G75*
G03X412850000Y-56660000I2750000J0D01*
G01*
X485162000Y-176025000D02*
G75*
G03X485950000Y-175237000I0J788000D01*
G01*
X485950000Y-54658000D02*
G75*
G03X485162000Y-53870000I-788000J0D01*
G01*
X57595000Y-175237000D02*
G75*
G03X58383000Y-176025000I788000J0D01*
G01*
X58383000Y-53870000D02*
G75*
G03X57595000Y-54658000I0J-788000D01*
G01*
X136550000Y-83382000D02*
G75*
G03X137338000Y-84170000I788000J0D01*
G01*
X137340000Y-68670000D02*
G75*
G03X136552000Y-69458000I0J-788000D01*
G01*
X259460000Y-84170000D02*
G75*
G03X260248000Y-83382000I0J788000D01*
G01*
X260250000Y-69460000D02*
G75*
G03X259462000Y-68672000I-788000J0D01*
G01*
X58383000Y-53870000D02*
X406562000Y-53870000D01*
X259462000Y-68670000D02*
X137340000Y-68670000D01*
X136550000Y-83382000D02*
X136550000Y-69458000D01*
X259460000Y-84170000D02*
X137338000Y-84170000D01*
X260250000Y-69460000D02*
X260250000Y-83382000D01*
D12*
X80828087Y-76770000D02*
G75*
G03X80828087Y-76770000I-6378087J0D01*
G01*
X278428087Y-76770000D02*
G75*
G03X278428087Y-76770000I-6378087J0D01*
G01*
X474084314Y-77095000D02*
G75*
G03X474084314Y-77095000I-4534314J0D01*
G01*
D11*
X57595000Y-175237000D02*
X57595000Y-54658000D01*
X485162000Y-176025000D02*
X58383000Y-176025000D01*
X485950000Y-54658000D02*
X485950000Y-175237000D01*
M02*
