M48
;DRILL file {KiCad 4.0.5+dfsg1-4} date Sun Feb 11 23:43:26 2018
;FORMAT={-:-/ absolute / metric / decimal}
FMAT,2
METRIC,TZ
T1C0.350
T2C0.991
T3C1.100
T4C1.499
%
G90
G05
M71
T1
X279.13Y-127.37
X291.92Y-56.76
X291.97Y-102.86
X292.69Y-55.931
X296.35Y-39.85
X301.477Y-47.203
X301.479Y-48.336
X301.738Y-97.25
X302.538Y-96.45
X302.543Y-97.25
X308.79Y-94.85
X310.72Y-94.05
X314.73Y-114.889
X315.78Y-115.69
X315.784Y-116.49
X317.17Y-40.54
X317.17Y-41.34
X317.17Y-42.14
X317.554Y-56.734
X318.81Y-97.25
X321.352Y-55.132
X323.74Y-40.54
X329.58Y-42.96
X334.92Y-97.25
X346.59Y-43.477
X347.39Y-43.145
X353.46Y-66.38
X353.51Y-31.45
X354.31Y-31.45
X355.11Y-31.45
X355.91Y-31.45
X356.71Y-31.45
X359.67Y-31.45
X359.67Y-39.74
X360.47Y-78.38
X360.47Y-31.45
X361.27Y-31.45
X362.07Y-79.18
X362.07Y-31.45
X362.56Y-99.65
X362.87Y-31.449
X362.87Y-50.3
X362.87Y-87.61
X363.67Y-80.01
X363.67Y-60.9
X364.47Y-60.1
X364.47Y-83.51
X366.87Y-47.31
X366.87Y-64.35
X367.67Y-89.54
X368.47Y-59.3
X369.27Y-91.497
X370.865Y-20.975
X373.27Y-39.97
X374.07Y-41.06
X374.07Y-42.93
X374.07Y-44.114
X389.82Y-79.18
X389.86Y-46.1
X402.91Y-64.35
X413.821Y-19.19
X420.66Y-52.561
X421.46Y-41.18
X425.46Y-73.61
X425.464Y-72.474
T2
X24.Y-120.
X26.33Y-133.48
X26.38Y-62.9
X28.69Y-82.
X28.87Y-133.48
X31.21Y-95.75
X31.62Y-120.
X33.48Y-101.
X33.75Y-95.75
X34.Y-21.38
X34.Y-29.
X34.Y-49.39
X34.Y-57.01
X34.Y-62.9
X36.31Y-82.
X40.59Y-43.8
X41.1Y-101.
X45.39Y-101.
X47.78Y-120.
X48.06Y-133.5
X48.21Y-43.8
X50.19Y-62.9
X50.4Y-133.5
X52.74Y-133.5
X53.01Y-101.
X54.9Y-82.
X55.4Y-120.
X57.81Y-62.9
X59.69Y-33.
X59.7Y-43.8
X62.52Y-82.
X64.4Y-101.
X66.89Y-120.
X67.31Y-33.
X67.32Y-43.8
X69.19Y-62.9
X72.02Y-101.
X73.99Y-82.
X74.51Y-120.
X76.81Y-62.9
X78.69Y-33.
X78.74Y-43.8
X81.61Y-82.
X86.31Y-33.
X86.36Y-43.8
X86.78Y-101.
X88.29Y-62.9
X88.29Y-120.
X91.2Y-19.3
X91.2Y-26.92
X92.99Y-82.
X93.Y-49.09
X93.Y-56.71
X94.4Y-101.
X95.91Y-62.9
X95.91Y-120.
X100.61Y-82.
X102.5Y-101.
X107.39Y-62.9
X109.69Y-120.
X110.12Y-101.
X111.45Y-19.3
X111.45Y-26.92
X112.Y-49.1
X112.Y-56.72
X112.1Y-82.
X115.01Y-62.9
X117.31Y-120.
X119.72Y-82.
X121.6Y-101.
X126.38Y-62.9
X129.22Y-101.
X131.1Y-49.1
X131.1Y-56.72
X131.1Y-82.
X133.5Y-120.
X134.Y-62.9
X138.72Y-82.
X139.5Y-19.3
X139.5Y-26.92
X140.68Y-101.
X141.12Y-120.
X145.49Y-62.9
X148.3Y-101.
X150.1Y-49.1
X150.1Y-56.72
X150.19Y-82.
X153.11Y-62.9
X157.81Y-82.
X158.5Y-19.3
X158.5Y-26.92
X159.7Y-101.
X162.09Y-120.
X164.38Y-62.9
X167.32Y-101.
X169.Y-49.1
X169.Y-56.72
X169.2Y-82.
X169.71Y-120.
X172.Y-62.9
X176.82Y-82.
X178.69Y-101.
X183.59Y-62.9
X186.31Y-101.
X188.3Y-49.1
X188.3Y-56.72
X188.3Y-82.
X191.21Y-62.9
X195.39Y-120.
X195.92Y-82.
X197.Y-19.3
X197.Y-26.92
X197.78Y-101.
X202.59Y-62.9
X203.01Y-120.
X205.4Y-101.
X207.3Y-49.1
X207.3Y-56.72
X207.3Y-82.
X210.21Y-62.9
X214.48Y-120.
X214.92Y-82.
X216.8Y-101.
X221.58Y-62.9
X222.1Y-120.
X223.5Y-19.3
X223.5Y-26.92
X224.42Y-101.
X226.38Y-82.
X229.2Y-62.9
X234.Y-82.
X235.9Y-101.
X238.29Y-120.
X238.98Y-33.
X239.Y-43.9
X240.69Y-62.9
X243.52Y-101.
X245.4Y-82.
X245.91Y-120.
X246.6Y-33.
X246.62Y-43.9
X248.31Y-62.9
X250.18Y-43.9
X250.19Y-33.
X253.02Y-82.
X254.98Y-101.
X257.8Y-43.9
X257.81Y-33.
X259.69Y-62.9
X262.6Y-101.
X264.46Y-117.99
X264.5Y-82.
X264.76Y-133.5
X267.1Y-133.5
X267.31Y-62.9
X269.2Y-33.
X269.2Y-43.9
X269.44Y-133.5
X271.59Y-101.
X272.08Y-117.99
X272.12Y-82.
X276.82Y-33.
X276.82Y-43.9
X279.21Y-101.
X285.98Y-120.
X287.18Y-90.2
X288.28Y-33.
X288.28Y-43.9
X293.6Y-120.
X294.8Y-90.2
X295.9Y-33.
X295.9Y-43.9
X310.92Y-108.
X310.92Y-112.
X312.18Y-120.
X312.19Y-62.9
X312.28Y-33.
X312.29Y-43.8
X319.8Y-120.
X319.81Y-62.9
X319.9Y-33.
X319.91Y-43.8
X321.08Y-108.
X321.08Y-112.
X324.98Y-35.
X331.38Y-62.9
X331.38Y-101.
X331.38Y-120.
X331.39Y-43.9
X332.6Y-35.
X334.03Y-29.5
X336.52Y-35.
X336.57Y-29.5
X339.Y-62.9
X339.Y-101.
X339.Y-120.
X339.01Y-43.9
X346.68Y-35.
X348.92Y-108.
X348.92Y-112.
X350.38Y-62.9
X350.38Y-120.
X350.49Y-43.9
X350.6Y-35.
X358.Y-62.9
X358.Y-120.
X358.11Y-43.9
X358.22Y-35.
X359.08Y-108.
X359.08Y-112.
X374.2Y-62.
X374.4Y-101.
X374.48Y-82.
X375.64Y-34.56
X375.64Y-38.
X375.64Y-41.2
X376.96Y-57.5
X379.5Y-57.5
X382.02Y-101.
X382.1Y-82.
X384.Y-120.
X384.36Y-62.
X385.8Y-34.56
X385.8Y-38.
X385.8Y-41.2
X386.9Y-68.88
X386.9Y-76.5
X386.92Y-49.86
X386.92Y-57.48
X391.62Y-120.
X393.48Y-43.9
X393.49Y-62.
X393.5Y-82.
X393.6Y-101.
X396.93Y-36.1
X399.47Y-36.1
X401.1Y-43.9
X401.11Y-62.
X401.12Y-82.
X401.22Y-101.
X412.49Y-43.9
X412.59Y-62.
X412.59Y-82.
X412.59Y-120.
X412.6Y-101.
X417.73Y-36.1
X420.11Y-43.9
X420.21Y-62.
X420.21Y-82.
X420.21Y-120.
X420.22Y-101.
X420.27Y-36.1
X427.Y-49.89
X427.Y-57.51
X430.34Y-62.
X432.98Y-89.8
X432.98Y-127.8
X433.96Y-57.5
X436.5Y-57.5
X436.83Y-36.
X439.37Y-36.
X440.5Y-62.
X440.6Y-89.8
X440.6Y-127.8
T3
X282.9Y-37.95
X285.44Y-37.95
X287.98Y-37.95
X290.52Y-37.95
X293.06Y-37.95
X295.6Y-37.95
X303.3Y-22.4
X303.3Y-27.4
X305.84Y-22.4
X305.84Y-27.4
X392.87Y-17.37
X392.87Y-32.61
X395.41Y-17.37
X395.41Y-32.61
X397.95Y-17.37
X397.95Y-32.61
X400.49Y-17.37
X400.49Y-32.61
X403.03Y-17.37
X403.03Y-32.61
X403.53Y-35.94
X405.57Y-17.37
X405.57Y-32.61
X406.07Y-35.94
X408.11Y-17.37
X408.11Y-32.61
X408.61Y-35.94
X410.65Y-17.37
X410.65Y-32.61
X411.15Y-35.94
X413.19Y-17.37
X413.19Y-32.61
X413.69Y-35.94
X415.73Y-17.37
X415.73Y-32.61
X418.27Y-17.37
X418.27Y-32.61
X420.81Y-17.37
X420.81Y-32.61
X423.35Y-17.37
X423.35Y-32.61
X425.89Y-17.37
X425.89Y-22.45
X425.89Y-24.99
X425.89Y-32.61
X428.43Y-17.37
X428.43Y-22.45
X428.43Y-24.99
X428.43Y-32.61
X430.97Y-17.37
X430.97Y-22.45
X430.97Y-24.99
X430.97Y-32.61
X433.51Y-17.37
X433.51Y-22.45
X433.51Y-24.99
X433.51Y-32.61
X436.05Y-17.37
X436.05Y-32.61
X438.59Y-17.37
X438.59Y-32.61
X441.13Y-17.37
X441.13Y-22.45
X441.13Y-24.99
X441.13Y-27.53
T4
X21.59Y-21.86
X21.59Y-49.847
X23.955Y-106.998
X23.973Y-126.048
X26.352Y-68.897
X27.94Y-19.32
X27.94Y-47.307
X28.735Y-87.947
X30.305Y-104.458
X30.323Y-123.508
X32.703Y-66.358
X33.498Y-106.998
X35.085Y-85.407
X39.848Y-104.458
X40.64Y-49.847
X45.387Y-106.998
X45.402Y-126.048
X46.99Y-47.307
X47.784Y-126.048
X50.165Y-68.897
X51.737Y-104.458
X51.752Y-123.508
X54.134Y-123.508
X54.927Y-87.947
X56.515Y-66.358
X59.69Y-21.86
X59.69Y-49.847
X61.277Y-85.407
X64.453Y-106.998
X66.04Y-19.32
X66.04Y-47.307
X66.834Y-126.048
X69.215Y-68.897
X70.802Y-104.458
X71.596Y-126.048
X73.184Y-123.508
X73.977Y-87.947
X75.565Y-66.358
X77.946Y-123.508
X78.74Y-21.86
X78.74Y-49.847
X80.328Y-85.407
X83.502Y-106.998
X85.09Y-19.32
X85.09Y-47.307
X88.265Y-68.897
X88.265Y-126.048
X89.852Y-104.458
X93.027Y-87.947
X94.615Y-66.358
X94.615Y-123.508
X97.79Y-21.86
X97.79Y-49.847
X99.377Y-85.407
X102.552Y-106.998
X104.14Y-19.32
X104.14Y-47.307
X107.315Y-68.897
X108.902Y-104.458
X109.677Y-126.048
X112.078Y-87.947
X113.665Y-66.358
X116.027Y-123.508
X116.84Y-21.86
X116.84Y-49.847
X116.84Y-126.048
X118.428Y-85.407
X119.205Y-126.048
X121.602Y-106.998
X123.19Y-19.32
X123.19Y-47.307
X123.19Y-123.508
X125.555Y-123.508
X126.365Y-68.897
X127.952Y-104.458
X131.128Y-87.947
X132.715Y-66.358
X133.477Y-126.048
X135.89Y-49.847
X137.478Y-85.407
X139.827Y-123.508
X140.652Y-106.998
X140.652Y-126.048
X142.24Y-47.307
X143.034Y-126.048
X145.415Y-21.86
X145.415Y-68.897
X147.002Y-104.458
X147.002Y-123.508
X147.796Y-126.048
X149.384Y-123.508
X150.178Y-87.947
X151.765Y-19.32
X151.765Y-66.358
X154.146Y-123.508
X154.94Y-49.847
X156.528Y-85.407
X159.702Y-106.998
X161.29Y-47.307
X162.084Y-126.048
X164.462Y-126.048
X164.465Y-21.86
X164.465Y-68.897
X166.052Y-104.458
X168.434Y-123.508
X169.228Y-87.947
X170.812Y-123.508
X170.815Y-19.32
X170.815Y-66.358
X171.615Y-126.048
X173.99Y-49.847
X175.578Y-85.407
X177.965Y-123.508
X178.752Y-106.998
X180.34Y-47.307
X183.515Y-21.86
X183.515Y-68.897
X185.102Y-104.458
X188.278Y-87.947
X189.865Y-19.32
X189.865Y-66.358
X193.04Y-49.847
X194.628Y-85.407
X195.419Y-126.048
X197.802Y-106.998
X199.39Y-47.307
X201.769Y-123.508
X202.565Y-21.86
X202.565Y-68.897
X204.152Y-104.458
X207.328Y-87.947
X208.915Y-19.32
X208.915Y-66.358
X212.09Y-49.847
X213.678Y-85.407
X214.471Y-126.048
X216.852Y-106.998
X218.44Y-47.307
X219.246Y-126.048
X220.821Y-123.508
X221.615Y-68.897
X223.202Y-104.458
X225.596Y-123.508
X226.378Y-87.947
X227.965Y-66.358
X231.14Y-21.86
X231.14Y-49.847
X232.728Y-85.407
X235.902Y-106.998
X237.49Y-19.32
X237.49Y-47.307
X238.284Y-126.048
X240.665Y-68.897
X242.252Y-104.458
X243.046Y-126.048
X244.634Y-123.508
X245.428Y-87.947
X247.015Y-66.358
X249.396Y-123.508
X250.19Y-21.86
X250.19Y-49.847
X251.778Y-85.407
X254.952Y-106.998
X256.54Y-19.32
X256.54Y-47.307
X259.715Y-68.897
X261.302Y-104.458
X262.096Y-126.048
X264.478Y-87.947
X264.478Y-126.048
X266.065Y-66.358
X268.446Y-123.508
X269.24Y-21.86
X269.24Y-49.847
X270.828Y-85.407
X270.828Y-123.508
X271.605Y-106.998
X275.59Y-19.32
X275.59Y-47.307
X276.385Y-87.947
X277.955Y-104.458
X278.765Y-49.847
X281.146Y-106.998
X282.735Y-85.407
X283.528Y-68.897
X284.655Y-78.422
X285.115Y-47.307
X285.899Y-126.048
X287.195Y-84.772
X287.496Y-104.458
X288.29Y-21.86
X288.29Y-49.847
X289.878Y-66.358
X292.249Y-123.508
X294.64Y-19.32
X294.64Y-47.307
X312.352Y-21.86
X312.352Y-49.847
X312.352Y-68.897
X312.352Y-126.048
X318.702Y-19.32
X318.702Y-47.307
X318.702Y-66.358
X318.702Y-123.508
X331.402Y-21.86
X331.402Y-49.847
X331.402Y-68.897
X331.402Y-106.998
X331.402Y-126.048
X337.752Y-19.32
X337.752Y-47.307
X337.752Y-66.358
X337.752Y-104.458
X337.752Y-123.508
X350.452Y-21.86
X350.452Y-49.847
X350.452Y-68.897
X350.452Y-126.048
X356.802Y-19.32
X356.802Y-47.307
X356.802Y-66.358
X356.802Y-123.508
X374.515Y-49.847
X374.515Y-68.897
X374.515Y-87.947
X374.515Y-106.998
X380.865Y-47.307
X380.865Y-66.358
X380.865Y-85.407
X380.865Y-104.458
X384.04Y-126.048
X390.39Y-123.508
X393.565Y-49.847
X393.565Y-68.897
X393.565Y-87.947
X393.565Y-106.998
X399.915Y-47.307
X399.915Y-66.358
X399.915Y-85.407
X399.915Y-104.458
X412.615Y-49.847
X412.615Y-68.897
X412.615Y-87.947
X412.615Y-106.998
X412.615Y-126.048
X418.965Y-47.307
X418.965Y-66.358
X418.965Y-85.407
X418.965Y-104.458
X418.965Y-123.508
X430.395Y-78.422
X430.395Y-116.522
X431.665Y-49.847
X432.935Y-84.772
X432.935Y-122.872
X438.015Y-47.307
T2
X216.44Y-133.5G85X217.44Y-133.5
G05
X219.75Y-133.5G85X221.75Y-133.5
G05
X224.06Y-133.5G85X225.06Y-133.5
G05
T0
M30
