G04 #@! TF.FileFunction,Copper,L1,Top,Signal*
%FSLAX46Y46*%
G04 Gerber Fmt 4.6, Leading zero omitted, Abs format (unit mm)*
G04 Created by KiCad (PCBNEW 4.0.5+dfsg1-4) date Sun Sep 23 14:38:37 2018*
%MOMM*%
%LPD*%
G01*
G04 APERTURE LIST*
%ADD10C,0.100000*%
%ADD11C,2.286000*%
%ADD12R,1.651000X1.651000*%
%ADD13C,1.651000*%
%ADD14C,1.600000*%
%ADD15R,1.600000X1.600000*%
%ADD16C,2.100000*%
%ADD17O,2.000000X3.000000*%
%ADD18O,1.100000X1.650000*%
%ADD19R,1.650000X1.900000*%
%ADD20O,1.650000X1.900000*%
%ADD21C,2.032000*%
%ADD22C,0.500000*%
%ADD23C,0.750000*%
%ADD24C,1.000000*%
%ADD25C,0.500000*%
G04 APERTURE END LIST*
D10*
D11*
X316540000Y-85977500D03*
X310190000Y-88517500D03*
X249865000Y-57990000D03*
X243515000Y-60530000D03*
X230815000Y-57990000D03*
X224465000Y-60530000D03*
X211765000Y-57990000D03*
X205415000Y-60530000D03*
X192715000Y-57990000D03*
X186365000Y-60530000D03*
X164140000Y-57990000D03*
X157790000Y-60530000D03*
X145090000Y-57990000D03*
X138740000Y-60530000D03*
X259390000Y-85977500D03*
X253040000Y-88517500D03*
X240340000Y-85977500D03*
X233990000Y-88517500D03*
X145090000Y-85977500D03*
X138740000Y-88517500D03*
X221290000Y-85977500D03*
X214940000Y-88517500D03*
X202240000Y-85977500D03*
X195890000Y-88517500D03*
X183190000Y-85977500D03*
X176840000Y-88517500D03*
X164140000Y-85977500D03*
X157790000Y-88517500D03*
X378702000Y-143128000D03*
X372352000Y-145668000D03*
X378702000Y-85977500D03*
X372352000Y-88517500D03*
D12*
X353130000Y-156660000D03*
D13*
X360750000Y-156660000D03*
D14*
X454140000Y-71280000D03*
X456680000Y-71280000D03*
X459220000Y-71280000D03*
X451600000Y-71280000D03*
X449060000Y-71280000D03*
X446520000Y-71280000D03*
X443980000Y-71280000D03*
X441440000Y-71280000D03*
X438900000Y-71280000D03*
X436360000Y-71280000D03*
D15*
X433820000Y-71280000D03*
D14*
X461760000Y-71280000D03*
X464300000Y-71280000D03*
X466840000Y-71280000D03*
X469380000Y-71280000D03*
X471920000Y-71280000D03*
X474460000Y-71280000D03*
X477000000Y-71280000D03*
X479540000Y-71280000D03*
X482080000Y-66200000D03*
D15*
X482080000Y-63660000D03*
D14*
X482080000Y-61120000D03*
X482080000Y-56040000D03*
X479540000Y-56040000D03*
X477000000Y-56040000D03*
X474460000Y-56040000D03*
X471920000Y-56040000D03*
X469380000Y-56040000D03*
X466840000Y-56040000D03*
X464300000Y-56040000D03*
X461760000Y-56040000D03*
D15*
X459220000Y-56040000D03*
D14*
X456680000Y-56040000D03*
X454140000Y-56040000D03*
X451600000Y-56040000D03*
X449060000Y-56040000D03*
X446520000Y-56040000D03*
X443980000Y-56040000D03*
X441440000Y-56040000D03*
X438900000Y-56040000D03*
X436360000Y-56040000D03*
X433820000Y-56040000D03*
X466840000Y-61120000D03*
X469380000Y-61120000D03*
X471920000Y-61120000D03*
X474460000Y-61120000D03*
X466840000Y-63660000D03*
X469380000Y-63660000D03*
X471920000Y-63660000D03*
X474460000Y-63660000D03*
X482080000Y-71280000D03*
D11*
X242719000Y-162178000D03*
X236369000Y-164718000D03*
X245098000Y-162178000D03*
X238748000Y-164718000D03*
X335590000Y-57990000D03*
X329240000Y-60530000D03*
D16*
X190334000Y-162178000D03*
X183984000Y-164718000D03*
X187952000Y-162178000D03*
X181602000Y-164718000D03*
X195096000Y-162178000D03*
X188746000Y-164718000D03*
X192680000Y-162178000D03*
X186330000Y-164718000D03*
D11*
X95083800Y-162178000D03*
X88733800Y-164718000D03*
X118896200Y-162178000D03*
X112546200Y-164718000D03*
X140326200Y-162178000D03*
X133976200Y-164718000D03*
X311778000Y-162178000D03*
X305428000Y-164718000D03*
X290346000Y-162178000D03*
X283996000Y-164718000D03*
X266546000Y-162178000D03*
X260196000Y-164718000D03*
X397752000Y-57990000D03*
X391402000Y-60530000D03*
D14*
X424760000Y-58590000D03*
X424760000Y-56050000D03*
X424760000Y-58590000D03*
X424760000Y-56050000D03*
D15*
X404420000Y-58670000D03*
D14*
X404420000Y-56130000D03*
D17*
X414640000Y-53035000D03*
X421940000Y-53035000D03*
D18*
X419940000Y-58200000D03*
X418340000Y-58200000D03*
X416740000Y-58200000D03*
X417540000Y-56400000D03*
X419140000Y-56400000D03*
D16*
X211750000Y-162178000D03*
X205400000Y-164718000D03*
D11*
X214230000Y-162178000D03*
D16*
X207880000Y-164718000D03*
X218915000Y-162178000D03*
X212565000Y-164718000D03*
X166505000Y-162178000D03*
X160155000Y-164718000D03*
X164140000Y-162178000D03*
X157790000Y-164718000D03*
X161736200Y-162178000D03*
X155386200Y-164718000D03*
X156977000Y-162178000D03*
D11*
X150627000Y-164718000D03*
D19*
X265110000Y-172160000D03*
D20*
X262570000Y-172160000D03*
D19*
X257780000Y-172160000D03*
D20*
X260320000Y-172160000D03*
D11*
X135565000Y-162178000D03*
X129215000Y-164718000D03*
D16*
X180777000Y-162178000D03*
X174427000Y-164718000D03*
D12*
X351370000Y-73670000D03*
D13*
X358990000Y-73670000D03*
D14*
X326390000Y-76620000D03*
X334010000Y-76620000D03*
X328930000Y-76620000D03*
X331470000Y-76620000D03*
X323850000Y-76620000D03*
D15*
X336550000Y-76620000D03*
X444730000Y-74750000D03*
D14*
X454890000Y-74750000D03*
X447270000Y-74750000D03*
X449810000Y-74750000D03*
X452350000Y-74750000D03*
X346790000Y-61070000D03*
D15*
X344250000Y-61070000D03*
D14*
X346790000Y-66070000D03*
D15*
X344250000Y-66070000D03*
D12*
X353240000Y-82470000D03*
D13*
X360860000Y-82470000D03*
D11*
X207002000Y-143128000D03*
X200652000Y-145668000D03*
X397752000Y-162178000D03*
X391402000Y-164718000D03*
X397752000Y-105027500D03*
X391402000Y-107567500D03*
X71255400Y-143128000D03*
X64905400Y-145668000D03*
D12*
X205330000Y-101570000D03*
D13*
X212950000Y-101570000D03*
D12*
X152050000Y-57960000D03*
D13*
X152050000Y-65580000D03*
D11*
X254628000Y-124077500D03*
X248278000Y-126617500D03*
X278440000Y-85977500D03*
X272090000Y-88517500D03*
D12*
X74950000Y-88060000D03*
D13*
X74950000Y-95680000D03*
D11*
X421815000Y-85977500D03*
X415465000Y-88517500D03*
X397752000Y-85977500D03*
X391402000Y-88517500D03*
X378702000Y-57990000D03*
X372352000Y-60530000D03*
D19*
X438830000Y-74670000D03*
D20*
X441370000Y-74670000D03*
D19*
X477780000Y-74670000D03*
D20*
X480320000Y-74670000D03*
D19*
X458280000Y-74670000D03*
D20*
X460820000Y-74670000D03*
D19*
X67280000Y-172150000D03*
D20*
X69820000Y-172150000D03*
D11*
X359652000Y-85977500D03*
X353302000Y-88517500D03*
X335590000Y-85977500D03*
X329240000Y-88517500D03*
X440865000Y-85977500D03*
X434515000Y-88517500D03*
X192715000Y-105027500D03*
X186365000Y-107567500D03*
X230815000Y-105027500D03*
X224465000Y-107567500D03*
D19*
X72160000Y-134420000D03*
D20*
X74700000Y-134420000D03*
D19*
X374980000Y-68170000D03*
D20*
X377520000Y-68170000D03*
D19*
X417910000Y-96170000D03*
D20*
X420450000Y-96170000D03*
D19*
X474910000Y-96170000D03*
D20*
X477450000Y-96170000D03*
D19*
X310390000Y-172170000D03*
X305710000Y-172170000D03*
D20*
X308050000Y-172170000D03*
D19*
X93690000Y-172170000D03*
X89010000Y-172170000D03*
D20*
X91350000Y-172170000D03*
D11*
X326065000Y-85977500D03*
X319715000Y-88517500D03*
X328446000Y-143128000D03*
X322096000Y-145668000D03*
X318905000Y-143128000D03*
X312555000Y-145668000D03*
X323685000Y-124077500D03*
X317335000Y-126617500D03*
X325605000Y-117092500D03*
X328145000Y-123442500D03*
X311778000Y-124077500D03*
X305428000Y-126617500D03*
X261771000Y-162178000D03*
X255421000Y-164718000D03*
X309396000Y-162178000D03*
X303046000Y-164718000D03*
X285584000Y-162178000D03*
X279234000Y-164718000D03*
D16*
X209384000Y-162178000D03*
X203034000Y-164718000D03*
D11*
X92686600Y-143128000D03*
X86336600Y-145668000D03*
X80797800Y-143128000D03*
X74447800Y-145668000D03*
X114133800Y-162178000D03*
X107783800Y-164718000D03*
X92702500Y-162178000D03*
X86352500Y-164718000D03*
D12*
X266540000Y-57970000D03*
D13*
X266540000Y-65590000D03*
D12*
X285510000Y-57970000D03*
D13*
X285510000Y-65590000D03*
D12*
X304570000Y-57970000D03*
D13*
X304570000Y-65590000D03*
D12*
X323550000Y-57970000D03*
D13*
X323550000Y-65590000D03*
D12*
X365930000Y-73670000D03*
D13*
X373550000Y-73670000D03*
D12*
X391550000Y-73670000D03*
D13*
X399170000Y-73670000D03*
D12*
X74950000Y-57970000D03*
D13*
X74950000Y-65590000D03*
D12*
X248250000Y-87770000D03*
D13*
X248250000Y-95390000D03*
D12*
X279950000Y-82570000D03*
D13*
X287570000Y-82570000D03*
D12*
X291130000Y-82570000D03*
D13*
X298750000Y-82570000D03*
D12*
X310150000Y-82570000D03*
D13*
X317770000Y-82570000D03*
D12*
X329230000Y-82570000D03*
D13*
X336850000Y-82570000D03*
D12*
X372340000Y-82570000D03*
D13*
X379960000Y-82570000D03*
D12*
X391440000Y-82570000D03*
D13*
X399060000Y-82570000D03*
D12*
X427870000Y-88530000D03*
D13*
X427870000Y-96150000D03*
D12*
X434430000Y-82570000D03*
D13*
X442050000Y-82570000D03*
D12*
X453440000Y-82570000D03*
D13*
X461060000Y-82570000D03*
D12*
X467950000Y-88560000D03*
D13*
X467950000Y-96180000D03*
D12*
X262530000Y-101570000D03*
D13*
X270150000Y-101570000D03*
D12*
X281640000Y-101570000D03*
D13*
X289260000Y-101570000D03*
D12*
X300640000Y-101570000D03*
D13*
X308260000Y-101570000D03*
D12*
X353140000Y-101820000D03*
D13*
X360760000Y-101820000D03*
D12*
X372330000Y-101570000D03*
D13*
X379950000Y-101570000D03*
D12*
X391330000Y-101570000D03*
D13*
X398950000Y-101570000D03*
D12*
X427850000Y-107550000D03*
D13*
X427850000Y-115170000D03*
D12*
X434440000Y-100670000D03*
D13*
X442060000Y-100670000D03*
D12*
X453540000Y-100670000D03*
D13*
X461160000Y-100670000D03*
D12*
X267330000Y-120670000D03*
D13*
X274950000Y-120670000D03*
D12*
X286350000Y-120670000D03*
D13*
X293970000Y-120670000D03*
D12*
X305450000Y-120670000D03*
D13*
X313070000Y-120670000D03*
D12*
X328130000Y-128870000D03*
D13*
X335750000Y-128870000D03*
D12*
X415430000Y-120170000D03*
D13*
X423050000Y-120170000D03*
D12*
X434450000Y-120170000D03*
D13*
X442070000Y-120170000D03*
D12*
X453540000Y-120170000D03*
D13*
X461160000Y-120170000D03*
D12*
X473930000Y-128470000D03*
D13*
X481550000Y-128470000D03*
D12*
X257750000Y-139670000D03*
D13*
X265370000Y-139670000D03*
D12*
X276850000Y-139670000D03*
D13*
X284470000Y-139670000D03*
D12*
X295930000Y-139670000D03*
D13*
X303550000Y-139670000D03*
D12*
X312540000Y-139670000D03*
D13*
X320160000Y-139670000D03*
D12*
X372330000Y-139670000D03*
D13*
X379950000Y-139670000D03*
D12*
X415350000Y-139670000D03*
D13*
X422970000Y-139670000D03*
D12*
X434550000Y-139670000D03*
D13*
X442170000Y-139670000D03*
D12*
X453550000Y-139670000D03*
D13*
X461170000Y-139670000D03*
D12*
X279240000Y-156660000D03*
D13*
X286860000Y-156660000D03*
D12*
X305410000Y-156660000D03*
D13*
X313030000Y-156660000D03*
D12*
X326930000Y-156660000D03*
D13*
X334550000Y-156660000D03*
D12*
X372330000Y-156660000D03*
D13*
X379950000Y-156660000D03*
D12*
X391330000Y-156660000D03*
D13*
X398950000Y-156660000D03*
D12*
X424950000Y-156660000D03*
D13*
X432570000Y-156660000D03*
D12*
X453540000Y-156660000D03*
D13*
X461160000Y-156660000D03*
D12*
X473930000Y-166470000D03*
D13*
X481550000Y-166470000D03*
D12*
X95090000Y-57970000D03*
D13*
X95090000Y-65590000D03*
D12*
X113940000Y-57970000D03*
D13*
X113940000Y-65590000D03*
D12*
X132150000Y-57970000D03*
D13*
X132150000Y-65590000D03*
D12*
X180850000Y-57970000D03*
D13*
X180850000Y-65590000D03*
D12*
X199750000Y-57970000D03*
D13*
X199750000Y-65590000D03*
D12*
X218850000Y-57970000D03*
D13*
X218850000Y-65590000D03*
D12*
X237750000Y-57970000D03*
D13*
X237750000Y-65590000D03*
D12*
X81540000Y-82470000D03*
D13*
X89160000Y-82470000D03*
D12*
X100650000Y-82470000D03*
D13*
X108270000Y-82470000D03*
D12*
X119690000Y-82470000D03*
D13*
X127310000Y-82470000D03*
D12*
X133950000Y-87760000D03*
D13*
X133950000Y-95380000D03*
D12*
X152950000Y-87770000D03*
D13*
X152950000Y-95390000D03*
D12*
X172050000Y-87770000D03*
D13*
X172050000Y-95390000D03*
D12*
X191050000Y-87770000D03*
D13*
X191050000Y-95390000D03*
D12*
X209950000Y-87770000D03*
D13*
X209950000Y-95390000D03*
D12*
X229250000Y-87770000D03*
D13*
X229250000Y-95390000D03*
D12*
X67330000Y-101570000D03*
D13*
X74950000Y-101570000D03*
D12*
X91140000Y-101570000D03*
D13*
X98760000Y-101570000D03*
D12*
X110140000Y-101570000D03*
D13*
X117760000Y-101570000D03*
D12*
X129240000Y-101570000D03*
D13*
X136860000Y-101570000D03*
D12*
X148340000Y-101570000D03*
D13*
X155960000Y-101570000D03*
D12*
X167330000Y-101570000D03*
D13*
X174950000Y-101570000D03*
D12*
X186440000Y-101570000D03*
D13*
X194060000Y-101570000D03*
D12*
X224540000Y-101570000D03*
D13*
X232160000Y-101570000D03*
D12*
X243540000Y-101570000D03*
D13*
X251160000Y-101570000D03*
D12*
X69640000Y-120670000D03*
D13*
X77260000Y-120670000D03*
D12*
X95850000Y-120670000D03*
D13*
X103470000Y-120670000D03*
D12*
X114940000Y-120670000D03*
D13*
X122560000Y-120670000D03*
D12*
X133940000Y-120670000D03*
D13*
X141560000Y-120670000D03*
D12*
X153050000Y-120670000D03*
D13*
X160670000Y-120670000D03*
D12*
X172050000Y-120670000D03*
D13*
X179670000Y-120670000D03*
D12*
X191140000Y-120670000D03*
D13*
X198760000Y-120670000D03*
D12*
X210150000Y-120670000D03*
D13*
X217770000Y-120670000D03*
D12*
X229250000Y-120670000D03*
D13*
X236870000Y-120670000D03*
D12*
X248250000Y-120670000D03*
D13*
X255870000Y-120670000D03*
D12*
X74430000Y-139670000D03*
D13*
X82050000Y-139670000D03*
D12*
X86340000Y-139670000D03*
D13*
X93960000Y-139670000D03*
D12*
X105350000Y-139670000D03*
D13*
X112970000Y-139670000D03*
D12*
X127730000Y-139670000D03*
D13*
X135350000Y-139670000D03*
D12*
X143450000Y-139670000D03*
D13*
X151070000Y-139670000D03*
D12*
X162550000Y-139670000D03*
D13*
X170170000Y-139670000D03*
D12*
X181630000Y-139670000D03*
D13*
X189250000Y-139670000D03*
D12*
X200650000Y-139670000D03*
D13*
X208270000Y-139670000D03*
D12*
X219640000Y-139670000D03*
D13*
X227260000Y-139670000D03*
D12*
X238730000Y-139670000D03*
D13*
X246350000Y-139670000D03*
D12*
X64950000Y-156660000D03*
D13*
X72570000Y-156660000D03*
D12*
X88730000Y-156660000D03*
D13*
X96350000Y-156660000D03*
D12*
X107840000Y-156660000D03*
D13*
X115460000Y-156660000D03*
D12*
X129240000Y-156660000D03*
D13*
X136860000Y-156660000D03*
D12*
X150640000Y-156660000D03*
D13*
X158260000Y-156660000D03*
D12*
X174450000Y-156660000D03*
D13*
X182070000Y-156660000D03*
D12*
X203040000Y-156660000D03*
D13*
X210660000Y-156660000D03*
D12*
X236340000Y-156660000D03*
D13*
X243960000Y-156660000D03*
D12*
X255430000Y-156660000D03*
D13*
X263050000Y-156660000D03*
D11*
X278440000Y-57990000D03*
X272090000Y-60530000D03*
X297490000Y-57990000D03*
X291140000Y-60530000D03*
X316540000Y-57990000D03*
X310190000Y-60530000D03*
X359652000Y-57990000D03*
X353302000Y-60530000D03*
X68890000Y-57990000D03*
X62540000Y-60530000D03*
X297490000Y-85977500D03*
X291140000Y-88517500D03*
X459915000Y-85977500D03*
X453565000Y-88517500D03*
X478965000Y-85977500D03*
X472615000Y-88517500D03*
X268915000Y-105027500D03*
X262565000Y-107567500D03*
X287965000Y-105027500D03*
X281615000Y-107567500D03*
X307015000Y-105027500D03*
X300665000Y-107567500D03*
X359652000Y-105027500D03*
X353302000Y-107567500D03*
X378702000Y-105027500D03*
X372352000Y-107567500D03*
X421815000Y-105027500D03*
X415465000Y-107567500D03*
X440865000Y-105027500D03*
X434515000Y-107567500D03*
X459915000Y-105027500D03*
X453565000Y-107567500D03*
X273678000Y-124077500D03*
X267328000Y-126617500D03*
X292728000Y-124077500D03*
X286378000Y-126617500D03*
X330828000Y-105027500D03*
X324478000Y-107567500D03*
X421815000Y-124077500D03*
X415465000Y-126617500D03*
X440865000Y-124077500D03*
X434515000Y-126617500D03*
X459915000Y-124077500D03*
X453565000Y-126617500D03*
X471345000Y-117092500D03*
X473885000Y-123442500D03*
X264152000Y-143128000D03*
X257802000Y-145668000D03*
X283202000Y-143128000D03*
X276852000Y-145668000D03*
X302252000Y-143128000D03*
X295902000Y-145668000D03*
X421815000Y-143128000D03*
X415465000Y-145668000D03*
X440865000Y-143128000D03*
X434515000Y-145668000D03*
X459915000Y-143128000D03*
X453565000Y-145668000D03*
X333199000Y-162178000D03*
X326849000Y-164718000D03*
X359652000Y-162178000D03*
X353302000Y-164718000D03*
X378702000Y-162178000D03*
X372352000Y-164718000D03*
X431340000Y-162178000D03*
X424990000Y-164718000D03*
X459915000Y-162178000D03*
X453565000Y-164718000D03*
X471345000Y-155192000D03*
X473885000Y-161542000D03*
X106990000Y-57990000D03*
X100640000Y-60530000D03*
X126040000Y-57990000D03*
X119690000Y-60530000D03*
X68890000Y-85977500D03*
X62540000Y-88517500D03*
X87940000Y-85977500D03*
X81590000Y-88517500D03*
X106990000Y-85977500D03*
X100640000Y-88517500D03*
X126040000Y-85977500D03*
X119690000Y-88517500D03*
X73652500Y-105027500D03*
X67302500Y-107567500D03*
X97465000Y-105027500D03*
X91115000Y-107567500D03*
X116515000Y-105027500D03*
X110165000Y-107567500D03*
X135565000Y-105027500D03*
X129215000Y-107567500D03*
X154615000Y-105027500D03*
X148265000Y-107567500D03*
X173665000Y-105027500D03*
X167315000Y-107567500D03*
X211765000Y-105027500D03*
X205415000Y-107567500D03*
X249865000Y-105027500D03*
X243515000Y-107567500D03*
X76034700Y-124077500D03*
X69684700Y-126617500D03*
X102227500Y-124077500D03*
X95877500Y-126617500D03*
X121277500Y-124077500D03*
X114927500Y-126617500D03*
X140327500Y-124077500D03*
X133977500Y-126617500D03*
X159378000Y-124077500D03*
X153028000Y-126617500D03*
X178428000Y-124077500D03*
X172078000Y-126617500D03*
X197478000Y-124077500D03*
X191128000Y-126617500D03*
X216528000Y-124077500D03*
X210178000Y-126617500D03*
X235578000Y-124077500D03*
X229228000Y-126617500D03*
X111752500Y-143128000D03*
X105402500Y-145668000D03*
X130802500Y-143128000D03*
X124452500Y-145668000D03*
X149852000Y-143128000D03*
X143502000Y-145668000D03*
D21*
X168902000Y-143128000D03*
X162552000Y-145668000D03*
D11*
X187952000Y-143128000D03*
X181602000Y-145668000D03*
X226052000Y-143128000D03*
X219702000Y-145668000D03*
X245102000Y-143128000D03*
X238752000Y-145668000D03*
X71272800Y-162178000D03*
X64922800Y-164718000D03*
D13*
X387630000Y-73670000D03*
X377470000Y-73670000D03*
X418340000Y-75230000D03*
X428500000Y-75230000D03*
X415150000Y-100670000D03*
X425310000Y-100670000D03*
X471290000Y-100670000D03*
X481450000Y-100670000D03*
X418340000Y-78670000D03*
X428500000Y-78670000D03*
X418340000Y-81870000D03*
X428500000Y-81870000D03*
X362030000Y-150670000D03*
X351870000Y-150670000D03*
X362030000Y-146670000D03*
X351870000Y-146670000D03*
X400030000Y-146670000D03*
X389870000Y-146670000D03*
X400030000Y-150670000D03*
X389870000Y-150670000D03*
D22*
X358500000Y-154359980D03*
X414219980Y-79999990D03*
X399170000Y-63650000D03*
X454770686Y-57859912D03*
X333640000Y-94601401D03*
X400619867Y-78410133D03*
X400619867Y-70119998D03*
X415019980Y-81600000D03*
X403010000Y-117849990D03*
X401419867Y-70700000D03*
X332870000Y-95430000D03*
X344475542Y-133519961D03*
X402219868Y-71290000D03*
X403819870Y-126280000D03*
X343002481Y-134319961D03*
X403819870Y-72452000D03*
X405419890Y-122180000D03*
X350420000Y-132719951D03*
X403510000Y-138320001D03*
X332920000Y-141530000D03*
X410219940Y-130167292D03*
X409419940Y-99140000D03*
X415350000Y-80800000D03*
X461609972Y-91231498D03*
X342426892Y-85872727D03*
X394459856Y-70119999D03*
X355680000Y-153558617D03*
X408619920Y-128210000D03*
X362301546Y-93801546D03*
X344136294Y-134319961D03*
X403019869Y-71880000D03*
X404619860Y-118680000D03*
X466414314Y-113784314D03*
X398609314Y-110380686D03*
X364129960Y-80010150D03*
X388340000Y-81814620D03*
X466413628Y-112653628D03*
X364129960Y-80810153D03*
X387540000Y-82147474D03*
X394410000Y-105050000D03*
X396859863Y-70120000D03*
X342428915Y-87006159D03*
X396059862Y-70119999D03*
X351960000Y-95401554D03*
X395259859Y-70119999D03*
X343440000Y-135920020D03*
X359760000Y-135919991D03*
X407819920Y-97540000D03*
X407819900Y-85980000D03*
X375870000Y-135919991D03*
X405419890Y-98340000D03*
X404620000Y-100670000D03*
X416629992Y-82398475D03*
X364129960Y-79210143D03*
X337300001Y-78519999D03*
X397659866Y-70120000D03*
D23*
X419940000Y-57900000D02*
X419940000Y-60150000D01*
X419940000Y-60150000D02*
X419194990Y-60895010D01*
X419194990Y-60895010D02*
X412561840Y-60895010D01*
X412561840Y-60895010D02*
X412110000Y-61346850D01*
X412110000Y-61346850D02*
X403666850Y-61346850D01*
X403666850Y-61346850D02*
X402500000Y-60180000D01*
X402500000Y-60180000D02*
X402500000Y-56918630D01*
X402500000Y-56918630D02*
X403288630Y-56130000D01*
X403288630Y-56130000D02*
X404420000Y-56130000D01*
D24*
X404420000Y-56130000D02*
X404370000Y-56180000D01*
D25*
X268930000Y-67980000D02*
X270710000Y-67980000D01*
X276910000Y-67980000D02*
X270710000Y-67980000D01*
X270710000Y-67980000D02*
X275160000Y-67980000D01*
X287570000Y-78640000D02*
X276910000Y-67980000D01*
X287570000Y-82570000D02*
X287570000Y-78640000D01*
X275160000Y-67980000D02*
X275660000Y-67980000D01*
X349781385Y-154358617D02*
X355560000Y-154358617D01*
X355560000Y-154358617D02*
X356080000Y-154358617D01*
X358500000Y-154359980D02*
X355561363Y-154359980D01*
X355561363Y-154359980D02*
X355560000Y-154358617D01*
X356081363Y-154359980D02*
X356080000Y-154358617D01*
X266540000Y-65590000D02*
X268930000Y-67980000D01*
X442660000Y-160284999D02*
X434300000Y-160284999D01*
X461170000Y-140995500D02*
X462230000Y-142055500D01*
X461170000Y-139670000D02*
X461170000Y-140995500D01*
X462230000Y-142055500D02*
X462230000Y-150990000D01*
X462230000Y-150990000D02*
X459470000Y-153750000D01*
X459470000Y-153750000D02*
X450210000Y-153750000D01*
X450210000Y-153750000D02*
X443675001Y-160284999D01*
X443675001Y-160284999D02*
X442660000Y-160284999D01*
X407100000Y-156970000D02*
X406410000Y-157660000D01*
X406410000Y-157660000D02*
X403820000Y-160250000D01*
X427390000Y-154530000D02*
X409540000Y-154530000D01*
X409540000Y-154530000D02*
X406410000Y-157660000D01*
X433144999Y-160284999D02*
X427390000Y-154530000D01*
X434300000Y-160284999D02*
X433144999Y-160284999D01*
X403820000Y-160250000D02*
X386630000Y-160250000D01*
X379950000Y-156660000D02*
X381117433Y-156660000D01*
X381117433Y-156660000D02*
X384707433Y-160250000D01*
X384707433Y-160250000D02*
X386630000Y-160250000D01*
X302540000Y-159149990D02*
X318085858Y-159149990D01*
X318085858Y-159149990D02*
X324705878Y-152529970D01*
X324705878Y-152529970D02*
X347952738Y-152529970D01*
X347952738Y-152529970D02*
X349781385Y-154358617D01*
X298289990Y-159149990D02*
X302540000Y-159149990D01*
X284470000Y-139670000D02*
X284470000Y-140837433D01*
X284470000Y-140837433D02*
X285670000Y-142037433D01*
X285670000Y-147670000D02*
X297149990Y-159149990D01*
X285670000Y-142037433D02*
X285670000Y-147670000D01*
X297149990Y-159149990D02*
X302540000Y-159149990D01*
X287290000Y-132590000D02*
X284470000Y-135410000D01*
X284470000Y-135410000D02*
X284470000Y-139670000D01*
X292875500Y-132590000D02*
X287290000Y-132590000D01*
X294621001Y-130844499D02*
X292875500Y-132590000D01*
X464810010Y-134294490D02*
X461170000Y-137934500D01*
X461170000Y-137934500D02*
X461170000Y-139670000D01*
X294621001Y-130844499D02*
X294621001Y-122646501D01*
X293970000Y-121995500D02*
X293970000Y-120670000D01*
X294621001Y-122646501D02*
X293970000Y-121995500D01*
X289260000Y-101570000D02*
X289260000Y-102895500D01*
X289260000Y-102895500D02*
X293970000Y-107605500D01*
X293970000Y-107605500D02*
X293970000Y-120670000D01*
X287570000Y-82570000D02*
X287570000Y-92340000D01*
X287570000Y-92340000D02*
X289260000Y-94030000D01*
X289260000Y-94030000D02*
X289260000Y-101570000D01*
X287550000Y-82550000D02*
X287570000Y-82570000D01*
X471920000Y-71290000D02*
X475000000Y-74370000D01*
X475000000Y-74370000D02*
X475000000Y-80180000D01*
X475000000Y-80180000D02*
X471140000Y-84040000D01*
X464810010Y-86949990D02*
X464810010Y-134294490D01*
X471140000Y-84040000D02*
X467720000Y-84040000D01*
X467720000Y-84040000D02*
X464810010Y-86949990D01*
X464810010Y-134294490D02*
X461360000Y-137744500D01*
X116785510Y-137179990D02*
X114295500Y-139670000D01*
X129679990Y-137179990D02*
X123740000Y-137179990D01*
X123740000Y-137179990D02*
X116785510Y-137179990D01*
X123743840Y-123179340D02*
X123743840Y-137176150D01*
X123743840Y-137176150D02*
X123740000Y-137179990D01*
X130680000Y-138180000D02*
X129679990Y-137179990D01*
X114295500Y-139670000D02*
X112970000Y-139670000D01*
X130680000Y-138180000D02*
X130370000Y-137870000D01*
X133440000Y-140940000D02*
X130680000Y-138180000D01*
X427850000Y-115170000D02*
X427850000Y-113844500D01*
X427850000Y-113844500D02*
X429940000Y-111754500D01*
X429940000Y-111754500D02*
X429940000Y-87680000D01*
X429940000Y-87680000D02*
X429037510Y-86777510D01*
X418977365Y-88140000D02*
X414219980Y-83382615D01*
X429037510Y-86777510D02*
X424702490Y-86777510D01*
X424702490Y-86777510D02*
X423340000Y-88140000D01*
X423340000Y-88140000D02*
X418977365Y-88140000D01*
X414219980Y-83382615D02*
X414219980Y-80820000D01*
X414219980Y-80820000D02*
X414219980Y-79999990D01*
X399170000Y-73670000D02*
X399170000Y-78460000D01*
X399170000Y-78460000D02*
X397415390Y-80214610D01*
X397415390Y-80214610D02*
X371494877Y-80214610D01*
X364287042Y-98604354D02*
X350632970Y-98604354D01*
X371494877Y-80214610D02*
X369730020Y-81979467D01*
X369730020Y-81979467D02*
X369730020Y-93161364D01*
X346630017Y-94601401D02*
X333640000Y-94601401D01*
X369730020Y-93161364D02*
X367114504Y-95776880D01*
X367114504Y-95776880D02*
X367114504Y-95776892D01*
X367114504Y-95776892D02*
X364287042Y-98604354D01*
X350632970Y-98604354D02*
X346630017Y-94601401D01*
X122560000Y-120670000D02*
X122560000Y-121995500D01*
X122560000Y-121995500D02*
X123743840Y-123179340D01*
X399170000Y-69610000D02*
X399170000Y-64090000D01*
X399170000Y-63650000D02*
X399170000Y-64090000D01*
X108270000Y-82470000D02*
X100780000Y-74980000D01*
X100780000Y-74980000D02*
X100540000Y-74740000D01*
X95090000Y-65590000D02*
X95090000Y-69290000D01*
X95090000Y-69290000D02*
X100780000Y-74980000D01*
X117760000Y-101570000D02*
X117760000Y-91960000D01*
X117760000Y-91960000D02*
X108270000Y-82470000D01*
X126730000Y-156290000D02*
X133440000Y-149580000D01*
X126730000Y-156290000D02*
X126360000Y-156660000D01*
X126360000Y-156660000D02*
X115460000Y-156660000D01*
X399170000Y-70166000D02*
X399170000Y-69150000D01*
X399170000Y-73670000D02*
X399170000Y-70166000D01*
X399170000Y-70166000D02*
X399170000Y-69610000D01*
X399170000Y-67381900D02*
X399170000Y-70166000D01*
X399170000Y-69610000D02*
X399170000Y-69578000D01*
X464479902Y-57859902D02*
X464479892Y-57859912D01*
X464479892Y-57859912D02*
X454770686Y-57859912D01*
X469380000Y-56040000D02*
X467560098Y-57859902D01*
X467560098Y-57859902D02*
X464479902Y-57859902D01*
X133440000Y-149580000D02*
X133440000Y-140940000D01*
X117760000Y-101570000D02*
X117760000Y-102895500D01*
X117760000Y-102895500D02*
X122560000Y-107695500D01*
X122560000Y-107695500D02*
X122560000Y-120670000D01*
X108260000Y-82460000D02*
X108270000Y-82470000D01*
X442060000Y-100670000D02*
X442885499Y-99844501D01*
X442885499Y-99844501D02*
X442885499Y-85196357D01*
X422774499Y-84084499D02*
X420906359Y-84084499D01*
X442885499Y-85196357D02*
X441773641Y-84084499D01*
X441773641Y-84084499D02*
X439440000Y-84084499D01*
X439440000Y-84084499D02*
X438347009Y-85177490D01*
X420906359Y-84084499D02*
X419570858Y-85420000D01*
X438347009Y-85177490D02*
X423867490Y-85177490D01*
X423867490Y-85177490D02*
X422774499Y-84084499D01*
X419570858Y-85420000D02*
X417388749Y-85420000D01*
X417388749Y-85420000D02*
X415019980Y-83051231D01*
X415019980Y-83051231D02*
X415019980Y-82120000D01*
X415019980Y-82120000D02*
X415019980Y-81600000D01*
X127310000Y-82470000D02*
X129019960Y-84179960D01*
X129019960Y-84179960D02*
X129019960Y-95055460D01*
X129019960Y-95055460D02*
X135534500Y-101570000D01*
X135534500Y-101570000D02*
X136860000Y-101570000D01*
X141560000Y-120670000D02*
X141560000Y-121995500D01*
X141560000Y-121995500D02*
X142220501Y-122656001D01*
X142220501Y-122656001D02*
X142220501Y-132799499D01*
X142220501Y-132799499D02*
X135350000Y-139670000D01*
X400619867Y-78410133D02*
X400619867Y-70119998D01*
X114020000Y-69180000D02*
X113940000Y-69100000D01*
X113940000Y-69100000D02*
X113940000Y-65590000D01*
X114020000Y-69180000D02*
X116590000Y-71750000D01*
X127310000Y-82470000D02*
X116590000Y-71750000D01*
X116590000Y-71750000D02*
X115930000Y-71090000D01*
X136860000Y-156660000D02*
X136860000Y-152179990D01*
X134240010Y-140949990D02*
X135350000Y-139840000D01*
X136860000Y-152179990D02*
X134240010Y-149560000D01*
X134240010Y-149560000D02*
X134240010Y-140949990D01*
X135350000Y-139840000D02*
X135350000Y-139670000D01*
X415019980Y-81600497D02*
X415019980Y-81600000D01*
X136860000Y-101570000D02*
X138185500Y-101570000D01*
X138185500Y-101570000D02*
X141560000Y-104944500D01*
X141560000Y-104944500D02*
X141560000Y-120670000D01*
X127260000Y-82420000D02*
X127310000Y-82470000D01*
X403010000Y-116420000D02*
X403010000Y-117849990D01*
X403010000Y-103585536D02*
X403010000Y-116420000D01*
X402982232Y-103557768D02*
X403010000Y-103585536D01*
X402637232Y-103212768D02*
X402982232Y-103557768D01*
X401419834Y-101995370D02*
X402637232Y-103212768D01*
X401419830Y-100895366D02*
X401419830Y-101995366D01*
X401419830Y-101995366D02*
X401419834Y-101995370D01*
X133950000Y-95380000D02*
X129819970Y-91249970D01*
X129820000Y-84130000D02*
X132150000Y-81800000D01*
X129819970Y-91249970D02*
X129819970Y-84130000D01*
X129819970Y-84130000D02*
X129820000Y-84130000D01*
X132150000Y-81800000D02*
X132150000Y-65590000D01*
X133950000Y-95380000D02*
X138340000Y-99770000D01*
X138340000Y-99770000D02*
X150250000Y-99770000D01*
X150250000Y-99770000D02*
X152050000Y-101570000D01*
X152050000Y-101570000D02*
X155960000Y-101570000D01*
X401419867Y-70700000D02*
X401419868Y-71053554D01*
X401419868Y-71053554D02*
X401419868Y-71182000D01*
X153480000Y-143954358D02*
X153480000Y-151880000D01*
X153480000Y-151880000D02*
X158260000Y-156660000D01*
X401419868Y-71182000D02*
X401419868Y-78789372D01*
X401419868Y-71027554D02*
X401419868Y-71182000D01*
X151070000Y-139670000D02*
X151070000Y-141544358D01*
X151070000Y-141544358D02*
X153480000Y-143954358D01*
X401419830Y-92869830D02*
X401419830Y-100895366D01*
X395340000Y-86790000D02*
X401419830Y-92869830D01*
X395340000Y-81014620D02*
X380405380Y-81014620D01*
X399194620Y-81014620D02*
X395340000Y-81014620D01*
X395340000Y-81014620D02*
X395340000Y-86790000D01*
X380520000Y-93280000D02*
X379998599Y-93801401D01*
X381020000Y-92780000D02*
X380520000Y-93280000D01*
X380520000Y-93280000D02*
X380600000Y-93280000D01*
X346327232Y-95430000D02*
X332870000Y-95430000D01*
X350307232Y-99410000D02*
X346327232Y-95430000D01*
X364612780Y-99410000D02*
X350307232Y-99410000D01*
X370221367Y-93801401D02*
X367914512Y-96108256D01*
X367914512Y-96108256D02*
X367914512Y-96108268D01*
X367914512Y-96108268D02*
X364612780Y-99410000D01*
X379998599Y-93801401D02*
X370221367Y-93801401D01*
X381020000Y-84955500D02*
X381020000Y-92780000D01*
X379960000Y-82570000D02*
X379960000Y-83895500D01*
X379960000Y-83895500D02*
X381020000Y-84955500D01*
X401419868Y-78789372D02*
X399194620Y-81014620D01*
X379970000Y-82560000D02*
X379960000Y-82570000D01*
X380405380Y-81014620D02*
X379970000Y-81450000D01*
X379970000Y-81450000D02*
X379970000Y-82560000D01*
X154010480Y-132507760D02*
X151070000Y-135448240D01*
X151070000Y-135448240D02*
X151070000Y-139670000D01*
X159557740Y-132507760D02*
X154010480Y-132507760D01*
X160670000Y-120670000D02*
X160670000Y-122567858D01*
X160670000Y-122567858D02*
X161271001Y-123168859D01*
X161271001Y-123168859D02*
X161271001Y-130794499D01*
X161271001Y-130794499D02*
X159557740Y-132507760D01*
X151070000Y-139670000D02*
X151070000Y-139950000D01*
X155960000Y-101570000D02*
X157285500Y-101570000D01*
X160670000Y-104954500D02*
X160670000Y-120670000D01*
X157285500Y-101570000D02*
X160670000Y-104954500D01*
X403819850Y-103264002D02*
X403819870Y-125949870D01*
X403819870Y-125949870D02*
X403819850Y-115918606D01*
X403819870Y-126280000D02*
X403819870Y-125949870D01*
X402219842Y-101663994D02*
X403819850Y-103264002D01*
X402219840Y-100563992D02*
X402219840Y-101663992D01*
X402219840Y-101663992D02*
X402219842Y-101663994D01*
X152950000Y-95390000D02*
X151161384Y-95390000D01*
X151161384Y-95390000D02*
X151149963Y-95401421D01*
X151149963Y-95401421D02*
X138318653Y-95401421D01*
X138318653Y-95401421D02*
X135917262Y-93000030D01*
X135917262Y-93000030D02*
X132701414Y-93000030D01*
X132701414Y-93000030D02*
X130619980Y-90918596D01*
X130619980Y-90918596D02*
X130619980Y-84461404D01*
X130619980Y-84461404D02*
X132950010Y-82131374D01*
X132950010Y-82131374D02*
X132950010Y-67879990D01*
X132950010Y-67879990D02*
X134450000Y-66380000D01*
X134450000Y-66380000D02*
X150284620Y-66380000D01*
X150284620Y-66380000D02*
X151074620Y-65590000D01*
X151074620Y-65590000D02*
X152400120Y-65590000D01*
X349740010Y-133519951D02*
X349740000Y-133519961D01*
X349740000Y-133519961D02*
X344475542Y-133519961D01*
X357634504Y-133519951D02*
X349740010Y-133519951D01*
X358434504Y-132719951D02*
X357634504Y-133519951D01*
X402219868Y-71290000D02*
X402219869Y-71643554D01*
X402219869Y-71643554D02*
X402219869Y-71690000D01*
X171760000Y-145470000D02*
X171760000Y-142427433D01*
X171760000Y-145470000D02*
X171760000Y-146350000D01*
X171760000Y-146350000D02*
X182070000Y-156660000D01*
X402219869Y-71690000D02*
X402219869Y-79120755D01*
X402219869Y-71535554D02*
X402219869Y-71690000D01*
X171760000Y-142427433D02*
X170170000Y-140837433D01*
X170170000Y-140837433D02*
X170170000Y-139670000D01*
X403819860Y-126670000D02*
X403819860Y-130148756D01*
X403819870Y-126280000D02*
X403819870Y-126669990D01*
X403819870Y-126669990D02*
X403819860Y-126670000D01*
X373318665Y-132719951D02*
X358434504Y-132719951D01*
X402048685Y-131919931D02*
X374118685Y-131919931D01*
X374118685Y-131919931D02*
X373318665Y-132719951D01*
X403819860Y-130148756D02*
X402048685Y-131919931D01*
X402219840Y-87055340D02*
X402219840Y-100563992D01*
X399060000Y-82570000D02*
X399060000Y-83895500D01*
X399060000Y-83895500D02*
X402219840Y-87055340D01*
X152950000Y-95390000D02*
X154275500Y-95390000D01*
X154275500Y-95390000D02*
X154286921Y-95401421D01*
X154286921Y-95401421D02*
X164681421Y-95401421D01*
X164681421Y-95401421D02*
X170850000Y-101570000D01*
X170850000Y-101570000D02*
X174950000Y-101570000D01*
X173121440Y-132487440D02*
X170170000Y-135438880D01*
X170170000Y-135438880D02*
X170170000Y-139670000D01*
X179161560Y-132487440D02*
X173121440Y-132487440D01*
X180807480Y-130841520D02*
X179161560Y-132487440D01*
X180807480Y-123132980D02*
X180807480Y-130841520D01*
X179670000Y-120670000D02*
X179670000Y-121995500D01*
X179670000Y-121995500D02*
X180807480Y-123132980D01*
X170170000Y-139670000D02*
X170170000Y-140060000D01*
X174950000Y-101570000D02*
X176275500Y-101570000D01*
X176275500Y-101570000D02*
X179670000Y-104964500D01*
X179670000Y-104964500D02*
X179670000Y-120670000D01*
X402219869Y-79120755D02*
X399060000Y-82280624D01*
X399060000Y-82280624D02*
X399060000Y-82570000D01*
X403819860Y-88190000D02*
X403819860Y-99432738D01*
X403819860Y-99432738D02*
X403819990Y-99432868D01*
X403819990Y-99432868D02*
X403819990Y-101001374D01*
X403819990Y-101001374D02*
X405419890Y-102601274D01*
X405419890Y-102601274D02*
X405419890Y-122180000D01*
X191050000Y-95390000D02*
X189724500Y-95390000D01*
X155512785Y-93801401D02*
X154681374Y-92969990D01*
X189724500Y-95390000D02*
X188135901Y-93801401D01*
X188135901Y-93801401D02*
X155512785Y-93801401D01*
X138981401Y-93801401D02*
X136580010Y-91400010D01*
X150487215Y-93801401D02*
X138981401Y-93801401D01*
X154681374Y-92969990D02*
X151318626Y-92969990D01*
X151318626Y-92969990D02*
X150487215Y-93801401D01*
X136580010Y-91400010D02*
X133364162Y-91400010D01*
X195734480Y-67980020D02*
X198124500Y-65590000D01*
X133364162Y-91400010D02*
X132220000Y-90255848D01*
X132220000Y-90255848D02*
X132220000Y-85124152D01*
X135112748Y-67980020D02*
X195734480Y-67980020D01*
X132220000Y-85124152D02*
X134550030Y-82794122D01*
X198124500Y-65590000D02*
X199450000Y-65590000D01*
X134550030Y-82794122D02*
X134550030Y-68542738D01*
X134550030Y-68542738D02*
X135112748Y-67980020D01*
X341886323Y-133201374D02*
X342664949Y-133980000D01*
X342664949Y-133980000D02*
X343804920Y-135119971D01*
X343002481Y-134319961D02*
X342664949Y-133982429D01*
X342664949Y-133982429D02*
X342664949Y-133980000D01*
X358297252Y-135119971D02*
X347500000Y-135119971D01*
X347500000Y-135119971D02*
X347008606Y-135119971D01*
X341886323Y-132110000D02*
X341886323Y-133201374D01*
X343804920Y-135119971D02*
X347500000Y-135119971D01*
X341886323Y-132110000D02*
X341886323Y-108683677D01*
X405419880Y-122560000D02*
X405419880Y-130820432D01*
X405419880Y-130820432D02*
X402720361Y-133519951D01*
X402720361Y-133519951D02*
X374875888Y-133519951D01*
X374875888Y-133519951D02*
X374075868Y-134319971D01*
X374075868Y-134319971D02*
X359097252Y-134319971D01*
X359097252Y-134319971D02*
X358297252Y-135119971D01*
X341886323Y-108683677D02*
X347510000Y-103060000D01*
X347130010Y-103439990D02*
X347510000Y-103060000D01*
X347510000Y-103060000D02*
X350359990Y-100210010D01*
X364944154Y-100210010D02*
X366942082Y-98212082D01*
X350359990Y-100210010D02*
X364944154Y-100210010D01*
X366942082Y-98212082D02*
X376592082Y-98212082D01*
X376592082Y-98212082D02*
X379950000Y-101570000D01*
X210660000Y-143385500D02*
X210660000Y-153270000D01*
X210660000Y-156660000D02*
X210660000Y-153270000D01*
X403819870Y-72452000D02*
X403819870Y-79783522D01*
X403819870Y-79783522D02*
X403819860Y-79783532D01*
X208270000Y-139670000D02*
X208270000Y-140995500D01*
X208270000Y-140995500D02*
X210660000Y-143385500D01*
X403819860Y-86170000D02*
X403819860Y-88190000D01*
X403819870Y-88190010D02*
X403819860Y-88190000D01*
X403819870Y-88970000D02*
X403819870Y-88190010D01*
X405419890Y-122559990D02*
X405419880Y-122560000D01*
X405419890Y-122180000D02*
X405419890Y-122559990D01*
X403819860Y-86170000D02*
X403819860Y-79783532D01*
X403819870Y-86510000D02*
X403819870Y-86170010D01*
X403819870Y-86170010D02*
X403819860Y-86170000D01*
X212950000Y-101570000D02*
X211624500Y-101570000D01*
X211624500Y-101570000D02*
X205444500Y-95390000D01*
X205444500Y-95390000D02*
X191050000Y-95390000D01*
X211211280Y-132502680D02*
X208270000Y-135443960D01*
X208270000Y-135443960D02*
X208270000Y-139670000D01*
X216519880Y-132502680D02*
X211211280Y-132502680D01*
X218739840Y-130282720D02*
X216519880Y-132502680D01*
X218739840Y-122965340D02*
X218739840Y-130282720D01*
X217770000Y-120670000D02*
X217770000Y-121995500D01*
X217770000Y-121995500D02*
X218739840Y-122965340D01*
X208270000Y-139890000D02*
X208305500Y-139890000D01*
X208270000Y-139670000D02*
X208270000Y-139890000D01*
X212950000Y-101570000D02*
X214275500Y-101570000D01*
X217760000Y-105054500D02*
X217760000Y-119870000D01*
X214275500Y-101570000D02*
X217760000Y-105054500D01*
X243210000Y-67980000D02*
X261958616Y-67980000D01*
X261958616Y-67980000D02*
X262429990Y-68451374D01*
X262429990Y-68451374D02*
X262429990Y-91750010D01*
X262429990Y-91750010D02*
X260378599Y-93801401D01*
X260378599Y-93801401D02*
X255532927Y-93801401D01*
X255532927Y-93801401D02*
X254691526Y-92960000D01*
X254691526Y-92960000D02*
X246998616Y-92960000D01*
X246998616Y-92960000D02*
X246108616Y-93850000D01*
X246108616Y-93850000D02*
X227880000Y-93850000D01*
X227880000Y-93850000D02*
X226340000Y-95390000D01*
X403019850Y-119780000D02*
X403019850Y-129817382D01*
X398950000Y-101570000D02*
X400006920Y-102626920D01*
X400006920Y-102626920D02*
X400920000Y-102626920D01*
X402209990Y-103916910D02*
X402209990Y-118181364D01*
X400920000Y-102626920D02*
X402209990Y-103916910D01*
X403019850Y-118991224D02*
X403019850Y-119780000D01*
X402209990Y-118181364D02*
X403019850Y-118991224D01*
X227150000Y-99290000D02*
X229430000Y-101570000D01*
X226340000Y-95390000D02*
X226340000Y-98480000D01*
X226340000Y-98480000D02*
X227150000Y-99290000D01*
X222000000Y-95390000D02*
X223250000Y-95390000D01*
X209950000Y-95390000D02*
X222000000Y-95390000D01*
X222000000Y-95390000D02*
X226340000Y-95390000D01*
X355040000Y-132719941D02*
X354450000Y-132719941D01*
X355040000Y-132719941D02*
X350420010Y-132719941D01*
X357303130Y-132719941D02*
X355040000Y-132719941D01*
X350420010Y-132719941D02*
X350420000Y-132719951D01*
X372987291Y-131919941D02*
X358103130Y-131919941D01*
X358103130Y-131919941D02*
X357303130Y-132719941D01*
X243210000Y-67980000D02*
X241665500Y-67980000D01*
X218850000Y-65590000D02*
X221240000Y-67980000D01*
X221240000Y-67980000D02*
X243210000Y-67980000D01*
X227260000Y-139670000D02*
X227260000Y-141080000D01*
X227260000Y-141080000D02*
X228790000Y-142610000D01*
X228790000Y-142610000D02*
X228790000Y-147980000D01*
X241860000Y-154560000D02*
X242170000Y-154870000D01*
X228790000Y-147980000D02*
X235370000Y-154560000D01*
X235370000Y-154560000D02*
X241860000Y-154560000D01*
X242170000Y-154870000D02*
X243960000Y-156660000D01*
X403019850Y-129817382D02*
X401717311Y-131119921D01*
X401717311Y-131119921D02*
X373787311Y-131119921D01*
X373787311Y-131119921D02*
X372987291Y-131919941D01*
X229430000Y-101570000D02*
X232160000Y-101570000D01*
X230205400Y-132502680D02*
X227260000Y-135448080D01*
X227260000Y-135448080D02*
X227260000Y-139670000D01*
X235701960Y-132502680D02*
X230205400Y-132502680D01*
X237774600Y-130430040D02*
X235701960Y-132502680D01*
X237774600Y-122900100D02*
X237774600Y-130430040D01*
X236870000Y-120670000D02*
X236870000Y-121995500D01*
X236870000Y-121995500D02*
X237774600Y-122900100D01*
X227260000Y-139670000D02*
X227260000Y-139850000D01*
X236950000Y-105034500D02*
X236950000Y-119870000D01*
X232160000Y-101570000D02*
X233485500Y-101570000D01*
X233485500Y-101570000D02*
X236950000Y-105034500D01*
X464300000Y-71290000D02*
X463209992Y-72380008D01*
X463209992Y-72380008D02*
X463209992Y-116494508D01*
X463209992Y-116494508D02*
X461160000Y-118544500D01*
X461160000Y-118544500D02*
X461160000Y-119870000D01*
X263230000Y-68120000D02*
X263230000Y-92081384D01*
X263230000Y-92081384D02*
X260709973Y-94601411D01*
X255201553Y-94601411D02*
X254400142Y-93800000D01*
X260709973Y-94601411D02*
X255201553Y-94601411D01*
X254400142Y-93800000D02*
X247290000Y-93800000D01*
X247290000Y-93800000D02*
X245700000Y-95390000D01*
X262289990Y-67179990D02*
X263230000Y-68120000D01*
X260640000Y-67179990D02*
X261751374Y-67179990D01*
X259910000Y-67179990D02*
X260640000Y-67179990D01*
X260640000Y-67179990D02*
X262289990Y-67179990D01*
X373960000Y-141527980D02*
X349507980Y-141527980D01*
X260709973Y-94601411D02*
X262890010Y-92421374D01*
X246800000Y-99860000D02*
X248510000Y-101570000D01*
X245700000Y-95390000D02*
X245700000Y-98760000D01*
X245700000Y-98760000D02*
X246800000Y-99860000D01*
X241450000Y-95390000D02*
X242330000Y-95390000D01*
X229250000Y-95390000D02*
X241450000Y-95390000D01*
X241450000Y-95390000D02*
X245700000Y-95390000D01*
X379950000Y-139670000D02*
X375817980Y-139670000D01*
X375817980Y-139670000D02*
X373960000Y-141527980D01*
X258339990Y-67179990D02*
X259910000Y-67179990D01*
X242878626Y-67179990D02*
X259910000Y-67179990D01*
X237750000Y-65590000D02*
X239339990Y-67179990D01*
X239339990Y-67179990D02*
X242878626Y-67179990D01*
X247860000Y-147670000D02*
X254670000Y-154480000D01*
X254670000Y-154480000D02*
X260870000Y-154480000D01*
X260870000Y-154480000D02*
X263050000Y-156660000D01*
X246350000Y-139670000D02*
X246350000Y-140837433D01*
X246350000Y-140837433D02*
X247860000Y-142347433D01*
X247860000Y-142347433D02*
X247860000Y-147670000D01*
X381500011Y-139670000D02*
X382850010Y-138320001D01*
X382850010Y-138320001D02*
X403510000Y-138320001D01*
X379950000Y-139670000D02*
X381500011Y-139670000D01*
X349507980Y-141527980D02*
X349507539Y-141527539D01*
X349507539Y-141527539D02*
X332922461Y-141527539D01*
X332922461Y-141527539D02*
X332920000Y-141530000D01*
X453783474Y-136810000D02*
X426360000Y-136810000D01*
X426360000Y-136810000D02*
X426055500Y-136810000D01*
X422970000Y-139670000D02*
X422970000Y-138344500D01*
X422970000Y-138344500D02*
X424504500Y-136810000D01*
X424504500Y-136810000D02*
X426360000Y-136810000D01*
X248510000Y-101570000D02*
X251160000Y-101570000D01*
X249301120Y-132502680D02*
X246350000Y-135453800D01*
X246350000Y-135453800D02*
X246350000Y-139670000D01*
X254619880Y-132502680D02*
X249301120Y-132502680D01*
X256641720Y-130480840D02*
X254619880Y-132502680D01*
X256641720Y-122767220D02*
X256641720Y-130480840D01*
X255870000Y-120670000D02*
X255870000Y-121995500D01*
X255870000Y-121995500D02*
X256641720Y-122767220D01*
X251160000Y-101570000D02*
X252485500Y-101570000D01*
X252485500Y-101570000D02*
X255870000Y-104954500D01*
X255870000Y-104954500D02*
X255870000Y-120670000D01*
X466840000Y-71290000D02*
X464010000Y-74120000D01*
X464010000Y-74120000D02*
X464010000Y-126583474D01*
X464010000Y-126583474D02*
X453783474Y-136810000D01*
X410219940Y-130167292D02*
X410219940Y-133085908D01*
X374291374Y-142327990D02*
X362942010Y-142327990D01*
X410219940Y-133085908D02*
X404185837Y-139120011D01*
X404185837Y-139120011D02*
X383181384Y-139120011D01*
X383181384Y-139120011D02*
X381171395Y-141130000D01*
X381171395Y-141130000D02*
X375489364Y-141130000D01*
X375489364Y-141130000D02*
X374291374Y-142327990D01*
X362942010Y-142327990D02*
X359530000Y-145740000D01*
X359530000Y-145740000D02*
X359530000Y-153412768D01*
X359530000Y-153412768D02*
X360750000Y-154632768D01*
X360750000Y-154632768D02*
X360750000Y-156660000D01*
X318417232Y-159950000D02*
X324570000Y-153797232D01*
X324570000Y-153797232D02*
X325037252Y-153329980D01*
X360750000Y-156660000D02*
X360750000Y-157827433D01*
X360750000Y-157827433D02*
X360017453Y-158559980D01*
X360017453Y-158559980D02*
X351819980Y-158559980D01*
X346589980Y-153329980D02*
X325380020Y-153329980D01*
X351819980Y-158559980D02*
X346589980Y-153329980D01*
X325380020Y-153329980D02*
X325380018Y-153329982D01*
X325380018Y-153329982D02*
X325037250Y-153329982D01*
X325037250Y-153329982D02*
X324570000Y-153797232D01*
X317230000Y-159950000D02*
X290150000Y-159950000D01*
X317230000Y-159950000D02*
X318417232Y-159950000D01*
X290150000Y-159950000D02*
X286860000Y-156660000D01*
X265370000Y-139670000D02*
X265370000Y-140837433D01*
X284780000Y-154580000D02*
X286860000Y-156660000D01*
X265370000Y-140837433D02*
X267110000Y-142577433D01*
X267110000Y-142577433D02*
X267110000Y-147630000D01*
X267110000Y-147630000D02*
X274060000Y-154580000D01*
X274060000Y-154580000D02*
X284780000Y-154580000D01*
X469380000Y-71290000D02*
X467840000Y-69750000D01*
X467840000Y-69750000D02*
X456271384Y-69750000D01*
X456271384Y-69750000D02*
X453111346Y-66589962D01*
X450304112Y-66589960D02*
X431257272Y-66589960D01*
X453111346Y-66589962D02*
X450304114Y-66589962D01*
X450304114Y-66589962D02*
X450304112Y-66589960D01*
X431257272Y-66589960D02*
X428125282Y-69721950D01*
X428125282Y-69721950D02*
X416196494Y-69721950D01*
X416196494Y-69721950D02*
X410219940Y-75698504D01*
X410219940Y-76516000D02*
X410219940Y-130167292D01*
X410219940Y-75698504D02*
X410219940Y-76516000D01*
X274950000Y-120670000D02*
X276275500Y-120670000D01*
X276275500Y-120670000D02*
X276810000Y-120135500D01*
X276810000Y-120135500D02*
X276810000Y-106330000D01*
X276810000Y-106330000D02*
X272050000Y-101570000D01*
X272050000Y-101570000D02*
X270150000Y-101570000D01*
X260671421Y-95401421D02*
X249586921Y-95401421D01*
X249586921Y-95401421D02*
X249575500Y-95390000D01*
X249575500Y-95390000D02*
X248250000Y-95390000D01*
X266840000Y-101570000D02*
X260671421Y-95401421D01*
X267560000Y-101570000D02*
X267150000Y-101570000D01*
X270150000Y-101570000D02*
X267560000Y-101570000D01*
X267560000Y-101570000D02*
X266840000Y-101570000D01*
X268315560Y-132502680D02*
X265370000Y-135448240D01*
X265370000Y-135448240D02*
X265370000Y-139670000D01*
X272328760Y-132502680D02*
X268315560Y-132502680D01*
X274040720Y-130790720D02*
X272328760Y-132502680D01*
X274040720Y-127717320D02*
X274040720Y-130790720D01*
X271678520Y-125355120D02*
X274040720Y-127717320D01*
X271678520Y-122615980D02*
X271678520Y-125355120D01*
X274950000Y-120670000D02*
X273624500Y-120670000D01*
X273624500Y-120670000D02*
X271678520Y-122615980D01*
X317770000Y-82570000D02*
X317770000Y-83737433D01*
X315214120Y-130462764D02*
X320160000Y-135408644D01*
X317770000Y-83737433D02*
X318433001Y-84400434D01*
X318433001Y-84400434D02*
X318433001Y-86997857D01*
X318433001Y-86997857D02*
X317310000Y-88120858D01*
X317310000Y-88120858D02*
X317310000Y-121234120D01*
X320160000Y-135408644D02*
X320160000Y-139670000D01*
X317310000Y-121234120D02*
X315214120Y-123330000D01*
X315214120Y-123330000D02*
X315214120Y-130462764D01*
X317770000Y-82570000D02*
X317770000Y-78790000D01*
X317770000Y-78790000D02*
X304570000Y-65590000D01*
X409419940Y-99140000D02*
X409419940Y-98550000D01*
X427870000Y-96150000D02*
X427870000Y-101590000D01*
X432570000Y-150180000D02*
X432570000Y-156660000D01*
X427870000Y-101590000D02*
X425330000Y-104130000D01*
X425330000Y-104130000D02*
X425330000Y-134853116D01*
X425330000Y-134853116D02*
X421415001Y-138768115D01*
X421415001Y-138768115D02*
X421415001Y-140330000D01*
X421415001Y-140330000D02*
X422320000Y-141234999D01*
X423624999Y-141234999D02*
X432570000Y-150180000D01*
X422320000Y-141234999D02*
X423624999Y-141234999D01*
X353741374Y-137520001D02*
X346871344Y-137520001D01*
X346871344Y-137520001D02*
X346871315Y-137520030D01*
X346871315Y-137520030D02*
X343109970Y-137520030D01*
X343109970Y-137520030D02*
X340960000Y-139670000D01*
X340960000Y-139670000D02*
X332720000Y-139670000D01*
X332720000Y-139670000D02*
X320160000Y-139670000D01*
X409419940Y-98550000D02*
X409419940Y-132477292D01*
X409419940Y-132477292D02*
X404377231Y-137520001D01*
X404377231Y-137520001D02*
X353741374Y-137520001D01*
X353741374Y-137520001D02*
X353741364Y-137520011D01*
X409419940Y-97970010D02*
X409419940Y-98550000D01*
X409419940Y-98550000D02*
X409419940Y-98770020D01*
X477000000Y-71290000D02*
X474659990Y-68949990D01*
X430925898Y-65789950D02*
X427793908Y-68921940D01*
X474659990Y-68949990D02*
X456602758Y-68949990D01*
X456602758Y-68949990D02*
X453442720Y-65789952D01*
X453442720Y-65789952D02*
X450635488Y-65789952D01*
X409419930Y-75367130D02*
X409419930Y-76008000D01*
X450635488Y-65789952D02*
X450635486Y-65789950D01*
X450635486Y-65789950D02*
X430925898Y-65789950D01*
X409419930Y-76008000D02*
X409419930Y-93869990D01*
X427793908Y-68921940D02*
X415865120Y-68921940D01*
X415865120Y-68921940D02*
X409419930Y-75367130D01*
X320160000Y-139670000D02*
X318450000Y-139670000D01*
X318450000Y-139670000D02*
X315870000Y-137090000D01*
X313030000Y-156660000D02*
X309140000Y-152770000D01*
X309140000Y-152770000D02*
X309140000Y-138910000D01*
X309140000Y-138910000D02*
X310960000Y-137090000D01*
X310960000Y-137090000D02*
X315870000Y-137090000D01*
X409419930Y-93869990D02*
X409419930Y-97970000D01*
X409419930Y-97970000D02*
X409419940Y-97970010D01*
X409419930Y-93869990D02*
X409419940Y-93870000D01*
X93960000Y-139670000D02*
X91800000Y-139670000D01*
X91800000Y-139670000D02*
X90400000Y-141070000D01*
X90400000Y-141070000D02*
X90400000Y-144030000D01*
X90400000Y-144030000D02*
X96350000Y-149980000D01*
X96350000Y-149980000D02*
X96350000Y-156660000D01*
X461609972Y-91231498D02*
X457580000Y-87201526D01*
X430472520Y-84377480D02*
X424198864Y-84377480D01*
X457580000Y-87201526D02*
X457580000Y-82130000D01*
X457580000Y-82130000D02*
X456120010Y-80670010D01*
X456120010Y-80670010D02*
X433126000Y-80670010D01*
X433126000Y-80670010D02*
X432036010Y-81760000D01*
X432036010Y-81760000D02*
X432036010Y-82813990D01*
X432036010Y-82813990D02*
X430472520Y-84377480D01*
X415830000Y-81278636D02*
X415470000Y-80918636D01*
X423105873Y-83284489D02*
X420574985Y-83284489D01*
X424198864Y-84377480D02*
X423105873Y-83284489D01*
X419239484Y-84619990D02*
X417720123Y-84619990D01*
X420574985Y-83284489D02*
X419239484Y-84619990D01*
X415829992Y-82080008D02*
X415830000Y-82080000D01*
X417720123Y-84619990D02*
X415829992Y-82729859D01*
X415829992Y-82729859D02*
X415829992Y-82080008D01*
X415830000Y-82080000D02*
X415830000Y-81278636D01*
X415470000Y-80918636D02*
X415468636Y-80918636D01*
X415468636Y-80918636D02*
X415350000Y-80800000D01*
X365729970Y-81090000D02*
X365729970Y-77020030D01*
X365729970Y-77020030D02*
X369080000Y-73670000D01*
X369080000Y-73670000D02*
X369570000Y-73670000D01*
X369570000Y-73670000D02*
X373550000Y-73670000D01*
X365729970Y-81090000D02*
X365729970Y-91504494D01*
X365729970Y-80633110D02*
X365729970Y-81090000D01*
X365729972Y-80633108D02*
X365729972Y-80322595D01*
X372382567Y-73670000D02*
X373550000Y-73670000D01*
X365729970Y-80633110D02*
X365729972Y-80633108D01*
X342760303Y-86206138D02*
X342426892Y-85872727D01*
X363114464Y-94120012D02*
X362632922Y-94601554D01*
X342760303Y-86206151D02*
X342760303Y-86206138D01*
X365729970Y-91504494D02*
X363114464Y-94120000D01*
X363114464Y-94120000D02*
X363114464Y-94120012D01*
X362632922Y-94601554D02*
X351155706Y-94601554D01*
X351155706Y-94601554D02*
X342760303Y-86206151D01*
X394459856Y-70119999D02*
X394459856Y-74957376D01*
X394459856Y-74957376D02*
X393202672Y-76214560D01*
X393202672Y-76214560D02*
X377420060Y-76214560D01*
X377420060Y-76214560D02*
X374875500Y-73670000D01*
X374875500Y-73670000D02*
X373550000Y-73670000D01*
X98650000Y-139670000D02*
X104120501Y-134199499D01*
X104120501Y-134199499D02*
X104120501Y-122646001D01*
X104120501Y-122646001D02*
X103470000Y-121995500D01*
X103470000Y-121995500D02*
X103470000Y-120670000D01*
X93960000Y-139670000D02*
X98650000Y-139670000D01*
X98760000Y-101570000D02*
X98760000Y-102895500D01*
X98760000Y-102895500D02*
X103470000Y-107605500D01*
X103470000Y-107605500D02*
X103470000Y-120670000D01*
X89160000Y-82470000D02*
X89160000Y-83795500D01*
X89160000Y-83795500D02*
X98760000Y-93395500D01*
X98760000Y-93395500D02*
X98760000Y-101570000D01*
X298750000Y-82570000D02*
X298750000Y-78830000D01*
X298750000Y-78830000D02*
X285510000Y-65590000D01*
X355680000Y-153558617D02*
X350112769Y-153558617D01*
X350112769Y-153558617D02*
X348284112Y-151729960D01*
X348284112Y-151729960D02*
X324374504Y-151729960D01*
X324374504Y-151729960D02*
X317754484Y-158349980D01*
X317754484Y-158349980D02*
X311299980Y-158349980D01*
X311299980Y-158349980D02*
X306900000Y-153950000D01*
X306900000Y-153950000D02*
X306900000Y-144490000D01*
X306900000Y-144490000D02*
X303550000Y-141140000D01*
X303550000Y-141140000D02*
X303550000Y-139670000D01*
X306190000Y-132750000D02*
X303550000Y-135390000D01*
X303550000Y-135390000D02*
X303550000Y-139670000D01*
X311780000Y-132750000D02*
X306190000Y-132750000D01*
X314398610Y-130131390D02*
X311780000Y-132750000D01*
X314414110Y-130131390D02*
X314398610Y-130131390D01*
X298750000Y-82570000D02*
X298750000Y-83895500D01*
X298750000Y-83895500D02*
X308260000Y-93405500D01*
X308260000Y-93405500D02*
X308260000Y-101570000D01*
X314414110Y-130131390D02*
X314414110Y-123339610D01*
X314414110Y-123339610D02*
X313070000Y-121995500D01*
X313070000Y-121995500D02*
X313070000Y-120670000D01*
X298760000Y-82560000D02*
X298750000Y-82570000D01*
X465610020Y-134300020D02*
X481550000Y-150240000D01*
X481550000Y-166470000D02*
X481550000Y-150240000D01*
X474460000Y-71290000D02*
X475800008Y-72630008D01*
X475800010Y-80511374D02*
X471471374Y-84840010D01*
X465610020Y-87281364D02*
X465610020Y-134300020D01*
X475800008Y-72630008D02*
X475800008Y-74038624D01*
X475800008Y-74038624D02*
X475800010Y-74038626D01*
X471471374Y-84840010D02*
X468051374Y-84840010D01*
X475800010Y-74038626D02*
X475800010Y-80511374D01*
X468051374Y-84840010D02*
X465610020Y-87281364D01*
X308350000Y-100870000D02*
X308350000Y-102195500D01*
X308350000Y-102195500D02*
X312950000Y-106795500D01*
X312950000Y-106795500D02*
X312950000Y-119870000D01*
X321170000Y-67970000D02*
X323550000Y-65590000D01*
X331551384Y-79820000D02*
X322870000Y-79820000D01*
X321170000Y-67970000D02*
X321170000Y-78120000D01*
X321170000Y-78120000D02*
X322870000Y-79820000D01*
X353410000Y-136719991D02*
X346539970Y-136719991D01*
X336633565Y-130243565D02*
X335750000Y-129360000D01*
X346539970Y-136719991D02*
X346539941Y-136720020D01*
X346539941Y-136720020D02*
X343103585Y-136720020D01*
X343103585Y-136720020D02*
X336633565Y-130250000D01*
X336633565Y-130250000D02*
X336633565Y-130243565D01*
X335750000Y-129360000D02*
X335750000Y-128870000D01*
X408619920Y-128210000D02*
X408619920Y-132145928D01*
X408619920Y-132145928D02*
X404045857Y-136719991D01*
X404045857Y-136719991D02*
X353410000Y-136719991D01*
X353410000Y-136719991D02*
X353409990Y-136720001D01*
X459540000Y-170310000D02*
X352100000Y-170310000D01*
X336390000Y-156660000D02*
X350040000Y-170310000D01*
X350040000Y-170310000D02*
X352100000Y-170310000D01*
X334550000Y-156660000D02*
X336390000Y-156660000D01*
X461160000Y-158670000D02*
X461160000Y-159200000D01*
X461160000Y-159200000D02*
X461160000Y-159995500D01*
X461160000Y-156660000D02*
X461160000Y-157827433D01*
X461160000Y-157827433D02*
X461160000Y-159200000D01*
X461160000Y-159995500D02*
X462000000Y-160835500D01*
X462000000Y-160835500D02*
X462000000Y-167850000D01*
X462000000Y-167850000D02*
X459540000Y-170310000D01*
X408619920Y-76516000D02*
X408619920Y-128210000D01*
X436936000Y-64989940D02*
X430594524Y-64989940D01*
X430594524Y-64989940D02*
X427462534Y-68121930D01*
X427462534Y-68121930D02*
X415533746Y-68121930D01*
X415533746Y-68121930D02*
X408619920Y-75035756D01*
X408619920Y-75035756D02*
X408619920Y-76516000D01*
X453774092Y-64989940D02*
X436936000Y-64989940D01*
X479540000Y-71290000D02*
X476399982Y-68149982D01*
X476399982Y-68149982D02*
X474991366Y-68149982D01*
X474991366Y-68149982D02*
X474991364Y-68149980D01*
X474991364Y-68149980D02*
X456934132Y-68149980D01*
X456934132Y-68149980D02*
X453774092Y-64989940D01*
X336850000Y-82570000D02*
X334301384Y-82570000D01*
X334301384Y-82570000D02*
X331551384Y-79820000D01*
X351486937Y-93801401D02*
X362301401Y-93801401D01*
X362301401Y-93801401D02*
X362301546Y-93801546D01*
X336850000Y-82570000D02*
X340255536Y-82570000D01*
X340255536Y-82570000D02*
X351486937Y-93801401D01*
D24*
X344250000Y-61070000D02*
X344250000Y-66070000D01*
D25*
X446520000Y-71280000D02*
X446520000Y-71460000D01*
X446520000Y-71460000D02*
X449810000Y-74750000D01*
X449560000Y-74610000D02*
X449560000Y-74320000D01*
X446511800Y-71288200D02*
X446520000Y-71280000D01*
X447270000Y-74750000D02*
X447270000Y-74570000D01*
X447270000Y-74570000D02*
X443980000Y-71280000D01*
X447020000Y-74610000D02*
X447020000Y-74320000D01*
X403019850Y-79452158D02*
X403019850Y-101332618D01*
X403019850Y-101332618D02*
X404619880Y-102932648D01*
X404619880Y-102932648D02*
X404619860Y-102932668D01*
X404619860Y-102932668D02*
X404619860Y-118680000D01*
X154750000Y-94170000D02*
X154350000Y-93770000D01*
X151650000Y-93770000D02*
X150818589Y-94601411D01*
X136248636Y-92200020D02*
X133032788Y-92200020D01*
X154350000Y-93770000D02*
X151650000Y-93770000D01*
X131419990Y-84792778D02*
X133750020Y-82462748D01*
X150818589Y-94601411D02*
X138650027Y-94601411D01*
X133750020Y-68211364D02*
X134781374Y-67180010D01*
X138650027Y-94601411D02*
X136248636Y-92200020D01*
X133032788Y-92200020D02*
X131419990Y-90587222D01*
X131419990Y-90587222D02*
X131419990Y-84792778D01*
X133750020Y-82462748D02*
X133750020Y-68211364D01*
X177534490Y-67180010D02*
X179124500Y-65590000D01*
X134781374Y-67180010D02*
X177534490Y-67180010D01*
X179124500Y-65590000D02*
X180450000Y-65590000D01*
X348260000Y-134319961D02*
X357965878Y-134319961D01*
X348260000Y-134319961D02*
X344136294Y-134319961D01*
X344136294Y-134319961D02*
X342686333Y-132870000D01*
X347570000Y-134319961D02*
X348260000Y-134319961D01*
X342686333Y-132870000D02*
X342686333Y-109015051D01*
X355130000Y-103620000D02*
X357180000Y-101570000D01*
X342686333Y-109015051D02*
X348081384Y-103620000D01*
X348081384Y-103620000D02*
X355130000Y-103620000D01*
X357180000Y-101570000D02*
X360760000Y-101570000D01*
X347570000Y-134319961D02*
X346677232Y-134319961D01*
X346960000Y-134319961D02*
X347570000Y-134319961D01*
X403019869Y-71943628D02*
X403019869Y-72190000D01*
X403019869Y-72190000D02*
X403019869Y-72452000D01*
X403019869Y-71880000D02*
X403019869Y-72190000D01*
X403019869Y-72452000D02*
X403019869Y-72100000D01*
X403019869Y-72452000D02*
X403019869Y-79452139D01*
X403019869Y-79452139D02*
X403019850Y-79452158D01*
X373770000Y-133400000D02*
X374450059Y-132719941D01*
X357965878Y-134319961D02*
X358765878Y-133519961D01*
X358765878Y-133519961D02*
X373744494Y-133519961D01*
X402380059Y-132719941D02*
X404619870Y-130480130D01*
X373744494Y-133519961D02*
X373770000Y-133494455D01*
X374450059Y-132719941D02*
X402380059Y-132719941D01*
X373770000Y-133494455D02*
X373770000Y-133400000D01*
X404619870Y-130480130D02*
X404619870Y-119300000D01*
X404619860Y-118680000D02*
X404619860Y-119299990D01*
X404619860Y-119299990D02*
X404619870Y-119300000D01*
X403019850Y-79452158D02*
X403019870Y-79452138D01*
X154750000Y-94170000D02*
X155150000Y-94570000D01*
X172050000Y-95390000D02*
X170470000Y-95390000D01*
X170470000Y-95390000D02*
X169681411Y-94601411D01*
X169681411Y-94601411D02*
X155181411Y-94601411D01*
X155181411Y-94601411D02*
X154750000Y-94170000D01*
X172050000Y-95390000D02*
X183970000Y-95390000D01*
X183970000Y-95390000D02*
X190150000Y-101570000D01*
X190150000Y-101570000D02*
X194060000Y-101570000D01*
X192196840Y-132502680D02*
X189250000Y-135449520D01*
X189250000Y-135449520D02*
X189250000Y-139670000D01*
X197591800Y-132502680D02*
X192196840Y-132502680D01*
X199700000Y-130394480D02*
X197591800Y-132502680D01*
X199700000Y-122935500D02*
X199700000Y-130394480D01*
X198760000Y-120670000D02*
X198760000Y-121995500D01*
X198760000Y-121995500D02*
X199700000Y-122935500D01*
X194060000Y-101570000D02*
X195385500Y-101570000D01*
X195385500Y-101570000D02*
X198760000Y-104944500D01*
X198760000Y-104944500D02*
X198760000Y-120670000D01*
D23*
X433820000Y-56040000D02*
X430200000Y-56040000D01*
X430200000Y-56040000D02*
X424294980Y-61945020D01*
X412544928Y-62396860D02*
X403231922Y-62396860D01*
X401449990Y-56919990D02*
X400330000Y-55800000D01*
X424294980Y-61945020D02*
X412996768Y-61945020D01*
X354220000Y-55800000D02*
X349700000Y-60320000D01*
X412996768Y-61945020D02*
X412544928Y-62396860D01*
X403231922Y-62396860D02*
X401449990Y-60614928D01*
X400330000Y-55800000D02*
X354220000Y-55800000D01*
X401449990Y-60614928D02*
X401449990Y-56919990D01*
X349700000Y-60320000D02*
X349700000Y-61410000D01*
X349700000Y-61410000D02*
X346790000Y-64320000D01*
X346790000Y-64320000D02*
X346790000Y-66070000D01*
X341880000Y-73680000D02*
X346790000Y-68770000D01*
X323850000Y-74480000D02*
X324650000Y-73680000D01*
X324650000Y-73680000D02*
X341880000Y-73680000D01*
X323850000Y-76620000D02*
X323850000Y-74480000D01*
X346790000Y-68770000D02*
X346790000Y-66070000D01*
D25*
X420730000Y-55340000D02*
X419610000Y-54220000D01*
X419610000Y-54220000D02*
X416910000Y-54220000D01*
X416910000Y-54220000D02*
X414690000Y-56440000D01*
X412470000Y-59290000D02*
X411500000Y-60260000D01*
X414690000Y-56440000D02*
X414690000Y-58110000D01*
X414690000Y-58110000D02*
X413510000Y-59290000D01*
X413510000Y-59290000D02*
X412470000Y-59290000D01*
X411500000Y-60260000D02*
X408260000Y-60260000D01*
X405509281Y-54499281D02*
X353410720Y-54499280D01*
X353410720Y-54499280D02*
X346860000Y-61050000D01*
X408260000Y-60260000D02*
X406350000Y-58350000D01*
X406350000Y-58350000D02*
X406350000Y-55340000D01*
X406350000Y-55340000D02*
X405509281Y-54499281D01*
X424010000Y-54500000D02*
X423170000Y-55340000D01*
X432560000Y-54500000D02*
X424010000Y-54500000D01*
X423170000Y-55340000D02*
X420730000Y-55340000D01*
X420730000Y-55340000D02*
X420060000Y-54670000D01*
X431326284Y-54500000D02*
X432560000Y-54500000D01*
X434449280Y-54500000D02*
X432560000Y-54500000D01*
X434450000Y-54499280D02*
X434449280Y-54500000D01*
X482529280Y-54499280D02*
X434450000Y-54499280D01*
X434450000Y-54499280D02*
X433240000Y-54499280D01*
X433240000Y-54499280D02*
X433100720Y-54499280D01*
X483022040Y-54992040D02*
X482529280Y-54499280D01*
X483670000Y-55640000D02*
X483022040Y-54992040D01*
X483022040Y-54992040D02*
X482650000Y-54620000D01*
X482080000Y-61130000D02*
X483670000Y-59540000D01*
X483670000Y-59540000D02*
X483670000Y-55640000D01*
X477538628Y-102660000D02*
X477538628Y-101152756D01*
X477538628Y-101152756D02*
X483514340Y-95177044D01*
X466414314Y-113784314D02*
X477538628Y-102660000D01*
X395210000Y-105850000D02*
X397940000Y-108580000D01*
X397940000Y-108580000D02*
X398340000Y-108980000D01*
X398609314Y-110380686D02*
X398609314Y-109249314D01*
X398609314Y-109249314D02*
X397940000Y-108580000D01*
X356340000Y-80010143D02*
X338150000Y-80010143D01*
X357839857Y-80010143D02*
X356340000Y-80010143D01*
X356340000Y-80010143D02*
X364129953Y-80010143D01*
X364129953Y-80010143D02*
X364129960Y-80010150D01*
X451600000Y-56040000D02*
X454219912Y-58659912D01*
X485150020Y-82055248D02*
X483514340Y-83690928D01*
X454219912Y-58659912D02*
X475664576Y-58659912D01*
X475664576Y-58659912D02*
X476892650Y-59887986D01*
X476892650Y-59887986D02*
X476892650Y-63829882D01*
X476892650Y-63829882D02*
X481212748Y-68149980D01*
X481212748Y-68149980D02*
X483512748Y-68149980D01*
X483512748Y-68149980D02*
X485150020Y-69787252D01*
X485150020Y-69787252D02*
X485150020Y-82055248D01*
X483514340Y-83690928D02*
X483514340Y-86740764D01*
X336250143Y-80010143D02*
X336550000Y-80010143D01*
X336550000Y-80010143D02*
X338150000Y-80010143D01*
X334010000Y-76620000D02*
X334010000Y-77751370D01*
X334010000Y-77751370D02*
X336268773Y-80010143D01*
X336268773Y-80010143D02*
X336550000Y-80010143D01*
X338150000Y-80010143D02*
X337658773Y-80010143D01*
X358120000Y-80010000D02*
X357840000Y-80010000D01*
X357840000Y-80010000D02*
X357839857Y-80010143D01*
X395210000Y-98280000D02*
X388340000Y-91410000D01*
X388340000Y-91410000D02*
X388340000Y-81814620D01*
X395210000Y-105850000D02*
X395210000Y-98280000D01*
X483514340Y-86740764D02*
X483514340Y-95177044D01*
X483514340Y-86740764D02*
X483514338Y-86740766D01*
X477270000Y-100290000D02*
X476738618Y-100821382D01*
X476738618Y-100821382D02*
X476738618Y-102328638D01*
X476738618Y-102328638D02*
X466413628Y-112653628D01*
X482714330Y-94845670D02*
X477270000Y-100290000D01*
X357400000Y-80810153D02*
X335240000Y-80810153D01*
X358120000Y-80810153D02*
X357400000Y-80810153D01*
X357400000Y-80810153D02*
X364129960Y-80810153D01*
X449060000Y-56040000D02*
X452479922Y-59459922D01*
X452479922Y-59459922D02*
X475333202Y-59459922D01*
X475333202Y-59459922D02*
X476092640Y-60219360D01*
X484350010Y-70118626D02*
X484350010Y-81723874D01*
X476092640Y-60219360D02*
X476092640Y-64161256D01*
X476092640Y-64161256D02*
X480881374Y-68949990D01*
X480881374Y-68949990D02*
X483181374Y-68949990D01*
X483181374Y-68949990D02*
X484350010Y-70118626D01*
X484350010Y-81723874D02*
X482714330Y-83359554D01*
X482714330Y-83359554D02*
X482714330Y-94845670D01*
X334510153Y-80810153D02*
X334800000Y-80810153D01*
X334800000Y-80810153D02*
X335240000Y-80810153D01*
X334528783Y-80810153D02*
X334800000Y-80810153D01*
X331470000Y-76620000D02*
X331470000Y-77751370D01*
X331470000Y-77751370D02*
X334528783Y-80810153D01*
X335240000Y-80810153D02*
X334896037Y-80810153D01*
X357766447Y-80810153D02*
X358120000Y-80810153D01*
X387539990Y-91741374D02*
X387539990Y-82147484D01*
X387539990Y-82147484D02*
X387540000Y-82147474D01*
X394410000Y-98611384D02*
X387539990Y-91741374D01*
X394410000Y-105050000D02*
X394410000Y-98611384D01*
X396859863Y-70120000D02*
X396859863Y-75958753D01*
X368130000Y-81316719D02*
X368130000Y-92498616D01*
X396859863Y-75958753D02*
X394204026Y-78614590D01*
X394204026Y-78614590D02*
X370832129Y-78614590D01*
X370832129Y-78614590D02*
X368130000Y-81316719D01*
X368130000Y-92498616D02*
X365514488Y-95114128D01*
X365514488Y-95114128D02*
X365514488Y-95114140D01*
X365514488Y-95114140D02*
X363624294Y-97004334D01*
X363624294Y-97004334D02*
X351295718Y-97004334D01*
X351295718Y-97004334D02*
X340268884Y-85977500D01*
X340268884Y-85977500D02*
X335590000Y-85977500D01*
X364714480Y-94782752D02*
X364714480Y-94782764D01*
X364714480Y-94782764D02*
X363292920Y-96204324D01*
X396059862Y-75620138D02*
X393865420Y-77814580D01*
X363292920Y-96204324D02*
X351627092Y-96204324D01*
X367329990Y-92167242D02*
X364714480Y-94782752D01*
X396059862Y-70119999D02*
X396059862Y-75620138D01*
X370500755Y-77814580D02*
X367329990Y-80985345D01*
X351627092Y-96204324D02*
X342428927Y-87006159D01*
X393865420Y-77814580D02*
X370500755Y-77814580D01*
X342428927Y-87006159D02*
X342428915Y-87006159D01*
X367329990Y-80985345D02*
X367329990Y-92167242D01*
X283280000Y-117080000D02*
X289660000Y-117080000D01*
X292728000Y-122461054D02*
X292728000Y-124077500D01*
X291440000Y-121173054D02*
X292728000Y-122461054D01*
X279662500Y-124077500D02*
X281460000Y-122280000D01*
X281460000Y-118900000D02*
X283280000Y-117080000D01*
X289660000Y-117080000D02*
X291440000Y-118860000D01*
X273678000Y-124077500D02*
X279662500Y-124077500D01*
X291440000Y-118860000D02*
X291440000Y-121173054D01*
X281460000Y-122280000D02*
X281460000Y-118900000D01*
X393534046Y-77014570D02*
X370169381Y-77014570D01*
X363914472Y-94451388D02*
X362964296Y-95401564D01*
X363914472Y-94451376D02*
X363914472Y-94451388D01*
X366529980Y-91835868D02*
X363914472Y-94451376D01*
X395259859Y-75288757D02*
X393534046Y-77014570D01*
X362964296Y-95401564D02*
X359460000Y-95401564D01*
X395259859Y-70119999D02*
X395259859Y-75288757D01*
X370169381Y-77014570D02*
X366529980Y-80653971D01*
X366529980Y-80653971D02*
X366529980Y-91835868D01*
X359460000Y-95401564D02*
X358860617Y-95401564D01*
X359460000Y-95401564D02*
X351960010Y-95401564D01*
X351960010Y-95401564D02*
X351960000Y-95401554D01*
X330828000Y-105027500D02*
X322492500Y-105027500D01*
X322492500Y-105027500D02*
X321400000Y-106120000D01*
X321400000Y-106120000D02*
X321400000Y-112887500D01*
X321400000Y-112887500D02*
X325605000Y-117092500D01*
X358504314Y-95404314D02*
X358857867Y-95404314D01*
X358857867Y-95404314D02*
X358860617Y-95401564D01*
X323685000Y-124077500D02*
X325605000Y-122157500D01*
X325605000Y-122157500D02*
X325605000Y-117092500D01*
X111752500Y-143128000D02*
X113872000Y-143128000D01*
X113872000Y-143128000D02*
X119020000Y-137980000D01*
X119020000Y-137980000D02*
X129348616Y-137980000D01*
X129348616Y-137980000D02*
X130802500Y-139433884D01*
X130802500Y-139433884D02*
X130802500Y-143128000D01*
X111752500Y-143128000D02*
X109768000Y-143128000D01*
X109768000Y-143128000D02*
X108680000Y-142040000D01*
X108680000Y-142040000D02*
X108680000Y-139020000D01*
X108680000Y-139020000D02*
X107080000Y-137420000D01*
X107080000Y-137420000D02*
X105590000Y-137420000D01*
X104980000Y-137420000D02*
X105590000Y-137420000D01*
X97832000Y-143128000D02*
X103540000Y-137420000D01*
X103540000Y-137420000D02*
X104980000Y-137420000D01*
X92686600Y-143128000D02*
X97832000Y-143128000D01*
X105590000Y-137420000D02*
X106044500Y-137420000D01*
X347339986Y-135919987D02*
X343440033Y-135919987D01*
X343440033Y-135919987D02*
X343440000Y-135920020D01*
X352297252Y-135919981D02*
X347760000Y-135919981D01*
X347339980Y-135919981D02*
X347760000Y-135919981D01*
X354320000Y-135919981D02*
X352297252Y-135919981D01*
X352297252Y-135919981D02*
X352297250Y-135919983D01*
X358628626Y-135919981D02*
X354320000Y-135919981D01*
X466840000Y-63670000D02*
X466040001Y-64469999D01*
X375207262Y-134319961D02*
X374407242Y-135119981D01*
X429600402Y-62589910D02*
X426468412Y-65721900D01*
X466040001Y-64469999D02*
X466040001Y-64479999D01*
X466040001Y-64479999D02*
X464770050Y-65749950D01*
X374407242Y-135119981D02*
X359428626Y-135119981D01*
X464770050Y-65749950D02*
X457928254Y-65749950D01*
X457928254Y-65749950D02*
X454768214Y-62589910D01*
X406219890Y-131151806D02*
X403051735Y-134319961D01*
X406219890Y-74041634D02*
X406219890Y-131151806D01*
X454768214Y-62589910D02*
X429600402Y-62589910D01*
X426468412Y-65721900D02*
X414539624Y-65721900D01*
X414539624Y-65721900D02*
X406219890Y-74041634D01*
X403051735Y-134319961D02*
X375207262Y-134319961D01*
X359428626Y-135119981D02*
X358628626Y-135919981D01*
X333199000Y-162178000D02*
X311778000Y-162178000D01*
X309396000Y-162178000D02*
X311778000Y-162178000D01*
X92702500Y-162178000D02*
X95083800Y-162178000D01*
X469380000Y-63670000D02*
X466500040Y-66549960D01*
X466500040Y-66549960D02*
X457596880Y-66549960D01*
X429931776Y-63389920D02*
X426799786Y-66521910D01*
X407019900Y-74373008D02*
X407019900Y-113479900D01*
X457596880Y-66549960D02*
X454436840Y-63389920D01*
X454436840Y-63389920D02*
X429931776Y-63389920D01*
X426799786Y-66521910D02*
X414870998Y-66521910D01*
X414870998Y-66521910D02*
X407019900Y-74373008D01*
X407019900Y-113479900D02*
X407019910Y-113479910D01*
X407019910Y-113479910D02*
X407019910Y-131483170D01*
X407019910Y-131483170D02*
X406613080Y-131890000D01*
X290346000Y-162178000D02*
X309396000Y-162178000D01*
X285584000Y-162178000D02*
X290346000Y-162178000D01*
X403383109Y-135119971D02*
X406613080Y-131890000D01*
X406613080Y-131890000D02*
X406887162Y-131615918D01*
X359760000Y-135919991D02*
X374738616Y-135919991D01*
X375538636Y-135119971D02*
X403383109Y-135119971D01*
X374738616Y-135919991D02*
X375538636Y-135119971D01*
X266546000Y-162178000D02*
X285584000Y-162178000D01*
X95083800Y-162178000D02*
X114133800Y-162178000D01*
X71272800Y-162178000D02*
X92702500Y-162178000D01*
X407819910Y-85590000D02*
X407819910Y-97910000D01*
X407819910Y-97910000D02*
X407819910Y-98640000D01*
X407819920Y-97540000D02*
X407819920Y-97909990D01*
X407819920Y-97909990D02*
X407819910Y-97910000D01*
X359652000Y-57990000D02*
X359652000Y-59606446D01*
X359652000Y-59606446D02*
X360180000Y-60134446D01*
X360180000Y-60134446D02*
X360184446Y-60134446D01*
X360184446Y-60134446D02*
X360910000Y-60860000D01*
X360910000Y-60860000D02*
X360910000Y-72980000D01*
X361442500Y-85977500D02*
X359652000Y-85977500D01*
X360910000Y-72980000D02*
X364929960Y-76999960D01*
X364929960Y-76999960D02*
X364929960Y-82490040D01*
X364929960Y-82490040D02*
X361442500Y-85977500D01*
X407819910Y-98640000D02*
X407819910Y-99522658D01*
X407819910Y-98640000D02*
X407819910Y-97970000D01*
X471920000Y-63670000D02*
X468240030Y-67349970D01*
X468240030Y-67349970D02*
X457265506Y-67349970D01*
X457265506Y-67349970D02*
X454105466Y-64189930D01*
X454105466Y-64189930D02*
X430263150Y-64189930D01*
X430263150Y-64189930D02*
X427131160Y-67321920D01*
X407819910Y-76262000D02*
X407819910Y-85590000D01*
X427131160Y-67321920D02*
X415202372Y-67321920D01*
X415202372Y-67321920D02*
X407819910Y-74704382D01*
X407819910Y-74704382D02*
X407819910Y-76262000D01*
X407819900Y-85980000D02*
X407819900Y-85590010D01*
X407819900Y-85590010D02*
X407819910Y-85590000D01*
X407819920Y-99522668D02*
X407819920Y-101730000D01*
X407819920Y-101730000D02*
X407819920Y-131814544D01*
X407819920Y-103020000D02*
X407819920Y-101730000D01*
X403714483Y-135919981D02*
X375870010Y-135919981D01*
X375870010Y-135919981D02*
X375870000Y-135919991D01*
X407819920Y-131814544D02*
X403714483Y-135919981D01*
X407819910Y-99522658D02*
X407819920Y-99522668D01*
X378702000Y-162178000D02*
X359652000Y-162178000D01*
X397752000Y-162178000D02*
X378702000Y-162178000D01*
X421815000Y-85977500D02*
X440865000Y-85977500D01*
X378894000Y-143320000D02*
X378702000Y-143128000D01*
X413419980Y-134411404D02*
X405810000Y-142021384D01*
X405810000Y-142021384D02*
X405810000Y-144890000D01*
X405810000Y-144890000D02*
X404460000Y-146240000D01*
X404460000Y-146240000D02*
X400030000Y-150670000D01*
X413419980Y-132370000D02*
X413419980Y-133780000D01*
X413419980Y-133780000D02*
X413419980Y-134411404D01*
X413419980Y-77024000D02*
X413419980Y-132370000D01*
X413419980Y-132370000D02*
X413419980Y-134411404D01*
X417521990Y-72921990D02*
X413419980Y-77024000D01*
X432719998Y-69790000D02*
X429588008Y-72921990D01*
X449060000Y-71280000D02*
X447570000Y-69790000D01*
X429588008Y-72921990D02*
X417521990Y-72921990D01*
X447570000Y-69790000D02*
X432719998Y-69790000D01*
X407470000Y-139230000D02*
X400030000Y-146670000D01*
X412619970Y-76692626D02*
X412619970Y-134080030D01*
X412619970Y-134080030D02*
X407470000Y-139230000D01*
X407699990Y-139000010D02*
X407470000Y-139230000D01*
X451600000Y-71280000D02*
X449309990Y-68989990D01*
X449309990Y-68989990D02*
X432251394Y-68989990D01*
X432251394Y-68989990D02*
X429119404Y-72121980D01*
X429119404Y-72121980D02*
X417190616Y-72121980D01*
X417190616Y-72121980D02*
X412619970Y-76692626D01*
X400570000Y-62040000D02*
X398430000Y-62040000D01*
X425474290Y-63321870D02*
X413545502Y-63321870D01*
X436360000Y-56040000D02*
X432210120Y-60189880D01*
X432210120Y-60189880D02*
X428606280Y-60189880D01*
X413545502Y-63321870D02*
X412217372Y-64650000D01*
X428606280Y-60189880D02*
X425474290Y-63321870D01*
X412217372Y-64650000D02*
X403180000Y-64650000D01*
X403180000Y-64650000D02*
X400570000Y-62040000D01*
X387630000Y-73670000D02*
X387630000Y-60110000D01*
X387630000Y-60110000D02*
X389460000Y-58280000D01*
X389460000Y-58280000D02*
X394670000Y-58280000D01*
X394670000Y-58280000D02*
X398430000Y-62040000D01*
X436360000Y-56050000D02*
X434550098Y-57859902D01*
X387550000Y-73440000D02*
X387600000Y-73490000D01*
X405419880Y-73710260D02*
X405419880Y-97820000D01*
X405419890Y-98340000D02*
X405419890Y-97820010D01*
X405419890Y-97820010D02*
X405419880Y-97820000D01*
X441440000Y-56040000D02*
X435690100Y-61789900D01*
X435690100Y-61789900D02*
X429269028Y-61789900D01*
X429269028Y-61789900D02*
X426137038Y-64921890D01*
X426137038Y-64921890D02*
X414208250Y-64921890D01*
X414208250Y-64921890D02*
X405419880Y-73710260D01*
X441440000Y-56050000D02*
X438030078Y-59459922D01*
X404620000Y-99570000D02*
X404620000Y-100670000D01*
X438900000Y-56040000D02*
X433950110Y-60989890D01*
X433950110Y-60989890D02*
X428937654Y-60989890D01*
X428937654Y-60989890D02*
X425805664Y-64121880D01*
X425805664Y-64121880D02*
X413876876Y-64121880D01*
X413876876Y-64121880D02*
X404619870Y-73378886D01*
X404619870Y-73378886D02*
X404619870Y-99101364D01*
X404619870Y-99101364D02*
X404620000Y-99101494D01*
X404620000Y-99101494D02*
X404620000Y-99570000D01*
X436290088Y-58659912D02*
X438900000Y-56050000D01*
X418340000Y-81870000D02*
X419884000Y-80326000D01*
X419884000Y-80326000D02*
X430586000Y-80326000D01*
X430586000Y-80326000D02*
X431902000Y-79010000D01*
X431902000Y-79010000D02*
X439610000Y-79010000D01*
X439610000Y-79010000D02*
X443100000Y-75520000D01*
X443100000Y-75520000D02*
X443100000Y-72940000D01*
X443100000Y-72940000D02*
X441440000Y-71280000D01*
X438900000Y-71280000D02*
X436458000Y-73722000D01*
X436458000Y-73722000D02*
X436210010Y-73969990D01*
X419986000Y-77024000D02*
X433156000Y-77024000D01*
X433156000Y-77024000D02*
X436458000Y-73722000D01*
X418340000Y-78670000D02*
X419986000Y-77024000D01*
X362030000Y-146670000D02*
X366880000Y-151520000D01*
X449972738Y-67389970D02*
X449972740Y-67389972D01*
X366880000Y-151520000D02*
X378220000Y-151520000D01*
X378220000Y-151520000D02*
X389819979Y-139920021D01*
X389819979Y-139920021D02*
X404517211Y-139920021D01*
X428456656Y-70521960D02*
X431588646Y-67389970D01*
X452779972Y-67389972D02*
X455870001Y-70480001D01*
X404517211Y-139920021D02*
X411019950Y-133417282D01*
X431588646Y-67389970D02*
X449972738Y-67389970D01*
X455870001Y-70480001D02*
X455880001Y-70480001D01*
X411019950Y-133417282D02*
X411019950Y-76029878D01*
X411019950Y-76029878D02*
X416527868Y-70521960D01*
X416527868Y-70521960D02*
X428456656Y-70521960D01*
X449972740Y-67389972D02*
X452779972Y-67389972D01*
X455880001Y-70480001D02*
X456680000Y-71280000D01*
X454140000Y-71280000D02*
X451049982Y-68189982D01*
X411819960Y-133748656D02*
X404848585Y-140720031D01*
X451049982Y-68189982D02*
X449641366Y-68189982D01*
X378551376Y-152320008D02*
X377780002Y-152320008D01*
X449641366Y-68189982D02*
X449641364Y-68189980D01*
X449641364Y-68189980D02*
X431920020Y-68189980D01*
X431920020Y-68189980D02*
X428788030Y-71321970D01*
X428788030Y-71321970D02*
X416859242Y-71321970D01*
X390151353Y-140720031D02*
X378551376Y-152320008D01*
X416859242Y-71321970D02*
X411819960Y-76361252D01*
X411819960Y-76361252D02*
X411819960Y-133748656D01*
X404848585Y-140720031D02*
X390151353Y-140720031D01*
X377780002Y-152320008D02*
X377780000Y-152320010D01*
X377780000Y-152320010D02*
X363680010Y-152320010D01*
X363680010Y-152320010D02*
X362030000Y-150670000D01*
X266540000Y-57970000D02*
X269530000Y-57970000D01*
X269530000Y-57970000D02*
X272090000Y-60530000D01*
X285510000Y-57970000D02*
X288580000Y-57970000D01*
X288580000Y-57970000D02*
X291140000Y-60530000D01*
X304570000Y-57970000D02*
X307630000Y-57970000D01*
X307630000Y-57970000D02*
X310190000Y-60530000D01*
X310150000Y-60570000D02*
X310190000Y-60530000D01*
X323550000Y-57970000D02*
X326680000Y-57970000D01*
X326680000Y-57970000D02*
X329240000Y-60530000D01*
X329230000Y-60540000D02*
X329240000Y-60530000D01*
X74950000Y-57970000D02*
X72840000Y-55860000D01*
X72840000Y-55860000D02*
X67210000Y-55860000D01*
X67210000Y-55860000D02*
X62540000Y-60530000D01*
X416629992Y-82398475D02*
X418051497Y-83819980D01*
X420243611Y-82484479D02*
X423437247Y-82484479D01*
X418051497Y-83819980D02*
X418908110Y-83819980D01*
X431236000Y-82482616D02*
X431236000Y-81428626D01*
X431236000Y-81428626D02*
X432794626Y-79870000D01*
X418908110Y-83819980D02*
X420243611Y-82484479D01*
X423437247Y-82484479D02*
X424530238Y-83577470D01*
X424530238Y-83577470D02*
X430141146Y-83577470D01*
X430141146Y-83577470D02*
X431236000Y-82482616D01*
X432794626Y-79870000D02*
X458360000Y-79870000D01*
X458360000Y-79870000D02*
X461060000Y-82570000D01*
X364129960Y-78810000D02*
X364129960Y-79210143D01*
X360468616Y-73670000D02*
X364129960Y-77331344D01*
X364129960Y-77331344D02*
X364129960Y-78810000D01*
X358990000Y-73670000D02*
X360468616Y-73670000D01*
X337300001Y-78519999D02*
X338260001Y-78519999D01*
X338260001Y-78519999D02*
X340170000Y-76610000D01*
X340170000Y-76610000D02*
X352160000Y-76610000D01*
X352160000Y-76610000D02*
X355100000Y-73670000D01*
X355100000Y-73670000D02*
X358990000Y-73670000D01*
X364129809Y-79209992D02*
X364129960Y-79210143D01*
X65250000Y-73870000D02*
X71230000Y-67890000D01*
X71230000Y-67890000D02*
X71450000Y-67670000D01*
X74950000Y-65590000D02*
X73530000Y-65590000D01*
X73530000Y-65590000D02*
X71230000Y-67890000D01*
X82850000Y-152970000D02*
X79750000Y-156070000D01*
X72570000Y-156660000D02*
X79160000Y-156660000D01*
X79160000Y-156660000D02*
X79750000Y-156070000D01*
X82850000Y-141795500D02*
X82850000Y-152970000D01*
X82050000Y-139670000D02*
X82050000Y-140995500D01*
X82050000Y-140995500D02*
X82850000Y-141795500D01*
X65250000Y-85896526D02*
X65250000Y-73870000D01*
X74950000Y-95680000D02*
X74950000Y-95596526D01*
X74950000Y-95596526D02*
X65250000Y-85896526D01*
X77260000Y-120670000D02*
X77260000Y-121995500D01*
X77260000Y-121995500D02*
X82050000Y-126785500D01*
X82050000Y-126785500D02*
X82050000Y-139670000D01*
X74950000Y-101570000D02*
X74950000Y-102895500D01*
X74950000Y-102895500D02*
X77260000Y-105205500D01*
X77260000Y-105205500D02*
X77260000Y-120670000D01*
X74950000Y-95680000D02*
X74950000Y-101570000D01*
X248250000Y-87770000D02*
X252292500Y-87770000D01*
X252292500Y-87770000D02*
X253040000Y-88517500D01*
X272090000Y-88517500D02*
X278037500Y-82570000D01*
X278037500Y-82570000D02*
X279950000Y-82570000D01*
X291140000Y-88517500D02*
X291140000Y-82580000D01*
X291140000Y-82580000D02*
X291130000Y-82570000D01*
X310190000Y-88517500D02*
X310190000Y-82610000D01*
X310190000Y-82610000D02*
X310150000Y-82570000D01*
X327330000Y-94600000D02*
X329240000Y-92690000D01*
X329240000Y-92690000D02*
X329240000Y-88517500D01*
X321690000Y-94600000D02*
X327330000Y-94600000D01*
X319715000Y-92625000D02*
X321690000Y-94600000D01*
X319715000Y-88517500D02*
X319715000Y-92625000D01*
X329240000Y-88517500D02*
X329240000Y-82580000D01*
X329240000Y-82580000D02*
X329230000Y-82570000D01*
X262530000Y-101570000D02*
X262530000Y-107532500D01*
X262530000Y-107532500D02*
X262565000Y-107567500D01*
X281615000Y-107567500D02*
X281615000Y-101595000D01*
X281615000Y-101595000D02*
X281640000Y-101570000D01*
X300640000Y-101570000D02*
X300640000Y-107542500D01*
X300640000Y-107542500D02*
X300665000Y-107567500D01*
X267328000Y-126617500D02*
X267328000Y-120672000D01*
X267328000Y-120672000D02*
X267330000Y-120670000D01*
X286350000Y-120670000D02*
X286350000Y-126589500D01*
X286350000Y-126589500D02*
X286378000Y-126617500D01*
X305450000Y-120670000D02*
X305450000Y-126595500D01*
X305450000Y-126595500D02*
X305428000Y-126617500D01*
X328130000Y-131480000D02*
X326350000Y-133260000D01*
X326350000Y-133260000D02*
X319760000Y-133260000D01*
X328130000Y-128870000D02*
X328130000Y-131480000D01*
X317335000Y-130835000D02*
X319760000Y-133260000D01*
X317335000Y-126617500D02*
X317335000Y-130835000D01*
X328145000Y-123442500D02*
X328145000Y-128855000D01*
X328145000Y-128855000D02*
X328130000Y-128870000D01*
X257750000Y-139670000D02*
X257750000Y-145616000D01*
X257750000Y-145616000D02*
X257802000Y-145668000D01*
X276850000Y-139670000D02*
X276850000Y-145666000D01*
X276850000Y-145666000D02*
X276852000Y-145668000D01*
X295930000Y-139670000D02*
X295930000Y-145640000D01*
X295930000Y-145640000D02*
X295902000Y-145668000D01*
X322096000Y-145668000D02*
X322096000Y-149614000D01*
X322096000Y-149614000D02*
X320110000Y-151600000D01*
X320110000Y-151600000D02*
X314350000Y-151600000D01*
X314350000Y-151600000D02*
X312555000Y-149805000D01*
X312555000Y-149805000D02*
X312555000Y-145668000D01*
X312540000Y-139670000D02*
X312540000Y-145653000D01*
X312540000Y-145653000D02*
X312555000Y-145668000D01*
X305410000Y-164700000D02*
X305428000Y-164718000D01*
X305450000Y-164696000D02*
X305428000Y-164718000D01*
X303030000Y-164702000D02*
X303046000Y-164718000D01*
X326930000Y-156660000D02*
X326930000Y-157985500D01*
X326849000Y-168599000D02*
X326849000Y-164718000D01*
X326930000Y-157985500D02*
X329014520Y-160070020D01*
X329014520Y-160070020D02*
X334877252Y-160070020D01*
X334877252Y-160070020D02*
X335709980Y-160902748D01*
X335709980Y-167697252D02*
X333037252Y-170369980D01*
X335709980Y-160902748D02*
X335709980Y-167697252D01*
X333037252Y-170369980D02*
X328619980Y-170369980D01*
X328619980Y-170369980D02*
X326849000Y-168599000D01*
X326930000Y-164637000D02*
X326849000Y-164718000D01*
X95090000Y-57970000D02*
X98080000Y-57970000D01*
X98080000Y-57970000D02*
X100640000Y-60530000D01*
X113440000Y-57970000D02*
X117130000Y-57970000D01*
X117130000Y-57970000D02*
X119690000Y-60530000D01*
X119640000Y-60580000D02*
X119690000Y-60530000D01*
X119750000Y-60590000D02*
X119690000Y-60530000D01*
X132150000Y-57970000D02*
X136180000Y-57970000D01*
X136180000Y-57970000D02*
X138740000Y-60530000D01*
X152050000Y-57960000D02*
X155220000Y-57960000D01*
X155220000Y-57960000D02*
X157790000Y-60530000D01*
X180850000Y-57970000D02*
X183805000Y-57970000D01*
X183805000Y-57970000D02*
X186365000Y-60530000D01*
X199750000Y-57970000D02*
X202855000Y-57970000D01*
X202855000Y-57970000D02*
X205415000Y-60530000D01*
X218850000Y-57970000D02*
X221905000Y-57970000D01*
X221905000Y-57970000D02*
X224465000Y-60530000D01*
X237750000Y-57970000D02*
X240955000Y-57970000D01*
X240955000Y-57970000D02*
X243515000Y-60530000D01*
X81540000Y-82470000D02*
X81540000Y-88467500D01*
X81540000Y-88467500D02*
X81590000Y-88517500D01*
X100650000Y-82470000D02*
X100650000Y-88507500D01*
X100650000Y-88507500D02*
X100640000Y-88517500D01*
X119690000Y-82470000D02*
X119690000Y-88517500D01*
X133950000Y-87760000D02*
X137982500Y-87760000D01*
X137982500Y-87760000D02*
X138740000Y-88517500D01*
X152950000Y-87770000D02*
X157042500Y-87770000D01*
X157042500Y-87770000D02*
X157790000Y-88517500D01*
X191050000Y-87770000D02*
X195142500Y-87770000D01*
X195142500Y-87770000D02*
X195890000Y-88517500D01*
X209950000Y-87770000D02*
X214192500Y-87770000D01*
X214192500Y-87770000D02*
X214940000Y-88517500D01*
X229250000Y-87770000D02*
X233242500Y-87770000D01*
X233242500Y-87770000D02*
X233990000Y-88517500D01*
X67330000Y-101570000D02*
X67330000Y-107540000D01*
X67330000Y-107540000D02*
X67302500Y-107567500D01*
X91115000Y-107567500D02*
X91115000Y-101595000D01*
X91115000Y-101595000D02*
X91140000Y-101570000D01*
X110140000Y-101570000D02*
X110140000Y-107542500D01*
X110140000Y-107542500D02*
X110165000Y-107567500D01*
X129215000Y-107567500D02*
X129215000Y-101595000D01*
X129215000Y-101595000D02*
X129240000Y-101570000D01*
X148265000Y-107567500D02*
X148265000Y-101645000D01*
X148265000Y-101645000D02*
X148340000Y-101570000D01*
X167315000Y-107567500D02*
X167315000Y-101585000D01*
X167315000Y-101585000D02*
X167330000Y-101570000D01*
X186440000Y-101570000D02*
X186440000Y-107492500D01*
X186440000Y-107492500D02*
X186365000Y-107567500D01*
X205330000Y-101570000D02*
X205330000Y-107482500D01*
X205330000Y-107482500D02*
X205415000Y-107567500D01*
X224540000Y-101570000D02*
X224540000Y-107492500D01*
X224540000Y-107492500D02*
X224465000Y-107567500D01*
X243540000Y-101570000D02*
X243540000Y-107542500D01*
X243540000Y-107542500D02*
X243515000Y-107567500D01*
X69640000Y-120670000D02*
X69640000Y-126572800D01*
X69640000Y-126572800D02*
X69684700Y-126617500D01*
X95850000Y-120670000D02*
X95850000Y-126590000D01*
X95850000Y-126590000D02*
X95877500Y-126617500D01*
X114927500Y-126617500D02*
X114927500Y-120682500D01*
X114927500Y-120682500D02*
X114940000Y-120670000D01*
X133940000Y-120670000D02*
X133940000Y-126580000D01*
X133940000Y-126580000D02*
X133977500Y-126617500D01*
X153050000Y-120670000D02*
X153050000Y-126595500D01*
X153050000Y-126595500D02*
X153028000Y-126617500D01*
X172050000Y-120670000D02*
X172050000Y-126589500D01*
X172050000Y-126589500D02*
X172078000Y-126617500D01*
X191128000Y-126617500D02*
X191128000Y-120682000D01*
X191128000Y-120682000D02*
X191140000Y-120670000D01*
X210150000Y-120670000D02*
X210150000Y-126589500D01*
X210150000Y-126589500D02*
X210178000Y-126617500D01*
X229228000Y-126617500D02*
X229228000Y-120692000D01*
X229228000Y-120692000D02*
X229250000Y-120670000D01*
X248250000Y-120670000D02*
X248250000Y-126589500D01*
X248250000Y-126589500D02*
X248278000Y-126617500D01*
X74447800Y-145668000D02*
X74447800Y-139687800D01*
X74447800Y-139687800D02*
X74430000Y-139670000D01*
X86336600Y-145668000D02*
X86336600Y-139673400D01*
X86336600Y-139673400D02*
X86340000Y-139670000D01*
X105350000Y-139670000D02*
X105350000Y-145615500D01*
X105350000Y-145615500D02*
X105402500Y-145668000D01*
X127730000Y-139670000D02*
X126404500Y-139670000D01*
X126404500Y-139670000D02*
X124452500Y-141622000D01*
X124452500Y-141622000D02*
X124452500Y-142937500D01*
X124452500Y-145668000D02*
X124452500Y-142937500D01*
X143450000Y-139670000D02*
X143450000Y-145616000D01*
X143450000Y-145616000D02*
X143502000Y-145668000D01*
X162552000Y-145668000D02*
X162552000Y-139672000D01*
X162552000Y-139672000D02*
X162550000Y-139670000D01*
X181630000Y-139670000D02*
X181630000Y-145640000D01*
X181630000Y-145640000D02*
X181602000Y-145668000D01*
X200650000Y-139670000D02*
X200650000Y-145666000D01*
X200650000Y-145666000D02*
X200652000Y-145668000D01*
X219640000Y-139670000D02*
X219640000Y-145606000D01*
X219640000Y-145606000D02*
X219702000Y-145668000D01*
X238730000Y-139670000D02*
X238730000Y-145646000D01*
X238730000Y-145646000D02*
X238752000Y-145668000D01*
X64950000Y-158670000D02*
X64950000Y-159280000D01*
X64950000Y-156660000D02*
X64950000Y-157985500D01*
X64950000Y-159280000D02*
X64950000Y-164690800D01*
X64950000Y-157985500D02*
X64950000Y-159280000D01*
X64950000Y-164690800D02*
X64922800Y-164718000D01*
X129240000Y-158670000D02*
X129240000Y-159840000D01*
X129240000Y-159840000D02*
X129240000Y-164693000D01*
X129240000Y-156660000D02*
X129240000Y-159840000D01*
X129240000Y-164693000D02*
X129215000Y-164718000D01*
X150640000Y-158670000D02*
X150640000Y-159390000D01*
X150640000Y-159390000D02*
X150640000Y-164705000D01*
X150640000Y-156660000D02*
X150640000Y-157985500D01*
X150640000Y-157985500D02*
X150640000Y-159390000D01*
X150640000Y-164705000D02*
X150627000Y-164718000D01*
X174450000Y-158670000D02*
X174450000Y-160390000D01*
X174450000Y-160390000D02*
X174450000Y-164695000D01*
X174450000Y-156660000D02*
X174450000Y-157985500D01*
X174450000Y-157985500D02*
X174450000Y-160390000D01*
X174450000Y-164695000D02*
X174427000Y-164718000D01*
X203040000Y-158670000D02*
X203040000Y-159190000D01*
X203040000Y-159190000D02*
X203040000Y-164712000D01*
X203040000Y-156660000D02*
X203040000Y-157985500D01*
X203040000Y-157985500D02*
X203040000Y-159190000D01*
X203040000Y-164712000D02*
X203034000Y-164718000D01*
X236340000Y-158670000D02*
X236340000Y-159060000D01*
X236340000Y-159060000D02*
X236340000Y-164689000D01*
X236340000Y-157985500D02*
X236340000Y-159060000D01*
X236340000Y-156660000D02*
X236340000Y-157985500D01*
X236340000Y-164689000D02*
X236369000Y-164718000D01*
X255430000Y-158670000D02*
X255430000Y-159300000D01*
X255430000Y-159300000D02*
X255430000Y-164709000D01*
X255430000Y-156660000D02*
X255430000Y-157985500D01*
X255430000Y-157985500D02*
X255430000Y-159300000D01*
X255430000Y-164709000D02*
X255421000Y-164718000D01*
X397659866Y-70120000D02*
X397659866Y-76290134D01*
X320369990Y-61819990D02*
X318840000Y-60290000D01*
X397659866Y-76290134D02*
X394535400Y-79414600D01*
X333170000Y-82570000D02*
X331230000Y-80630000D01*
X394535400Y-79414600D02*
X371163503Y-79414600D01*
X331230000Y-80630000D02*
X322548616Y-80630000D01*
X363955668Y-97804344D02*
X350964344Y-97804344D01*
X371163503Y-79414600D02*
X368930010Y-81648093D01*
X368930010Y-81648093D02*
X368930010Y-92829990D01*
X368930010Y-92829990D02*
X366314496Y-95445504D01*
X366314496Y-95445504D02*
X366314496Y-95445516D01*
X341410000Y-88250000D02*
X334610000Y-88250000D01*
X366314496Y-95445516D02*
X363955668Y-97804344D01*
X350964344Y-97804344D02*
X341410000Y-88250000D01*
X334610000Y-88250000D02*
X333170000Y-86810000D01*
X333170000Y-86810000D02*
X333170000Y-82570000D01*
X320369990Y-78451374D02*
X320369990Y-61819990D01*
X322548616Y-80630000D02*
X320369990Y-78451374D01*
X318840000Y-60290000D02*
X316540000Y-57990000D01*
X421815000Y-124077500D02*
X424529990Y-126792490D01*
X424529990Y-126792490D02*
X424529990Y-134521742D01*
X424529990Y-134521742D02*
X420614991Y-138436741D01*
X420614991Y-138436741D02*
X420614991Y-141927991D01*
X420614991Y-141927991D02*
X421815000Y-143128000D01*
X421815000Y-105027500D02*
X424529990Y-107742490D01*
X424529990Y-113970010D02*
X420672001Y-117827999D01*
X424529990Y-107742490D02*
X424529990Y-113970010D01*
X420672001Y-117827999D02*
X420672001Y-122934501D01*
X420672001Y-122934501D02*
X421815000Y-124077500D01*
X483550000Y-70450000D02*
X483550000Y-81392500D01*
X483550000Y-81392500D02*
X481914320Y-83028180D01*
X482850000Y-69750000D02*
X483550000Y-70450000D01*
X480550000Y-69750000D02*
X482850000Y-69750000D01*
X474460000Y-63660000D02*
X480550000Y-69750000D01*
X481914320Y-83028180D02*
X478965000Y-85977500D01*
X440865000Y-143128000D02*
X459915000Y-143128000D01*
X462409982Y-95070018D02*
X458772001Y-98707999D01*
X458772001Y-98707999D02*
X458772001Y-103884501D01*
X458772001Y-103884501D02*
X459915000Y-105027500D01*
X459915000Y-85977500D02*
X462409982Y-88472482D01*
X462409982Y-88472482D02*
X462409982Y-95070018D01*
X471345000Y-154558000D02*
X471345000Y-155192000D01*
X420672001Y-141985001D02*
X421815000Y-143128000D01*
X425310000Y-100670000D02*
X420810000Y-96170000D01*
X420810000Y-96170000D02*
X420450000Y-96170000D01*
X377470000Y-73670000D02*
X377470000Y-68220000D01*
X377470000Y-68220000D02*
X377520000Y-68170000D01*
X377520000Y-73410000D02*
X377440000Y-73490000D01*
X364090000Y-159280000D02*
X363210000Y-160160000D01*
X363210000Y-160160000D02*
X351157232Y-160160000D01*
X351157232Y-160160000D02*
X345927232Y-154930000D01*
X332700000Y-155840000D02*
X332700000Y-157170000D01*
X316770000Y-174100000D02*
X308400500Y-174100000D01*
X345927232Y-154930000D02*
X333610000Y-154930000D01*
X333610000Y-154930000D02*
X332700000Y-155840000D01*
X337310000Y-160240000D02*
X337310000Y-168360000D01*
X308400500Y-174100000D02*
X308050000Y-173749500D01*
X332700000Y-157170000D02*
X334000000Y-158470000D01*
X334000000Y-158470000D02*
X335540000Y-158470000D01*
X308050000Y-173749500D02*
X308050000Y-172170000D01*
X335540000Y-158470000D02*
X337310000Y-160240000D01*
X337310000Y-168360000D02*
X333700000Y-171970000D01*
X333700000Y-171970000D02*
X318900000Y-171970000D01*
X318900000Y-171970000D02*
X316770000Y-174100000D01*
X389870000Y-150670000D02*
X382464152Y-150670000D01*
X382464152Y-150670000D02*
X379214122Y-153920030D01*
X379214122Y-153920030D02*
X369449970Y-153920030D01*
X369449970Y-153920030D02*
X364090000Y-159280000D01*
X364460000Y-158910000D02*
X364090000Y-159280000D01*
X308050000Y-172043000D02*
X308050000Y-172170000D01*
X262980000Y-170300000D02*
X318140000Y-170300000D01*
X333368626Y-171169990D02*
X319009990Y-171169990D01*
X319009990Y-171169990D02*
X318140000Y-170300000D01*
X336509990Y-168028626D02*
X333368626Y-171169990D01*
X336509990Y-160571374D02*
X336509990Y-168028626D01*
X335208626Y-159270010D02*
X336509990Y-160571374D01*
X333668626Y-159270010D02*
X335208626Y-159270010D01*
X332640000Y-158241384D02*
X331899990Y-157501374D01*
X332640000Y-158241384D02*
X333668626Y-159270010D01*
X262570000Y-172160000D02*
X262570000Y-170710000D01*
X262570000Y-170710000D02*
X262980000Y-170300000D01*
X333278626Y-154129990D02*
X346258606Y-154129990D01*
X346258606Y-154129990D02*
X351488606Y-159359990D01*
X331899990Y-155508626D02*
X333278626Y-154129990D01*
X351488606Y-159359990D02*
X352980000Y-159359990D01*
X331899990Y-157501374D02*
X331899990Y-155508626D01*
X389870000Y-146670000D02*
X385332768Y-146670000D01*
X385332768Y-146670000D02*
X378882748Y-153120020D01*
X378882748Y-153120020D02*
X369069980Y-153120020D01*
X369069980Y-153120020D02*
X362830010Y-159359990D01*
X362830010Y-159359990D02*
X352980000Y-159359990D01*
X352980000Y-159359990D02*
X352519990Y-159359990D01*
X260320000Y-172160000D02*
X262570000Y-172160000D01*
X74700000Y-134420000D02*
X74700000Y-135870000D01*
X74700000Y-135870000D02*
X73310000Y-137260000D01*
X73310000Y-137260000D02*
X69260000Y-137260000D01*
X69260000Y-137260000D02*
X62190000Y-144330000D01*
X62190000Y-166540000D02*
X65960000Y-170310000D01*
X62190000Y-144330000D02*
X62190000Y-166540000D01*
X65960000Y-170310000D02*
X69430000Y-170310000D01*
X69430000Y-170310000D02*
X69820000Y-170700000D01*
X69820000Y-170700000D02*
X69820000Y-172150000D01*
X456880000Y-72760000D02*
X460280000Y-72760000D01*
X460280000Y-72760000D02*
X461760000Y-71280000D01*
X454890000Y-74750000D02*
X456880000Y-72760000D01*
X436360000Y-71690000D02*
X435344000Y-72706000D01*
X435344000Y-72706000D02*
X435240000Y-72810000D01*
X419848000Y-73722000D02*
X434328000Y-73722000D01*
X418340000Y-75230000D02*
X419848000Y-73722000D01*
X434328000Y-73722000D02*
X435344000Y-72706000D01*
X436360000Y-71280000D02*
X436360000Y-71690000D01*
X372350000Y-164716000D02*
X372352000Y-164718000D01*
X418246526Y-94090000D02*
X422310000Y-94090000D01*
X422310000Y-94090000D02*
X427870000Y-88530000D01*
X415465000Y-88517500D02*
X415465000Y-91308474D01*
X415465000Y-91308474D02*
X418246526Y-94090000D01*
X434430000Y-88432500D02*
X434515000Y-88517500D01*
X434550000Y-139670000D02*
X434550000Y-145633000D01*
X434550000Y-145633000D02*
X434515000Y-145668000D01*
X434530000Y-145653000D02*
X434515000Y-145668000D01*
X473885000Y-161542000D02*
X473885000Y-166425000D01*
X473885000Y-166425000D02*
X473930000Y-166470000D01*
X473885000Y-166535000D02*
X473750000Y-166670000D01*
X424950000Y-158670000D02*
X424950000Y-159620000D01*
X424950000Y-159620000D02*
X424950000Y-164678000D01*
X424950000Y-156660000D02*
X424950000Y-157985500D01*
X424950000Y-157985500D02*
X424950000Y-159620000D01*
X424950000Y-164678000D02*
X424990000Y-164718000D01*
X424880000Y-164608000D02*
X424990000Y-164718000D01*
X453540000Y-156660000D02*
X453540000Y-164693000D01*
X453540000Y-164693000D02*
X453565000Y-164718000D01*
X453560000Y-164713000D02*
X453565000Y-164718000D01*
X351370000Y-73670000D02*
X351370000Y-62462000D01*
X351370000Y-62462000D02*
X353302000Y-60530000D01*
X353230000Y-60602000D02*
X353302000Y-60530000D01*
X365930000Y-66952000D02*
X372352000Y-60530000D01*
X365930000Y-73670000D02*
X365930000Y-66952000D01*
X391402000Y-60530000D02*
X391402000Y-73522000D01*
X391402000Y-73522000D02*
X391550000Y-73670000D01*
X353302000Y-88517500D02*
X353302000Y-82532000D01*
X353302000Y-82532000D02*
X353240000Y-82470000D01*
X353330000Y-88489500D02*
X353302000Y-88517500D01*
X372340000Y-82570000D02*
X372340000Y-88505500D01*
X372340000Y-88505500D02*
X372352000Y-88517500D01*
X372390000Y-88479500D02*
X372352000Y-88517500D01*
X391440000Y-82570000D02*
X391440000Y-88479500D01*
X391440000Y-88479500D02*
X391402000Y-88517500D01*
X353240000Y-107505500D02*
X353302000Y-107567500D01*
X353330000Y-107539500D02*
X353302000Y-107567500D01*
X372330000Y-101570000D02*
X372330000Y-107545500D01*
X372330000Y-107545500D02*
X372352000Y-107567500D01*
X391330000Y-101570000D02*
X391330000Y-107495500D01*
X391330000Y-107495500D02*
X391402000Y-107567500D01*
X453440000Y-82570000D02*
X453440000Y-88392500D01*
X453440000Y-88392500D02*
X453565000Y-88517500D01*
X467950000Y-88560000D02*
X472572500Y-88560000D01*
X472572500Y-88560000D02*
X472615000Y-88517500D01*
X434530000Y-100770000D02*
X434530000Y-107552500D01*
X434530000Y-107552500D02*
X434515000Y-107567500D01*
X453640000Y-100720000D02*
X453640000Y-107492500D01*
X453640000Y-107492500D02*
X453565000Y-107567500D01*
X473885000Y-123442500D02*
X473885000Y-128425000D01*
X473885000Y-128425000D02*
X473930000Y-128470000D01*
X473885000Y-128825000D02*
X473930000Y-128870000D01*
X415430000Y-120170000D02*
X415430000Y-126582500D01*
X415430000Y-126582500D02*
X415465000Y-126617500D01*
X434515000Y-126617500D02*
X434515000Y-120235000D01*
X434515000Y-120235000D02*
X434450000Y-120170000D01*
X434515000Y-120735000D02*
X434450000Y-120670000D01*
X434540000Y-126592500D02*
X434515000Y-126617500D01*
X453540000Y-120170000D02*
X453540000Y-126592500D01*
X453540000Y-126592500D02*
X453565000Y-126617500D01*
X415350000Y-139670000D02*
X415350000Y-145553000D01*
X415350000Y-145553000D02*
X415465000Y-145668000D01*
X415400000Y-145603000D02*
X415465000Y-145668000D01*
X172050000Y-87770000D02*
X176092500Y-87770000D01*
X176092500Y-87770000D02*
X176840000Y-88517500D01*
M02*
