G04 #@! TF.FileFunction,Soldermask,Bot*
%FSLAX46Y46*%
G04 Gerber Fmt 4.6, Leading zero omitted, Abs format (unit mm)*
G04 Created by KiCad (PCBNEW 4.0.5+dfsg1-4) date Sun Feb 11 23:43:15 2018*
%MOMM*%
%LPD*%
G01*
G04 APERTURE LIST*
%ADD10C,0.100000*%
%ADD11C,2.000000*%
%ADD12R,2.000000X2.000000*%
%ADD13C,2.500000*%
%ADD14C,2.686000*%
%ADD15R,2.051000X2.051000*%
%ADD16C,2.051000*%
%ADD17O,2.305000X2.559000*%
%ADD18R,2.305000X2.559000*%
%ADD19O,3.305000X2.559000*%
%ADD20R,4.305000X2.559000*%
%ADD21C,2.432000*%
G04 APERTURE END LIST*
D10*
D11*
X285440000Y-37950000D03*
X293060000Y-37950000D03*
X287980000Y-37950000D03*
X290520000Y-37950000D03*
X282900000Y-37950000D03*
D12*
X295600000Y-37950000D03*
X403530000Y-35940000D03*
D11*
X413690000Y-35940000D03*
X406070000Y-35940000D03*
X408610000Y-35940000D03*
X411150000Y-35940000D03*
D13*
X116027000Y-123508000D03*
D14*
X109677000Y-126048000D03*
D11*
X305840000Y-22400000D03*
D12*
X303300000Y-22400000D03*
D14*
X337752000Y-47307500D03*
X331402000Y-49847500D03*
D11*
X305840000Y-27400000D03*
D12*
X303300000Y-27400000D03*
D14*
X123190000Y-123508000D03*
D13*
X116840000Y-126048000D03*
D15*
X312290000Y-43800000D03*
D16*
X319910000Y-43800000D03*
D14*
X166052000Y-104458000D03*
X159702000Y-106998000D03*
X356802000Y-123508000D03*
X350452000Y-126048000D03*
X356802000Y-66357500D03*
X350452000Y-68897500D03*
X30305400Y-104458000D03*
X23955400Y-106998000D03*
X218440000Y-47307500D03*
X212090000Y-49847500D03*
D15*
X164380000Y-62900000D03*
D16*
X172000000Y-62900000D03*
D14*
X104140000Y-19320000D03*
X97790000Y-21860000D03*
D15*
X111450120Y-19300000D03*
D16*
X111450120Y-26920000D03*
D14*
X213678000Y-85407500D03*
X207328000Y-87947500D03*
D11*
X413190000Y-32610000D03*
X415730000Y-32610000D03*
X418270000Y-32610000D03*
X410650000Y-32610000D03*
X408110000Y-32610000D03*
X405570000Y-32610000D03*
X403030000Y-32610000D03*
X400490000Y-32610000D03*
X397950000Y-32610000D03*
X395410000Y-32610000D03*
D12*
X392870000Y-32610000D03*
D11*
X420810000Y-32610000D03*
X423350000Y-32610000D03*
X425890000Y-32610000D03*
X428430000Y-32610000D03*
X430970000Y-32610000D03*
X433510000Y-32610000D03*
X436050000Y-32610000D03*
X438590000Y-32610000D03*
X441130000Y-27530000D03*
D12*
X441130000Y-24990000D03*
D11*
X441130000Y-22450000D03*
X441130000Y-17370000D03*
X438590000Y-17370000D03*
X436050000Y-17370000D03*
X433510000Y-17370000D03*
X430970000Y-17370000D03*
X428430000Y-17370000D03*
X425890000Y-17370000D03*
X423350000Y-17370000D03*
X420810000Y-17370000D03*
D12*
X418270000Y-17370000D03*
D11*
X415730000Y-17370000D03*
X413190000Y-17370000D03*
X410650000Y-17370000D03*
X408110000Y-17370000D03*
X405570000Y-17370000D03*
X403030000Y-17370000D03*
X400490000Y-17370000D03*
X397950000Y-17370000D03*
X395410000Y-17370000D03*
X392870000Y-17370000D03*
X425890000Y-22450000D03*
X428430000Y-22450000D03*
X430970000Y-22450000D03*
X433510000Y-22450000D03*
X425890000Y-24990000D03*
X428430000Y-24990000D03*
X430970000Y-24990000D03*
X433510000Y-24990000D03*
D14*
X237490000Y-47307500D03*
X231140000Y-49847500D03*
D15*
X34000000Y-49390000D03*
D16*
X34000000Y-57010000D03*
D14*
X356802000Y-19320000D03*
X350452000Y-21860000D03*
X380865000Y-47307500D03*
X374515000Y-49847500D03*
X356802000Y-47307500D03*
X350452000Y-49847500D03*
X337752000Y-19320000D03*
X331402000Y-21860000D03*
D17*
X399470000Y-36100000D03*
D18*
X396930000Y-36100000D03*
D17*
X439370000Y-36000000D03*
D18*
X436830000Y-36000000D03*
D17*
X420270000Y-36100000D03*
D18*
X417730000Y-36100000D03*
D17*
X26330000Y-133480000D03*
D18*
X28870000Y-133480000D03*
D14*
X208915000Y-19320000D03*
X202565000Y-21860000D03*
X318702000Y-47307500D03*
X312352000Y-49847500D03*
X294640000Y-47307500D03*
X288290000Y-49847500D03*
X399915000Y-47307500D03*
X393565000Y-49847500D03*
X337752000Y-104458000D03*
X331402000Y-106998000D03*
X151765000Y-66357500D03*
X145415000Y-68897500D03*
X189865000Y-66357500D03*
X183515000Y-68897500D03*
D17*
X31210000Y-95750000D03*
D18*
X33750000Y-95750000D03*
D17*
X334030000Y-29500000D03*
D18*
X336570000Y-29500000D03*
D17*
X376960000Y-57500000D03*
D18*
X379500000Y-57500000D03*
D17*
X433960000Y-57500000D03*
D18*
X436500000Y-57500000D03*
D17*
X269440000Y-133500000D03*
X264760000Y-133500000D03*
D18*
X267100000Y-133500000D03*
D19*
X224560000Y-133500000D03*
X216940000Y-133500000D03*
D20*
X220750000Y-133500000D03*
D17*
X52740000Y-133500000D03*
X48060000Y-133500000D03*
D18*
X50400000Y-133500000D03*
D14*
X285115000Y-47307500D03*
X278765000Y-49847500D03*
X275590000Y-47307500D03*
X269240000Y-49847500D03*
X287496000Y-104458000D03*
X281146000Y-106998000D03*
X277955000Y-104458000D03*
X271605000Y-106998000D03*
X282735000Y-85407500D03*
X276385000Y-87947500D03*
X284655000Y-78422500D03*
X287195000Y-84772500D03*
X270828000Y-85407500D03*
X264478000Y-87947500D03*
X225596000Y-123508000D03*
X219246000Y-126048000D03*
X220821000Y-123508000D03*
X214471000Y-126048000D03*
X270828000Y-123508000D03*
X264478000Y-126048000D03*
X268446000Y-123508000D03*
X262096000Y-126048000D03*
X249396000Y-123508000D03*
X243046000Y-126048000D03*
X244634000Y-123508000D03*
X238284000Y-126048000D03*
X168434000Y-123508000D03*
X162084000Y-126048000D03*
D13*
X170812000Y-123508000D03*
D14*
X164462000Y-126048000D03*
X177965000Y-123508000D03*
D13*
X171615000Y-126048000D03*
D14*
X154146000Y-123508000D03*
D13*
X147796000Y-126048000D03*
X147002000Y-123508000D03*
X140652000Y-126048000D03*
X139827000Y-123508000D03*
D14*
X133477000Y-126048000D03*
D13*
X149384000Y-123508000D03*
D14*
X143034000Y-126048000D03*
X125555000Y-123508000D03*
X119205000Y-126048000D03*
X51736600Y-104458000D03*
X45386600Y-106998000D03*
X39847800Y-104458000D03*
X33497800Y-106998000D03*
X77946200Y-123508000D03*
X71596200Y-126048000D03*
X73183800Y-123508000D03*
X66833800Y-126048000D03*
X54133800Y-123508000D03*
X47783800Y-126048000D03*
X51752500Y-123508000D03*
X45402500Y-126048000D03*
D15*
X238980000Y-33000000D03*
D16*
X246600000Y-33000000D03*
D15*
X250190000Y-33000000D03*
D16*
X257810000Y-33000000D03*
D15*
X269200000Y-33000000D03*
D16*
X276820000Y-33000000D03*
D15*
X288280000Y-33000000D03*
D16*
X295900000Y-33000000D03*
D15*
X312280000Y-33000000D03*
D16*
X319900000Y-33000000D03*
D15*
X324980000Y-35000000D03*
D16*
X332600000Y-35000000D03*
D15*
X350600000Y-35000000D03*
D16*
X358220000Y-35000000D03*
D15*
X34000000Y-21380000D03*
D16*
X34000000Y-29000000D03*
D15*
X207300000Y-49100000D03*
D16*
X207300000Y-56720000D03*
D15*
X239000000Y-43900000D03*
D16*
X246620000Y-43900000D03*
D15*
X250180000Y-43900000D03*
D16*
X257800000Y-43900000D03*
D15*
X269200000Y-43900000D03*
D16*
X276820000Y-43900000D03*
D15*
X288280000Y-43900000D03*
D16*
X295900000Y-43900000D03*
D15*
X331390000Y-43900000D03*
D16*
X339010000Y-43900000D03*
D15*
X350490000Y-43900000D03*
D16*
X358110000Y-43900000D03*
D15*
X386920000Y-49860000D03*
D16*
X386920000Y-57480000D03*
D15*
X393480000Y-43900000D03*
D16*
X401100000Y-43900000D03*
D15*
X412490000Y-43900000D03*
D16*
X420110000Y-43900000D03*
D15*
X427000000Y-49890000D03*
D16*
X427000000Y-57510000D03*
D15*
X221580000Y-62900000D03*
D16*
X229200000Y-62900000D03*
D15*
X240690000Y-62900000D03*
D16*
X248310000Y-62900000D03*
D15*
X259690000Y-62900000D03*
D16*
X267310000Y-62900000D03*
D15*
X312190000Y-62900000D03*
D16*
X319810000Y-62900000D03*
D15*
X331380000Y-62900000D03*
D16*
X339000000Y-62900000D03*
D15*
X350380000Y-62900000D03*
D16*
X358000000Y-62900000D03*
D15*
X386900000Y-68880000D03*
D16*
X386900000Y-76500000D03*
D15*
X393490000Y-62000000D03*
D16*
X401110000Y-62000000D03*
D15*
X412590000Y-62000000D03*
D16*
X420210000Y-62000000D03*
D15*
X226380000Y-82000000D03*
D16*
X234000000Y-82000000D03*
D15*
X245400000Y-82000000D03*
D16*
X253020000Y-82000000D03*
D15*
X264500000Y-82000000D03*
D16*
X272120000Y-82000000D03*
D15*
X287180000Y-90200000D03*
D16*
X294800000Y-90200000D03*
D15*
X374480000Y-82000000D03*
D16*
X382100000Y-82000000D03*
D15*
X393500000Y-82000000D03*
D16*
X401120000Y-82000000D03*
D15*
X412590000Y-82000000D03*
D16*
X420210000Y-82000000D03*
D15*
X432980000Y-89800000D03*
D16*
X440600000Y-89800000D03*
D15*
X216800000Y-101000000D03*
D16*
X224420000Y-101000000D03*
D15*
X235900000Y-101000000D03*
D16*
X243520000Y-101000000D03*
D15*
X254980000Y-101000000D03*
D16*
X262600000Y-101000000D03*
D15*
X271590000Y-101000000D03*
D16*
X279210000Y-101000000D03*
D15*
X331380000Y-101000000D03*
D16*
X339000000Y-101000000D03*
D15*
X374400000Y-101000000D03*
D16*
X382020000Y-101000000D03*
D15*
X393600000Y-101000000D03*
D16*
X401220000Y-101000000D03*
D15*
X412600000Y-101000000D03*
D16*
X420220000Y-101000000D03*
D15*
X238290000Y-120000000D03*
D16*
X245910000Y-120000000D03*
D15*
X264460000Y-117990000D03*
D16*
X272080000Y-117990000D03*
D15*
X285980000Y-120000000D03*
D16*
X293600000Y-120000000D03*
D15*
X312180000Y-120000000D03*
D16*
X319800000Y-120000000D03*
D15*
X331380000Y-120000000D03*
D16*
X339000000Y-120000000D03*
D15*
X350380000Y-120000000D03*
D16*
X358000000Y-120000000D03*
D15*
X384000000Y-120000000D03*
D16*
X391620000Y-120000000D03*
D15*
X412590000Y-120000000D03*
D16*
X420210000Y-120000000D03*
D15*
X432980000Y-127800000D03*
D16*
X440600000Y-127800000D03*
D15*
X59690000Y-33000000D03*
D16*
X67310000Y-33000000D03*
D15*
X78690000Y-33000000D03*
D16*
X86310000Y-33000000D03*
D15*
X91200000Y-19300000D03*
D16*
X91200000Y-26920000D03*
D15*
X139500000Y-19300000D03*
D16*
X139500000Y-26920000D03*
D15*
X158500000Y-19300000D03*
D16*
X158500000Y-26920000D03*
D15*
X197000000Y-19300000D03*
D16*
X197000000Y-26920000D03*
D15*
X223500000Y-19300000D03*
D16*
X223500000Y-26920000D03*
D15*
X40590000Y-43800000D03*
D16*
X48210000Y-43800000D03*
D15*
X59700000Y-43800000D03*
D16*
X67320000Y-43800000D03*
D15*
X78740000Y-43800000D03*
D16*
X86360000Y-43800000D03*
D15*
X93000000Y-49090000D03*
D16*
X93000000Y-56710000D03*
D15*
X112000000Y-49100000D03*
D16*
X112000000Y-56720000D03*
D15*
X131100000Y-49100000D03*
D16*
X131100000Y-56720000D03*
D15*
X150100000Y-49100000D03*
D16*
X150100000Y-56720000D03*
D15*
X169000000Y-49100000D03*
D16*
X169000000Y-56720000D03*
D15*
X188300000Y-49100000D03*
D16*
X188300000Y-56720000D03*
D15*
X26380000Y-62900000D03*
D16*
X34000000Y-62900000D03*
D15*
X50190000Y-62900000D03*
D16*
X57810000Y-62900000D03*
D15*
X69190000Y-62900000D03*
D16*
X76810000Y-62900000D03*
D15*
X88290000Y-62900000D03*
D16*
X95910000Y-62900000D03*
D15*
X107390000Y-62900000D03*
D16*
X115010000Y-62900000D03*
D15*
X126380000Y-62900000D03*
D16*
X134000000Y-62900000D03*
D15*
X145490000Y-62900000D03*
D16*
X153110000Y-62900000D03*
D15*
X183590000Y-62900000D03*
D16*
X191210000Y-62900000D03*
D15*
X202590000Y-62900000D03*
D16*
X210210000Y-62900000D03*
D15*
X28690000Y-82000000D03*
D16*
X36310000Y-82000000D03*
D15*
X54900000Y-82000000D03*
D16*
X62520000Y-82000000D03*
D15*
X73990000Y-82000000D03*
D16*
X81610000Y-82000000D03*
D15*
X92990000Y-82000000D03*
D16*
X100610000Y-82000000D03*
D15*
X112100000Y-82000000D03*
D16*
X119720000Y-82000000D03*
D15*
X131100000Y-82000000D03*
D16*
X138720000Y-82000000D03*
D15*
X150190000Y-82000000D03*
D16*
X157810000Y-82000000D03*
D15*
X169200000Y-82000000D03*
D16*
X176820000Y-82000000D03*
D15*
X188300000Y-82000000D03*
D16*
X195920000Y-82000000D03*
D15*
X207300000Y-82000000D03*
D16*
X214920000Y-82000000D03*
D15*
X33480000Y-101000000D03*
D16*
X41100000Y-101000000D03*
D15*
X45390000Y-101000000D03*
D16*
X53010000Y-101000000D03*
D15*
X64400000Y-101000000D03*
D16*
X72020000Y-101000000D03*
D15*
X86780000Y-101000000D03*
D16*
X94400000Y-101000000D03*
D15*
X102500000Y-101000000D03*
D16*
X110120000Y-101000000D03*
D15*
X121600000Y-101000000D03*
D16*
X129220000Y-101000000D03*
D15*
X140680000Y-101000000D03*
D16*
X148300000Y-101000000D03*
D15*
X159700000Y-101000000D03*
D16*
X167320000Y-101000000D03*
D15*
X178690000Y-101000000D03*
D16*
X186310000Y-101000000D03*
D15*
X197780000Y-101000000D03*
D16*
X205400000Y-101000000D03*
D15*
X24000000Y-120000000D03*
D16*
X31620000Y-120000000D03*
D15*
X47780000Y-120000000D03*
D16*
X55400000Y-120000000D03*
D15*
X66890000Y-120000000D03*
D16*
X74510000Y-120000000D03*
D15*
X88290000Y-120000000D03*
D16*
X95910000Y-120000000D03*
D15*
X109690000Y-120000000D03*
D16*
X117310000Y-120000000D03*
D15*
X133500000Y-120000000D03*
D16*
X141120000Y-120000000D03*
D15*
X162090000Y-120000000D03*
D16*
X169710000Y-120000000D03*
D15*
X195390000Y-120000000D03*
D16*
X203010000Y-120000000D03*
D15*
X214480000Y-120000000D03*
D16*
X222100000Y-120000000D03*
D14*
X237490000Y-19320000D03*
X231140000Y-21860000D03*
X256540000Y-19320000D03*
X250190000Y-21860000D03*
X275590000Y-19320000D03*
X269240000Y-21860000D03*
X294640000Y-19320000D03*
X288290000Y-21860000D03*
X318702000Y-19320000D03*
X312352000Y-21860000D03*
X27940000Y-19320000D03*
X21590000Y-21860000D03*
X256540000Y-47307500D03*
X250190000Y-49847500D03*
X418965000Y-47307500D03*
X412615000Y-49847500D03*
X438015000Y-47307500D03*
X431665000Y-49847500D03*
X227965000Y-66357500D03*
X221615000Y-68897500D03*
X247015000Y-66357500D03*
X240665000Y-68897500D03*
X266065000Y-66357500D03*
X259715000Y-68897500D03*
X318702000Y-66357500D03*
X312352000Y-68897500D03*
X337752000Y-66357500D03*
X331402000Y-68897500D03*
X380865000Y-66357500D03*
X374515000Y-68897500D03*
X399915000Y-66357500D03*
X393565000Y-68897500D03*
X418965000Y-66357500D03*
X412615000Y-68897500D03*
X232728000Y-85407500D03*
X226378000Y-87947500D03*
X251778000Y-85407500D03*
X245428000Y-87947500D03*
X289878000Y-66357500D03*
X283528000Y-68897500D03*
X380865000Y-85407500D03*
X374515000Y-87947500D03*
X399915000Y-85407500D03*
X393565000Y-87947500D03*
X418965000Y-85407500D03*
X412615000Y-87947500D03*
X430395000Y-78422500D03*
X432935000Y-84772500D03*
X223202000Y-104458000D03*
X216852000Y-106998000D03*
X242252000Y-104458000D03*
X235902000Y-106998000D03*
X261302000Y-104458000D03*
X254952000Y-106998000D03*
X380865000Y-104458000D03*
X374515000Y-106998000D03*
X399915000Y-104458000D03*
X393565000Y-106998000D03*
X418965000Y-104458000D03*
X412615000Y-106998000D03*
X292249000Y-123508000D03*
X285899000Y-126048000D03*
X318702000Y-123508000D03*
X312352000Y-126048000D03*
X337752000Y-123508000D03*
X331402000Y-126048000D03*
X390390000Y-123508000D03*
X384040000Y-126048000D03*
X418965000Y-123508000D03*
X412615000Y-126048000D03*
X430395000Y-116522000D03*
X432935000Y-122872000D03*
X66040000Y-19320000D03*
X59690000Y-21860000D03*
X85090000Y-19320000D03*
X78740000Y-21860000D03*
X123190000Y-19320000D03*
X116840000Y-21860000D03*
X151765000Y-19320000D03*
X145415000Y-21860000D03*
X170815000Y-19320000D03*
X164465000Y-21860000D03*
X189865000Y-19320000D03*
X183515000Y-21860000D03*
X27940000Y-47307500D03*
X21590000Y-49847500D03*
X46990000Y-47307500D03*
X40640000Y-49847500D03*
X66040000Y-47307500D03*
X59690000Y-49847500D03*
X85090000Y-47307500D03*
X78740000Y-49847500D03*
X104140000Y-47307500D03*
X97790000Y-49847500D03*
X123190000Y-47307500D03*
X116840000Y-49847500D03*
X142240000Y-47307500D03*
X135890000Y-49847500D03*
X161290000Y-47307500D03*
X154940000Y-49847500D03*
X180340000Y-47307500D03*
X173990000Y-49847500D03*
X199390000Y-47307500D03*
X193040000Y-49847500D03*
X32702500Y-66357500D03*
X26352500Y-68897500D03*
X56515000Y-66357500D03*
X50165000Y-68897500D03*
X75565000Y-66357500D03*
X69215000Y-68897500D03*
X94615000Y-66357500D03*
X88265000Y-68897500D03*
X113665000Y-66357500D03*
X107315000Y-68897500D03*
X132715000Y-66357500D03*
X126365000Y-68897500D03*
X170815000Y-66357500D03*
X164465000Y-68897500D03*
X208915000Y-66357500D03*
X202565000Y-68897500D03*
X35084700Y-85407500D03*
X28734700Y-87947500D03*
X61277500Y-85407500D03*
X54927500Y-87947500D03*
X80327500Y-85407500D03*
X73977500Y-87947500D03*
X99377500Y-85407500D03*
X93027500Y-87947500D03*
X118428000Y-85407500D03*
X112078000Y-87947500D03*
X137478000Y-85407500D03*
X131128000Y-87947500D03*
X156528000Y-85407500D03*
X150178000Y-87947500D03*
X175578000Y-85407500D03*
X169228000Y-87947500D03*
X194628000Y-85407500D03*
X188278000Y-87947500D03*
X70802500Y-104458000D03*
X64452500Y-106998000D03*
X89852500Y-104458000D03*
X83502500Y-106998000D03*
X108902000Y-104458000D03*
X102552000Y-106998000D03*
D21*
X127952000Y-104458000D03*
X121602000Y-106998000D03*
D14*
X147002000Y-104458000D03*
X140652000Y-106998000D03*
X185102000Y-104458000D03*
X178752000Y-106998000D03*
X204152000Y-104458000D03*
X197802000Y-106998000D03*
X30322800Y-123508000D03*
X23972800Y-126048000D03*
X94615000Y-123508000D03*
X88265000Y-126048000D03*
X201769000Y-123508000D03*
X195419000Y-126048000D03*
D16*
X346680000Y-35000000D03*
X336520000Y-35000000D03*
X375640000Y-34560000D03*
X385800000Y-34560000D03*
X374200000Y-62000000D03*
X384360000Y-62000000D03*
X430340000Y-62000000D03*
X440500000Y-62000000D03*
X375640000Y-38000000D03*
X385800000Y-38000000D03*
X375640000Y-41200000D03*
X385800000Y-41200000D03*
X321080000Y-112000000D03*
X310920000Y-112000000D03*
X321080000Y-108000000D03*
X310920000Y-108000000D03*
X359080000Y-108000000D03*
X348920000Y-108000000D03*
X359080000Y-112000000D03*
X348920000Y-112000000D03*
M02*
