M48
;DRILL file {KiCad 4.0.5+dfsg1-4} date Sun Sep 23 14:38:42 2018
;FORMAT={-:-/ absolute / metric / decimal}
FMAT,2
METRIC,TZ
T1C0.350
T2C0.750
T3C0.991
T4C1.100
T5C1.499
T6C1.500
%
G90
G05
M71
T1
X332.87Y-95.43
X332.92Y-141.53
X333.64Y-94.601
X337.3Y-78.52
X342.427Y-85.873
X342.429Y-87.006
X343.002Y-134.32
X343.44Y-135.92
X344.136Y-134.32
X344.476Y-133.52
X350.42Y-132.72
X351.96Y-95.402
X355.68Y-153.559
X358.5Y-154.36
X359.76Y-135.92
X362.302Y-93.802
X364.13Y-79.21
X364.13Y-80.01
X364.13Y-80.81
X375.87Y-135.92
X387.54Y-82.147
X388.34Y-81.815
X394.41Y-105.05
X394.46Y-70.12
X395.26Y-70.12
X396.06Y-70.12
X396.86Y-70.12
X397.66Y-70.12
X398.609Y-110.381
X399.17Y-63.65
X400.62Y-70.12
X400.62Y-78.41
X401.42Y-70.7
X402.22Y-71.29
X403.01Y-117.85
X403.02Y-71.88
X403.51Y-138.32
X403.82Y-72.452
X403.82Y-126.28
X404.62Y-118.68
X404.62Y-100.67
X405.42Y-98.34
X405.42Y-122.18
X407.82Y-85.98
X407.82Y-97.54
X408.62Y-128.21
X409.42Y-99.14
X410.22Y-130.167
X414.22Y-80.
X415.02Y-81.6
X415.35Y-80.8
X416.63Y-82.398
X454.771Y-57.86
X461.61Y-91.231
X466.414Y-112.654
X466.414Y-113.784
T3
X64.95Y-156.66
X67.28Y-172.15
X67.33Y-101.57
X69.64Y-120.67
X69.82Y-172.15
X72.16Y-134.42
X72.57Y-156.66
X74.43Y-139.67
X74.7Y-134.42
X74.95Y-57.97
X74.95Y-65.59
X74.95Y-88.06
X74.95Y-95.68
X74.95Y-101.57
X77.26Y-120.67
X81.54Y-82.47
X82.05Y-139.67
X86.34Y-139.67
X88.73Y-156.66
X89.01Y-172.17
X89.16Y-82.47
X91.14Y-101.57
X91.35Y-172.17
X93.69Y-172.17
X93.96Y-139.67
X95.09Y-57.97
X95.09Y-65.59
X95.85Y-120.67
X96.35Y-156.66
X98.76Y-101.57
X100.65Y-82.47
X103.47Y-120.67
X105.35Y-139.67
X107.84Y-156.66
X108.27Y-82.47
X110.14Y-101.57
X112.97Y-139.67
X113.94Y-57.97
X113.94Y-65.59
X114.94Y-120.67
X115.46Y-156.66
X117.76Y-101.57
X119.69Y-82.47
X122.56Y-120.67
X127.31Y-82.47
X127.73Y-139.67
X129.24Y-101.57
X129.24Y-156.66
X132.15Y-57.97
X132.15Y-65.59
X133.94Y-120.67
X133.95Y-87.76
X133.95Y-95.38
X135.35Y-139.67
X136.86Y-101.57
X136.86Y-156.66
X141.56Y-120.67
X143.45Y-139.67
X148.34Y-101.57
X150.64Y-156.66
X151.07Y-139.67
X152.05Y-57.96
X152.05Y-65.58
X152.95Y-87.77
X152.95Y-95.39
X153.05Y-120.67
X155.96Y-101.57
X158.26Y-156.66
X160.67Y-120.67
X162.55Y-139.67
X167.33Y-101.57
X170.17Y-139.67
X172.05Y-87.77
X172.05Y-95.39
X172.05Y-120.67
X174.45Y-156.66
X174.95Y-101.57
X179.67Y-120.67
X180.85Y-57.97
X180.85Y-65.59
X181.63Y-139.67
X182.07Y-156.66
X186.44Y-101.57
X189.25Y-139.67
X191.05Y-87.77
X191.05Y-95.39
X191.14Y-120.67
X194.06Y-101.57
X198.76Y-120.67
X199.75Y-57.97
X199.75Y-65.59
X200.65Y-139.67
X203.04Y-156.66
X205.33Y-101.57
X208.27Y-139.67
X209.95Y-87.77
X209.95Y-95.39
X210.15Y-120.67
X210.66Y-156.66
X212.95Y-101.57
X217.77Y-120.67
X218.85Y-57.97
X218.85Y-65.59
X219.64Y-139.67
X224.54Y-101.57
X227.26Y-139.67
X229.25Y-87.77
X229.25Y-95.39
X229.25Y-120.67
X232.16Y-101.57
X236.34Y-156.66
X236.87Y-120.67
X237.75Y-57.97
X237.75Y-65.59
X238.73Y-139.67
X243.54Y-101.57
X243.96Y-156.66
X246.35Y-139.67
X248.25Y-87.77
X248.25Y-95.39
X248.25Y-120.67
X251.16Y-101.57
X255.43Y-156.66
X255.87Y-120.67
X257.75Y-139.67
X257.78Y-172.16
X260.32Y-172.16
X262.53Y-101.57
X262.57Y-172.16
X263.05Y-156.66
X265.11Y-172.16
X265.37Y-139.67
X266.54Y-57.97
X266.54Y-65.59
X267.33Y-120.67
X270.15Y-101.57
X274.95Y-120.67
X276.85Y-139.67
X279.24Y-156.66
X279.95Y-82.57
X281.64Y-101.57
X284.47Y-139.67
X285.51Y-57.97
X285.51Y-65.59
X286.35Y-120.67
X286.86Y-156.66
X287.57Y-82.57
X289.26Y-101.57
X291.13Y-82.57
X293.97Y-120.67
X295.93Y-139.67
X298.75Y-82.57
X300.64Y-101.57
X303.55Y-139.67
X304.57Y-57.97
X304.57Y-65.59
X305.41Y-156.66
X305.45Y-120.67
X305.71Y-172.17
X308.05Y-172.17
X308.26Y-101.57
X310.15Y-82.57
X310.39Y-172.17
X312.54Y-139.67
X313.03Y-156.66
X313.07Y-120.67
X317.77Y-82.57
X320.16Y-139.67
X323.55Y-57.97
X323.55Y-65.59
X326.93Y-156.66
X328.13Y-128.87
X329.23Y-82.57
X334.55Y-156.66
X335.75Y-128.87
X336.85Y-82.57
X351.37Y-73.67
X351.87Y-146.67
X351.87Y-150.67
X353.13Y-156.66
X353.14Y-101.82
X353.24Y-82.47
X358.99Y-73.67
X360.75Y-156.66
X360.76Y-101.82
X360.86Y-82.47
X362.03Y-146.67
X362.03Y-150.67
X365.93Y-73.67
X372.33Y-101.57
X372.33Y-139.67
X372.33Y-156.66
X372.34Y-82.57
X373.55Y-73.67
X374.98Y-68.17
X377.47Y-73.67
X377.52Y-68.17
X379.95Y-101.57
X379.95Y-139.67
X379.95Y-156.66
X379.96Y-82.57
X387.63Y-73.67
X389.87Y-146.67
X389.87Y-150.67
X391.33Y-101.57
X391.33Y-156.66
X391.44Y-82.57
X391.55Y-73.67
X398.95Y-101.57
X398.95Y-156.66
X399.06Y-82.57
X399.17Y-73.67
X400.03Y-146.67
X400.03Y-150.67
X415.15Y-100.67
X415.35Y-139.67
X415.43Y-120.17
X417.91Y-96.17
X418.34Y-75.23
X418.34Y-78.67
X418.34Y-81.87
X420.45Y-96.17
X422.97Y-139.67
X423.05Y-120.17
X424.95Y-156.66
X425.31Y-100.67
X427.85Y-107.55
X427.85Y-115.17
X427.87Y-88.53
X427.87Y-96.15
X428.5Y-75.23
X428.5Y-78.67
X428.5Y-81.87
X432.57Y-156.66
X434.43Y-82.57
X434.44Y-100.67
X434.45Y-120.17
X434.55Y-139.67
X438.83Y-74.67
X441.37Y-74.67
X442.05Y-82.57
X442.06Y-100.67
X442.07Y-120.17
X442.17Y-139.67
X453.44Y-82.57
X453.54Y-100.67
X453.54Y-120.17
X453.54Y-156.66
X453.55Y-139.67
X458.28Y-74.67
X460.82Y-74.67
X461.06Y-82.57
X461.16Y-100.67
X461.16Y-120.17
X461.16Y-156.66
X461.17Y-139.67
X467.95Y-88.56
X467.95Y-96.18
X471.29Y-100.67
X473.93Y-128.47
X473.93Y-166.47
X474.91Y-96.17
X477.45Y-96.17
X477.78Y-74.67
X480.32Y-74.67
X481.45Y-100.67
X481.55Y-128.47
X481.55Y-166.47
T4
X323.85Y-76.62
X326.39Y-76.62
X328.93Y-76.62
X331.47Y-76.62
X334.01Y-76.62
X336.55Y-76.62
X344.25Y-61.07
X344.25Y-66.07
X346.79Y-61.07
X346.79Y-66.07
X404.42Y-56.13
X404.42Y-58.67
X424.76Y-56.05
X424.76Y-56.05
X424.76Y-58.59
X424.76Y-58.59
X433.82Y-56.04
X433.82Y-71.28
X436.36Y-56.04
X436.36Y-71.28
X438.9Y-56.04
X438.9Y-71.28
X441.44Y-56.04
X441.44Y-71.28
X443.98Y-56.04
X443.98Y-71.28
X444.73Y-74.75
X446.52Y-56.04
X446.52Y-71.28
X447.27Y-74.75
X449.06Y-56.04
X449.06Y-71.28
X449.81Y-74.75
X451.6Y-56.04
X451.6Y-71.28
X452.35Y-74.75
X454.14Y-56.04
X454.14Y-71.28
X454.89Y-74.75
X456.68Y-56.04
X456.68Y-71.28
X459.22Y-56.04
X459.22Y-71.28
X461.76Y-56.04
X461.76Y-71.28
X464.3Y-56.04
X464.3Y-71.28
X466.84Y-56.04
X466.84Y-61.12
X466.84Y-63.66
X466.84Y-71.28
X469.38Y-56.04
X469.38Y-61.12
X469.38Y-63.66
X469.38Y-71.28
X471.92Y-56.04
X471.92Y-61.12
X471.92Y-63.66
X471.92Y-71.28
X474.46Y-56.04
X474.46Y-61.12
X474.46Y-63.66
X474.46Y-71.28
X477.Y-56.04
X477.Y-71.28
X479.54Y-56.04
X479.54Y-71.28
X482.08Y-56.04
X482.08Y-61.12
X482.08Y-63.66
X482.08Y-66.2
X482.08Y-71.28
T5
X62.54Y-60.53
X62.54Y-88.517
X64.905Y-145.668
X64.923Y-164.718
X67.302Y-107.567
X68.89Y-57.99
X68.89Y-85.977
X69.685Y-126.617
X71.255Y-143.128
X71.273Y-162.178
X73.653Y-105.027
X74.448Y-145.668
X76.035Y-124.078
X80.798Y-143.128
X81.59Y-88.517
X86.337Y-145.668
X86.352Y-164.718
X87.94Y-85.977
X88.734Y-164.718
X91.115Y-107.567
X92.687Y-143.128
X92.703Y-162.178
X95.084Y-162.178
X95.877Y-126.617
X97.465Y-105.027
X100.64Y-60.53
X100.64Y-88.517
X102.227Y-124.078
X105.402Y-145.668
X106.99Y-57.99
X106.99Y-85.977
X107.784Y-164.718
X110.165Y-107.567
X111.752Y-143.128
X112.546Y-164.718
X114.134Y-162.178
X114.927Y-126.617
X116.515Y-105.027
X118.896Y-162.178
X119.69Y-60.53
X119.69Y-88.517
X121.277Y-124.078
X124.453Y-145.668
X126.04Y-57.99
X126.04Y-85.977
X129.215Y-107.567
X129.215Y-164.718
X130.802Y-143.128
X133.976Y-164.718
X133.977Y-126.617
X135.565Y-105.027
X135.565Y-162.178
X138.74Y-60.53
X138.74Y-88.517
X140.326Y-162.178
X140.327Y-124.078
X143.502Y-145.668
X145.09Y-57.99
X145.09Y-85.977
X148.265Y-107.567
X149.852Y-143.128
X150.627Y-164.718
X153.028Y-126.617
X154.615Y-105.027
X155.386Y-164.718
X156.977Y-162.178
X157.79Y-60.53
X157.79Y-88.517
X157.79Y-164.718
X159.378Y-124.078
X160.155Y-164.718
X161.736Y-162.178
X162.552Y-145.668
X164.14Y-57.99
X164.14Y-85.977
X164.14Y-162.178
X166.505Y-162.178
X167.315Y-107.567
X168.902Y-143.128
X172.078Y-126.617
X173.665Y-105.027
X174.427Y-164.718
X176.84Y-88.517
X178.428Y-124.078
X180.777Y-162.178
X181.602Y-145.668
X181.602Y-164.718
X183.19Y-85.977
X183.984Y-164.718
X186.33Y-164.718
X186.365Y-60.53
X186.365Y-107.567
X187.952Y-143.128
X187.952Y-162.178
X188.746Y-164.718
X190.334Y-162.178
X191.128Y-126.617
X192.68Y-162.178
X192.715Y-57.99
X192.715Y-105.027
X195.096Y-162.178
X195.89Y-88.517
X197.478Y-124.078
X200.652Y-145.668
X202.24Y-85.977
X203.034Y-164.718
X205.4Y-164.718
X205.415Y-60.53
X205.415Y-107.567
X207.002Y-143.128
X207.88Y-164.718
X209.384Y-162.178
X210.178Y-126.617
X211.75Y-162.178
X211.765Y-57.99
X211.765Y-105.027
X212.565Y-164.718
X214.23Y-162.178
X214.94Y-88.517
X216.528Y-124.078
X218.915Y-162.178
X219.702Y-145.668
X221.29Y-85.977
X224.465Y-60.53
X224.465Y-107.567
X226.052Y-143.128
X229.228Y-126.617
X230.815Y-57.99
X230.815Y-105.027
X233.99Y-88.517
X235.578Y-124.078
X236.369Y-164.718
X238.748Y-164.718
X238.752Y-145.668
X240.34Y-85.977
X242.719Y-162.178
X243.515Y-60.53
X243.515Y-107.567
X245.098Y-162.178
X245.102Y-143.128
X248.278Y-126.617
X249.865Y-57.99
X249.865Y-105.027
X253.04Y-88.517
X254.628Y-124.078
X255.421Y-164.718
X257.802Y-145.668
X259.39Y-85.977
X260.196Y-164.718
X261.771Y-162.178
X262.565Y-107.567
X264.152Y-143.128
X266.546Y-162.178
X267.328Y-126.617
X268.915Y-105.027
X272.09Y-60.53
X272.09Y-88.517
X273.678Y-124.078
X276.852Y-145.668
X278.44Y-57.99
X278.44Y-85.977
X279.234Y-164.718
X281.615Y-107.567
X283.202Y-143.128
X283.996Y-164.718
X285.584Y-162.178
X286.378Y-126.617
X287.965Y-105.027
X290.346Y-162.178
X291.14Y-60.53
X291.14Y-88.517
X292.728Y-124.078
X295.902Y-145.668
X297.49Y-57.99
X297.49Y-85.977
X300.665Y-107.567
X302.252Y-143.128
X303.046Y-164.718
X305.428Y-126.617
X305.428Y-164.718
X307.015Y-105.027
X309.396Y-162.178
X310.19Y-60.53
X310.19Y-88.517
X311.778Y-124.078
X311.778Y-162.178
X312.555Y-145.668
X316.54Y-57.99
X316.54Y-85.977
X317.335Y-126.617
X318.905Y-143.128
X319.715Y-88.517
X322.096Y-145.668
X323.685Y-124.078
X324.478Y-107.567
X325.605Y-117.093
X326.065Y-85.977
X326.849Y-164.718
X328.145Y-123.442
X328.446Y-143.128
X329.24Y-60.53
X329.24Y-88.517
X330.828Y-105.027
X333.199Y-162.178
X335.59Y-57.99
X335.59Y-85.977
X353.302Y-60.53
X353.302Y-88.517
X353.302Y-107.567
X353.302Y-164.718
X359.652Y-57.99
X359.652Y-85.977
X359.652Y-105.027
X359.652Y-162.178
X372.352Y-60.53
X372.352Y-88.517
X372.352Y-107.567
X372.352Y-145.668
X372.352Y-164.718
X378.702Y-57.99
X378.702Y-85.977
X378.702Y-105.027
X378.702Y-143.128
X378.702Y-162.178
X391.402Y-60.53
X391.402Y-88.517
X391.402Y-107.567
X391.402Y-164.718
X397.752Y-57.99
X397.752Y-85.977
X397.752Y-105.027
X397.752Y-162.178
X415.465Y-88.517
X415.465Y-107.567
X415.465Y-126.617
X415.465Y-145.668
X421.815Y-85.977
X421.815Y-105.027
X421.815Y-124.078
X421.815Y-143.128
X424.99Y-164.718
X431.34Y-162.178
X434.515Y-88.517
X434.515Y-107.567
X434.515Y-126.617
X434.515Y-145.668
X440.865Y-85.977
X440.865Y-105.027
X440.865Y-124.078
X440.865Y-143.128
X453.565Y-88.517
X453.565Y-107.567
X453.565Y-126.617
X453.565Y-145.668
X453.565Y-164.718
X459.915Y-85.977
X459.915Y-105.027
X459.915Y-124.078
X459.915Y-143.128
X459.915Y-162.178
X471.345Y-117.093
X471.345Y-155.192
X472.615Y-88.517
X473.885Y-123.442
X473.885Y-161.542
X478.965Y-85.977
T2
X416.74Y-57.9G85X416.74Y-57.9
G05
X417.54Y-56.7G85X417.54Y-56.7
G05
X418.34Y-57.9G85X418.34Y-57.9
G05
X419.14Y-56.7G85X419.14Y-56.7
G05
X419.94Y-57.9G85X419.94Y-57.9
G05
T6
X414.64Y-53.25G85X414.64Y-52.55
G05
X421.94Y-53.25G85X421.94Y-52.55
G05
T0
M30
