%FSLAX45Y45*%
G04 Gerber Fmt 4.5, Leading zero omitted, Abs format (unit mm)*
G04 Created by KiCad (PCBNEW 4.0.5+dfsg1-4) date Sun Feb 11 23:43:24 2018*
%MOMM*%
%LPD*%
G01*
G04 APERTURE LIST*
%ADD10C,0.127000*%
%ADD11C,0.200000*%
%ADD12C,0.150000*%
%ADD13C,0.300000*%
G04 APERTURE END LIST*
D10*
D11*
X21930000Y-3100000D02*
X9560000Y-3100000D01*
X9560000Y-4550000D02*
X9560000Y-3100000D01*
X21930000Y-4550000D02*
X9560000Y-4550000D01*
X21930000Y-3100000D02*
X21930000Y-4550000D01*
X3887809Y-3910000D02*
G75*
G03X3887809Y-3910000I-637809J0D01*
G01*
X23697809Y-3910000D02*
G75*
G03X23697809Y-3910000I-637809J0D01*
G01*
X43313431Y-3842500D02*
G75*
G03X43313431Y-3842500I-453431J0D01*
G01*
D12*
X1714500Y-13716000D02*
X1714500Y-1524000D01*
X44395000Y-13716000D02*
X1714500Y-13716000D01*
X44395000Y-1524000D02*
X44395000Y-13716000D01*
X1714500Y-1524000D02*
X44395000Y-1524000D01*
D11*
X27895499Y-12719500D02*
X27930499Y-12754500D01*
X27930499Y-12719500D02*
X27895499Y-12754500D01*
X29174500Y-5658500D02*
X29209500Y-5693500D01*
X29209500Y-5658500D02*
X29174500Y-5693500D01*
X29179500Y-10268500D02*
X29214500Y-10303500D01*
X29214500Y-10268500D02*
X29179500Y-10303500D01*
X29251500Y-5575640D02*
X29286500Y-5610640D01*
X29286500Y-5575640D02*
X29251500Y-5610640D01*
X29617500Y-3967500D02*
X29652500Y-4002500D01*
X29652500Y-3967500D02*
X29617500Y-4002500D01*
X30130189Y-4702773D02*
X30165189Y-4737773D01*
X30165189Y-4702773D02*
X30130189Y-4737773D01*
X30130391Y-4816116D02*
X30165391Y-4851116D01*
X30165391Y-4816116D02*
X30130391Y-4851116D01*
X30156271Y-9707498D02*
X30191271Y-9742498D01*
X30191271Y-9707498D02*
X30156271Y-9742498D01*
X30236272Y-9627500D02*
X30271272Y-9662500D01*
X30271272Y-9627500D02*
X30236272Y-9662500D01*
X30236795Y-9707499D02*
X30271795Y-9742499D01*
X30271795Y-9707499D02*
X30236795Y-9742499D01*
X30861500Y-9467496D02*
X30896500Y-9502496D01*
X30896500Y-9467496D02*
X30861500Y-9502496D01*
X31054500Y-9387494D02*
X31089500Y-9422494D01*
X31089500Y-9387494D02*
X31054500Y-9422494D01*
X31455500Y-11471362D02*
X31490500Y-11506362D01*
X31490500Y-11471362D02*
X31455500Y-11506362D01*
X31560471Y-11551498D02*
X31595471Y-11586498D01*
X31595471Y-11551498D02*
X31560471Y-11586498D01*
X31560931Y-11631499D02*
X31595931Y-11666499D01*
X31595931Y-11631499D02*
X31560931Y-11666499D01*
X31699500Y-4036500D02*
X31734500Y-4071500D01*
X31734500Y-4036500D02*
X31699500Y-4071500D01*
X31699500Y-4116500D02*
X31734500Y-4151500D01*
X31734500Y-4116500D02*
X31699500Y-4151500D01*
X31699500Y-4196515D02*
X31734500Y-4231515D01*
X31734500Y-4196515D02*
X31699500Y-4231515D01*
X31737931Y-5655931D02*
X31772931Y-5690931D01*
X31772931Y-5655931D02*
X31737931Y-5690931D01*
X31863500Y-9707499D02*
X31898500Y-9742499D01*
X31898500Y-9707499D02*
X31863500Y-9742499D01*
X32117655Y-5495655D02*
X32152655Y-5530655D01*
X32152655Y-5495655D02*
X32117655Y-5530655D01*
X32356500Y-4036500D02*
X32391500Y-4071500D01*
X32391500Y-4036500D02*
X32356500Y-4071500D01*
X32940502Y-4278500D02*
X32975502Y-4313500D01*
X32975502Y-4278500D02*
X32940502Y-4313500D01*
X33474500Y-9707499D02*
X33509500Y-9742499D01*
X33509500Y-9707499D02*
X33474500Y-9742499D01*
X34641500Y-4330247D02*
X34676500Y-4365247D01*
X34676500Y-4330247D02*
X34641500Y-4365247D01*
X34721500Y-4296962D02*
X34756500Y-4331962D01*
X34756500Y-4296962D02*
X34721500Y-4331962D01*
X35328500Y-6620500D02*
X35363500Y-6655500D01*
X35363500Y-6620500D02*
X35328500Y-6655500D01*
X35333486Y-3127500D02*
X35368486Y-3162500D01*
X35368486Y-3127500D02*
X35333486Y-3162500D01*
X35413486Y-3127500D02*
X35448486Y-3162500D01*
X35448486Y-3127500D02*
X35413486Y-3162500D01*
X35493486Y-3127500D02*
X35528486Y-3162500D01*
X35528486Y-3127500D02*
X35493486Y-3162500D01*
X35573486Y-3127500D02*
X35608486Y-3162500D01*
X35608486Y-3127500D02*
X35573486Y-3162500D01*
X35653487Y-3127500D02*
X35688487Y-3162500D01*
X35688487Y-3127500D02*
X35653487Y-3162500D01*
X35949487Y-3127500D02*
X35984487Y-3162500D01*
X35984487Y-3127500D02*
X35949487Y-3162500D01*
X35949487Y-3956513D02*
X35984487Y-3991513D01*
X35984487Y-3956513D02*
X35949487Y-3991513D01*
X36029484Y-7820499D02*
X36064484Y-7855499D01*
X36064484Y-7820499D02*
X36029484Y-7855499D01*
X36029487Y-3127502D02*
X36064487Y-3162502D01*
X36064487Y-3127502D02*
X36029487Y-3162502D01*
X36109487Y-3127497D02*
X36144487Y-3162497D01*
X36144487Y-3127497D02*
X36109487Y-3162497D01*
X36189486Y-7900500D02*
X36224486Y-7935500D01*
X36224486Y-7900500D02*
X36189486Y-7935500D01*
X36189487Y-3127527D02*
X36224487Y-3162527D01*
X36224487Y-3127527D02*
X36189487Y-3162527D01*
X36238500Y-9947500D02*
X36273500Y-9982500D01*
X36273500Y-9947500D02*
X36238500Y-9982500D01*
X36269487Y-3127374D02*
X36304487Y-3162374D01*
X36304487Y-3127374D02*
X36269487Y-3162374D01*
X36269487Y-5012500D02*
X36304487Y-5047500D01*
X36304487Y-5012500D02*
X36269487Y-5047500D01*
X36269487Y-8743500D02*
X36304487Y-8778500D01*
X36304487Y-8743500D02*
X36269487Y-8778500D01*
X36349486Y-7983500D02*
X36384486Y-8018500D01*
X36384486Y-7983500D02*
X36349486Y-8018500D01*
X36349500Y-6072500D02*
X36384500Y-6107500D01*
X36384500Y-6072500D02*
X36349500Y-6107500D01*
X36429489Y-5992500D02*
X36464489Y-6027500D01*
X36464489Y-5992500D02*
X36429489Y-6027500D01*
X36429489Y-8333500D02*
X36464489Y-8368500D01*
X36464489Y-8333500D02*
X36429489Y-8368500D01*
X36669490Y-4713500D02*
X36704490Y-4748500D01*
X36704490Y-4713500D02*
X36669490Y-4748500D01*
X36669492Y-6417500D02*
X36704492Y-6452500D01*
X36704492Y-6417500D02*
X36669492Y-6452500D01*
X36749492Y-8936500D02*
X36784492Y-8971500D01*
X36784492Y-8936500D02*
X36749492Y-8971500D01*
X36829494Y-5912501D02*
X36864494Y-5947501D01*
X36864494Y-5912501D02*
X36829494Y-5947501D01*
X36909494Y-9132229D02*
X36944494Y-9167229D01*
X36944494Y-9132229D02*
X36909494Y-9167229D01*
X37069032Y-2080032D02*
X37104032Y-2115032D01*
X37104032Y-2080032D02*
X37069032Y-2115032D01*
X37309498Y-3979500D02*
X37344498Y-4014500D01*
X37344498Y-3979500D02*
X37309498Y-4014500D01*
X37389498Y-4088500D02*
X37424498Y-4123500D01*
X37424498Y-4088500D02*
X37389498Y-4123500D01*
X37389498Y-4275500D02*
X37424498Y-4310500D01*
X37424498Y-4275500D02*
X37389498Y-4310500D01*
X37389498Y-4393950D02*
X37424498Y-4428950D01*
X37424498Y-4393950D02*
X37389498Y-4428950D01*
X38964500Y-7900500D02*
X38999500Y-7935500D01*
X38999500Y-7900500D02*
X38964500Y-7935500D01*
X38968500Y-4592500D02*
X39003500Y-4627500D01*
X39003500Y-4592500D02*
X38968500Y-4627500D01*
X40273500Y-6417500D02*
X40308500Y-6452500D01*
X40308500Y-6417500D02*
X40273500Y-6452500D01*
X41364569Y-1901491D02*
X41399569Y-1936491D01*
X41399569Y-1901491D02*
X41364569Y-1936491D01*
X42048497Y-5238650D02*
X42083497Y-5273650D01*
X42083497Y-5238650D02*
X42048497Y-5273650D01*
X42128499Y-4100500D02*
X42163499Y-4135500D01*
X42163499Y-4100500D02*
X42128499Y-4135500D01*
X42528502Y-7343500D02*
X42563502Y-7378500D01*
X42563502Y-7343500D02*
X42528502Y-7378500D01*
X42528932Y-7229932D02*
X42563932Y-7264932D01*
X42563932Y-7229932D02*
X42528932Y-7264932D01*
X2449530Y-12000000D02*
G75*
G03X2449530Y-12000000I-49530J0D01*
G01*
X2682530Y-13348000D02*
G75*
G03X2682530Y-13348000I-49530J0D01*
G01*
X2687530Y-6290000D02*
G75*
G03X2687530Y-6290000I-49530J0D01*
G01*
X2918530Y-8200000D02*
G75*
G03X2918530Y-8200000I-49530J0D01*
G01*
X2936530Y-13348000D02*
G75*
G03X2936530Y-13348000I-49530J0D01*
G01*
X3170530Y-9575000D02*
G75*
G03X3170530Y-9575000I-49530J0D01*
G01*
X3211530Y-12000000D02*
G75*
G03X3211530Y-12000000I-49530J0D01*
G01*
X3397530Y-10100000D02*
G75*
G03X3397530Y-10100000I-49530J0D01*
G01*
X3424530Y-9575000D02*
G75*
G03X3424530Y-9575000I-49530J0D01*
G01*
X3449530Y-2138000D02*
G75*
G03X3449530Y-2138000I-49530J0D01*
G01*
X3449530Y-2900000D02*
G75*
G03X3449530Y-2900000I-49530J0D01*
G01*
X3449530Y-4939000D02*
G75*
G03X3449530Y-4939000I-49530J0D01*
G01*
X3449530Y-5701000D02*
G75*
G03X3449530Y-5701000I-49530J0D01*
G01*
X3449530Y-6290000D02*
G75*
G03X3449530Y-6290000I-49530J0D01*
G01*
X3680530Y-8200000D02*
G75*
G03X3680530Y-8200000I-49530J0D01*
G01*
X4108530Y-4380000D02*
G75*
G03X4108530Y-4380000I-49530J0D01*
G01*
X4159530Y-10100000D02*
G75*
G03X4159530Y-10100000I-49530J0D01*
G01*
X4588530Y-10100000D02*
G75*
G03X4588530Y-10100000I-49530J0D01*
G01*
X4827530Y-12000000D02*
G75*
G03X4827530Y-12000000I-49530J0D01*
G01*
X4855530Y-13350000D02*
G75*
G03X4855530Y-13350000I-49530J0D01*
G01*
X4870530Y-4380000D02*
G75*
G03X4870530Y-4380000I-49530J0D01*
G01*
X5068530Y-6290000D02*
G75*
G03X5068530Y-6290000I-49530J0D01*
G01*
X5089530Y-13350000D02*
G75*
G03X5089530Y-13350000I-49530J0D01*
G01*
X5323530Y-13350000D02*
G75*
G03X5323530Y-13350000I-49530J0D01*
G01*
X5350530Y-10100000D02*
G75*
G03X5350530Y-10100000I-49530J0D01*
G01*
X5539530Y-8200000D02*
G75*
G03X5539530Y-8200000I-49530J0D01*
G01*
X5589530Y-12000000D02*
G75*
G03X5589530Y-12000000I-49530J0D01*
G01*
X5830530Y-6290000D02*
G75*
G03X5830530Y-6290000I-49530J0D01*
G01*
X6018530Y-3300000D02*
G75*
G03X6018530Y-3300000I-49530J0D01*
G01*
X6019530Y-4380000D02*
G75*
G03X6019530Y-4380000I-49530J0D01*
G01*
X6301530Y-8200000D02*
G75*
G03X6301530Y-8200000I-49530J0D01*
G01*
X6489530Y-10100000D02*
G75*
G03X6489530Y-10100000I-49530J0D01*
G01*
X6738530Y-12000000D02*
G75*
G03X6738530Y-12000000I-49530J0D01*
G01*
X6780530Y-3300000D02*
G75*
G03X6780530Y-3300000I-49530J0D01*
G01*
X6781530Y-4380000D02*
G75*
G03X6781530Y-4380000I-49530J0D01*
G01*
X6968530Y-6290000D02*
G75*
G03X6968530Y-6290000I-49530J0D01*
G01*
X7251530Y-10100000D02*
G75*
G03X7251530Y-10100000I-49530J0D01*
G01*
X7448530Y-8200000D02*
G75*
G03X7448530Y-8200000I-49530J0D01*
G01*
X7500530Y-12000000D02*
G75*
G03X7500530Y-12000000I-49530J0D01*
G01*
X7730530Y-6290000D02*
G75*
G03X7730530Y-6290000I-49530J0D01*
G01*
X7918530Y-3300000D02*
G75*
G03X7918530Y-3300000I-49530J0D01*
G01*
X7923530Y-4380000D02*
G75*
G03X7923530Y-4380000I-49530J0D01*
G01*
X8210530Y-8200000D02*
G75*
G03X8210530Y-8200000I-49530J0D01*
G01*
X8680530Y-3300000D02*
G75*
G03X8680530Y-3300000I-49530J0D01*
G01*
X8685530Y-4380000D02*
G75*
G03X8685530Y-4380000I-49530J0D01*
G01*
X8727530Y-10100000D02*
G75*
G03X8727530Y-10100000I-49530J0D01*
G01*
X8878530Y-6290000D02*
G75*
G03X8878530Y-6290000I-49530J0D01*
G01*
X8878530Y-12000000D02*
G75*
G03X8878530Y-12000000I-49530J0D01*
G01*
X9169530Y-1930000D02*
G75*
G03X9169530Y-1930000I-49530J0D01*
G01*
X9169530Y-2692000D02*
G75*
G03X9169530Y-2692000I-49530J0D01*
G01*
X9348530Y-8200000D02*
G75*
G03X9348530Y-8200000I-49530J0D01*
G01*
X9349530Y-4909000D02*
G75*
G03X9349530Y-4909000I-49530J0D01*
G01*
X9349530Y-5671000D02*
G75*
G03X9349530Y-5671000I-49530J0D01*
G01*
X9489530Y-10100000D02*
G75*
G03X9489530Y-10100000I-49530J0D01*
G01*
X9640530Y-6290000D02*
G75*
G03X9640530Y-6290000I-49530J0D01*
G01*
X9640530Y-12000000D02*
G75*
G03X9640530Y-12000000I-49530J0D01*
G01*
X10110530Y-8200000D02*
G75*
G03X10110530Y-8200000I-49530J0D01*
G01*
X10299530Y-10100000D02*
G75*
G03X10299530Y-10100000I-49530J0D01*
G01*
X10788530Y-6290000D02*
G75*
G03X10788530Y-6290000I-49530J0D01*
G01*
X11018530Y-12000000D02*
G75*
G03X11018530Y-12000000I-49530J0D01*
G01*
X11061530Y-10100000D02*
G75*
G03X11061530Y-10100000I-49530J0D01*
G01*
X11194542Y-1930000D02*
G75*
G03X11194542Y-1930000I-49530J0D01*
G01*
X11194542Y-2692000D02*
G75*
G03X11194542Y-2692000I-49530J0D01*
G01*
X11249530Y-4910000D02*
G75*
G03X11249530Y-4910000I-49530J0D01*
G01*
X11249530Y-5672000D02*
G75*
G03X11249530Y-5672000I-49530J0D01*
G01*
X11259530Y-8200000D02*
G75*
G03X11259530Y-8200000I-49530J0D01*
G01*
X11550530Y-6290000D02*
G75*
G03X11550530Y-6290000I-49530J0D01*
G01*
X11780530Y-12000000D02*
G75*
G03X11780530Y-12000000I-49530J0D01*
G01*
X12021530Y-8200000D02*
G75*
G03X12021530Y-8200000I-49530J0D01*
G01*
X12209530Y-10100000D02*
G75*
G03X12209530Y-10100000I-49530J0D01*
G01*
X12687530Y-6290000D02*
G75*
G03X12687530Y-6290000I-49530J0D01*
G01*
X12971530Y-10100000D02*
G75*
G03X12971530Y-10100000I-49530J0D01*
G01*
X13159530Y-4910000D02*
G75*
G03X13159530Y-4910000I-49530J0D01*
G01*
X13159530Y-5672000D02*
G75*
G03X13159530Y-5672000I-49530J0D01*
G01*
X13159530Y-8200000D02*
G75*
G03X13159530Y-8200000I-49530J0D01*
G01*
X13399530Y-12000000D02*
G75*
G03X13399530Y-12000000I-49530J0D01*
G01*
X13449530Y-6290000D02*
G75*
G03X13449530Y-6290000I-49530J0D01*
G01*
X13921530Y-8200000D02*
G75*
G03X13921530Y-8200000I-49530J0D01*
G01*
X13999530Y-1930000D02*
G75*
G03X13999530Y-1930000I-49530J0D01*
G01*
X13999530Y-2692000D02*
G75*
G03X13999530Y-2692000I-49530J0D01*
G01*
X14117530Y-10100000D02*
G75*
G03X14117530Y-10100000I-49530J0D01*
G01*
X14161530Y-12000000D02*
G75*
G03X14161530Y-12000000I-49530J0D01*
G01*
X14598530Y-6290000D02*
G75*
G03X14598530Y-6290000I-49530J0D01*
G01*
X14879530Y-10100000D02*
G75*
G03X14879530Y-10100000I-49530J0D01*
G01*
X15059530Y-4910000D02*
G75*
G03X15059530Y-4910000I-49530J0D01*
G01*
X15059530Y-5672000D02*
G75*
G03X15059530Y-5672000I-49530J0D01*
G01*
X15068530Y-8200000D02*
G75*
G03X15068530Y-8200000I-49530J0D01*
G01*
X15360530Y-6290000D02*
G75*
G03X15360530Y-6290000I-49530J0D01*
G01*
X15830530Y-8200000D02*
G75*
G03X15830530Y-8200000I-49530J0D01*
G01*
X15899530Y-1930000D02*
G75*
G03X15899530Y-1930000I-49530J0D01*
G01*
X15899530Y-2692000D02*
G75*
G03X15899530Y-2692000I-49530J0D01*
G01*
X16019530Y-10100000D02*
G75*
G03X16019530Y-10100000I-49530J0D01*
G01*
X16258530Y-12000000D02*
G75*
G03X16258530Y-12000000I-49530J0D01*
G01*
X16487530Y-6290000D02*
G75*
G03X16487530Y-6290000I-49530J0D01*
G01*
X16781530Y-10100000D02*
G75*
G03X16781530Y-10100000I-49530J0D01*
G01*
X16949530Y-4910000D02*
G75*
G03X16949530Y-4910000I-49530J0D01*
G01*
X16949530Y-5672000D02*
G75*
G03X16949530Y-5672000I-49530J0D01*
G01*
X16969530Y-8200000D02*
G75*
G03X16969530Y-8200000I-49530J0D01*
G01*
X17020530Y-12000000D02*
G75*
G03X17020530Y-12000000I-49530J0D01*
G01*
X17249530Y-6290000D02*
G75*
G03X17249530Y-6290000I-49530J0D01*
G01*
X17731530Y-8200000D02*
G75*
G03X17731530Y-8200000I-49530J0D01*
G01*
X17918530Y-10100000D02*
G75*
G03X17918530Y-10100000I-49530J0D01*
G01*
X18408530Y-6290000D02*
G75*
G03X18408530Y-6290000I-49530J0D01*
G01*
X18680530Y-10100000D02*
G75*
G03X18680530Y-10100000I-49530J0D01*
G01*
X18879530Y-4910000D02*
G75*
G03X18879530Y-4910000I-49530J0D01*
G01*
X18879530Y-5672000D02*
G75*
G03X18879530Y-5672000I-49530J0D01*
G01*
X18879530Y-8200000D02*
G75*
G03X18879530Y-8200000I-49530J0D01*
G01*
X19170530Y-6290000D02*
G75*
G03X19170530Y-6290000I-49530J0D01*
G01*
X19588530Y-12000000D02*
G75*
G03X19588530Y-12000000I-49530J0D01*
G01*
X19641530Y-8200000D02*
G75*
G03X19641530Y-8200000I-49530J0D01*
G01*
X19749530Y-1930000D02*
G75*
G03X19749530Y-1930000I-49530J0D01*
G01*
X19749530Y-2692000D02*
G75*
G03X19749530Y-2692000I-49530J0D01*
G01*
X19827530Y-10100000D02*
G75*
G03X19827530Y-10100000I-49530J0D01*
G01*
X20308530Y-6290000D02*
G75*
G03X20308530Y-6290000I-49530J0D01*
G01*
X20350530Y-12000000D02*
G75*
G03X20350530Y-12000000I-49530J0D01*
G01*
X20589530Y-10100000D02*
G75*
G03X20589530Y-10100000I-49530J0D01*
G01*
X20779530Y-4910000D02*
G75*
G03X20779530Y-4910000I-49530J0D01*
G01*
X20779530Y-5672000D02*
G75*
G03X20779530Y-5672000I-49530J0D01*
G01*
X20779530Y-8200000D02*
G75*
G03X20779530Y-8200000I-49530J0D01*
G01*
X21070530Y-6290000D02*
G75*
G03X21070530Y-6290000I-49530J0D01*
G01*
X21497530Y-12000000D02*
G75*
G03X21497530Y-12000000I-49530J0D01*
G01*
X21541530Y-8200000D02*
G75*
G03X21541530Y-8200000I-49530J0D01*
G01*
X21729530Y-10100000D02*
G75*
G03X21729530Y-10100000I-49530J0D01*
G01*
X21743530Y-13350000D02*
G75*
G03X21743530Y-13350000I-49530J0D01*
G01*
X21644000Y-13389530D02*
X21744000Y-13389530D01*
X21644000Y-13310470D02*
X21744000Y-13310470D01*
X21744000Y-13389530D02*
G75*
G03X21744000Y-13310470I0J39530D01*
G01*
X21644000Y-13310470D02*
G75*
G03X21644000Y-13389530I0J-39530D01*
G01*
X22124530Y-13350000D02*
G75*
G03X22124530Y-13350000I-49530J0D01*
G01*
X21975000Y-13389530D02*
X22175000Y-13389530D01*
X21975000Y-13310470D02*
X22175000Y-13310470D01*
X22175000Y-13389530D02*
G75*
G03X22175000Y-13310470I0J39530D01*
G01*
X21975000Y-13310470D02*
G75*
G03X21975000Y-13389530I0J-39530D01*
G01*
X22207530Y-6290000D02*
G75*
G03X22207530Y-6290000I-49530J0D01*
G01*
X22259530Y-12000000D02*
G75*
G03X22259530Y-12000000I-49530J0D01*
G01*
X22399530Y-1930000D02*
G75*
G03X22399530Y-1930000I-49530J0D01*
G01*
X22399530Y-2692000D02*
G75*
G03X22399530Y-2692000I-49530J0D01*
G01*
X22491530Y-10100000D02*
G75*
G03X22491530Y-10100000I-49530J0D01*
G01*
X22505530Y-13350000D02*
G75*
G03X22505530Y-13350000I-49530J0D01*
G01*
X22406000Y-13389530D02*
X22506000Y-13389530D01*
X22406000Y-13310470D02*
X22506000Y-13310470D01*
X22506000Y-13389530D02*
G75*
G03X22506000Y-13310470I0J39530D01*
G01*
X22406000Y-13310470D02*
G75*
G03X22406000Y-13389530I0J-39530D01*
G01*
X22687530Y-8200000D02*
G75*
G03X22687530Y-8200000I-49530J0D01*
G01*
X22969530Y-6290000D02*
G75*
G03X22969530Y-6290000I-49530J0D01*
G01*
X23449530Y-8200000D02*
G75*
G03X23449530Y-8200000I-49530J0D01*
G01*
X23639530Y-10100000D02*
G75*
G03X23639530Y-10100000I-49530J0D01*
G01*
X23878530Y-12000000D02*
G75*
G03X23878530Y-12000000I-49530J0D01*
G01*
X23947530Y-3300000D02*
G75*
G03X23947530Y-3300000I-49530J0D01*
G01*
X23949530Y-4390000D02*
G75*
G03X23949530Y-4390000I-49530J0D01*
G01*
X24118530Y-6290000D02*
G75*
G03X24118530Y-6290000I-49530J0D01*
G01*
X24401530Y-10100000D02*
G75*
G03X24401530Y-10100000I-49530J0D01*
G01*
X24589530Y-8200000D02*
G75*
G03X24589530Y-8200000I-49530J0D01*
G01*
X24640530Y-12000000D02*
G75*
G03X24640530Y-12000000I-49530J0D01*
G01*
X24709530Y-3300000D02*
G75*
G03X24709530Y-3300000I-49530J0D01*
G01*
X24711530Y-4390000D02*
G75*
G03X24711530Y-4390000I-49530J0D01*
G01*
X24880530Y-6290000D02*
G75*
G03X24880530Y-6290000I-49530J0D01*
G01*
X25067530Y-4390000D02*
G75*
G03X25067530Y-4390000I-49530J0D01*
G01*
X25068530Y-3300000D02*
G75*
G03X25068530Y-3300000I-49530J0D01*
G01*
X25351530Y-8200000D02*
G75*
G03X25351530Y-8200000I-49530J0D01*
G01*
X25547530Y-10100000D02*
G75*
G03X25547530Y-10100000I-49530J0D01*
G01*
X25829530Y-4390000D02*
G75*
G03X25829530Y-4390000I-49530J0D01*
G01*
X25830530Y-3300000D02*
G75*
G03X25830530Y-3300000I-49530J0D01*
G01*
X26018530Y-6290000D02*
G75*
G03X26018530Y-6290000I-49530J0D01*
G01*
X26309530Y-10100000D02*
G75*
G03X26309530Y-10100000I-49530J0D01*
G01*
X26495530Y-11799000D02*
G75*
G03X26495530Y-11799000I-49530J0D01*
G01*
X26499530Y-8200000D02*
G75*
G03X26499530Y-8200000I-49530J0D01*
G01*
X26525530Y-13350000D02*
G75*
G03X26525530Y-13350000I-49530J0D01*
G01*
X26759530Y-13350000D02*
G75*
G03X26759530Y-13350000I-49530J0D01*
G01*
X26780530Y-6290000D02*
G75*
G03X26780530Y-6290000I-49530J0D01*
G01*
X26969530Y-3300000D02*
G75*
G03X26969530Y-3300000I-49530J0D01*
G01*
X26969530Y-4390000D02*
G75*
G03X26969530Y-4390000I-49530J0D01*
G01*
X26993530Y-13350000D02*
G75*
G03X26993530Y-13350000I-49530J0D01*
G01*
X27208530Y-10100000D02*
G75*
G03X27208530Y-10100000I-49530J0D01*
G01*
X27257530Y-11799000D02*
G75*
G03X27257530Y-11799000I-49530J0D01*
G01*
X27261530Y-8200000D02*
G75*
G03X27261530Y-8200000I-49530J0D01*
G01*
X27731530Y-3300000D02*
G75*
G03X27731530Y-3300000I-49530J0D01*
G01*
X27731530Y-4390000D02*
G75*
G03X27731530Y-4390000I-49530J0D01*
G01*
X27970530Y-10100000D02*
G75*
G03X27970530Y-10100000I-49530J0D01*
G01*
X28647530Y-12000000D02*
G75*
G03X28647530Y-12000000I-49530J0D01*
G01*
X28767530Y-9020000D02*
G75*
G03X28767530Y-9020000I-49530J0D01*
G01*
X28877530Y-3300000D02*
G75*
G03X28877530Y-3300000I-49530J0D01*
G01*
X28877530Y-4390000D02*
G75*
G03X28877530Y-4390000I-49530J0D01*
G01*
X29409530Y-12000000D02*
G75*
G03X29409530Y-12000000I-49530J0D01*
G01*
X29529530Y-9020000D02*
G75*
G03X29529530Y-9020000I-49530J0D01*
G01*
X29639530Y-3300000D02*
G75*
G03X29639530Y-3300000I-49530J0D01*
G01*
X29639530Y-4390000D02*
G75*
G03X29639530Y-4390000I-49530J0D01*
G01*
X31141530Y-10800000D02*
G75*
G03X31141530Y-10800000I-49530J0D01*
G01*
X31141530Y-11200000D02*
G75*
G03X31141530Y-11200000I-49530J0D01*
G01*
X31267530Y-12000000D02*
G75*
G03X31267530Y-12000000I-49530J0D01*
G01*
X31268530Y-6290000D02*
G75*
G03X31268530Y-6290000I-49530J0D01*
G01*
X31277530Y-3300000D02*
G75*
G03X31277530Y-3300000I-49530J0D01*
G01*
X31278530Y-4380000D02*
G75*
G03X31278530Y-4380000I-49530J0D01*
G01*
X32029530Y-12000000D02*
G75*
G03X32029530Y-12000000I-49530J0D01*
G01*
X32030530Y-6290000D02*
G75*
G03X32030530Y-6290000I-49530J0D01*
G01*
X32039530Y-3300000D02*
G75*
G03X32039530Y-3300000I-49530J0D01*
G01*
X32040530Y-4380000D02*
G75*
G03X32040530Y-4380000I-49530J0D01*
G01*
X32157530Y-10800000D02*
G75*
G03X32157530Y-10800000I-49530J0D01*
G01*
X32157530Y-11200000D02*
G75*
G03X32157530Y-11200000I-49530J0D01*
G01*
X32547530Y-3500000D02*
G75*
G03X32547530Y-3500000I-49530J0D01*
G01*
X33187530Y-6290000D02*
G75*
G03X33187530Y-6290000I-49530J0D01*
G01*
X33187530Y-10100000D02*
G75*
G03X33187530Y-10100000I-49530J0D01*
G01*
X33187530Y-12000000D02*
G75*
G03X33187530Y-12000000I-49530J0D01*
G01*
X33188530Y-4390000D02*
G75*
G03X33188530Y-4390000I-49530J0D01*
G01*
X33309530Y-3500000D02*
G75*
G03X33309530Y-3500000I-49530J0D01*
G01*
X33452530Y-2950000D02*
G75*
G03X33452530Y-2950000I-49530J0D01*
G01*
X33701530Y-3500000D02*
G75*
G03X33701530Y-3500000I-49530J0D01*
G01*
X33706530Y-2950000D02*
G75*
G03X33706530Y-2950000I-49530J0D01*
G01*
X33949530Y-6290000D02*
G75*
G03X33949530Y-6290000I-49530J0D01*
G01*
X33949530Y-10100000D02*
G75*
G03X33949530Y-10100000I-49530J0D01*
G01*
X33949530Y-12000000D02*
G75*
G03X33949530Y-12000000I-49530J0D01*
G01*
X33950530Y-4390000D02*
G75*
G03X33950530Y-4390000I-49530J0D01*
G01*
X34717530Y-3500000D02*
G75*
G03X34717530Y-3500000I-49530J0D01*
G01*
X34941530Y-10800000D02*
G75*
G03X34941530Y-10800000I-49530J0D01*
G01*
X34941530Y-11200000D02*
G75*
G03X34941530Y-11200000I-49530J0D01*
G01*
X35087530Y-6290000D02*
G75*
G03X35087530Y-6290000I-49530J0D01*
G01*
X35087530Y-12000000D02*
G75*
G03X35087530Y-12000000I-49530J0D01*
G01*
X35098530Y-4390000D02*
G75*
G03X35098530Y-4390000I-49530J0D01*
G01*
X35109530Y-3500000D02*
G75*
G03X35109530Y-3500000I-49530J0D01*
G01*
X35849530Y-6290000D02*
G75*
G03X35849530Y-6290000I-49530J0D01*
G01*
X35849530Y-12000000D02*
G75*
G03X35849530Y-12000000I-49530J0D01*
G01*
X35860530Y-4390000D02*
G75*
G03X35860530Y-4390000I-49530J0D01*
G01*
X35871530Y-3500000D02*
G75*
G03X35871530Y-3500000I-49530J0D01*
G01*
X35957530Y-10800000D02*
G75*
G03X35957530Y-10800000I-49530J0D01*
G01*
X35957530Y-11200000D02*
G75*
G03X35957530Y-11200000I-49530J0D01*
G01*
X37469530Y-6200000D02*
G75*
G03X37469530Y-6200000I-49530J0D01*
G01*
X37489530Y-10100000D02*
G75*
G03X37489530Y-10100000I-49530J0D01*
G01*
X37497530Y-8200000D02*
G75*
G03X37497530Y-8200000I-49530J0D01*
G01*
X37613530Y-3456000D02*
G75*
G03X37613530Y-3456000I-49530J0D01*
G01*
X37613530Y-3800000D02*
G75*
G03X37613530Y-3800000I-49530J0D01*
G01*
X37613530Y-4120000D02*
G75*
G03X37613530Y-4120000I-49530J0D01*
G01*
X37745530Y-5750000D02*
G75*
G03X37745530Y-5750000I-49530J0D01*
G01*
X37999530Y-5750000D02*
G75*
G03X37999530Y-5750000I-49530J0D01*
G01*
X38251530Y-10100000D02*
G75*
G03X38251530Y-10100000I-49530J0D01*
G01*
X38259530Y-8200000D02*
G75*
G03X38259530Y-8200000I-49530J0D01*
G01*
X38449530Y-12000000D02*
G75*
G03X38449530Y-12000000I-49530J0D01*
G01*
X38485530Y-6200000D02*
G75*
G03X38485530Y-6200000I-49530J0D01*
G01*
X38629530Y-3456000D02*
G75*
G03X38629530Y-3456000I-49530J0D01*
G01*
X38629530Y-3800000D02*
G75*
G03X38629530Y-3800000I-49530J0D01*
G01*
X38629530Y-4120000D02*
G75*
G03X38629530Y-4120000I-49530J0D01*
G01*
X38739530Y-6888000D02*
G75*
G03X38739530Y-6888000I-49530J0D01*
G01*
X38739530Y-7650000D02*
G75*
G03X38739530Y-7650000I-49530J0D01*
G01*
X38741530Y-4986000D02*
G75*
G03X38741530Y-4986000I-49530J0D01*
G01*
X38741530Y-5748000D02*
G75*
G03X38741530Y-5748000I-49530J0D01*
G01*
X39211530Y-12000000D02*
G75*
G03X39211530Y-12000000I-49530J0D01*
G01*
X39397530Y-4390000D02*
G75*
G03X39397530Y-4390000I-49530J0D01*
G01*
X39398530Y-6200000D02*
G75*
G03X39398530Y-6200000I-49530J0D01*
G01*
X39399530Y-8200000D02*
G75*
G03X39399530Y-8200000I-49530J0D01*
G01*
X39409530Y-10100000D02*
G75*
G03X39409530Y-10100000I-49530J0D01*
G01*
X39742530Y-3610000D02*
G75*
G03X39742530Y-3610000I-49530J0D01*
G01*
X39996530Y-3610000D02*
G75*
G03X39996530Y-3610000I-49530J0D01*
G01*
X40159530Y-4390000D02*
G75*
G03X40159530Y-4390000I-49530J0D01*
G01*
X40160530Y-6200000D02*
G75*
G03X40160530Y-6200000I-49530J0D01*
G01*
X40161530Y-8200000D02*
G75*
G03X40161530Y-8200000I-49530J0D01*
G01*
X40171530Y-10100000D02*
G75*
G03X40171530Y-10100000I-49530J0D01*
G01*
X41298530Y-4390000D02*
G75*
G03X41298530Y-4390000I-49530J0D01*
G01*
X41308530Y-6200000D02*
G75*
G03X41308530Y-6200000I-49530J0D01*
G01*
X41308530Y-8200000D02*
G75*
G03X41308530Y-8200000I-49530J0D01*
G01*
X41308530Y-12000000D02*
G75*
G03X41308530Y-12000000I-49530J0D01*
G01*
X41309530Y-10100000D02*
G75*
G03X41309530Y-10100000I-49530J0D01*
G01*
X41822530Y-3610000D02*
G75*
G03X41822530Y-3610000I-49530J0D01*
G01*
X42060530Y-4390000D02*
G75*
G03X42060530Y-4390000I-49530J0D01*
G01*
X42070530Y-6200000D02*
G75*
G03X42070530Y-6200000I-49530J0D01*
G01*
X42070530Y-8200000D02*
G75*
G03X42070530Y-8200000I-49530J0D01*
G01*
X42070530Y-12000000D02*
G75*
G03X42070530Y-12000000I-49530J0D01*
G01*
X42071530Y-10100000D02*
G75*
G03X42071530Y-10100000I-49530J0D01*
G01*
X42076530Y-3610000D02*
G75*
G03X42076530Y-3610000I-49530J0D01*
G01*
X42749530Y-4989000D02*
G75*
G03X42749530Y-4989000I-49530J0D01*
G01*
X42749530Y-5751000D02*
G75*
G03X42749530Y-5751000I-49530J0D01*
G01*
X43083530Y-6200000D02*
G75*
G03X43083530Y-6200000I-49530J0D01*
G01*
X43347530Y-8980000D02*
G75*
G03X43347530Y-8980000I-49530J0D01*
G01*
X43347530Y-12780000D02*
G75*
G03X43347530Y-12780000I-49530J0D01*
G01*
X43445530Y-5750000D02*
G75*
G03X43445530Y-5750000I-49530J0D01*
G01*
X43699530Y-5750000D02*
G75*
G03X43699530Y-5750000I-49530J0D01*
G01*
X43732530Y-3600000D02*
G75*
G03X43732530Y-3600000I-49530J0D01*
G01*
X43986530Y-3600000D02*
G75*
G03X43986530Y-3600000I-49530J0D01*
G01*
X44099530Y-6200000D02*
G75*
G03X44099530Y-6200000I-49530J0D01*
G01*
X44109530Y-8980000D02*
G75*
G03X44109530Y-8980000I-49530J0D01*
G01*
X44109530Y-12780000D02*
G75*
G03X44109530Y-12780000I-49530J0D01*
G01*
X28290000Y-3740000D02*
X28290000Y-3850000D01*
X28235000Y-3795000D02*
X28345000Y-3795000D01*
X28544000Y-3740000D02*
X28544000Y-3850000D01*
X28489000Y-3795000D02*
X28599000Y-3795000D01*
X28798000Y-3740000D02*
X28798000Y-3850000D01*
X28743000Y-3795000D02*
X28853000Y-3795000D01*
X29052000Y-3740000D02*
X29052000Y-3850000D01*
X28997000Y-3795000D02*
X29107000Y-3795000D01*
X29306000Y-3740000D02*
X29306000Y-3850000D01*
X29251000Y-3795000D02*
X29361000Y-3795000D01*
X29560000Y-3740000D02*
X29560000Y-3850000D01*
X29505000Y-3795000D02*
X29615000Y-3795000D01*
X30330000Y-2185000D02*
X30330000Y-2295000D01*
X30275000Y-2240000D02*
X30385000Y-2240000D01*
X30330000Y-2685000D02*
X30330000Y-2795000D01*
X30275000Y-2740000D02*
X30385000Y-2740000D01*
X30584000Y-2185000D02*
X30584000Y-2295000D01*
X30529000Y-2240000D02*
X30639000Y-2240000D01*
X30584000Y-2685000D02*
X30584000Y-2795000D01*
X30529000Y-2740000D02*
X30639000Y-2740000D01*
X39287000Y-1682000D02*
X39287000Y-1792000D01*
X39232000Y-1737000D02*
X39342000Y-1737000D01*
X39287000Y-3206000D02*
X39287000Y-3316000D01*
X39232000Y-3261000D02*
X39342000Y-3261000D01*
X39541000Y-1682000D02*
X39541000Y-1792000D01*
X39486000Y-1737000D02*
X39596000Y-1737000D01*
X39541000Y-3206000D02*
X39541000Y-3316000D01*
X39486000Y-3261000D02*
X39596000Y-3261000D01*
X39795000Y-1682000D02*
X39795000Y-1792000D01*
X39740000Y-1737000D02*
X39850000Y-1737000D01*
X39795000Y-3206000D02*
X39795000Y-3316000D01*
X39740000Y-3261000D02*
X39850000Y-3261000D01*
X40049000Y-1682000D02*
X40049000Y-1792000D01*
X39994000Y-1737000D02*
X40104000Y-1737000D01*
X40049000Y-3206000D02*
X40049000Y-3316000D01*
X39994000Y-3261000D02*
X40104000Y-3261000D01*
X40303000Y-1682000D02*
X40303000Y-1792000D01*
X40248000Y-1737000D02*
X40358000Y-1737000D01*
X40303000Y-3206000D02*
X40303000Y-3316000D01*
X40248000Y-3261000D02*
X40358000Y-3261000D01*
X40353000Y-3539000D02*
X40353000Y-3649000D01*
X40298000Y-3594000D02*
X40408000Y-3594000D01*
X40557000Y-1682000D02*
X40557000Y-1792000D01*
X40502000Y-1737000D02*
X40612000Y-1737000D01*
X40557000Y-3206000D02*
X40557000Y-3316000D01*
X40502000Y-3261000D02*
X40612000Y-3261000D01*
X40607000Y-3539000D02*
X40607000Y-3649000D01*
X40552000Y-3594000D02*
X40662000Y-3594000D01*
X40811000Y-1682000D02*
X40811000Y-1792000D01*
X40756000Y-1737000D02*
X40866000Y-1737000D01*
X40811000Y-3206000D02*
X40811000Y-3316000D01*
X40756000Y-3261000D02*
X40866000Y-3261000D01*
X40861000Y-3539000D02*
X40861000Y-3649000D01*
X40806000Y-3594000D02*
X40916000Y-3594000D01*
X41065000Y-1682000D02*
X41065000Y-1792000D01*
X41010000Y-1737000D02*
X41120000Y-1737000D01*
X41065000Y-3206000D02*
X41065000Y-3316000D01*
X41010000Y-3261000D02*
X41120000Y-3261000D01*
X41115000Y-3539000D02*
X41115000Y-3649000D01*
X41060000Y-3594000D02*
X41170000Y-3594000D01*
X41319000Y-1682000D02*
X41319000Y-1792000D01*
X41264000Y-1737000D02*
X41374000Y-1737000D01*
X41319000Y-3206000D02*
X41319000Y-3316000D01*
X41264000Y-3261000D02*
X41374000Y-3261000D01*
X41369000Y-3539000D02*
X41369000Y-3649000D01*
X41314000Y-3594000D02*
X41424000Y-3594000D01*
X41573000Y-1682000D02*
X41573000Y-1792000D01*
X41518000Y-1737000D02*
X41628000Y-1737000D01*
X41573000Y-3206000D02*
X41573000Y-3316000D01*
X41518000Y-3261000D02*
X41628000Y-3261000D01*
X41827000Y-1682000D02*
X41827000Y-1792000D01*
X41772000Y-1737000D02*
X41882000Y-1737000D01*
X41827000Y-3206000D02*
X41827000Y-3316000D01*
X41772000Y-3261000D02*
X41882000Y-3261000D01*
X42081000Y-1682000D02*
X42081000Y-1792000D01*
X42026000Y-1737000D02*
X42136000Y-1737000D01*
X42081000Y-3206000D02*
X42081000Y-3316000D01*
X42026000Y-3261000D02*
X42136000Y-3261000D01*
X42335000Y-1682000D02*
X42335000Y-1792000D01*
X42280000Y-1737000D02*
X42390000Y-1737000D01*
X42335000Y-3206000D02*
X42335000Y-3316000D01*
X42280000Y-3261000D02*
X42390000Y-3261000D01*
X42589000Y-1682000D02*
X42589000Y-1792000D01*
X42534000Y-1737000D02*
X42644000Y-1737000D01*
X42589000Y-2190000D02*
X42589000Y-2300000D01*
X42534000Y-2245000D02*
X42644000Y-2245000D01*
X42589000Y-2444000D02*
X42589000Y-2554000D01*
X42534000Y-2499000D02*
X42644000Y-2499000D01*
X42589000Y-3206000D02*
X42589000Y-3316000D01*
X42534000Y-3261000D02*
X42644000Y-3261000D01*
X42843000Y-1682000D02*
X42843000Y-1792000D01*
X42788000Y-1737000D02*
X42898000Y-1737000D01*
X42843000Y-2190000D02*
X42843000Y-2300000D01*
X42788000Y-2245000D02*
X42898000Y-2245000D01*
X42843000Y-2444000D02*
X42843000Y-2554000D01*
X42788000Y-2499000D02*
X42898000Y-2499000D01*
X42843000Y-3206000D02*
X42843000Y-3316000D01*
X42788000Y-3261000D02*
X42898000Y-3261000D01*
X43097000Y-1682000D02*
X43097000Y-1792000D01*
X43042000Y-1737000D02*
X43152000Y-1737000D01*
X43097000Y-2190000D02*
X43097000Y-2300000D01*
X43042000Y-2245000D02*
X43152000Y-2245000D01*
X43097000Y-2444000D02*
X43097000Y-2554000D01*
X43042000Y-2499000D02*
X43152000Y-2499000D01*
X43097000Y-3206000D02*
X43097000Y-3316000D01*
X43042000Y-3261000D02*
X43152000Y-3261000D01*
X43351000Y-1682000D02*
X43351000Y-1792000D01*
X43296000Y-1737000D02*
X43406000Y-1737000D01*
X43351000Y-2190000D02*
X43351000Y-2300000D01*
X43296000Y-2245000D02*
X43406000Y-2245000D01*
X43351000Y-2444000D02*
X43351000Y-2554000D01*
X43296000Y-2499000D02*
X43406000Y-2499000D01*
X43351000Y-3206000D02*
X43351000Y-3316000D01*
X43296000Y-3261000D02*
X43406000Y-3261000D01*
X43605000Y-1682000D02*
X43605000Y-1792000D01*
X43550000Y-1737000D02*
X43660000Y-1737000D01*
X43605000Y-3206000D02*
X43605000Y-3316000D01*
X43550000Y-3261000D02*
X43660000Y-3261000D01*
X43859000Y-1682000D02*
X43859000Y-1792000D01*
X43804000Y-1737000D02*
X43914000Y-1737000D01*
X43859000Y-3206000D02*
X43859000Y-3316000D01*
X43804000Y-3261000D02*
X43914000Y-3261000D01*
X44113000Y-1682000D02*
X44113000Y-1792000D01*
X44058000Y-1737000D02*
X44168000Y-1737000D01*
X44113000Y-2190000D02*
X44113000Y-2300000D01*
X44058000Y-2245000D02*
X44168000Y-2245000D01*
X44113000Y-2444000D02*
X44113000Y-2554000D01*
X44058000Y-2499000D02*
X44168000Y-2499000D01*
X44113000Y-2698000D02*
X44113000Y-2808000D01*
X44058000Y-2753000D02*
X44168000Y-2753000D01*
X2211984Y-2238984D02*
X2211984Y-2133016D01*
X2106016Y-2133016D01*
X2106016Y-2238984D01*
X2211984Y-2238984D01*
X2211984Y-5037734D02*
X2211984Y-4931766D01*
X2106016Y-4931766D01*
X2106016Y-5037734D01*
X2211984Y-5037734D01*
X2448524Y-10752784D02*
X2448524Y-10646816D01*
X2342556Y-10646816D01*
X2342556Y-10752784D01*
X2448524Y-10752784D01*
X2450264Y-12657784D02*
X2450264Y-12551816D01*
X2344296Y-12551816D01*
X2344296Y-12657784D01*
X2450264Y-12657784D01*
X2688234Y-6942734D02*
X2688234Y-6836766D01*
X2582266Y-6836766D01*
X2582266Y-6942734D01*
X2688234Y-6942734D01*
X2846984Y-1984984D02*
X2846984Y-1879016D01*
X2741016Y-1879016D01*
X2741016Y-1984984D01*
X2846984Y-1984984D01*
X2846984Y-4783734D02*
X2846984Y-4677766D01*
X2741016Y-4677766D01*
X2741016Y-4783734D01*
X2846984Y-4783734D01*
X2926454Y-8847734D02*
X2926454Y-8741766D01*
X2820486Y-8741766D01*
X2820486Y-8847734D01*
X2926454Y-8847734D01*
X3083524Y-10498784D02*
X3083524Y-10392816D01*
X2977556Y-10392816D01*
X2977556Y-10498784D01*
X3083524Y-10498784D01*
X3085264Y-12403784D02*
X3085264Y-12297816D01*
X2979296Y-12297816D01*
X2979296Y-12403784D01*
X3085264Y-12403784D01*
X3323234Y-6688734D02*
X3323234Y-6582766D01*
X3217266Y-6582766D01*
X3217266Y-6688734D01*
X3323234Y-6688734D01*
X3402764Y-10752784D02*
X3402764Y-10646816D01*
X3296796Y-10646816D01*
X3296796Y-10752784D01*
X3402764Y-10752784D01*
X3561454Y-8593734D02*
X3561454Y-8487766D01*
X3455486Y-8487766D01*
X3455486Y-8593734D01*
X3561454Y-8593734D01*
X4037764Y-10498784D02*
X4037764Y-10392816D01*
X3931796Y-10392816D01*
X3931796Y-10498784D01*
X4037764Y-10498784D01*
X4116984Y-5037734D02*
X4116984Y-4931766D01*
X4011016Y-4931766D01*
X4011016Y-5037734D01*
X4116984Y-5037734D01*
X4591644Y-10752784D02*
X4591644Y-10646816D01*
X4485676Y-10646816D01*
X4485676Y-10752784D01*
X4591644Y-10752784D01*
X4593234Y-12657784D02*
X4593234Y-12551816D01*
X4487266Y-12551816D01*
X4487266Y-12657784D01*
X4593234Y-12657784D01*
X4751984Y-4783734D02*
X4751984Y-4677766D01*
X4646016Y-4677766D01*
X4646016Y-4783734D01*
X4751984Y-4783734D01*
X4831364Y-12657784D02*
X4831364Y-12551816D01*
X4725396Y-12551816D01*
X4725396Y-12657784D01*
X4831364Y-12657784D01*
X5069484Y-6942734D02*
X5069484Y-6836766D01*
X4963516Y-6836766D01*
X4963516Y-6942734D01*
X5069484Y-6942734D01*
X5226644Y-10498784D02*
X5226644Y-10392816D01*
X5120676Y-10392816D01*
X5120676Y-10498784D01*
X5226644Y-10498784D01*
X5228234Y-12403784D02*
X5228234Y-12297816D01*
X5122266Y-12297816D01*
X5122266Y-12403784D01*
X5228234Y-12403784D01*
X5466364Y-12403784D02*
X5466364Y-12297816D01*
X5360396Y-12297816D01*
X5360396Y-12403784D01*
X5466364Y-12403784D01*
X5545734Y-8847734D02*
X5545734Y-8741766D01*
X5439766Y-8741766D01*
X5439766Y-8847734D01*
X5545734Y-8847734D01*
X5704484Y-6688734D02*
X5704484Y-6582766D01*
X5598516Y-6582766D01*
X5598516Y-6688734D01*
X5704484Y-6688734D01*
X6021984Y-2238984D02*
X6021984Y-2133016D01*
X5916016Y-2133016D01*
X5916016Y-2238984D01*
X6021984Y-2238984D01*
X6021984Y-5037734D02*
X6021984Y-4931766D01*
X5916016Y-4931766D01*
X5916016Y-5037734D01*
X6021984Y-5037734D01*
X6180734Y-8593734D02*
X6180734Y-8487766D01*
X6074766Y-8487766D01*
X6074766Y-8593734D01*
X6180734Y-8593734D01*
X6498234Y-10752784D02*
X6498234Y-10646816D01*
X6392266Y-10646816D01*
X6392266Y-10752784D01*
X6498234Y-10752784D01*
X6656984Y-1984984D02*
X6656984Y-1879016D01*
X6551016Y-1879016D01*
X6551016Y-1984984D01*
X6656984Y-1984984D01*
X6656984Y-4783734D02*
X6656984Y-4677766D01*
X6551016Y-4677766D01*
X6551016Y-4783734D01*
X6656984Y-4783734D01*
X6736364Y-12657784D02*
X6736364Y-12551816D01*
X6630396Y-12551816D01*
X6630396Y-12657784D01*
X6736364Y-12657784D01*
X6974484Y-6942734D02*
X6974484Y-6836766D01*
X6868516Y-6836766D01*
X6868516Y-6942734D01*
X6974484Y-6942734D01*
X7133234Y-10498784D02*
X7133234Y-10392816D01*
X7027266Y-10392816D01*
X7027266Y-10498784D01*
X7133234Y-10498784D01*
X7212604Y-12657784D02*
X7212604Y-12551816D01*
X7106636Y-12551816D01*
X7106636Y-12657784D01*
X7212604Y-12657784D01*
X7371364Y-12403784D02*
X7371364Y-12297816D01*
X7265396Y-12297816D01*
X7265396Y-12403784D01*
X7371364Y-12403784D01*
X7450734Y-8847734D02*
X7450734Y-8741766D01*
X7344766Y-8741766D01*
X7344766Y-8847734D01*
X7450734Y-8847734D01*
X7609484Y-6688734D02*
X7609484Y-6582766D01*
X7503516Y-6582766D01*
X7503516Y-6688734D01*
X7609484Y-6688734D01*
X7847604Y-12403784D02*
X7847604Y-12297816D01*
X7741636Y-12297816D01*
X7741636Y-12403784D01*
X7847604Y-12403784D01*
X7926984Y-2238984D02*
X7926984Y-2133016D01*
X7821016Y-2133016D01*
X7821016Y-2238984D01*
X7926984Y-2238984D01*
X7926984Y-5037734D02*
X7926984Y-4931766D01*
X7821016Y-4931766D01*
X7821016Y-5037734D01*
X7926984Y-5037734D01*
X8085734Y-8593734D02*
X8085734Y-8487766D01*
X7979766Y-8487766D01*
X7979766Y-8593734D01*
X8085734Y-8593734D01*
X8403234Y-10752784D02*
X8403234Y-10646816D01*
X8297266Y-10646816D01*
X8297266Y-10752784D01*
X8403234Y-10752784D01*
X8561984Y-1984984D02*
X8561984Y-1879016D01*
X8456016Y-1879016D01*
X8456016Y-1984984D01*
X8561984Y-1984984D01*
X8561984Y-4783734D02*
X8561984Y-4677766D01*
X8456016Y-4677766D01*
X8456016Y-4783734D01*
X8561984Y-4783734D01*
X8879484Y-6942734D02*
X8879484Y-6836766D01*
X8773516Y-6836766D01*
X8773516Y-6942734D01*
X8879484Y-6942734D01*
X8879484Y-12657784D02*
X8879484Y-12551816D01*
X8773516Y-12551816D01*
X8773516Y-12657784D01*
X8879484Y-12657784D01*
X9038234Y-10498784D02*
X9038234Y-10392816D01*
X8932266Y-10392816D01*
X8932266Y-10498784D01*
X9038234Y-10498784D01*
X9355734Y-8847734D02*
X9355734Y-8741766D01*
X9249766Y-8741766D01*
X9249766Y-8847734D01*
X9355734Y-8847734D01*
X9514484Y-6688734D02*
X9514484Y-6582766D01*
X9408516Y-6582766D01*
X9408516Y-6688734D01*
X9514484Y-6688734D01*
X9514484Y-12403784D02*
X9514484Y-12297816D01*
X9408516Y-12297816D01*
X9408516Y-12403784D01*
X9514484Y-12403784D01*
X9831984Y-2238984D02*
X9831984Y-2133016D01*
X9726016Y-2133016D01*
X9726016Y-2238984D01*
X9831984Y-2238984D01*
X9831984Y-5037734D02*
X9831984Y-4931766D01*
X9726016Y-4931766D01*
X9726016Y-5037734D01*
X9831984Y-5037734D01*
X9990734Y-8593734D02*
X9990734Y-8487766D01*
X9884766Y-8487766D01*
X9884766Y-8593734D01*
X9990734Y-8593734D01*
X10308184Y-10752784D02*
X10308184Y-10646816D01*
X10202216Y-10646816D01*
X10202216Y-10752784D01*
X10308184Y-10752784D01*
X10466984Y-1984984D02*
X10466984Y-1879016D01*
X10361016Y-1879016D01*
X10361016Y-1984984D01*
X10466984Y-1984984D01*
X10466984Y-4783734D02*
X10466984Y-4677766D01*
X10361016Y-4677766D01*
X10361016Y-4783734D01*
X10466984Y-4783734D01*
X10784484Y-6942734D02*
X10784484Y-6836766D01*
X10678516Y-6836766D01*
X10678516Y-6942734D01*
X10784484Y-6942734D01*
X10943184Y-10498784D02*
X10943184Y-10392816D01*
X10837216Y-10392816D01*
X10837216Y-10498784D01*
X10943184Y-10498784D01*
X11020684Y-12657784D02*
X11020684Y-12551816D01*
X10914716Y-12551816D01*
X10914716Y-12657784D01*
X11020684Y-12657784D01*
X11260784Y-8847734D02*
X11260784Y-8741766D01*
X11154816Y-8741766D01*
X11154816Y-8847734D01*
X11260784Y-8847734D01*
X11419484Y-6688734D02*
X11419484Y-6582766D01*
X11313516Y-6582766D01*
X11313516Y-6688734D01*
X11419484Y-6688734D01*
X11655684Y-12403784D02*
X11655684Y-12297816D01*
X11549716Y-12297816D01*
X11549716Y-12403784D01*
X11655684Y-12403784D01*
X11736984Y-2238984D02*
X11736984Y-2133016D01*
X11631016Y-2133016D01*
X11631016Y-2238984D01*
X11736984Y-2238984D01*
X11736984Y-5037734D02*
X11736984Y-4931766D01*
X11631016Y-4931766D01*
X11631016Y-5037734D01*
X11736984Y-5037734D01*
X11736984Y-12657784D02*
X11736984Y-12551816D01*
X11631016Y-12551816D01*
X11631016Y-12657784D01*
X11736984Y-12657784D01*
X11895784Y-8593734D02*
X11895784Y-8487766D01*
X11789816Y-8487766D01*
X11789816Y-8593734D01*
X11895784Y-8593734D01*
X11973484Y-12657784D02*
X11973484Y-12551816D01*
X11867516Y-12551816D01*
X11867516Y-12657784D01*
X11973484Y-12657784D01*
X12213184Y-10752784D02*
X12213184Y-10646816D01*
X12107216Y-10646816D01*
X12107216Y-10752784D01*
X12213184Y-10752784D01*
X12371984Y-1984984D02*
X12371984Y-1879016D01*
X12266016Y-1879016D01*
X12266016Y-1984984D01*
X12371984Y-1984984D01*
X12371984Y-4783734D02*
X12371984Y-4677766D01*
X12266016Y-4677766D01*
X12266016Y-4783734D01*
X12371984Y-4783734D01*
X12371984Y-12403784D02*
X12371984Y-12297816D01*
X12266016Y-12297816D01*
X12266016Y-12403784D01*
X12371984Y-12403784D01*
X12608484Y-12403784D02*
X12608484Y-12297816D01*
X12502516Y-12297816D01*
X12502516Y-12403784D01*
X12608484Y-12403784D01*
X12689484Y-6942734D02*
X12689484Y-6836766D01*
X12583516Y-6836766D01*
X12583516Y-6942734D01*
X12689484Y-6942734D01*
X12848184Y-10498784D02*
X12848184Y-10392816D01*
X12742216Y-10392816D01*
X12742216Y-10498784D01*
X12848184Y-10498784D01*
X13165784Y-8847734D02*
X13165784Y-8741766D01*
X13059816Y-8741766D01*
X13059816Y-8847734D01*
X13165784Y-8847734D01*
X13324484Y-6688734D02*
X13324484Y-6582766D01*
X13218516Y-6582766D01*
X13218516Y-6688734D01*
X13324484Y-6688734D01*
X13400684Y-12657784D02*
X13400684Y-12551816D01*
X13294716Y-12551816D01*
X13294716Y-12657784D01*
X13400684Y-12657784D01*
X13641984Y-5037734D02*
X13641984Y-4931766D01*
X13536016Y-4931766D01*
X13536016Y-5037734D01*
X13641984Y-5037734D01*
X13800784Y-8593734D02*
X13800784Y-8487766D01*
X13694816Y-8487766D01*
X13694816Y-8593734D01*
X13800784Y-8593734D01*
X14035684Y-12403784D02*
X14035684Y-12297816D01*
X13929716Y-12297816D01*
X13929716Y-12403784D01*
X14035684Y-12403784D01*
X14118184Y-10752784D02*
X14118184Y-10646816D01*
X14012216Y-10646816D01*
X14012216Y-10752784D01*
X14118184Y-10752784D01*
X14118184Y-12657784D02*
X14118184Y-12551816D01*
X14012216Y-12551816D01*
X14012216Y-12657784D01*
X14118184Y-12657784D01*
X14276984Y-4783734D02*
X14276984Y-4677766D01*
X14171016Y-4677766D01*
X14171016Y-4783734D01*
X14276984Y-4783734D01*
X14356384Y-12657784D02*
X14356384Y-12551816D01*
X14250416Y-12551816D01*
X14250416Y-12657784D01*
X14356384Y-12657784D01*
X14594484Y-2238984D02*
X14594484Y-2133016D01*
X14488516Y-2133016D01*
X14488516Y-2238984D01*
X14594484Y-2238984D01*
X14594484Y-6942734D02*
X14594484Y-6836766D01*
X14488516Y-6836766D01*
X14488516Y-6942734D01*
X14594484Y-6942734D01*
X14753184Y-10498784D02*
X14753184Y-10392816D01*
X14647216Y-10392816D01*
X14647216Y-10498784D01*
X14753184Y-10498784D01*
X14753184Y-12403784D02*
X14753184Y-12297816D01*
X14647216Y-12297816D01*
X14647216Y-12403784D01*
X14753184Y-12403784D01*
X14832584Y-12657784D02*
X14832584Y-12551816D01*
X14726616Y-12551816D01*
X14726616Y-12657784D01*
X14832584Y-12657784D01*
X14991384Y-12403784D02*
X14991384Y-12297816D01*
X14885416Y-12297816D01*
X14885416Y-12403784D01*
X14991384Y-12403784D01*
X15070784Y-8847734D02*
X15070784Y-8741766D01*
X14964816Y-8741766D01*
X14964816Y-8847734D01*
X15070784Y-8847734D01*
X15229484Y-1984984D02*
X15229484Y-1879016D01*
X15123516Y-1879016D01*
X15123516Y-1984984D01*
X15229484Y-1984984D01*
X15229484Y-6688734D02*
X15229484Y-6582766D01*
X15123516Y-6582766D01*
X15123516Y-6688734D01*
X15229484Y-6688734D01*
X15467584Y-12403784D02*
X15467584Y-12297816D01*
X15361616Y-12297816D01*
X15361616Y-12403784D01*
X15467584Y-12403784D01*
X15546984Y-5037734D02*
X15546984Y-4931766D01*
X15441016Y-4931766D01*
X15441016Y-5037734D01*
X15546984Y-5037734D01*
X15705784Y-8593734D02*
X15705784Y-8487766D01*
X15599816Y-8487766D01*
X15599816Y-8593734D01*
X15705784Y-8593734D01*
X16023184Y-10752784D02*
X16023184Y-10646816D01*
X15917216Y-10646816D01*
X15917216Y-10752784D01*
X16023184Y-10752784D01*
X16181984Y-4783734D02*
X16181984Y-4677766D01*
X16076016Y-4677766D01*
X16076016Y-4783734D01*
X16181984Y-4783734D01*
X16261384Y-12657784D02*
X16261384Y-12551816D01*
X16155416Y-12551816D01*
X16155416Y-12657784D01*
X16261384Y-12657784D01*
X16499184Y-12657784D02*
X16499184Y-12551816D01*
X16393216Y-12551816D01*
X16393216Y-12657784D01*
X16499184Y-12657784D01*
X16499484Y-2238984D02*
X16499484Y-2133016D01*
X16393516Y-2133016D01*
X16393516Y-2238984D01*
X16499484Y-2238984D01*
X16499484Y-6942734D02*
X16499484Y-6836766D01*
X16393516Y-6836766D01*
X16393516Y-6942734D01*
X16499484Y-6942734D01*
X16658184Y-10498784D02*
X16658184Y-10392816D01*
X16552216Y-10392816D01*
X16552216Y-10498784D01*
X16658184Y-10498784D01*
X16896384Y-12403784D02*
X16896384Y-12297816D01*
X16790416Y-12297816D01*
X16790416Y-12403784D01*
X16896384Y-12403784D01*
X16975784Y-8847734D02*
X16975784Y-8741766D01*
X16869816Y-8741766D01*
X16869816Y-8847734D01*
X16975784Y-8847734D01*
X17134184Y-12403784D02*
X17134184Y-12297816D01*
X17028216Y-12297816D01*
X17028216Y-12403784D01*
X17134184Y-12403784D01*
X17134484Y-1984984D02*
X17134484Y-1879016D01*
X17028516Y-1879016D01*
X17028516Y-1984984D01*
X17134484Y-1984984D01*
X17134484Y-6688734D02*
X17134484Y-6582766D01*
X17028516Y-6582766D01*
X17028516Y-6688734D01*
X17134484Y-6688734D01*
X17214484Y-12657784D02*
X17214484Y-12551816D01*
X17108516Y-12551816D01*
X17108516Y-12657784D01*
X17214484Y-12657784D01*
X17451984Y-5037734D02*
X17451984Y-4931766D01*
X17346016Y-4931766D01*
X17346016Y-5037734D01*
X17451984Y-5037734D01*
X17610784Y-8593734D02*
X17610784Y-8487766D01*
X17504816Y-8487766D01*
X17504816Y-8593734D01*
X17610784Y-8593734D01*
X17849484Y-12403784D02*
X17849484Y-12297816D01*
X17743516Y-12297816D01*
X17743516Y-12403784D01*
X17849484Y-12403784D01*
X17928184Y-10752784D02*
X17928184Y-10646816D01*
X17822216Y-10646816D01*
X17822216Y-10752784D01*
X17928184Y-10752784D01*
X18086984Y-4783734D02*
X18086984Y-4677766D01*
X17981016Y-4677766D01*
X17981016Y-4783734D01*
X18086984Y-4783734D01*
X18404484Y-2238984D02*
X18404484Y-2133016D01*
X18298516Y-2133016D01*
X18298516Y-2238984D01*
X18404484Y-2238984D01*
X18404484Y-6942734D02*
X18404484Y-6836766D01*
X18298516Y-6836766D01*
X18298516Y-6942734D01*
X18404484Y-6942734D01*
X18563184Y-10498784D02*
X18563184Y-10392816D01*
X18457216Y-10392816D01*
X18457216Y-10498784D01*
X18563184Y-10498784D01*
X18880784Y-8847734D02*
X18880784Y-8741766D01*
X18774816Y-8741766D01*
X18774816Y-8847734D01*
X18880784Y-8847734D01*
X19039484Y-1984984D02*
X19039484Y-1879016D01*
X18933516Y-1879016D01*
X18933516Y-1984984D01*
X19039484Y-1984984D01*
X19039484Y-6688734D02*
X19039484Y-6582766D01*
X18933516Y-6582766D01*
X18933516Y-6688734D01*
X19039484Y-6688734D01*
X19356984Y-5037734D02*
X19356984Y-4931766D01*
X19251016Y-4931766D01*
X19251016Y-5037734D01*
X19356984Y-5037734D01*
X19515784Y-8593734D02*
X19515784Y-8487766D01*
X19409816Y-8487766D01*
X19409816Y-8593734D01*
X19515784Y-8593734D01*
X19594884Y-12657784D02*
X19594884Y-12551816D01*
X19488916Y-12551816D01*
X19488916Y-12657784D01*
X19594884Y-12657784D01*
X19833184Y-10752784D02*
X19833184Y-10646816D01*
X19727216Y-10646816D01*
X19727216Y-10752784D01*
X19833184Y-10752784D01*
X19991984Y-4783734D02*
X19991984Y-4677766D01*
X19886016Y-4677766D01*
X19886016Y-4783734D01*
X19991984Y-4783734D01*
X20229884Y-12403784D02*
X20229884Y-12297816D01*
X20123916Y-12297816D01*
X20123916Y-12403784D01*
X20229884Y-12403784D01*
X20309484Y-2238984D02*
X20309484Y-2133016D01*
X20203516Y-2133016D01*
X20203516Y-2238984D01*
X20309484Y-2238984D01*
X20309484Y-6942734D02*
X20309484Y-6836766D01*
X20203516Y-6836766D01*
X20203516Y-6942734D01*
X20309484Y-6942734D01*
X20468184Y-10498784D02*
X20468184Y-10392816D01*
X20362216Y-10392816D01*
X20362216Y-10498784D01*
X20468184Y-10498784D01*
X20785784Y-8847734D02*
X20785784Y-8741766D01*
X20679816Y-8741766D01*
X20679816Y-8847734D01*
X20785784Y-8847734D01*
X20944484Y-1984984D02*
X20944484Y-1879016D01*
X20838516Y-1879016D01*
X20838516Y-1984984D01*
X20944484Y-1984984D01*
X20944484Y-6688734D02*
X20944484Y-6582766D01*
X20838516Y-6582766D01*
X20838516Y-6688734D01*
X20944484Y-6688734D01*
X21261984Y-5037734D02*
X21261984Y-4931766D01*
X21156016Y-4931766D01*
X21156016Y-5037734D01*
X21261984Y-5037734D01*
X21420784Y-8593734D02*
X21420784Y-8487766D01*
X21314816Y-8487766D01*
X21314816Y-8593734D01*
X21420784Y-8593734D01*
X21500084Y-12657784D02*
X21500084Y-12551816D01*
X21394116Y-12551816D01*
X21394116Y-12657784D01*
X21500084Y-12657784D01*
X21738184Y-10752784D02*
X21738184Y-10646816D01*
X21632216Y-10646816D01*
X21632216Y-10752784D01*
X21738184Y-10752784D01*
X21896984Y-4783734D02*
X21896984Y-4677766D01*
X21791016Y-4677766D01*
X21791016Y-4783734D01*
X21896984Y-4783734D01*
X21977584Y-12657784D02*
X21977584Y-12551816D01*
X21871616Y-12551816D01*
X21871616Y-12657784D01*
X21977584Y-12657784D01*
X22135084Y-12403784D02*
X22135084Y-12297816D01*
X22029116Y-12297816D01*
X22029116Y-12403784D01*
X22135084Y-12403784D01*
X22214484Y-6942734D02*
X22214484Y-6836766D01*
X22108516Y-6836766D01*
X22108516Y-6942734D01*
X22214484Y-6942734D01*
X22373184Y-10498784D02*
X22373184Y-10392816D01*
X22267216Y-10392816D01*
X22267216Y-10498784D01*
X22373184Y-10498784D01*
X22612584Y-12403784D02*
X22612584Y-12297816D01*
X22506616Y-12297816D01*
X22506616Y-12403784D01*
X22612584Y-12403784D01*
X22690784Y-8847734D02*
X22690784Y-8741766D01*
X22584816Y-8741766D01*
X22584816Y-8847734D01*
X22690784Y-8847734D01*
X22849484Y-6688734D02*
X22849484Y-6582766D01*
X22743516Y-6582766D01*
X22743516Y-6688734D01*
X22849484Y-6688734D01*
X23166984Y-2238984D02*
X23166984Y-2133016D01*
X23061016Y-2133016D01*
X23061016Y-2238984D01*
X23166984Y-2238984D01*
X23166984Y-5037734D02*
X23166984Y-4931766D01*
X23061016Y-4931766D01*
X23061016Y-5037734D01*
X23166984Y-5037734D01*
X23325784Y-8593734D02*
X23325784Y-8487766D01*
X23219816Y-8487766D01*
X23219816Y-8593734D01*
X23325784Y-8593734D01*
X23643184Y-10752784D02*
X23643184Y-10646816D01*
X23537216Y-10646816D01*
X23537216Y-10752784D01*
X23643184Y-10752784D01*
X23801984Y-1984984D02*
X23801984Y-1879016D01*
X23696016Y-1879016D01*
X23696016Y-1984984D01*
X23801984Y-1984984D01*
X23801984Y-4783734D02*
X23801984Y-4677766D01*
X23696016Y-4677766D01*
X23696016Y-4783734D01*
X23801984Y-4783734D01*
X23881384Y-12657784D02*
X23881384Y-12551816D01*
X23775416Y-12551816D01*
X23775416Y-12657784D01*
X23881384Y-12657784D01*
X24119484Y-6942734D02*
X24119484Y-6836766D01*
X24013516Y-6836766D01*
X24013516Y-6942734D01*
X24119484Y-6942734D01*
X24278184Y-10498784D02*
X24278184Y-10392816D01*
X24172216Y-10392816D01*
X24172216Y-10498784D01*
X24278184Y-10498784D01*
X24357584Y-12657784D02*
X24357584Y-12551816D01*
X24251616Y-12551816D01*
X24251616Y-12657784D01*
X24357584Y-12657784D01*
X24516384Y-12403784D02*
X24516384Y-12297816D01*
X24410416Y-12297816D01*
X24410416Y-12403784D01*
X24516384Y-12403784D01*
X24595784Y-8847734D02*
X24595784Y-8741766D01*
X24489816Y-8741766D01*
X24489816Y-8847734D01*
X24595784Y-8847734D01*
X24754484Y-6688734D02*
X24754484Y-6582766D01*
X24648516Y-6582766D01*
X24648516Y-6688734D01*
X24754484Y-6688734D01*
X24992584Y-12403784D02*
X24992584Y-12297816D01*
X24886616Y-12297816D01*
X24886616Y-12403784D01*
X24992584Y-12403784D01*
X25071984Y-2238984D02*
X25071984Y-2133016D01*
X24966016Y-2133016D01*
X24966016Y-2238984D01*
X25071984Y-2238984D01*
X25071984Y-5037734D02*
X25071984Y-4931766D01*
X24966016Y-4931766D01*
X24966016Y-5037734D01*
X25071984Y-5037734D01*
X25230784Y-8593734D02*
X25230784Y-8487766D01*
X25124816Y-8487766D01*
X25124816Y-8593734D01*
X25230784Y-8593734D01*
X25548184Y-10752784D02*
X25548184Y-10646816D01*
X25442216Y-10646816D01*
X25442216Y-10752784D01*
X25548184Y-10752784D01*
X25706984Y-1984984D02*
X25706984Y-1879016D01*
X25601016Y-1879016D01*
X25601016Y-1984984D01*
X25706984Y-1984984D01*
X25706984Y-4783734D02*
X25706984Y-4677766D01*
X25601016Y-4677766D01*
X25601016Y-4783734D01*
X25706984Y-4783734D01*
X26024484Y-6942734D02*
X26024484Y-6836766D01*
X25918516Y-6836766D01*
X25918516Y-6942734D01*
X26024484Y-6942734D01*
X26183184Y-10498784D02*
X26183184Y-10392816D01*
X26077216Y-10392816D01*
X26077216Y-10498784D01*
X26183184Y-10498784D01*
X26262584Y-12657784D02*
X26262584Y-12551816D01*
X26156616Y-12551816D01*
X26156616Y-12657784D01*
X26262584Y-12657784D01*
X26500784Y-8847734D02*
X26500784Y-8741766D01*
X26394816Y-8741766D01*
X26394816Y-8847734D01*
X26500784Y-8847734D01*
X26500784Y-12657784D02*
X26500784Y-12551816D01*
X26394816Y-12551816D01*
X26394816Y-12657784D01*
X26500784Y-12657784D01*
X26659484Y-6688734D02*
X26659484Y-6582766D01*
X26553516Y-6582766D01*
X26553516Y-6688734D01*
X26659484Y-6688734D01*
X26897584Y-12403784D02*
X26897584Y-12297816D01*
X26791616Y-12297816D01*
X26791616Y-12403784D01*
X26897584Y-12403784D01*
X26976984Y-2238984D02*
X26976984Y-2133016D01*
X26871016Y-2133016D01*
X26871016Y-2238984D01*
X26976984Y-2238984D01*
X26976984Y-5037734D02*
X26976984Y-4931766D01*
X26871016Y-4931766D01*
X26871016Y-5037734D01*
X26976984Y-5037734D01*
X27135784Y-8593734D02*
X27135784Y-8487766D01*
X27029816Y-8487766D01*
X27029816Y-8593734D01*
X27135784Y-8593734D01*
X27135784Y-12403784D02*
X27135784Y-12297816D01*
X27029816Y-12297816D01*
X27029816Y-12403784D01*
X27135784Y-12403784D01*
X27213484Y-10752784D02*
X27213484Y-10646816D01*
X27107516Y-10646816D01*
X27107516Y-10752784D01*
X27213484Y-10752784D01*
X27611984Y-1984984D02*
X27611984Y-1879016D01*
X27506016Y-1879016D01*
X27506016Y-1984984D01*
X27611984Y-1984984D01*
X27611984Y-4783734D02*
X27611984Y-4677766D01*
X27506016Y-4677766D01*
X27506016Y-4783734D01*
X27611984Y-4783734D01*
X27691484Y-8847734D02*
X27691484Y-8741766D01*
X27585516Y-8741766D01*
X27585516Y-8847734D01*
X27691484Y-8847734D01*
X27848484Y-10498784D02*
X27848484Y-10392816D01*
X27742516Y-10392816D01*
X27742516Y-10498784D01*
X27848484Y-10498784D01*
X27929484Y-5037734D02*
X27929484Y-4931766D01*
X27823516Y-4931766D01*
X27823516Y-5037734D01*
X27929484Y-5037734D01*
X28167584Y-10752784D02*
X28167584Y-10646816D01*
X28061616Y-10646816D01*
X28061616Y-10752784D01*
X28167584Y-10752784D01*
X28326484Y-8593734D02*
X28326484Y-8487766D01*
X28220516Y-8487766D01*
X28220516Y-8593734D01*
X28326484Y-8593734D01*
X28405784Y-6942734D02*
X28405784Y-6836766D01*
X28299816Y-6836766D01*
X28299816Y-6942734D01*
X28405784Y-6942734D01*
X28518484Y-7895234D02*
X28518484Y-7789266D01*
X28412516Y-7789266D01*
X28412516Y-7895234D01*
X28518484Y-7895234D01*
X28564484Y-4783734D02*
X28564484Y-4677766D01*
X28458516Y-4677766D01*
X28458516Y-4783734D01*
X28564484Y-4783734D01*
X28642884Y-12657784D02*
X28642884Y-12551816D01*
X28536916Y-12551816D01*
X28536916Y-12657784D01*
X28642884Y-12657784D01*
X28772484Y-8530234D02*
X28772484Y-8424266D01*
X28666516Y-8424266D01*
X28666516Y-8530234D01*
X28772484Y-8530234D01*
X28802584Y-10498784D02*
X28802584Y-10392816D01*
X28696616Y-10392816D01*
X28696616Y-10498784D01*
X28802584Y-10498784D01*
X28881984Y-2238984D02*
X28881984Y-2133016D01*
X28776016Y-2133016D01*
X28776016Y-2238984D01*
X28881984Y-2238984D01*
X28881984Y-5037734D02*
X28881984Y-4931766D01*
X28776016Y-4931766D01*
X28776016Y-5037734D01*
X28881984Y-5037734D01*
X29040784Y-6688734D02*
X29040784Y-6582766D01*
X28934816Y-6582766D01*
X28934816Y-6688734D01*
X29040784Y-6688734D01*
X29277884Y-12403784D02*
X29277884Y-12297816D01*
X29171916Y-12297816D01*
X29171916Y-12403784D01*
X29277884Y-12403784D01*
X29516984Y-1984984D02*
X29516984Y-1879016D01*
X29411016Y-1879016D01*
X29411016Y-1984984D01*
X29516984Y-1984984D01*
X29516984Y-4783734D02*
X29516984Y-4677766D01*
X29411016Y-4677766D01*
X29411016Y-4783734D01*
X29516984Y-4783734D01*
X31288184Y-2238984D02*
X31288184Y-2133016D01*
X31182216Y-2133016D01*
X31182216Y-2238984D01*
X31288184Y-2238984D01*
X31288184Y-5037734D02*
X31288184Y-4931766D01*
X31182216Y-4931766D01*
X31182216Y-5037734D01*
X31288184Y-5037734D01*
X31288184Y-6942734D02*
X31288184Y-6836766D01*
X31182216Y-6836766D01*
X31182216Y-6942734D01*
X31288184Y-6942734D01*
X31288184Y-12657784D02*
X31288184Y-12551816D01*
X31182216Y-12551816D01*
X31182216Y-12657784D01*
X31288184Y-12657784D01*
X31923184Y-1984984D02*
X31923184Y-1879016D01*
X31817216Y-1879016D01*
X31817216Y-1984984D01*
X31923184Y-1984984D01*
X31923184Y-4783734D02*
X31923184Y-4677766D01*
X31817216Y-4677766D01*
X31817216Y-4783734D01*
X31923184Y-4783734D01*
X31923184Y-6688734D02*
X31923184Y-6582766D01*
X31817216Y-6582766D01*
X31817216Y-6688734D01*
X31923184Y-6688734D01*
X31923184Y-12403784D02*
X31923184Y-12297816D01*
X31817216Y-12297816D01*
X31817216Y-12403784D01*
X31923184Y-12403784D01*
X33193184Y-2238984D02*
X33193184Y-2133016D01*
X33087216Y-2133016D01*
X33087216Y-2238984D01*
X33193184Y-2238984D01*
X33193184Y-5037734D02*
X33193184Y-4931766D01*
X33087216Y-4931766D01*
X33087216Y-5037734D01*
X33193184Y-5037734D01*
X33193184Y-6942734D02*
X33193184Y-6836766D01*
X33087216Y-6836766D01*
X33087216Y-6942734D01*
X33193184Y-6942734D01*
X33193184Y-10752784D02*
X33193184Y-10646816D01*
X33087216Y-10646816D01*
X33087216Y-10752784D01*
X33193184Y-10752784D01*
X33193184Y-12657784D02*
X33193184Y-12551816D01*
X33087216Y-12551816D01*
X33087216Y-12657784D01*
X33193184Y-12657784D01*
X33828184Y-1984984D02*
X33828184Y-1879016D01*
X33722216Y-1879016D01*
X33722216Y-1984984D01*
X33828184Y-1984984D01*
X33828184Y-4783734D02*
X33828184Y-4677766D01*
X33722216Y-4677766D01*
X33722216Y-4783734D01*
X33828184Y-4783734D01*
X33828184Y-6688734D02*
X33828184Y-6582766D01*
X33722216Y-6582766D01*
X33722216Y-6688734D01*
X33828184Y-6688734D01*
X33828184Y-10498784D02*
X33828184Y-10392816D01*
X33722216Y-10392816D01*
X33722216Y-10498784D01*
X33828184Y-10498784D01*
X33828184Y-12403784D02*
X33828184Y-12297816D01*
X33722216Y-12297816D01*
X33722216Y-12403784D01*
X33828184Y-12403784D01*
X35098184Y-2238984D02*
X35098184Y-2133016D01*
X34992216Y-2133016D01*
X34992216Y-2238984D01*
X35098184Y-2238984D01*
X35098184Y-5037734D02*
X35098184Y-4931766D01*
X34992216Y-4931766D01*
X34992216Y-5037734D01*
X35098184Y-5037734D01*
X35098184Y-6942734D02*
X35098184Y-6836766D01*
X34992216Y-6836766D01*
X34992216Y-6942734D01*
X35098184Y-6942734D01*
X35098184Y-12657784D02*
X35098184Y-12551816D01*
X34992216Y-12551816D01*
X34992216Y-12657784D01*
X35098184Y-12657784D01*
X35733184Y-1984984D02*
X35733184Y-1879016D01*
X35627216Y-1879016D01*
X35627216Y-1984984D01*
X35733184Y-1984984D01*
X35733184Y-4783734D02*
X35733184Y-4677766D01*
X35627216Y-4677766D01*
X35627216Y-4783734D01*
X35733184Y-4783734D01*
X35733184Y-6688734D02*
X35733184Y-6582766D01*
X35627216Y-6582766D01*
X35627216Y-6688734D01*
X35733184Y-6688734D01*
X35733184Y-12403784D02*
X35733184Y-12297816D01*
X35627216Y-12297816D01*
X35627216Y-12403784D01*
X35733184Y-12403784D01*
X37504484Y-5037734D02*
X37504484Y-4931766D01*
X37398516Y-4931766D01*
X37398516Y-5037734D01*
X37504484Y-5037734D01*
X37504484Y-6942734D02*
X37504484Y-6836766D01*
X37398516Y-6836766D01*
X37398516Y-6942734D01*
X37504484Y-6942734D01*
X37504484Y-8847734D02*
X37504484Y-8741766D01*
X37398516Y-8741766D01*
X37398516Y-8847734D01*
X37504484Y-8847734D01*
X37504484Y-10752784D02*
X37504484Y-10646816D01*
X37398516Y-10646816D01*
X37398516Y-10752784D01*
X37504484Y-10752784D01*
X38139484Y-4783734D02*
X38139484Y-4677766D01*
X38033516Y-4677766D01*
X38033516Y-4783734D01*
X38139484Y-4783734D01*
X38139484Y-6688734D02*
X38139484Y-6582766D01*
X38033516Y-6582766D01*
X38033516Y-6688734D01*
X38139484Y-6688734D01*
X38139484Y-8593734D02*
X38139484Y-8487766D01*
X38033516Y-8487766D01*
X38033516Y-8593734D01*
X38139484Y-8593734D01*
X38139484Y-10498784D02*
X38139484Y-10392816D01*
X38033516Y-10392816D01*
X38033516Y-10498784D01*
X38139484Y-10498784D01*
X38456984Y-12657784D02*
X38456984Y-12551816D01*
X38351016Y-12551816D01*
X38351016Y-12657784D01*
X38456984Y-12657784D01*
X39091984Y-12403784D02*
X39091984Y-12297816D01*
X38986016Y-12297816D01*
X38986016Y-12403784D01*
X39091984Y-12403784D01*
X39409484Y-5037734D02*
X39409484Y-4931766D01*
X39303516Y-4931766D01*
X39303516Y-5037734D01*
X39409484Y-5037734D01*
X39409484Y-6942734D02*
X39409484Y-6836766D01*
X39303516Y-6836766D01*
X39303516Y-6942734D01*
X39409484Y-6942734D01*
X39409484Y-8847734D02*
X39409484Y-8741766D01*
X39303516Y-8741766D01*
X39303516Y-8847734D01*
X39409484Y-8847734D01*
X39409484Y-10752784D02*
X39409484Y-10646816D01*
X39303516Y-10646816D01*
X39303516Y-10752784D01*
X39409484Y-10752784D01*
X40044484Y-4783734D02*
X40044484Y-4677766D01*
X39938516Y-4677766D01*
X39938516Y-4783734D01*
X40044484Y-4783734D01*
X40044484Y-6688734D02*
X40044484Y-6582766D01*
X39938516Y-6582766D01*
X39938516Y-6688734D01*
X40044484Y-6688734D01*
X40044484Y-8593734D02*
X40044484Y-8487766D01*
X39938516Y-8487766D01*
X39938516Y-8593734D01*
X40044484Y-8593734D01*
X40044484Y-10498784D02*
X40044484Y-10392816D01*
X39938516Y-10392816D01*
X39938516Y-10498784D01*
X40044484Y-10498784D01*
X41314484Y-5037734D02*
X41314484Y-4931766D01*
X41208516Y-4931766D01*
X41208516Y-5037734D01*
X41314484Y-5037734D01*
X41314484Y-6942734D02*
X41314484Y-6836766D01*
X41208516Y-6836766D01*
X41208516Y-6942734D01*
X41314484Y-6942734D01*
X41314484Y-8847734D02*
X41314484Y-8741766D01*
X41208516Y-8741766D01*
X41208516Y-8847734D01*
X41314484Y-8847734D01*
X41314484Y-10752784D02*
X41314484Y-10646816D01*
X41208516Y-10646816D01*
X41208516Y-10752784D01*
X41314484Y-10752784D01*
X41314484Y-12657784D02*
X41314484Y-12551816D01*
X41208516Y-12551816D01*
X41208516Y-12657784D01*
X41314484Y-12657784D01*
X41949484Y-4783734D02*
X41949484Y-4677766D01*
X41843516Y-4677766D01*
X41843516Y-4783734D01*
X41949484Y-4783734D01*
X41949484Y-6688734D02*
X41949484Y-6582766D01*
X41843516Y-6582766D01*
X41843516Y-6688734D01*
X41949484Y-6688734D01*
X41949484Y-8593734D02*
X41949484Y-8487766D01*
X41843516Y-8487766D01*
X41843516Y-8593734D01*
X41949484Y-8593734D01*
X41949484Y-10498784D02*
X41949484Y-10392816D01*
X41843516Y-10392816D01*
X41843516Y-10498784D01*
X41949484Y-10498784D01*
X41949484Y-12403784D02*
X41949484Y-12297816D01*
X41843516Y-12297816D01*
X41843516Y-12403784D01*
X41949484Y-12403784D01*
X43092484Y-7895234D02*
X43092484Y-7789266D01*
X42986516Y-7789266D01*
X42986516Y-7895234D01*
X43092484Y-7895234D01*
X43092484Y-11705184D02*
X43092484Y-11599216D01*
X42986516Y-11599216D01*
X42986516Y-11705184D01*
X43092484Y-11705184D01*
X43219484Y-5037734D02*
X43219484Y-4931766D01*
X43113516Y-4931766D01*
X43113516Y-5037734D01*
X43219484Y-5037734D01*
X43346484Y-8530234D02*
X43346484Y-8424266D01*
X43240516Y-8424266D01*
X43240516Y-8530234D01*
X43346484Y-8530234D01*
X43346484Y-12340184D02*
X43346484Y-12234216D01*
X43240516Y-12234216D01*
X43240516Y-12340184D01*
X43346484Y-12340184D01*
X43854484Y-4783734D02*
X43854484Y-4677766D01*
X43748516Y-4677766D01*
X43748516Y-4783734D01*
X43854484Y-4783734D01*
D13*
X1978428Y-14189214D02*
X1978428Y-13889214D01*
X2049857Y-13889214D01*
X2092714Y-13903500D01*
X2121286Y-13932071D01*
X2135571Y-13960643D01*
X2149857Y-14017786D01*
X2149857Y-14060643D01*
X2135571Y-14117786D01*
X2121286Y-14146357D01*
X2092714Y-14174929D01*
X2049857Y-14189214D01*
X1978428Y-14189214D01*
X2278429Y-14189214D02*
X2278429Y-13989214D01*
X2278429Y-14046357D02*
X2292714Y-14017786D01*
X2307000Y-14003500D01*
X2335571Y-13989214D01*
X2364143Y-13989214D01*
X2464143Y-14189214D02*
X2464143Y-13989214D01*
X2464143Y-13889214D02*
X2449857Y-13903500D01*
X2464143Y-13917786D01*
X2478429Y-13903500D01*
X2464143Y-13889214D01*
X2464143Y-13917786D01*
X2649857Y-14189214D02*
X2621286Y-14174929D01*
X2607000Y-14146357D01*
X2607000Y-13889214D01*
X2807000Y-14189214D02*
X2778429Y-14174929D01*
X2764143Y-14146357D01*
X2764143Y-13889214D01*
X3149857Y-14189214D02*
X3149857Y-13889214D01*
X3249857Y-14103500D01*
X3349857Y-13889214D01*
X3349857Y-14189214D01*
X3621286Y-14189214D02*
X3621286Y-14032071D01*
X3607000Y-14003500D01*
X3578428Y-13989214D01*
X3521286Y-13989214D01*
X3492714Y-14003500D01*
X3621286Y-14174929D02*
X3592714Y-14189214D01*
X3521286Y-14189214D01*
X3492714Y-14174929D01*
X3478428Y-14146357D01*
X3478428Y-14117786D01*
X3492714Y-14089214D01*
X3521286Y-14074929D01*
X3592714Y-14074929D01*
X3621286Y-14060643D01*
X3764143Y-13989214D02*
X3764143Y-14289214D01*
X3764143Y-14003500D02*
X3792714Y-13989214D01*
X3849857Y-13989214D01*
X3878428Y-14003500D01*
X3892714Y-14017786D01*
X3907000Y-14046357D01*
X3907000Y-14132071D01*
X3892714Y-14160643D01*
X3878428Y-14174929D01*
X3849857Y-14189214D01*
X3792714Y-14189214D01*
X3764143Y-14174929D01*
X4035571Y-14160643D02*
X4049857Y-14174929D01*
X4035571Y-14189214D01*
X4021286Y-14174929D01*
X4035571Y-14160643D01*
X4035571Y-14189214D01*
X4035571Y-14003500D02*
X4049857Y-14017786D01*
X4035571Y-14032071D01*
X4021286Y-14017786D01*
X4035571Y-14003500D01*
X4035571Y-14032071D01*
X1672000Y-14666000D02*
X1707000Y-14701000D01*
X1707000Y-14666000D02*
X1672000Y-14701000D01*
X2035571Y-14519214D02*
X2064143Y-14519214D01*
X2092714Y-14533500D01*
X2107000Y-14547786D01*
X2121286Y-14576357D01*
X2135571Y-14633500D01*
X2135571Y-14704929D01*
X2121286Y-14762071D01*
X2107000Y-14790643D01*
X2092714Y-14804929D01*
X2064143Y-14819214D01*
X2035571Y-14819214D01*
X2007000Y-14804929D01*
X1992714Y-14790643D01*
X1978428Y-14762071D01*
X1964143Y-14704929D01*
X1964143Y-14633500D01*
X1978428Y-14576357D01*
X1992714Y-14547786D01*
X2007000Y-14533500D01*
X2035571Y-14519214D01*
X2264143Y-14790643D02*
X2278429Y-14804929D01*
X2264143Y-14819214D01*
X2249857Y-14804929D01*
X2264143Y-14790643D01*
X2264143Y-14819214D01*
X2378428Y-14519214D02*
X2564143Y-14519214D01*
X2464143Y-14633500D01*
X2507000Y-14633500D01*
X2535571Y-14647786D01*
X2549857Y-14662071D01*
X2564143Y-14690643D01*
X2564143Y-14762071D01*
X2549857Y-14790643D01*
X2535571Y-14804929D01*
X2507000Y-14819214D01*
X2421286Y-14819214D01*
X2392714Y-14804929D01*
X2378428Y-14790643D01*
X2835571Y-14519214D02*
X2692714Y-14519214D01*
X2678429Y-14662071D01*
X2692714Y-14647786D01*
X2721286Y-14633500D01*
X2792714Y-14633500D01*
X2821286Y-14647786D01*
X2835571Y-14662071D01*
X2849857Y-14690643D01*
X2849857Y-14762071D01*
X2835571Y-14790643D01*
X2821286Y-14804929D01*
X2792714Y-14819214D01*
X2721286Y-14819214D01*
X2692714Y-14804929D01*
X2678429Y-14790643D01*
X2978428Y-14819214D02*
X2978428Y-14619214D01*
X2978428Y-14647786D02*
X2992714Y-14633500D01*
X3021286Y-14619214D01*
X3064143Y-14619214D01*
X3092714Y-14633500D01*
X3107000Y-14662071D01*
X3107000Y-14819214D01*
X3107000Y-14662071D02*
X3121286Y-14633500D01*
X3149857Y-14619214D01*
X3192714Y-14619214D01*
X3221286Y-14633500D01*
X3235571Y-14662071D01*
X3235571Y-14819214D01*
X3378428Y-14819214D02*
X3378428Y-14619214D01*
X3378428Y-14647786D02*
X3392714Y-14633500D01*
X3421286Y-14619214D01*
X3464143Y-14619214D01*
X3492714Y-14633500D01*
X3507000Y-14662071D01*
X3507000Y-14819214D01*
X3507000Y-14662071D02*
X3521286Y-14633500D01*
X3549857Y-14619214D01*
X3592714Y-14619214D01*
X3621286Y-14633500D01*
X3635571Y-14662071D01*
X3635571Y-14819214D01*
X4221286Y-14504929D02*
X3964143Y-14890643D01*
X4607000Y-14519214D02*
X4635571Y-14519214D01*
X4664143Y-14533500D01*
X4678428Y-14547786D01*
X4692714Y-14576357D01*
X4707000Y-14633500D01*
X4707000Y-14704929D01*
X4692714Y-14762071D01*
X4678428Y-14790643D01*
X4664143Y-14804929D01*
X4635571Y-14819214D01*
X4607000Y-14819214D01*
X4578428Y-14804929D01*
X4564143Y-14790643D01*
X4549857Y-14762071D01*
X4535571Y-14704929D01*
X4535571Y-14633500D01*
X4549857Y-14576357D01*
X4564143Y-14547786D01*
X4578428Y-14533500D01*
X4607000Y-14519214D01*
X4835571Y-14790643D02*
X4849857Y-14804929D01*
X4835571Y-14819214D01*
X4821286Y-14804929D01*
X4835571Y-14790643D01*
X4835571Y-14819214D01*
X5035571Y-14519214D02*
X5064143Y-14519214D01*
X5092714Y-14533500D01*
X5107000Y-14547786D01*
X5121286Y-14576357D01*
X5135571Y-14633500D01*
X5135571Y-14704929D01*
X5121286Y-14762071D01*
X5107000Y-14790643D01*
X5092714Y-14804929D01*
X5064143Y-14819214D01*
X5035571Y-14819214D01*
X5007000Y-14804929D01*
X4992714Y-14790643D01*
X4978428Y-14762071D01*
X4964143Y-14704929D01*
X4964143Y-14633500D01*
X4978428Y-14576357D01*
X4992714Y-14547786D01*
X5007000Y-14533500D01*
X5035571Y-14519214D01*
X5421286Y-14819214D02*
X5249857Y-14819214D01*
X5335571Y-14819214D02*
X5335571Y-14519214D01*
X5307000Y-14562071D01*
X5278428Y-14590643D01*
X5249857Y-14604929D01*
X5678428Y-14619214D02*
X5678428Y-14819214D01*
X5607000Y-14504929D02*
X5535571Y-14719214D01*
X5721285Y-14719214D01*
X5821286Y-14519214D02*
X5821286Y-14576357D01*
X5935571Y-14519214D02*
X5935571Y-14576357D01*
X6378428Y-14933500D02*
X6364143Y-14919214D01*
X6335571Y-14876357D01*
X6321285Y-14847786D01*
X6307000Y-14804929D01*
X6292714Y-14733500D01*
X6292714Y-14676357D01*
X6307000Y-14604929D01*
X6321285Y-14562071D01*
X6335571Y-14533500D01*
X6364143Y-14490643D01*
X6378428Y-14476357D01*
X6621285Y-14519214D02*
X6564143Y-14519214D01*
X6535571Y-14533500D01*
X6521285Y-14547786D01*
X6492714Y-14590643D01*
X6478428Y-14647786D01*
X6478428Y-14762071D01*
X6492714Y-14790643D01*
X6507000Y-14804929D01*
X6535571Y-14819214D01*
X6592714Y-14819214D01*
X6621285Y-14804929D01*
X6635571Y-14790643D01*
X6649857Y-14762071D01*
X6649857Y-14690643D01*
X6635571Y-14662071D01*
X6621285Y-14647786D01*
X6592714Y-14633500D01*
X6535571Y-14633500D01*
X6507000Y-14647786D01*
X6492714Y-14662071D01*
X6478428Y-14690643D01*
X6921285Y-14519214D02*
X6778428Y-14519214D01*
X6764143Y-14662071D01*
X6778428Y-14647786D01*
X6807000Y-14633500D01*
X6878428Y-14633500D01*
X6907000Y-14647786D01*
X6921285Y-14662071D01*
X6935571Y-14690643D01*
X6935571Y-14762071D01*
X6921285Y-14790643D01*
X6907000Y-14804929D01*
X6878428Y-14819214D01*
X6807000Y-14819214D01*
X6778428Y-14804929D01*
X6764143Y-14790643D01*
X7292714Y-14819214D02*
X7292714Y-14519214D01*
X7421285Y-14819214D02*
X7421285Y-14662071D01*
X7407000Y-14633500D01*
X7378428Y-14619214D01*
X7335571Y-14619214D01*
X7307000Y-14633500D01*
X7292714Y-14647786D01*
X7607000Y-14819214D02*
X7578428Y-14804929D01*
X7564143Y-14790643D01*
X7549857Y-14762071D01*
X7549857Y-14676357D01*
X7564143Y-14647786D01*
X7578428Y-14633500D01*
X7607000Y-14619214D01*
X7649857Y-14619214D01*
X7678428Y-14633500D01*
X7692714Y-14647786D01*
X7707000Y-14676357D01*
X7707000Y-14762071D01*
X7692714Y-14790643D01*
X7678428Y-14804929D01*
X7649857Y-14819214D01*
X7607000Y-14819214D01*
X7878428Y-14819214D02*
X7849857Y-14804929D01*
X7835571Y-14776357D01*
X7835571Y-14519214D01*
X8107000Y-14804929D02*
X8078428Y-14819214D01*
X8021286Y-14819214D01*
X7992714Y-14804929D01*
X7978428Y-14776357D01*
X7978428Y-14662071D01*
X7992714Y-14633500D01*
X8021286Y-14619214D01*
X8078428Y-14619214D01*
X8107000Y-14633500D01*
X8121286Y-14662071D01*
X8121286Y-14690643D01*
X7978428Y-14719214D01*
X8235571Y-14804929D02*
X8264143Y-14819214D01*
X8321286Y-14819214D01*
X8349857Y-14804929D01*
X8364143Y-14776357D01*
X8364143Y-14762071D01*
X8349857Y-14733500D01*
X8321286Y-14719214D01*
X8278428Y-14719214D01*
X8249857Y-14704929D01*
X8235571Y-14676357D01*
X8235571Y-14662071D01*
X8249857Y-14633500D01*
X8278428Y-14619214D01*
X8321286Y-14619214D01*
X8349857Y-14633500D01*
X8464143Y-14933500D02*
X8478429Y-14919214D01*
X8507000Y-14876357D01*
X8521286Y-14847786D01*
X8535571Y-14804929D01*
X8549857Y-14733500D01*
X8549857Y-14676357D01*
X8535571Y-14604929D01*
X8521286Y-14562071D01*
X8507000Y-14533500D01*
X8478429Y-14490643D01*
X8464143Y-14476357D01*
X1707000Y-15079500D02*
G75*
G03X1707000Y-15079500I-49530J0D01*
G01*
X2035571Y-14915214D02*
X2064143Y-14915214D01*
X2092714Y-14929500D01*
X2107000Y-14943786D01*
X2121286Y-14972357D01*
X2135571Y-15029500D01*
X2135571Y-15100929D01*
X2121286Y-15158071D01*
X2107000Y-15186643D01*
X2092714Y-15200929D01*
X2064143Y-15215214D01*
X2035571Y-15215214D01*
X2007000Y-15200929D01*
X1992714Y-15186643D01*
X1978428Y-15158071D01*
X1964143Y-15100929D01*
X1964143Y-15029500D01*
X1978428Y-14972357D01*
X1992714Y-14943786D01*
X2007000Y-14929500D01*
X2035571Y-14915214D01*
X2264143Y-15186643D02*
X2278429Y-15200929D01*
X2264143Y-15215214D01*
X2249857Y-15200929D01*
X2264143Y-15186643D01*
X2264143Y-15215214D01*
X2421286Y-15215214D02*
X2478428Y-15215214D01*
X2507000Y-15200929D01*
X2521286Y-15186643D01*
X2549857Y-15143786D01*
X2564143Y-15086643D01*
X2564143Y-14972357D01*
X2549857Y-14943786D01*
X2535571Y-14929500D01*
X2507000Y-14915214D01*
X2449857Y-14915214D01*
X2421286Y-14929500D01*
X2407000Y-14943786D01*
X2392714Y-14972357D01*
X2392714Y-15043786D01*
X2407000Y-15072357D01*
X2421286Y-15086643D01*
X2449857Y-15100929D01*
X2507000Y-15100929D01*
X2535571Y-15086643D01*
X2549857Y-15072357D01*
X2564143Y-15043786D01*
X2707000Y-15215214D02*
X2764143Y-15215214D01*
X2792714Y-15200929D01*
X2807000Y-15186643D01*
X2835571Y-15143786D01*
X2849857Y-15086643D01*
X2849857Y-14972357D01*
X2835571Y-14943786D01*
X2821286Y-14929500D01*
X2792714Y-14915214D01*
X2735571Y-14915214D01*
X2707000Y-14929500D01*
X2692714Y-14943786D01*
X2678429Y-14972357D01*
X2678429Y-15043786D01*
X2692714Y-15072357D01*
X2707000Y-15086643D01*
X2735571Y-15100929D01*
X2792714Y-15100929D01*
X2821286Y-15086643D01*
X2835571Y-15072357D01*
X2849857Y-15043786D01*
X2978428Y-15215214D02*
X2978428Y-15015214D01*
X2978428Y-15043786D02*
X2992714Y-15029500D01*
X3021286Y-15015214D01*
X3064143Y-15015214D01*
X3092714Y-15029500D01*
X3107000Y-15058071D01*
X3107000Y-15215214D01*
X3107000Y-15058071D02*
X3121286Y-15029500D01*
X3149857Y-15015214D01*
X3192714Y-15015214D01*
X3221286Y-15029500D01*
X3235571Y-15058071D01*
X3235571Y-15215214D01*
X3378428Y-15215214D02*
X3378428Y-15015214D01*
X3378428Y-15043786D02*
X3392714Y-15029500D01*
X3421286Y-15015214D01*
X3464143Y-15015214D01*
X3492714Y-15029500D01*
X3507000Y-15058071D01*
X3507000Y-15215214D01*
X3507000Y-15058071D02*
X3521286Y-15029500D01*
X3549857Y-15015214D01*
X3592714Y-15015214D01*
X3621286Y-15029500D01*
X3635571Y-15058071D01*
X3635571Y-15215214D01*
X4221286Y-14900929D02*
X3964143Y-15286643D01*
X4607000Y-14915214D02*
X4635571Y-14915214D01*
X4664143Y-14929500D01*
X4678428Y-14943786D01*
X4692714Y-14972357D01*
X4707000Y-15029500D01*
X4707000Y-15100929D01*
X4692714Y-15158071D01*
X4678428Y-15186643D01*
X4664143Y-15200929D01*
X4635571Y-15215214D01*
X4607000Y-15215214D01*
X4578428Y-15200929D01*
X4564143Y-15186643D01*
X4549857Y-15158071D01*
X4535571Y-15100929D01*
X4535571Y-15029500D01*
X4549857Y-14972357D01*
X4564143Y-14943786D01*
X4578428Y-14929500D01*
X4607000Y-14915214D01*
X4835571Y-15186643D02*
X4849857Y-15200929D01*
X4835571Y-15215214D01*
X4821286Y-15200929D01*
X4835571Y-15186643D01*
X4835571Y-15215214D01*
X5035571Y-14915214D02*
X5064143Y-14915214D01*
X5092714Y-14929500D01*
X5107000Y-14943786D01*
X5121286Y-14972357D01*
X5135571Y-15029500D01*
X5135571Y-15100929D01*
X5121286Y-15158071D01*
X5107000Y-15186643D01*
X5092714Y-15200929D01*
X5064143Y-15215214D01*
X5035571Y-15215214D01*
X5007000Y-15200929D01*
X4992714Y-15186643D01*
X4978428Y-15158071D01*
X4964143Y-15100929D01*
X4964143Y-15029500D01*
X4978428Y-14972357D01*
X4992714Y-14943786D01*
X5007000Y-14929500D01*
X5035571Y-14915214D01*
X5235571Y-14915214D02*
X5421286Y-14915214D01*
X5321286Y-15029500D01*
X5364143Y-15029500D01*
X5392714Y-15043786D01*
X5407000Y-15058071D01*
X5421286Y-15086643D01*
X5421286Y-15158071D01*
X5407000Y-15186643D01*
X5392714Y-15200929D01*
X5364143Y-15215214D01*
X5278428Y-15215214D01*
X5249857Y-15200929D01*
X5235571Y-15186643D01*
X5564143Y-15215214D02*
X5621285Y-15215214D01*
X5649857Y-15200929D01*
X5664143Y-15186643D01*
X5692714Y-15143786D01*
X5707000Y-15086643D01*
X5707000Y-14972357D01*
X5692714Y-14943786D01*
X5678428Y-14929500D01*
X5649857Y-14915214D01*
X5592714Y-14915214D01*
X5564143Y-14929500D01*
X5549857Y-14943786D01*
X5535571Y-14972357D01*
X5535571Y-15043786D01*
X5549857Y-15072357D01*
X5564143Y-15086643D01*
X5592714Y-15100929D01*
X5649857Y-15100929D01*
X5678428Y-15086643D01*
X5692714Y-15072357D01*
X5707000Y-15043786D01*
X5821286Y-14915214D02*
X5821286Y-14972357D01*
X5935571Y-14915214D02*
X5935571Y-14972357D01*
X6378428Y-15329500D02*
X6364143Y-15315214D01*
X6335571Y-15272357D01*
X6321285Y-15243786D01*
X6307000Y-15200929D01*
X6292714Y-15129500D01*
X6292714Y-15072357D01*
X6307000Y-15000929D01*
X6321285Y-14958071D01*
X6335571Y-14929500D01*
X6364143Y-14886643D01*
X6378428Y-14872357D01*
X6478428Y-14943786D02*
X6492714Y-14929500D01*
X6521285Y-14915214D01*
X6592714Y-14915214D01*
X6621285Y-14929500D01*
X6635571Y-14943786D01*
X6649857Y-14972357D01*
X6649857Y-15000929D01*
X6635571Y-15043786D01*
X6464143Y-15215214D01*
X6649857Y-15215214D01*
X6907000Y-14915214D02*
X6849857Y-14915214D01*
X6821285Y-14929500D01*
X6807000Y-14943786D01*
X6778428Y-14986643D01*
X6764143Y-15043786D01*
X6764143Y-15158071D01*
X6778428Y-15186643D01*
X6792714Y-15200929D01*
X6821285Y-15215214D01*
X6878428Y-15215214D01*
X6907000Y-15200929D01*
X6921285Y-15186643D01*
X6935571Y-15158071D01*
X6935571Y-15086643D01*
X6921285Y-15058071D01*
X6907000Y-15043786D01*
X6878428Y-15029500D01*
X6821285Y-15029500D01*
X6792714Y-15043786D01*
X6778428Y-15058071D01*
X6764143Y-15086643D01*
X7192714Y-15015214D02*
X7192714Y-15215214D01*
X7121285Y-14900929D02*
X7049857Y-15115214D01*
X7235571Y-15115214D01*
X7578428Y-15215214D02*
X7578428Y-14915214D01*
X7707000Y-15215214D02*
X7707000Y-15058071D01*
X7692714Y-15029500D01*
X7664143Y-15015214D01*
X7621285Y-15015214D01*
X7592714Y-15029500D01*
X7578428Y-15043786D01*
X7892714Y-15215214D02*
X7864143Y-15200929D01*
X7849857Y-15186643D01*
X7835571Y-15158071D01*
X7835571Y-15072357D01*
X7849857Y-15043786D01*
X7864143Y-15029500D01*
X7892714Y-15015214D01*
X7935571Y-15015214D01*
X7964143Y-15029500D01*
X7978428Y-15043786D01*
X7992714Y-15072357D01*
X7992714Y-15158071D01*
X7978428Y-15186643D01*
X7964143Y-15200929D01*
X7935571Y-15215214D01*
X7892714Y-15215214D01*
X8164143Y-15215214D02*
X8135571Y-15200929D01*
X8121286Y-15172357D01*
X8121286Y-14915214D01*
X8392714Y-15200929D02*
X8364143Y-15215214D01*
X8307000Y-15215214D01*
X8278428Y-15200929D01*
X8264143Y-15172357D01*
X8264143Y-15058071D01*
X8278428Y-15029500D01*
X8307000Y-15015214D01*
X8364143Y-15015214D01*
X8392714Y-15029500D01*
X8407000Y-15058071D01*
X8407000Y-15086643D01*
X8264143Y-15115214D01*
X8521286Y-15200929D02*
X8549857Y-15215214D01*
X8607000Y-15215214D01*
X8635571Y-15200929D01*
X8649857Y-15172357D01*
X8649857Y-15158071D01*
X8635571Y-15129500D01*
X8607000Y-15115214D01*
X8564143Y-15115214D01*
X8535571Y-15100929D01*
X8521286Y-15072357D01*
X8521286Y-15058071D01*
X8535571Y-15029500D01*
X8564143Y-15015214D01*
X8607000Y-15015214D01*
X8635571Y-15029500D01*
X9007000Y-15100929D02*
X9235571Y-15100929D01*
X9121286Y-15215214D02*
X9121286Y-14986643D01*
X9578428Y-14915214D02*
X9764143Y-14915214D01*
X9664143Y-15029500D01*
X9707000Y-15029500D01*
X9735571Y-15043786D01*
X9749857Y-15058071D01*
X9764143Y-15086643D01*
X9764143Y-15158071D01*
X9749857Y-15186643D01*
X9735571Y-15200929D01*
X9707000Y-15215214D01*
X9621286Y-15215214D01*
X9592714Y-15200929D01*
X9578428Y-15186643D01*
X10107000Y-15200929D02*
X10135571Y-15215214D01*
X10192714Y-15215214D01*
X10221286Y-15200929D01*
X10235571Y-15172357D01*
X10235571Y-15158071D01*
X10221286Y-15129500D01*
X10192714Y-15115214D01*
X10149857Y-15115214D01*
X10121286Y-15100929D01*
X10107000Y-15072357D01*
X10107000Y-15058071D01*
X10121286Y-15029500D01*
X10149857Y-15015214D01*
X10192714Y-15015214D01*
X10221286Y-15029500D01*
X10407000Y-15215214D02*
X10378428Y-15200929D01*
X10364143Y-15172357D01*
X10364143Y-14915214D01*
X10564143Y-15215214D02*
X10535571Y-15200929D01*
X10521286Y-15186643D01*
X10507000Y-15158071D01*
X10507000Y-15072357D01*
X10521286Y-15043786D01*
X10535571Y-15029500D01*
X10564143Y-15015214D01*
X10607000Y-15015214D01*
X10635571Y-15029500D01*
X10649857Y-15043786D01*
X10664143Y-15072357D01*
X10664143Y-15158071D01*
X10649857Y-15186643D01*
X10635571Y-15200929D01*
X10607000Y-15215214D01*
X10564143Y-15215214D01*
X10749857Y-15015214D02*
X10864143Y-15015214D01*
X10792714Y-14915214D02*
X10792714Y-15172357D01*
X10807000Y-15200929D01*
X10835571Y-15215214D01*
X10864143Y-15215214D01*
X10949857Y-15200929D02*
X10978429Y-15215214D01*
X11035571Y-15215214D01*
X11064143Y-15200929D01*
X11078429Y-15172357D01*
X11078429Y-15158071D01*
X11064143Y-15129500D01*
X11035571Y-15115214D01*
X10992714Y-15115214D01*
X10964143Y-15100929D01*
X10949857Y-15072357D01*
X10949857Y-15058071D01*
X10964143Y-15029500D01*
X10992714Y-15015214D01*
X11035571Y-15015214D01*
X11064143Y-15029500D01*
X11178428Y-15329500D02*
X11192714Y-15315214D01*
X11221286Y-15272357D01*
X11235571Y-15243786D01*
X11249857Y-15200929D01*
X11264143Y-15129500D01*
X11264143Y-15072357D01*
X11249857Y-15000929D01*
X11235571Y-14958071D01*
X11221286Y-14929500D01*
X11192714Y-14886643D01*
X11178428Y-14872357D01*
X1652000Y-15420500D02*
X1652000Y-15530500D01*
X1597000Y-15475500D02*
X1707000Y-15475500D01*
X2135571Y-15611214D02*
X1964143Y-15611214D01*
X2049857Y-15611214D02*
X2049857Y-15311214D01*
X2021286Y-15354071D01*
X1992714Y-15382643D01*
X1964143Y-15396929D01*
X2264143Y-15582643D02*
X2278429Y-15596929D01*
X2264143Y-15611214D01*
X2249857Y-15596929D01*
X2264143Y-15582643D01*
X2264143Y-15611214D01*
X2564143Y-15611214D02*
X2392714Y-15611214D01*
X2478428Y-15611214D02*
X2478428Y-15311214D01*
X2449857Y-15354071D01*
X2421286Y-15382643D01*
X2392714Y-15396929D01*
X2749857Y-15311214D02*
X2778429Y-15311214D01*
X2807000Y-15325500D01*
X2821286Y-15339786D01*
X2835571Y-15368357D01*
X2849857Y-15425500D01*
X2849857Y-15496929D01*
X2835571Y-15554071D01*
X2821286Y-15582643D01*
X2807000Y-15596929D01*
X2778429Y-15611214D01*
X2749857Y-15611214D01*
X2721286Y-15596929D01*
X2707000Y-15582643D01*
X2692714Y-15554071D01*
X2678429Y-15496929D01*
X2678429Y-15425500D01*
X2692714Y-15368357D01*
X2707000Y-15339786D01*
X2721286Y-15325500D01*
X2749857Y-15311214D01*
X2978428Y-15611214D02*
X2978428Y-15411214D01*
X2978428Y-15439786D02*
X2992714Y-15425500D01*
X3021286Y-15411214D01*
X3064143Y-15411214D01*
X3092714Y-15425500D01*
X3107000Y-15454071D01*
X3107000Y-15611214D01*
X3107000Y-15454071D02*
X3121286Y-15425500D01*
X3149857Y-15411214D01*
X3192714Y-15411214D01*
X3221286Y-15425500D01*
X3235571Y-15454071D01*
X3235571Y-15611214D01*
X3378428Y-15611214D02*
X3378428Y-15411214D01*
X3378428Y-15439786D02*
X3392714Y-15425500D01*
X3421286Y-15411214D01*
X3464143Y-15411214D01*
X3492714Y-15425500D01*
X3507000Y-15454071D01*
X3507000Y-15611214D01*
X3507000Y-15454071D02*
X3521286Y-15425500D01*
X3549857Y-15411214D01*
X3592714Y-15411214D01*
X3621286Y-15425500D01*
X3635571Y-15454071D01*
X3635571Y-15611214D01*
X4221286Y-15296929D02*
X3964143Y-15682643D01*
X4607000Y-15311214D02*
X4635571Y-15311214D01*
X4664143Y-15325500D01*
X4678428Y-15339786D01*
X4692714Y-15368357D01*
X4707000Y-15425500D01*
X4707000Y-15496929D01*
X4692714Y-15554071D01*
X4678428Y-15582643D01*
X4664143Y-15596929D01*
X4635571Y-15611214D01*
X4607000Y-15611214D01*
X4578428Y-15596929D01*
X4564143Y-15582643D01*
X4549857Y-15554071D01*
X4535571Y-15496929D01*
X4535571Y-15425500D01*
X4549857Y-15368357D01*
X4564143Y-15339786D01*
X4578428Y-15325500D01*
X4607000Y-15311214D01*
X4835571Y-15582643D02*
X4849857Y-15596929D01*
X4835571Y-15611214D01*
X4821286Y-15596929D01*
X4835571Y-15582643D01*
X4835571Y-15611214D01*
X5035571Y-15311214D02*
X5064143Y-15311214D01*
X5092714Y-15325500D01*
X5107000Y-15339786D01*
X5121286Y-15368357D01*
X5135571Y-15425500D01*
X5135571Y-15496929D01*
X5121286Y-15554071D01*
X5107000Y-15582643D01*
X5092714Y-15596929D01*
X5064143Y-15611214D01*
X5035571Y-15611214D01*
X5007000Y-15596929D01*
X4992714Y-15582643D01*
X4978428Y-15554071D01*
X4964143Y-15496929D01*
X4964143Y-15425500D01*
X4978428Y-15368357D01*
X4992714Y-15339786D01*
X5007000Y-15325500D01*
X5035571Y-15311214D01*
X5392714Y-15411214D02*
X5392714Y-15611214D01*
X5321286Y-15296929D02*
X5249857Y-15511214D01*
X5435571Y-15511214D01*
X5521286Y-15311214D02*
X5707000Y-15311214D01*
X5607000Y-15425500D01*
X5649857Y-15425500D01*
X5678428Y-15439786D01*
X5692714Y-15454071D01*
X5707000Y-15482643D01*
X5707000Y-15554071D01*
X5692714Y-15582643D01*
X5678428Y-15596929D01*
X5649857Y-15611214D01*
X5564143Y-15611214D01*
X5535571Y-15596929D01*
X5521286Y-15582643D01*
X5821286Y-15311214D02*
X5821286Y-15368357D01*
X5935571Y-15311214D02*
X5935571Y-15368357D01*
X6378428Y-15725500D02*
X6364143Y-15711214D01*
X6335571Y-15668357D01*
X6321285Y-15639786D01*
X6307000Y-15596929D01*
X6292714Y-15525500D01*
X6292714Y-15468357D01*
X6307000Y-15396929D01*
X6321285Y-15354071D01*
X6335571Y-15325500D01*
X6364143Y-15282643D01*
X6378428Y-15268357D01*
X6621285Y-15311214D02*
X6564143Y-15311214D01*
X6535571Y-15325500D01*
X6521285Y-15339786D01*
X6492714Y-15382643D01*
X6478428Y-15439786D01*
X6478428Y-15554071D01*
X6492714Y-15582643D01*
X6507000Y-15596929D01*
X6535571Y-15611214D01*
X6592714Y-15611214D01*
X6621285Y-15596929D01*
X6635571Y-15582643D01*
X6649857Y-15554071D01*
X6649857Y-15482643D01*
X6635571Y-15454071D01*
X6621285Y-15439786D01*
X6592714Y-15425500D01*
X6535571Y-15425500D01*
X6507000Y-15439786D01*
X6492714Y-15454071D01*
X6478428Y-15482643D01*
X6921285Y-15311214D02*
X6778428Y-15311214D01*
X6764143Y-15454071D01*
X6778428Y-15439786D01*
X6807000Y-15425500D01*
X6878428Y-15425500D01*
X6907000Y-15439786D01*
X6921285Y-15454071D01*
X6935571Y-15482643D01*
X6935571Y-15554071D01*
X6921285Y-15582643D01*
X6907000Y-15596929D01*
X6878428Y-15611214D01*
X6807000Y-15611214D01*
X6778428Y-15596929D01*
X6764143Y-15582643D01*
X7292714Y-15611214D02*
X7292714Y-15311214D01*
X7421285Y-15611214D02*
X7421285Y-15454071D01*
X7407000Y-15425500D01*
X7378428Y-15411214D01*
X7335571Y-15411214D01*
X7307000Y-15425500D01*
X7292714Y-15439786D01*
X7607000Y-15611214D02*
X7578428Y-15596929D01*
X7564143Y-15582643D01*
X7549857Y-15554071D01*
X7549857Y-15468357D01*
X7564143Y-15439786D01*
X7578428Y-15425500D01*
X7607000Y-15411214D01*
X7649857Y-15411214D01*
X7678428Y-15425500D01*
X7692714Y-15439786D01*
X7707000Y-15468357D01*
X7707000Y-15554071D01*
X7692714Y-15582643D01*
X7678428Y-15596929D01*
X7649857Y-15611214D01*
X7607000Y-15611214D01*
X7878428Y-15611214D02*
X7849857Y-15596929D01*
X7835571Y-15568357D01*
X7835571Y-15311214D01*
X8107000Y-15596929D02*
X8078428Y-15611214D01*
X8021286Y-15611214D01*
X7992714Y-15596929D01*
X7978428Y-15568357D01*
X7978428Y-15454071D01*
X7992714Y-15425500D01*
X8021286Y-15411214D01*
X8078428Y-15411214D01*
X8107000Y-15425500D01*
X8121286Y-15454071D01*
X8121286Y-15482643D01*
X7978428Y-15511214D01*
X8235571Y-15596929D02*
X8264143Y-15611214D01*
X8321286Y-15611214D01*
X8349857Y-15596929D01*
X8364143Y-15568357D01*
X8364143Y-15554071D01*
X8349857Y-15525500D01*
X8321286Y-15511214D01*
X8278428Y-15511214D01*
X8249857Y-15496929D01*
X8235571Y-15468357D01*
X8235571Y-15454071D01*
X8249857Y-15425500D01*
X8278428Y-15411214D01*
X8321286Y-15411214D01*
X8349857Y-15425500D01*
X8464143Y-15725500D02*
X8478429Y-15711214D01*
X8507000Y-15668357D01*
X8521286Y-15639786D01*
X8535571Y-15596929D01*
X8549857Y-15525500D01*
X8549857Y-15468357D01*
X8535571Y-15396929D01*
X8521286Y-15354071D01*
X8507000Y-15325500D01*
X8478429Y-15282643D01*
X8464143Y-15268357D01*
X1685054Y-15924484D02*
X1685054Y-15818516D01*
X1579086Y-15818516D01*
X1579086Y-15924484D01*
X1685054Y-15924484D01*
X2135571Y-16007214D02*
X1964143Y-16007214D01*
X2049857Y-16007214D02*
X2049857Y-15707214D01*
X2021286Y-15750071D01*
X1992714Y-15778643D01*
X1964143Y-15792929D01*
X2264143Y-15978643D02*
X2278429Y-15992929D01*
X2264143Y-16007214D01*
X2249857Y-15992929D01*
X2264143Y-15978643D01*
X2264143Y-16007214D01*
X2549857Y-15707214D02*
X2407000Y-15707214D01*
X2392714Y-15850071D01*
X2407000Y-15835786D01*
X2435571Y-15821500D01*
X2507000Y-15821500D01*
X2535571Y-15835786D01*
X2549857Y-15850071D01*
X2564143Y-15878643D01*
X2564143Y-15950071D01*
X2549857Y-15978643D01*
X2535571Y-15992929D01*
X2507000Y-16007214D01*
X2435571Y-16007214D01*
X2407000Y-15992929D01*
X2392714Y-15978643D01*
X2749857Y-15707214D02*
X2778429Y-15707214D01*
X2807000Y-15721500D01*
X2821286Y-15735786D01*
X2835571Y-15764357D01*
X2849857Y-15821500D01*
X2849857Y-15892929D01*
X2835571Y-15950071D01*
X2821286Y-15978643D01*
X2807000Y-15992929D01*
X2778429Y-16007214D01*
X2749857Y-16007214D01*
X2721286Y-15992929D01*
X2707000Y-15978643D01*
X2692714Y-15950071D01*
X2678429Y-15892929D01*
X2678429Y-15821500D01*
X2692714Y-15764357D01*
X2707000Y-15735786D01*
X2721286Y-15721500D01*
X2749857Y-15707214D01*
X2978428Y-16007214D02*
X2978428Y-15807214D01*
X2978428Y-15835786D02*
X2992714Y-15821500D01*
X3021286Y-15807214D01*
X3064143Y-15807214D01*
X3092714Y-15821500D01*
X3107000Y-15850071D01*
X3107000Y-16007214D01*
X3107000Y-15850071D02*
X3121286Y-15821500D01*
X3149857Y-15807214D01*
X3192714Y-15807214D01*
X3221286Y-15821500D01*
X3235571Y-15850071D01*
X3235571Y-16007214D01*
X3378428Y-16007214D02*
X3378428Y-15807214D01*
X3378428Y-15835786D02*
X3392714Y-15821500D01*
X3421286Y-15807214D01*
X3464143Y-15807214D01*
X3492714Y-15821500D01*
X3507000Y-15850071D01*
X3507000Y-16007214D01*
X3507000Y-15850071D02*
X3521286Y-15821500D01*
X3549857Y-15807214D01*
X3592714Y-15807214D01*
X3621286Y-15821500D01*
X3635571Y-15850071D01*
X3635571Y-16007214D01*
X4221286Y-15692929D02*
X3964143Y-16078643D01*
X4607000Y-15707214D02*
X4635571Y-15707214D01*
X4664143Y-15721500D01*
X4678428Y-15735786D01*
X4692714Y-15764357D01*
X4707000Y-15821500D01*
X4707000Y-15892929D01*
X4692714Y-15950071D01*
X4678428Y-15978643D01*
X4664143Y-15992929D01*
X4635571Y-16007214D01*
X4607000Y-16007214D01*
X4578428Y-15992929D01*
X4564143Y-15978643D01*
X4549857Y-15950071D01*
X4535571Y-15892929D01*
X4535571Y-15821500D01*
X4549857Y-15764357D01*
X4564143Y-15735786D01*
X4578428Y-15721500D01*
X4607000Y-15707214D01*
X4835571Y-15978643D02*
X4849857Y-15992929D01*
X4835571Y-16007214D01*
X4821286Y-15992929D01*
X4835571Y-15978643D01*
X4835571Y-16007214D01*
X5035571Y-15707214D02*
X5064143Y-15707214D01*
X5092714Y-15721500D01*
X5107000Y-15735786D01*
X5121286Y-15764357D01*
X5135571Y-15821500D01*
X5135571Y-15892929D01*
X5121286Y-15950071D01*
X5107000Y-15978643D01*
X5092714Y-15992929D01*
X5064143Y-16007214D01*
X5035571Y-16007214D01*
X5007000Y-15992929D01*
X4992714Y-15978643D01*
X4978428Y-15950071D01*
X4964143Y-15892929D01*
X4964143Y-15821500D01*
X4978428Y-15764357D01*
X4992714Y-15735786D01*
X5007000Y-15721500D01*
X5035571Y-15707214D01*
X5407000Y-15707214D02*
X5264143Y-15707214D01*
X5249857Y-15850071D01*
X5264143Y-15835786D01*
X5292714Y-15821500D01*
X5364143Y-15821500D01*
X5392714Y-15835786D01*
X5407000Y-15850071D01*
X5421286Y-15878643D01*
X5421286Y-15950071D01*
X5407000Y-15978643D01*
X5392714Y-15992929D01*
X5364143Y-16007214D01*
X5292714Y-16007214D01*
X5264143Y-15992929D01*
X5249857Y-15978643D01*
X5564143Y-16007214D02*
X5621285Y-16007214D01*
X5649857Y-15992929D01*
X5664143Y-15978643D01*
X5692714Y-15935786D01*
X5707000Y-15878643D01*
X5707000Y-15764357D01*
X5692714Y-15735786D01*
X5678428Y-15721500D01*
X5649857Y-15707214D01*
X5592714Y-15707214D01*
X5564143Y-15721500D01*
X5549857Y-15735786D01*
X5535571Y-15764357D01*
X5535571Y-15835786D01*
X5549857Y-15864357D01*
X5564143Y-15878643D01*
X5592714Y-15892929D01*
X5649857Y-15892929D01*
X5678428Y-15878643D01*
X5692714Y-15864357D01*
X5707000Y-15835786D01*
X5821286Y-15707214D02*
X5821286Y-15764357D01*
X5935571Y-15707214D02*
X5935571Y-15764357D01*
X6378428Y-16121500D02*
X6364143Y-16107214D01*
X6335571Y-16064357D01*
X6321285Y-16035786D01*
X6307000Y-15992929D01*
X6292714Y-15921500D01*
X6292714Y-15864357D01*
X6307000Y-15792929D01*
X6321285Y-15750071D01*
X6335571Y-15721500D01*
X6364143Y-15678643D01*
X6378428Y-15664357D01*
X6478428Y-15735786D02*
X6492714Y-15721500D01*
X6521285Y-15707214D01*
X6592714Y-15707214D01*
X6621285Y-15721500D01*
X6635571Y-15735786D01*
X6649857Y-15764357D01*
X6649857Y-15792929D01*
X6635571Y-15835786D01*
X6464143Y-16007214D01*
X6649857Y-16007214D01*
X6921285Y-15707214D02*
X6778428Y-15707214D01*
X6764143Y-15850071D01*
X6778428Y-15835786D01*
X6807000Y-15821500D01*
X6878428Y-15821500D01*
X6907000Y-15835786D01*
X6921285Y-15850071D01*
X6935571Y-15878643D01*
X6935571Y-15950071D01*
X6921285Y-15978643D01*
X6907000Y-15992929D01*
X6878428Y-16007214D01*
X6807000Y-16007214D01*
X6778428Y-15992929D01*
X6764143Y-15978643D01*
X7192714Y-15707214D02*
X7135571Y-15707214D01*
X7107000Y-15721500D01*
X7092714Y-15735786D01*
X7064143Y-15778643D01*
X7049857Y-15835786D01*
X7049857Y-15950071D01*
X7064143Y-15978643D01*
X7078428Y-15992929D01*
X7107000Y-16007214D01*
X7164143Y-16007214D01*
X7192714Y-15992929D01*
X7207000Y-15978643D01*
X7221285Y-15950071D01*
X7221285Y-15878643D01*
X7207000Y-15850071D01*
X7192714Y-15835786D01*
X7164143Y-15821500D01*
X7107000Y-15821500D01*
X7078428Y-15835786D01*
X7064143Y-15850071D01*
X7049857Y-15878643D01*
X7578428Y-16007214D02*
X7578428Y-15707214D01*
X7707000Y-16007214D02*
X7707000Y-15850071D01*
X7692714Y-15821500D01*
X7664143Y-15807214D01*
X7621285Y-15807214D01*
X7592714Y-15821500D01*
X7578428Y-15835786D01*
X7892714Y-16007214D02*
X7864143Y-15992929D01*
X7849857Y-15978643D01*
X7835571Y-15950071D01*
X7835571Y-15864357D01*
X7849857Y-15835786D01*
X7864143Y-15821500D01*
X7892714Y-15807214D01*
X7935571Y-15807214D01*
X7964143Y-15821500D01*
X7978428Y-15835786D01*
X7992714Y-15864357D01*
X7992714Y-15950071D01*
X7978428Y-15978643D01*
X7964143Y-15992929D01*
X7935571Y-16007214D01*
X7892714Y-16007214D01*
X8164143Y-16007214D02*
X8135571Y-15992929D01*
X8121286Y-15964357D01*
X8121286Y-15707214D01*
X8392714Y-15992929D02*
X8364143Y-16007214D01*
X8307000Y-16007214D01*
X8278428Y-15992929D01*
X8264143Y-15964357D01*
X8264143Y-15850071D01*
X8278428Y-15821500D01*
X8307000Y-15807214D01*
X8364143Y-15807214D01*
X8392714Y-15821500D01*
X8407000Y-15850071D01*
X8407000Y-15878643D01*
X8264143Y-15907214D01*
X8521286Y-15992929D02*
X8549857Y-16007214D01*
X8607000Y-16007214D01*
X8635571Y-15992929D01*
X8649857Y-15964357D01*
X8649857Y-15950071D01*
X8635571Y-15921500D01*
X8607000Y-15907214D01*
X8564143Y-15907214D01*
X8535571Y-15892929D01*
X8521286Y-15864357D01*
X8521286Y-15850071D01*
X8535571Y-15821500D01*
X8564143Y-15807214D01*
X8607000Y-15807214D01*
X8635571Y-15821500D01*
X8749857Y-16121500D02*
X8764143Y-16107214D01*
X8792714Y-16064357D01*
X8807000Y-16035786D01*
X8821286Y-15992929D01*
X8835571Y-15921500D01*
X8835571Y-15864357D01*
X8821286Y-15792929D01*
X8807000Y-15750071D01*
X8792714Y-15721500D01*
X8764143Y-15678643D01*
X8749857Y-15664357D01*
M02*
