M48
;DRILL file {KiCad 4.0.5+dfsg1-4} date Sun Sep 23 14:38:42 2018
;FORMAT={-:-/ absolute / metric / decimal}
FMAT,2
METRIC,TZ
T1C3.988
%
G90
G05
M71
T1
X66.35Y-63.07
X66.35Y-91.057
X68.715Y-148.208
X68.733Y-167.258
X71.112Y-110.108
X73.495Y-129.157
X78.258Y-148.208
X85.4Y-91.057
X90.147Y-148.208
X94.925Y-110.108
X99.688Y-129.157
X104.45Y-63.07
X104.45Y-91.057
X109.212Y-148.208
X113.975Y-110.108
X118.737Y-129.157
X123.5Y-63.07
X123.5Y-91.057
X128.262Y-148.208
X133.025Y-110.108
X137.787Y-129.157
X142.55Y-63.07
X142.55Y-91.057
X147.312Y-148.208
X152.075Y-110.108
X156.838Y-129.157
X161.6Y-63.07
X161.6Y-91.057
X166.362Y-148.208
X171.125Y-110.108
X175.888Y-129.157
X180.65Y-91.057
X185.412Y-148.208
X190.175Y-63.07
X190.175Y-110.108
X194.938Y-129.157
X199.7Y-91.057
X204.462Y-148.208
X209.225Y-63.07
X209.225Y-110.108
X213.988Y-129.157
X218.75Y-91.057
X223.512Y-148.208
X228.275Y-63.07
X228.275Y-110.108
X233.038Y-129.157
X237.8Y-91.057
X242.562Y-148.208
X247.325Y-63.07
X247.325Y-110.108
X252.088Y-129.157
X256.85Y-91.057
X261.612Y-148.208
X266.375Y-110.108
X271.138Y-129.157
X275.9Y-63.07
X275.9Y-91.057
X280.662Y-148.208
X285.425Y-110.108
X290.188Y-129.157
X294.95Y-63.07
X294.95Y-91.057
X299.712Y-148.208
X304.475Y-110.108
X309.238Y-129.157
X314.Y-63.07
X314.Y-91.057
X316.365Y-148.208
X321.145Y-129.157
X323.525Y-91.057
X325.906Y-148.208
X328.288Y-110.108
X330.659Y-167.258
X330.685Y-119.632
X333.05Y-63.07
X333.05Y-91.057
X357.112Y-63.07
X357.112Y-91.057
X357.112Y-110.108
X357.112Y-167.258
X376.162Y-63.07
X376.162Y-91.057
X376.162Y-110.108
X376.162Y-148.208
X376.162Y-167.258
X395.212Y-63.07
X395.212Y-91.057
X395.212Y-110.108
X395.212Y-167.258
X419.275Y-91.057
X419.275Y-110.108
X419.275Y-129.157
X419.275Y-148.208
X428.8Y-167.258
X438.325Y-91.057
X438.325Y-110.108
X438.325Y-129.157
X438.325Y-148.208
X457.375Y-91.057
X457.375Y-110.108
X457.375Y-129.157
X457.375Y-148.208
X457.375Y-167.258
X476.425Y-91.057
X476.425Y-119.632
X476.425Y-157.732
T1
X90.069Y-167.258G85X92.581Y-167.258
G05
X111.45Y-167.258G85X116.45Y-167.258
G05
X133.025Y-167.258G85X138.025Y-167.258
G05
X154.469Y-167.258G85X164.231Y-167.258
G05
X178.194Y-167.258G85X192.706Y-167.258
G05
X206.669Y-167.258G85X216.331Y-167.258
G05
X240.244Y-167.258G85X242.756Y-167.258
G05
X259.1Y-167.258G85X264.1Y-167.258
G05
X282.95Y-167.258G85X287.95Y-167.258
G05
X306.794Y-167.258G85X309.306Y-167.258
G05
T0
M30
